<svg width="21" height="21" viewBox="0 0 21 21" fill="none" xmlns="http://www.w3.org/2000/svg">
<g clip-path="url(#clip0_2478_15334)">
<path d="M20.1932 10.5009C20.1932 11.7737 19.9425 13.0341 19.4554 14.21C18.9683 15.3859 18.2544 16.4544 17.3544 17.3544C16.4544 18.2544 15.3859 18.9683 14.21 19.4554C13.0341 19.9425 11.7737 20.1932 10.5009 20.1932C7.93034 20.1932 5.46507 19.1721 3.6474 17.3544C1.82974 15.5367 0.808594 13.0715 0.808594 10.5009C0.808594 7.93034 1.82974 5.46507 3.6474 3.64741C5.46507 1.82974 7.93034 0.808594 10.5009 0.808594C11.7737 0.808594 13.0341 1.05929 14.21 1.54638C15.3859 2.03346 16.4544 2.74739 17.3544 3.64741C18.2544 4.54742 18.9683 5.61589 19.4554 6.79182C19.9425 7.96774 20.1932 9.22809 20.1932 10.5009ZM18.5826 10.5009C18.5826 8.35751 17.7311 6.30191 16.2155 4.78631C14.6999 3.2707 12.6443 2.41924 10.5009 2.41924C8.35751 2.41924 6.30191 3.2707 4.78631 4.78631C3.2707 6.30191 2.41924 8.35751 2.41924 10.5009C2.41924 12.6443 3.2707 14.6999 4.78631 16.2155C6.30191 17.7311 8.35751 18.5826 10.5009 18.5826C12.6443 18.5826 14.6999 17.7311 16.2155 16.2155C17.7311 14.6999 18.5826 12.6443 18.5826 10.5009Z" fill="#285471"/>
<path d="M7.35141 11.197C7.92949 11.197 8.39813 10.7283 8.39813 10.1502C8.39813 9.57215 7.92949 9.10352 7.35141 9.10352C6.77332 9.10352 6.30469 9.57215 6.30469 10.1502C6.30469 10.7283 6.77332 11.197 7.35141 11.197Z" fill="#285471"/>
<path d="M13.6483 11.197C14.2264 11.197 14.695 10.7283 14.695 10.1502C14.695 9.57215 14.2264 9.10352 13.6483 9.10352C13.0702 9.10352 12.6016 9.57215 12.6016 10.1502C12.6016 10.7283 13.0702 11.197 13.6483 11.197Z" fill="#285471"/>
<path d="M12.9327 14.592C11.475 15.6223 9.74821 15.6584 8.24294 14.7068C8.01544 14.5635 7.86586 14.4129 7.79422 14.2548C7.56618 13.7553 8.02555 13.2048 8.5686 13.3074C8.75563 13.3435 8.97711 13.5116 9.16333 13.6166C10.0197 14.1028 10.8876 14.1217 11.767 13.6732C11.9778 13.5658 12.2001 13.3426 12.4675 13.3139C13.2222 13.2352 13.5446 14.1588 12.9327 14.592Z" fill="#285471"/>
</g>
<defs>
<clipPath id="clip0_2478_15334">
<rect width="21" height="21" fill="white"/>
</clipPath>
</defs>
</svg>
