<svg width="16" height="16" viewBox="0 0 16 16" fill="none" xmlns="http://www.w3.org/2000/svg">
<path d="M8.33733 5.00607C8.33733 5.05767 7.94746 5.63675 7.33398 6.72611C7.26826 6.846 7.21633 6.97294 7.17917 7.10451C7.163 7.15369 7.15967 7.20619 7.16948 7.25702C7.17929 7.30785 7.20192 7.35533 7.23523 7.39496C7.26854 7.43459 7.31143 7.46505 7.35981 7.48345C7.4082 7.50186 7.46049 7.5076 7.51171 7.50012C8.15492 7.30792 8.78501 7.07428 9.39802 6.80064C9.4785 6.75546 9.56771 6.72799 9.65967 6.72008C9.75163 6.71217 9.84422 6.724 9.93123 6.75477C9.17442 7.90146 8.452 8.77868 8.33733 9.04815C8.31485 9.09512 8.30412 9.14685 8.30608 9.19889C8.30804 9.25092 8.32263 9.3017 8.34859 9.34684C8.37454 9.39199 8.41109 9.43014 8.45508 9.45801C8.49906 9.48588 8.54917 9.50264 8.60107 9.50683C8.89076 9.50106 9.17986 9.47809 9.46682 9.43803C9.45932 9.52194 9.442 9.60469 9.41522 9.68457C9.05543 10.3305 8.73753 10.9988 8.46347 11.6855C8.42333 11.7945 8.36027 11.8977 8.2972 12.041C8.22822 11.9822 8.16311 11.919 8.10226 11.8518C7.51564 10.9785 6.74451 10.2445 5.84328 9.70177C5.07724 9.24446 4.3639 8.70417 3.71617 8.09067C3.2557 7.69548 2.94925 7.15063 2.85068 6.55189C2.75211 5.95314 2.86773 5.33881 3.17723 4.81687C3.41037 4.48069 3.70852 4.19466 4.05407 3.97565C4.39962 3.75664 4.78556 3.60911 5.18909 3.54177C5.59261 3.47442 6.00554 3.48863 6.40348 3.58356C6.80143 3.67849 7.17631 3.85221 7.50598 4.09445C7.83943 4.34172 8.12175 4.65131 8.33733 5.00607Z" fill="#DA0100"/>
<path d="M9.076 11.6786C9.20213 11.1339 9.46587 10.8243 10.108 9.54005C10.475 8.80617 9.90735 8.8635 9.248 8.85777C9.1448 8.7087 9.2136 8.73737 10.1596 7.40147C10.3263 7.18488 10.4777 6.95689 10.6126 6.71919C10.8132 6.33505 10.6412 6.06558 10.217 6.07131C9.47765 6.14699 8.75754 6.35273 8.08984 6.67906C8.09738 6.5823 8.12062 6.48741 8.15865 6.39812C9.51174 4.10474 9.47161 4.17927 9.74108 4.00727C10.1384 3.74828 10.5882 3.58054 11.0581 3.5161C11.528 3.45166 12.0063 3.49213 12.4587 3.6346C14.024 4.09901 14.6145 6.03118 13.1926 8.01495C12.144 9.42446 10.8364 10.6212 9.33974 11.541C9.25525 11.5932 9.16711 11.6392 9.076 11.6786Z" fill="#DA0100"/>
</svg>
