<svg width="16" height="16" viewBox="0 0 16 16" fill="none" xmlns="http://www.w3.org/2000/svg">
<path d="M10.1626 6.70037C10.137 6.65877 10.1146 6.62997 10.0986 6.59797C10.0346 6.46357 10.0986 6.36757 10.2362 6.34837C10.2874 6.34837 10.2362 6.32917 10.7514 6.42197C10.7692 6.42655 10.7857 6.43533 10.7994 6.44757C10.857 6.48277 10.8986 6.55957 10.873 6.61077C10.793 6.76117 10.6938 6.72917 10.553 6.73557C10.3328 7.08972 10.1351 7.45738 9.96103 7.83637C10.2877 8.62036 10.6806 9.37508 11.1354 10.0924C11.3114 10.0924 11.6858 10.0924 11.6474 10.2684C11.6409 10.3209 11.6146 10.369 11.5738 10.4028C11.509 10.4377 11.4363 10.4553 11.3626 10.454C11.2762 10.454 10.5434 10.454 10.457 10.4284C10.297 10.3868 10.3738 10.2012 10.4218 10.1692C10.5011 10.1326 10.5836 10.1037 10.6682 10.0828C10.5914 9.81077 10.8154 10.3772 9.77223 8.34517C9.73951 8.36976 9.71043 8.39885 9.68583 8.43157C8.81543 10.1404 8.92743 9.92277 8.89863 10.0316C8.93383 10.1372 9.02343 10.0924 9.26023 10.1468C9.49703 10.2012 9.44903 10.4476 9.22183 10.4668C8.90033 10.4522 8.57986 10.4201 8.26183 10.3708C8.03143 10.3452 8.06983 10.1052 8.20103 10.0764C8.28103 10.0572 8.36423 10.0508 8.44743 10.038C8.69703 9.64757 9.22183 8.59157 9.47783 8.02837C9.50612 7.97631 9.52094 7.91801 9.52094 7.85877C9.52094 7.79952 9.50612 7.74122 9.47783 7.68917C8.94663 6.61397 9.07143 6.64277 8.78343 6.66837C8.75679 6.66991 8.73008 6.66991 8.70343 6.66837C8.67127 6.66887 8.63975 6.65925 8.61334 6.64088C8.58693 6.6225 8.56695 6.5963 8.55623 6.56597C8.54678 6.53504 8.54691 6.50198 8.55662 6.47113C8.56633 6.44028 8.58516 6.4131 8.61063 6.39317C8.641 6.37211 8.67447 6.35591 8.70983 6.34517C8.9315 6.28236 9.16448 6.27033 9.39143 6.30997C9.54823 6.34197 9.58343 6.47957 9.50023 6.57237C9.46447 6.60483 9.42332 6.63082 9.37863 6.64917C9.47519 6.88957 9.59299 7.12089 9.73063 7.34037C9.80423 7.34037 9.82343 7.30837 9.84583 7.27317L10.1626 6.70037Z" fill="black"/>
<path d="M3.69881 7.75975L4.45721 6.84775C4.40063 6.82677 4.34688 6.79882 4.29721 6.76455C4.25745 6.72903 4.23235 6.67997 4.22681 6.62695C4.22681 6.58215 4.28441 6.54055 4.31961 6.50215C4.34333 6.48662 4.37127 6.47879 4.39961 6.47975L5.00121 6.53095C5.02741 6.53794 5.05155 6.55111 5.07161 6.56935C5.09441 6.58126 5.11351 6.59919 5.12684 6.62119C5.14017 6.64319 5.14722 6.66842 5.14722 6.69415C5.14722 6.71987 5.14017 6.74511 5.12684 6.76711C5.11351 6.78911 5.09441 6.80704 5.07161 6.81895C4.9659 6.84827 4.87195 6.90978 4.80281 6.99495C3.78201 8.29415 3.92921 8.07975 3.88761 8.17895L4.43801 9.70535C4.51801 9.70535 4.59801 9.72775 4.67801 9.74695C4.71025 9.75281 4.73961 9.76927 4.76144 9.79371C4.78328 9.81815 4.79633 9.84917 4.79853 9.88187C4.80074 9.91457 4.79197 9.94706 4.77361 9.97421C4.75526 10.0014 4.72837 10.0216 4.69721 10.0317C4.57881 10.0765 4.58841 10.0701 3.90681 9.99975C3.87135 10.0037 3.83562 9.99516 3.80577 9.97563C3.77591 9.9561 3.75378 9.92678 3.74318 9.89272C3.73258 9.85865 3.73417 9.82195 3.74768 9.78893C3.76119 9.75591 3.78577 9.72862 3.81721 9.71175C3.87481 9.68935 3.93881 9.67655 4.00921 9.65415C3.97401 9.48135 4.05081 9.67655 3.63481 8.58855C3.63481 8.58855 3.60601 8.56935 3.59001 8.55975C3.23712 8.95202 2.90596 9.3633 2.59801 9.79175C2.63842 9.82353 2.6759 9.85887 2.71001 9.89735C2.79641 10.0125 2.73881 10.1661 2.50841 10.1725C2.25152 10.1768 1.99497 10.1521 1.74361 10.0989C1.70536 10.0958 1.66958 10.0788 1.64304 10.0511C1.6165 10.0234 1.60105 9.9869 1.59961 9.94855C1.60382 9.91169 1.61979 9.87716 1.64514 9.85007C1.6705 9.82298 1.7039 9.80478 1.74041 9.79815C1.83961 9.79815 1.94201 9.79815 2.06041 9.79815C2.30516 9.53083 2.53587 9.25099 2.75161 8.95975C2.98201 8.67175 3.21561 8.39015 3.43001 8.09255L2.89561 6.75815C2.80601 6.75815 2.71321 6.75815 2.62361 6.72935C2.58117 6.72935 2.54048 6.71249 2.51047 6.68249C2.48047 6.65248 2.46361 6.61178 2.46361 6.56935C2.46361 6.52691 2.48047 6.48622 2.51047 6.45621C2.54048 6.42621 2.58117 6.40935 2.62361 6.40935C2.80921 6.40935 2.99161 6.40935 3.17401 6.40935C3.19993 6.40808 3.22571 6.414 3.24848 6.42645C3.27125 6.43891 3.29013 6.45741 3.30305 6.47993C3.31596 6.50245 3.3224 6.52809 3.32165 6.55404C3.3209 6.57998 3.313 6.60521 3.29881 6.62695C3.23481 6.78055 3.26041 6.81895 3.69881 7.75975Z" fill="black"/>
<path d="M14.0133 8.19196C13.8629 9.84636 12.2789 10.112 11.5717 9.11036C11.3494 8.81879 11.2091 8.47312 11.1652 8.10912C11.1213 7.74512 11.1755 7.376 11.3221 7.03996C11.4062 6.83405 11.5378 6.65094 11.7061 6.50556C12.3045 5.97116 13.2133 6.13116 13.7029 6.92156C13.9418 7.3 14.0507 7.746 14.0133 8.19196ZM13.6581 8.23676C13.6581 7.96156 13.6901 7.25116 13.0949 6.78076C12.9898 6.68936 12.8646 6.62412 12.7295 6.59035C12.5944 6.55657 12.4532 6.55524 12.3175 6.58644C12.1817 6.61764 12.0553 6.6805 11.9485 6.76989C11.8417 6.85927 11.7575 6.97265 11.7029 7.10076C11.5584 7.38449 11.4962 7.70303 11.5233 8.02029C11.5505 8.33756 11.6659 8.64089 11.8565 8.89596C12.4581 9.67676 13.4629 9.39516 13.6581 8.23676Z" fill="black"/>
<path d="M5.36609 8.00026C5.43969 7.27066 5.91009 6.54106 6.64609 6.50586C6.85861 6.51357 7.06488 6.57979 7.24218 6.69723C7.41947 6.81467 7.5609 6.97878 7.65089 7.17146C7.8272 7.50776 7.90623 7.88657 7.8791 8.26531C7.85196 8.64405 7.71974 9.00773 7.49729 9.31546C7.38464 9.48531 7.22894 9.62223 7.04609 9.71226C6.15329 10.1635 5.23489 9.28026 5.36609 8.00026ZM7.51329 8.35546C7.65089 7.21946 6.79649 6.37146 6.04449 7.20346C6.03205 7.21704 6.0213 7.23208 6.01249 7.24826C5.84523 7.49166 5.74301 7.77381 5.71556 8.06786C5.68812 8.36192 5.73636 8.65811 5.85569 8.92826C6.02849 9.33786 6.46369 9.64186 6.92129 9.37626C7.0892 9.25739 7.22916 9.10333 7.3314 8.92482C7.43365 8.7463 7.49572 8.54763 7.51329 8.34266V8.35546Z" fill="black"/>
<path d="M13.6568 8.23706C13.4968 9.19706 12.796 9.53306 12.2232 9.21306C11.8917 8.98457 11.6554 8.6424 11.5593 8.25137C11.4631 7.86034 11.5138 7.44764 11.7016 7.09146C11.7563 6.96335 11.8404 6.84997 11.9472 6.76059C12.054 6.6712 12.1804 6.60834 12.3162 6.57714C12.4519 6.54594 12.5931 6.54727 12.7282 6.58105C12.8633 6.61482 12.9885 6.68006 13.0936 6.77146C13.6824 7.24826 13.6408 7.95226 13.6568 8.23706ZM12.1144 7.53306C12.1144 7.45306 12.1432 7.36986 12.1496 7.28986C12.15 7.26226 12.1424 7.23514 12.1278 7.21172C12.1132 7.18831 12.0922 7.16958 12.0672 7.15778C12.0423 7.14598 12.0144 7.1416 11.9871 7.14516C11.9597 7.14872 11.9339 7.16007 11.9128 7.17786C11.8844 7.2014 11.8614 7.23089 11.8456 7.26426C11.7559 7.47613 11.7249 7.70827 11.756 7.93626C11.7816 8.06426 11.8616 8.13786 11.9512 8.12506C12.1272 8.10266 12.1048 7.92986 12.1144 7.53306Z" fill="#DA0100"/>
<path d="M7.51225 8.34275C7.49289 8.54549 7.42997 8.74165 7.32779 8.91783C7.22562 9.09401 7.0866 9.24605 6.92025 9.36355C6.47545 9.62275 6.03385 9.33795 5.85465 8.91555C5.73532 8.6454 5.68708 8.34921 5.71452 8.05515C5.74197 7.76109 5.84419 7.47895 6.01145 7.23555C6.02026 7.21937 6.03101 7.20433 6.04345 7.19075C6.79545 6.35875 7.65305 7.20675 7.51225 8.34275ZM5.93465 7.91075C5.96345 8.05155 5.96025 8.25955 6.14265 8.23075C6.1694 8.22554 6.19412 8.21286 6.21395 8.19417C6.23377 8.17548 6.24789 8.15154 6.25465 8.12515C6.30905 7.93315 6.36345 7.74115 6.41465 7.54915C6.42727 7.5139 6.42659 7.47526 6.41273 7.44049C6.39887 7.40571 6.37278 7.3772 6.33938 7.3603C6.30598 7.3434 6.26755 7.33928 6.23132 7.34872C6.1951 7.35816 6.16356 7.3805 6.14265 7.41155C6.07865 7.47235 6.09785 7.44995 5.93465 7.91075Z" fill="#DA0100"/>
<path d="M12.1158 7.53315C12.1158 7.93315 12.1158 8.10275 11.9686 8.12515C11.879 8.12515 11.799 8.06435 11.7734 7.93635C11.7424 7.70837 11.7733 7.47622 11.863 7.26435C11.8789 7.23099 11.9018 7.2015 11.9302 7.17795C11.9522 7.16085 11.9784 7.15003 12.006 7.14665C12.0336 7.14326 12.0616 7.14745 12.087 7.15875C12.2118 7.21315 12.1638 7.32515 12.1318 7.53315H12.1158Z" fill="black"/>
<path d="M5.93555 7.91084C6.09875 7.45324 6.08275 7.47244 6.14355 7.39884C6.16446 7.36779 6.19599 7.34545 6.23222 7.33602C6.26845 7.32658 6.30687 7.3307 6.34028 7.34759C6.37368 7.36449 6.39976 7.39301 6.41362 7.42778C6.42748 7.46256 6.42817 7.5012 6.41555 7.53644C6.36435 7.72844 6.30995 7.92044 6.25555 8.11244C6.24914 8.14206 6.23356 8.16891 6.21101 8.18915C6.18846 8.2094 6.1601 8.22202 6.12996 8.22521C6.09983 8.2284 6.06945 8.222 6.04316 8.20692C6.01688 8.19185 5.99601 8.16886 5.98355 8.14124C5.96112 8.06592 5.94506 7.98885 5.93555 7.91084Z" fill="black"/>
</svg>
