<svg width="16" height="16" viewBox="0 0 16 16" fill="none" xmlns="http://www.w3.org/2000/svg">
<path d="M9.06501 3.27359C9.64845 3.06312 10.2162 2.81151 10.764 2.52066C10.8862 2.45759 11.0045 2.52066 11.0005 2.71776C11.0005 2.97794 10.9808 2.49701 10.6931 10.0302C10.695 10.0815 10.6853 10.1326 10.6649 10.1797C10.6444 10.2267 10.6136 10.2686 10.5748 10.3022C10.3761 10.4888 10.1625 10.6589 9.9362 10.8107C9.19904 11.272 8.48159 11.7726 7.71684 12.1983C6.92208 12.6414 6.07793 12.9894 5.20183 13.2351C5.14892 13.2497 5.09356 13.253 5.03929 13.2449C4.98502 13.2369 4.93303 13.2176 4.88665 13.1882C4.84027 13.1589 4.80051 13.1203 4.76994 13.0747C4.73936 13.0291 4.71863 12.9777 4.70907 12.9237C4.5238 12.3639 4.61052 9.07231 4.62235 8.48495C4.72878 4.51927 4.83916 5.22095 4.78791 5.05933C4.7714 4.98457 4.77846 4.90653 4.80811 4.83594C4.83775 4.76535 4.88854 4.70568 4.95348 4.66513C5.34768 4.34976 7.7129 2.52855 8.66687 1.90571C8.74629 1.85815 8.83279 1.82355 8.9231 1.80321C8.9459 1.79741 8.96965 1.7963 8.9929 1.79997C9.01614 1.80363 9.0384 1.81198 9.05831 1.82452C9.07823 1.83706 9.09538 1.85352 9.10873 1.8729C9.12208 1.89228 9.13135 1.91417 9.13597 1.93724C9.17539 2.15405 9.04925 2.89121 9.06501 3.27359ZM5.12299 5.13817C5.08751 5.53237 4.82339 11.5913 5.03232 12.7345C5.05203 12.8488 5.10722 12.8803 5.20971 12.8567C5.97964 12.6154 6.72531 12.3026 7.43696 11.9224C8.35545 11.4296 9.19904 10.8147 10.086 10.2707C10.1568 10.2249 10.214 10.1609 10.2516 10.0854C10.3422 9.93956 10.3265 9.87255 10.3659 8.8082C10.5985 2.60739 10.6497 3.19869 10.5866 3.04101C8.80878 3.81759 7.00333 4.51927 5.13087 5.13817H5.12299ZM5.7813 4.49562C6.75892 4.19787 7.71621 3.83708 8.64716 3.4155C8.78513 2.16194 8.77725 2.36692 8.73388 2.26837C8.69581 2.28559 8.65893 2.30535 8.62351 2.3275C5.63545 4.56263 5.78919 4.4286 5.78919 4.49562H5.7813Z" fill="black"/>
<path d="M5.13109 5.13817C7.00355 4.51928 8.809 3.8176 10.5947 3.04102C10.6199 3.15395 10.6199 3.27104 10.5947 3.38397C10.2636 9.72275 10.3937 9.83707 10.2439 10.0854C10.2064 10.1609 10.1492 10.2249 10.0783 10.2707C8.10732 11.477 7.83532 11.883 5.52923 12.7621C5.42198 12.7996 5.31275 12.8311 5.20204 12.8567C5.09955 12.8803 5.04436 12.8567 5.02465 12.7345C4.84726 11.6583 5.07984 5.74525 5.13109 5.13817ZM7.76436 7.03429C7.65162 6.90483 7.49641 6.81981 7.32661 6.79453C7.15681 6.76924 6.98356 6.80533 6.83798 6.89632C6.74482 6.9751 6.66814 7.07151 6.61234 7.18002C6.55655 7.28852 6.52273 7.40697 6.51284 7.52858C6.50295 7.65019 6.51718 7.77255 6.55471 7.88864C6.59225 8.00474 6.65234 8.11227 6.73155 8.20507C6.91683 8.43765 7.12575 8.65841 7.3268 8.87916C7.41307 8.96404 7.51136 9.03576 7.61851 9.09203C7.67958 9.13552 7.74881 9.1662 7.82205 9.18223C7.89529 9.19827 7.97101 9.19932 8.04467 9.18532C8.11832 9.17133 8.18838 9.14258 8.25063 9.1008C8.31289 9.05903 8.36605 9.00509 8.40691 8.94223C8.7993 8.48558 9.04396 7.92066 9.10859 7.32206C9.14407 6.92786 9.02187 6.53365 8.62372 6.51C8.44355 6.49593 8.26352 6.53902 8.10924 6.63314C7.95496 6.72727 7.83428 6.86764 7.76436 7.03429Z" fill="#FF0303"/>
<path d="M5.82138 4.42879C9.00259 2.06357 8.60445 2.33951 8.74242 2.26855C8.78578 2.36711 8.79367 2.16212 8.6557 3.41568C8.37581 3.58913 5.41535 4.72838 5.82138 4.42879Z" fill="white"/>
<path d="M7.76426 7.03502C7.94165 6.7709 8.10328 6.46342 8.62362 6.4989C9.01783 6.53044 9.14397 6.91676 9.10849 7.31096C9.04843 7.91282 8.80642 8.4821 8.4147 8.94296C8.37383 9.00582 8.32067 9.05975 8.25842 9.10153C8.19617 9.14331 8.1261 9.17206 8.05245 9.18605C7.9788 9.20004 7.90307 9.19899 7.82983 9.18296C7.7566 9.16693 7.68736 9.13624 7.62629 9.09276C7.51914 9.03649 7.42085 8.96477 7.33458 8.87989C7.12565 8.65913 6.94038 8.43838 6.73933 8.2058C6.66013 8.113 6.60003 8.00546 6.5625 7.88937C6.52497 7.77328 6.51074 7.65092 6.52063 7.52931C6.53052 7.4077 6.56433 7.28925 6.62013 7.18074C6.67593 7.07224 6.75261 6.97583 6.84577 6.89705C6.95482 6.82213 7.08401 6.78202 7.21632 6.78202C7.34862 6.78202 7.47782 6.82213 7.58687 6.89705C7.65388 6.92858 7.69331 6.97983 7.76426 7.03502Z" fill="#FBFBFB"/>
</svg>
