<svg width="16" height="16" viewBox="0 0 16 16" fill="none" xmlns="http://www.w3.org/2000/svg">
<path d="M4.95729 7.57573C4.33983 7.08298 3.86447 6.43495 3.5799 5.69801C3.51197 5.51985 3.48384 5.32899 3.4975 5.13881C3.49992 5.03647 3.52572 4.93603 3.57294 4.84519C3.62016 4.75435 3.68753 4.67552 3.76991 4.61474C3.85228 4.55395 3.94747 4.51282 4.0482 4.49449C4.14892 4.47615 4.2525 4.48111 4.35101 4.50898L4.68064 4.63259C4.77482 4.57373 4.73361 4.5031 4.72184 4.44423C4.53758 3.84231 4.5688 3.195 4.81014 2.6136C4.8405 2.52566 4.89128 2.44618 4.9583 2.38166C5.02533 2.31714 5.10669 2.26943 5.19572 2.24243C5.28475 2.21543 5.37891 2.20992 5.47048 2.22635C5.56205 2.24278 5.64842 2.28068 5.72251 2.33695C5.93703 2.48539 6.13444 2.65714 6.31114 2.84905C6.39365 2.6168 6.48795 2.3889 6.59368 2.16624C6.91154 1.62471 7.72384 1.63648 8.02993 2.50765C8.05785 2.67483 8.12659 2.83253 8.23006 2.96678C8.27126 2.96678 8.32424 2.96678 8.37722 2.93735C8.50591 2.89283 8.64606 2.89431 8.77378 2.94153C8.90151 2.98876 9.00891 3.07881 9.07768 3.19634C9.24836 3.40765 9.35644 3.66254 9.38966 3.93213C9.433 4.47673 9.433 5.02391 9.38966 5.56851C9.48972 5.59794 9.57802 5.62737 9.66631 5.64503C10.8848 5.8746 11.5793 7.04597 11.8442 8.22911C12.0325 9.13416 12.0505 10.0664 11.8972 10.978C11.8178 11.4681 11.6409 11.9373 11.377 12.3579C11.1132 12.7785 10.7676 13.1419 10.3609 13.4267C10.1605 13.5803 9.93056 13.691 9.68546 13.7517C9.44037 13.8125 9.18537 13.8221 8.93641 13.7799C8.43853 13.7091 7.95892 13.5433 7.52371 13.2913C6.40194 12.6687 5.47638 11.7452 4.85134 10.6248C4.65549 10.2685 4.51835 9.88287 4.44519 9.48288C4.37799 9.18051 4.37415 8.8675 4.43393 8.56358C4.4937 8.25965 4.61578 7.9714 4.79248 7.717C4.84295 7.66493 4.89812 7.61764 4.95729 7.57573ZM8.01227 7.25787C8.07702 7.34616 8.15354 7.42269 8.2124 7.51098C8.61267 8.09961 8.61267 8.14081 8.64799 8.49399C8.64573 8.54185 8.62687 8.58743 8.59464 8.62288C8.56241 8.65833 8.51883 8.68144 8.4714 8.68823C8.24772 8.68823 8.24772 8.54108 8.11234 8.25854C7.94371 7.88222 7.63294 7.58799 7.24797 7.44018C6.863 7.29237 6.43517 7.30301 6.05803 7.46978C4.9102 7.85238 4.71596 9.0473 5.23395 10.1068C5.8358 11.3343 6.82727 12.3278 8.05347 12.9322C8.35652 13.086 8.68256 13.1893 9.01882 13.2383C9.21273 13.2743 9.41215 13.2677 9.60323 13.2189C9.79432 13.1701 9.97251 13.0803 10.1254 12.9558C10.4731 12.7045 10.7676 12.3868 10.9919 12.0211C11.2162 11.6553 11.3658 11.2488 11.4322 10.825C11.5537 10.0448 11.5537 9.25058 11.4322 8.47044C11.3346 7.89227 11.1049 7.34439 10.7612 6.86938C10.5566 6.52767 10.2256 6.28041 9.8399 6.18123C9.45421 6.08205 9.04496 6.13896 8.70096 6.33961C8.36723 6.55958 8.12301 6.89148 8.01227 7.27553V7.25787ZM6.62899 6.78108C6.34057 6.58095 6.62899 6.72222 5.89321 6.43379C5.66365 6.33961 5.58124 6.23366 5.62833 6.09239C5.67542 5.95112 5.82846 5.92169 6.05803 5.99232C6.5407 6.13359 6.59368 6.22189 6.64665 6.08062C6.19341 5.54496 6.21695 5.58028 6.18164 5.52731C6.14526 5.47854 6.12814 5.41807 6.13356 5.35747C6.13898 5.29687 6.16656 5.24039 6.21101 5.19885C6.25547 5.15732 6.31368 5.13363 6.37451 5.13232C6.43533 5.13102 6.49451 5.15219 6.5407 5.19179C6.81881 5.45059 7.06574 5.74099 7.27648 6.05707C7.32367 6.10635 7.37486 6.15163 7.42953 6.19246C7.53548 5.89226 7.42953 5.60383 7.37655 4.70911C7.3664 4.64511 7.3821 4.57969 7.42018 4.52726C7.45827 4.47482 7.51562 4.43966 7.57963 4.42952C7.64363 4.41937 7.70905 4.43506 7.76148 4.47315C7.81392 4.51123 7.84908 4.56859 7.85923 4.63259C7.98383 5.14489 8.04122 5.67123 8.02993 6.19834L8.84812 5.68624C8.86469 5.67079 8.87514 5.6499 8.87755 5.62737C8.93817 5.14126 8.95197 4.65044 8.91875 4.16169C8.91262 3.97077 8.85352 3.78531 8.74805 3.62604C8.71273 3.57306 8.67742 3.50243 8.56558 3.52597C8.52878 3.57259 8.49534 3.62177 8.46551 3.67313C8.42431 3.74377 8.40076 3.82029 8.35956 3.88504C8.3336 3.92522 8.29679 3.95722 8.2534 3.97733C8.21 3.99745 8.16179 4.00486 8.11435 3.9987C8.06692 3.99254 8.0222 3.97306 7.98538 3.94253C7.94856 3.91199 7.92115 3.87165 7.90632 3.82617C7.87461 3.73778 7.84905 3.64731 7.82979 3.55541C7.50605 2.54297 7.52959 2.56651 7.35301 2.37815C7.33465 2.363 7.31343 2.35171 7.2906 2.34497C7.26777 2.33822 7.24382 2.33617 7.22018 2.33891C7.19654 2.34166 7.17369 2.34916 7.15302 2.36096C7.13235 2.37276 7.11428 2.38862 7.0999 2.40758C7.00842 2.55113 6.94669 2.71158 6.91838 2.87942C6.89007 3.04727 6.89575 3.21909 6.93508 3.3847C6.96571 3.53039 6.98733 3.67783 6.99983 3.82617C7.00713 3.88789 6.99298 3.95024 6.95976 4.00276C6.92653 4.05528 6.87625 4.09477 6.81735 4.1146C6.58779 4.2029 6.45241 3.95567 6.29936 3.74377C5.84023 3.10805 5.71074 2.81373 5.34579 2.77253C5.29529 2.84996 5.25382 2.9329 5.22217 3.01975C4.99261 3.74377 5.27515 4.31473 5.43997 5.00931C5.47236 5.07609 5.48082 5.15197 5.46394 5.22424C5.44706 5.29652 5.40585 5.3608 5.34723 5.40631C5.28861 5.45183 5.21613 5.47583 5.14193 5.47428C5.06772 5.47273 4.99631 5.44573 4.93963 5.39781C4.73393 5.26742 4.51729 5.15516 4.29214 5.06229C4.13321 5.00343 4.0096 5.09172 4.02726 5.25654C4.20816 6.03716 4.65833 6.72909 5.2987 7.21078C5.53415 7.21078 5.54003 7.0754 6.14632 6.9047C6.28759 6.86349 6.44652 6.83995 6.62899 6.79874V6.78108Z" fill="black"/>
<path d="M8.01126 7.27437C8.101 6.9138 8.32383 6.60051 8.635 6.39743C8.94617 6.19435 9.32265 6.11651 9.68885 6.17953C10.1151 6.28066 10.4885 6.5366 10.7366 6.89765C11.0804 7.37267 11.31 7.92055 11.4076 8.49872C11.5291 9.27886 11.5291 10.0731 11.4076 10.8532C11.3413 11.2771 11.1916 11.6836 10.9674 12.0493C10.7431 12.4151 10.4486 12.7327 10.1009 12.9841C9.94796 13.1086 9.76977 13.1984 9.57868 13.2472C9.38759 13.2959 9.18818 13.3026 8.99427 13.2666C8.65801 13.2176 8.33196 13.1142 8.02892 12.9605C6.80272 12.3561 5.81124 11.3626 5.20939 10.1351C4.6914 9.07557 4.88565 7.88066 6.03347 7.49805C6.22283 7.43012 6.42117 7.39045 6.6221 7.38033C6.99018 7.37818 7.34838 7.49931 7.63961 7.7244C7.93085 7.94949 8.13835 8.2656 8.22905 8.62233C8.25331 8.65932 8.28854 8.6878 8.3298 8.70376C8.37105 8.71972 8.41627 8.72237 8.45911 8.71134C8.50195 8.7003 8.54026 8.67614 8.56868 8.64223C8.59709 8.60832 8.61418 8.56637 8.61755 8.52226C8.58223 8.16909 8.58223 8.15732 8.18196 7.53926C8.15253 7.43919 8.07601 7.36267 8.01126 7.27437ZM9.44162 12.3248C9.45124 12.3599 9.47 12.3919 9.49599 12.4174C9.52198 12.4429 9.55427 12.4611 9.58956 12.47C9.62486 12.479 9.66191 12.4785 9.69693 12.4685C9.73195 12.4585 9.76369 12.4394 9.78891 12.4131C9.85365 12.3296 9.8998 12.2333 9.9243 12.1306C9.92887 12.0971 9.9249 12.063 9.91275 12.0315C9.9006 12 9.88067 11.972 9.85481 11.9503C9.82896 11.9285 9.79802 11.9137 9.76489 11.9071C9.73175 11.9006 9.69749 11.9025 9.6653 11.9128C9.58246 11.9399 9.51314 11.9977 9.47155 12.0743C9.42996 12.1509 9.41926 12.2405 9.44162 12.3248ZM7.67574 11.7362C7.64631 11.7362 7.61099 11.6479 7.55213 11.6243C7.50997 11.6121 7.46572 11.6086 7.42217 11.6143C7.37863 11.62 7.33673 11.6346 7.29912 11.6573C7.26151 11.68 7.22901 11.7102 7.20367 11.7461C7.17832 11.7819 7.16068 11.8226 7.15186 11.8657C7.15045 11.9094 7.16126 11.9527 7.18308 11.9906C7.2049 12.0286 7.23685 12.0597 7.27537 12.0805C7.31388 12.1012 7.35743 12.1109 7.40112 12.1083C7.44481 12.1057 7.48691 12.091 7.5227 12.0658C7.58977 12.0417 7.64524 11.9931 7.67799 11.9298C7.71074 11.8664 7.71835 11.7931 7.69929 11.7244L7.67574 11.7362ZM6.04524 8.79303C6.10818 8.77155 6.16013 8.72617 6.18987 8.66669C6.21961 8.60721 6.22475 8.53841 6.20417 8.47517C6.19297 8.44619 6.17616 8.41969 6.15471 8.3972C6.13326 8.37471 6.10759 8.35666 6.07917 8.34409C6.05075 8.33152 6.02013 8.32467 5.98906 8.32393C5.95799 8.32319 5.92707 8.32858 5.89809 8.33979C5.8691 8.351 5.8426 8.36781 5.82011 8.38926C5.79762 8.4107 5.77957 8.43637 5.767 8.46479C5.75443 8.49322 5.74758 8.52384 5.74684 8.55491C5.74611 8.58598 5.75149 8.61689 5.7627 8.64588C5.77009 8.67762 5.7845 8.70731 5.80488 8.73274C5.82526 8.75818 5.85109 8.77871 5.88047 8.79283C5.90984 8.80696 5.94201 8.81431 5.97461 8.81434C6.0072 8.81438 6.03939 8.80709 6.06879 8.79303H6.04524ZM6.44551 10.0468C6.42425 9.9906 6.38324 9.94406 6.33016 9.9159C6.27707 9.88773 6.21555 9.87986 6.15708 9.89377C6.12614 9.90599 6.09798 9.92434 6.07429 9.94771C6.05061 9.97108 6.03188 9.99899 6.01924 10.0298C6.0066 10.0605 6.0003 10.0936 6.00072 10.1268C6.00115 10.1601 6.00828 10.1929 6.0217 10.2234C6.043 10.2727 6.07981 10.3138 6.12655 10.3404C6.17328 10.3669 6.2274 10.3775 6.28069 10.3706C6.34341 10.3466 6.395 10.3002 6.42545 10.2404C6.45591 10.1806 6.46306 10.1116 6.44551 10.0468ZM8.96484 9.84668C8.93409 9.85838 8.90599 9.87609 8.88218 9.89879C8.85837 9.92149 8.83932 9.94871 8.82617 9.97886C8.81301 10.009 8.806 10.0415 8.80556 10.0744C8.80511 10.1073 8.81123 10.1399 8.82357 10.1704C8.84926 10.2249 8.89394 10.268 8.9492 10.2919C9.00447 10.3157 9.06654 10.3186 9.12376 10.2999C9.41808 10.2057 9.20617 9.7525 8.9354 9.84668H8.96484ZM10.248 10.8827C10.27 10.9373 10.31 10.9829 10.3614 11.0118C10.4127 11.0407 10.4724 11.0512 10.5306 11.0416C10.5887 11.0263 10.6393 10.9904 10.6729 10.9406C10.7065 10.8908 10.7207 10.8304 10.7131 10.7708C10.6365 10.5177 10.1185 10.5648 10.2186 10.8827H10.248ZM9.65942 7.2626C9.95373 7.19197 9.81835 6.67397 9.52992 6.77404C9.47199 6.79184 9.42288 6.83078 9.39234 6.88313C9.36181 6.93548 9.35208 6.9974 9.3651 7.05658C9.37008 7.08925 9.38156 7.12059 9.39886 7.14874C9.41615 7.1769 9.43892 7.2013 9.46581 7.2205C9.4927 7.23971 9.52316 7.25333 9.55541 7.26056C9.58765 7.26779 9.62102 7.26849 9.65353 7.2626H9.65942ZM7.46384 10.3294C7.41318 10.3481 7.37127 10.3849 7.34625 10.4328C7.32124 10.4806 7.31489 10.5361 7.32845 10.5883C7.35672 10.6501 7.40587 10.6999 7.46724 10.729C7.52862 10.758 7.59828 10.7645 7.66397 10.7473C7.72164 10.7284 7.76949 10.6875 7.79706 10.6334C7.82464 10.5794 7.82969 10.5166 7.81113 10.4588C7.78051 10.3957 7.72658 10.3469 7.6607 10.3228C7.59481 10.2986 7.52212 10.301 7.45795 10.3294H7.46384ZM8.88831 11.4419C8.88074 11.3937 8.85873 11.3489 8.82519 11.3134C8.79165 11.278 8.74816 11.2536 8.70045 11.2434C8.65274 11.2331 8.60305 11.2376 8.55794 11.2562C8.51283 11.2748 8.47441 11.3066 8.44776 11.3475C8.42111 11.3884 8.40747 11.4364 8.40864 11.4851C8.40981 11.5339 8.42574 11.5812 8.45433 11.6207C8.48291 11.6603 8.52281 11.6902 8.56877 11.7066C8.61472 11.723 8.66456 11.7251 8.71173 11.7126C8.74089 11.7064 8.76851 11.6944 8.79296 11.6773C8.81741 11.6602 8.8382 11.6384 8.8541 11.6132C8.87001 11.588 8.88071 11.5598 8.88557 11.5304C8.89044 11.501 8.88937 11.4709 8.88243 11.4419H8.88831ZM9.32978 8.49872C9.34758 8.55665 9.38653 8.60576 9.43887 8.63629C9.49122 8.66683 9.55314 8.67655 9.61233 8.66354C9.67678 8.64199 9.73018 8.59597 9.76101 8.53541C9.79185 8.47484 9.79764 8.40459 9.77714 8.33979C9.67708 8.11022 9.25915 8.23384 9.3239 8.50461L9.32978 8.49872ZM10.9603 8.30447C10.9894 8.29823 11.0171 8.28621 11.0415 8.26914C11.066 8.25206 11.0868 8.23027 11.1027 8.20504C11.1186 8.17981 11.1293 8.15166 11.1341 8.12223C11.139 8.09281 11.1379 8.06271 11.131 8.0337C11.1209 7.98059 11.0909 7.93332 11.0472 7.90159C11.0034 7.86985 10.9491 7.85605 10.8955 7.863C10.8655 7.86657 10.8365 7.8762 10.8102 7.89131C10.784 7.90642 10.7611 7.9267 10.743 7.95091C10.7248 7.97513 10.7117 8.00277 10.7046 8.03218C10.6974 8.06159 10.6963 8.09215 10.7013 8.122C10.71 8.18047 10.7415 8.23311 10.789 8.26841C10.8364 8.3037 10.8959 8.31879 10.9544 8.31036L10.9603 8.30447ZM10.3717 9.18153C10.3209 9.19774 10.2775 9.23155 10.2495 9.27688C10.2214 9.32221 10.2105 9.37607 10.2186 9.42875C10.2273 9.45784 10.2418 9.4849 10.261 9.50837C10.2803 9.53184 10.304 9.55126 10.3309 9.56549C10.3577 9.57973 10.3871 9.5885 10.4173 9.5913C10.4476 9.59409 10.4781 9.59086 10.507 9.58179C10.5515 9.56135 10.5875 9.52615 10.609 9.48215C10.6305 9.43816 10.636 9.38809 10.6248 9.34046C10.6183 9.31064 10.6055 9.28258 10.5871 9.25818C10.5688 9.23378 10.5454 9.21363 10.5186 9.1991C10.4918 9.18457 10.4621 9.176 10.4317 9.17399C10.4013 9.17197 10.3707 9.17655 10.3422 9.18741L10.3717 9.18153ZM7.59922 8.98139C7.59298 8.95223 7.58096 8.92461 7.56389 8.90016C7.54681 8.87571 7.52502 8.85492 7.49979 8.83901C7.47456 8.82311 7.44641 8.81241 7.41698 8.80755C7.38756 8.80268 7.35746 8.80375 7.32845 8.81069C7.27723 8.82681 7.23328 8.86037 7.20424 8.90554C7.1752 8.95071 7.16292 9.00463 7.16952 9.05792C7.17637 9.08718 7.18905 9.11477 7.2068 9.13903C7.22455 9.16328 7.24701 9.18372 7.27283 9.1991C7.29866 9.21448 7.32732 9.2245 7.3571 9.22857C7.38688 9.23263 7.41718 9.23064 7.44618 9.22273C7.49128 9.20441 7.52843 9.17072 7.55106 9.12762C7.57369 9.08452 7.58032 9.0348 7.56979 8.98728L7.59922 8.98139Z" fill="#FF0303"/>
<path d="M6.62908 6.7989C6.32036 6.84635 6.01816 6.92931 5.72848 7.04612C5.59748 7.1288 5.45146 7.1848 5.29878 7.21094C4.65841 6.72925 4.20824 6.03732 4.02734 5.2567C4.02734 5.09188 4.1333 5.00359 4.29223 5.06245C4.88085 5.28024 5.08687 5.62165 5.35764 5.38619C5.62841 5.15074 5.43416 4.98593 5.35764 4.6975C5.14015 4.16575 5.09285 3.57966 5.22226 3.01991C5.2539 2.93306 5.29538 2.85012 5.34587 2.77269C5.44265 2.78873 5.53503 2.82475 5.61712 2.87847C5.6992 2.93218 5.76921 3.0024 5.82266 3.08466C6.04045 3.35543 6.37008 3.86165 6.52312 4.03235C6.56054 4.07724 6.61148 4.10883 6.66832 4.12238C6.72517 4.13593 6.78488 4.13073 6.83852 4.10755C6.89217 4.08437 6.93688 4.04446 6.96596 3.99377C6.99505 3.94308 7.00696 3.88434 6.99991 3.82633C6.88518 3.42028 6.88518 2.99038 6.99991 2.58433C7.02387 2.52061 7.05763 2.46103 7.09998 2.40774C7.11437 2.38878 7.13244 2.37292 7.15311 2.36112C7.17378 2.34932 7.19662 2.34182 7.22026 2.33907C7.2439 2.33632 7.26786 2.33838 7.29068 2.34512C7.31351 2.35187 7.33474 2.36315 7.35309 2.37831C7.52968 2.54312 7.50613 2.51369 7.82988 3.55556C7.84913 3.64747 7.8747 3.73794 7.9064 3.82633C7.92123 3.87181 7.94864 3.91215 7.98546 3.94268C8.02228 3.97322 8.067 3.99269 8.11444 3.99885C8.16187 4.00502 8.21008 3.99761 8.25348 3.97749C8.29688 3.95738 8.33369 3.92537 8.35964 3.88519C8.40085 3.82045 8.42439 3.74392 8.46559 3.67329C8.49542 3.62193 8.52886 3.57275 8.56566 3.52613C8.6775 3.52613 8.71282 3.57322 8.74814 3.6262C8.8536 3.78547 8.9127 3.97093 8.91884 4.16185C8.95205 4.6506 8.93825 5.14142 8.87763 5.62753C8.87522 5.65005 8.86477 5.67095 8.8482 5.68639L8.03001 6.1985C8.03986 5.67145 7.9825 5.1453 7.85931 4.63275C7.83912 4.5755 7.79811 4.52796 7.74443 4.4996C7.69076 4.47125 7.62837 4.46416 7.5697 4.47975C7.51103 4.49535 7.4604 4.53248 7.42789 4.58375C7.39538 4.63501 7.38338 4.69665 7.39429 4.75636C7.50019 5.2437 7.51813 5.74605 7.44727 6.2397C7.17061 5.99837 7.44727 6.2397 6.76446 5.43328C6.7031 5.3612 6.63401 5.29606 6.55844 5.23904C6.51225 5.19944 6.45308 5.17827 6.39225 5.17957C6.33142 5.18088 6.27321 5.20456 6.22875 5.2461C6.1843 5.28764 6.15672 5.34412 6.1513 5.40472C6.14588 5.46532 6.163 5.52579 6.19938 5.57456L6.6644 6.12787C6.61142 6.2397 6.54078 6.1985 6.48192 6.18084C6.19349 6.08666 5.72848 5.86298 5.62841 6.13964C5.52834 6.41629 5.94038 6.48693 6.42306 6.68706C6.49431 6.71939 6.56316 6.75676 6.62908 6.7989Z" fill="white"/>
<path d="M9.44112 12.3267C9.41875 12.2425 9.42946 12.1529 9.47105 12.0763C9.51264 11.9996 9.58196 11.9418 9.6648 11.9147C9.69699 11.9045 9.73124 11.9025 9.76438 11.9091C9.79752 11.9156 9.82845 11.9305 9.85431 11.9522C9.88016 11.974 9.90009 12.0019 9.91224 12.0334C9.92439 12.0649 9.92837 12.099 9.92379 12.1325C9.8993 12.2352 9.85314 12.3316 9.78841 12.415C9.76318 12.4413 9.73144 12.4604 9.69642 12.4704C9.6614 12.4804 9.62436 12.481 9.58906 12.472C9.55376 12.463 9.52147 12.4448 9.49549 12.4193C9.4695 12.3938 9.45074 12.3619 9.44112 12.3267Z" fill="black"/>
<path d="M7.70032 11.7247C7.71614 11.7859 7.71142 11.8506 7.68688 11.9089C7.66234 11.9671 7.61934 12.0157 7.5645 12.0471C7.50966 12.0786 7.44601 12.0911 7.38334 12.0828C7.32067 12.0746 7.26246 12.046 7.21764 12.0014C7.0646 11.7953 7.3648 11.5246 7.57671 11.6129C7.6238 11.6364 7.67089 11.6953 7.70032 11.7247Z" fill="black"/>
<path d="M6.068 8.79437C6.03983 8.80433 6.00991 8.8084 5.9801 8.80631C5.9503 8.80422 5.92124 8.79602 5.89474 8.78221C5.86823 8.76841 5.84486 8.7493 5.82606 8.72608C5.80726 8.70285 5.79344 8.676 5.78546 8.64721C5.76282 8.58867 5.76437 8.52353 5.78976 8.46613C5.81515 8.40872 5.8623 8.36376 5.92084 8.34112C5.97939 8.31849 6.04452 8.32003 6.10192 8.34542C6.15933 8.37081 6.20429 8.41796 6.22693 8.47651C6.2475 8.53974 6.24237 8.60854 6.21263 8.66802C6.18289 8.7275 6.13094 8.77288 6.068 8.79437Z" fill="black"/>
<path d="M6.44676 10.0474C6.46431 10.1122 6.45716 10.1812 6.4267 10.2411C6.39625 10.3009 6.34466 10.3473 6.28195 10.3712C6.22865 10.3782 6.17453 10.3676 6.1278 10.341C6.08106 10.3144 6.04425 10.2734 6.02295 10.224C6.00953 10.1936 6.0024 10.1607 6.00197 10.1275C6.00155 10.0942 6.00785 10.0612 6.02049 10.0304C6.03313 9.99963 6.05186 9.97172 6.07554 9.94835C6.09923 9.92498 6.12739 9.90663 6.15833 9.8944C6.2168 9.8805 6.27832 9.88837 6.33141 9.91653C6.38449 9.9447 6.4255 9.99124 6.44676 10.0474Z" fill="black"/>
<path d="M8.93665 9.84776C9.20741 9.75358 9.41932 10.2068 9.09558 10.301C9.03835 10.3197 8.97628 10.3168 8.92101 10.293C8.86574 10.2691 8.82107 10.2259 8.79537 10.1715C8.78304 10.141 8.77692 10.1084 8.77737 10.0755C8.77781 10.0426 8.78482 10.0101 8.79798 9.97995C8.81113 9.9498 8.83018 9.92257 8.85399 9.89988C8.8778 9.87718 8.9059 9.85946 8.93665 9.84776Z" fill="black"/>
<path d="M10.3785 10.607C10.4094 10.5962 10.4422 10.5919 10.4748 10.5945C10.5074 10.5971 10.5391 10.6064 10.5679 10.6219C10.5967 10.6374 10.622 10.6587 10.6421 10.6845C10.6622 10.7103 10.6767 10.7401 10.6846 10.7718C10.6923 10.8314 10.678 10.8917 10.6445 10.9416C10.6109 10.9914 10.5603 11.0273 10.5022 11.0425C10.2196 11.1073 10.0783 10.6835 10.3785 10.607Z" fill="black"/>
<path d="M9.65542 7.26318C9.62248 7.26995 9.5885 7.26993 9.55557 7.26311C9.52264 7.2563 9.49145 7.24283 9.4639 7.22355C9.43635 7.20427 9.41302 7.17956 9.39535 7.15095C9.37767 7.12234 9.36602 7.09043 9.3611 7.05716C9.34809 6.99798 9.35781 6.93606 9.38834 6.88371C9.41888 6.83137 9.46799 6.79242 9.52592 6.77462C9.81435 6.6981 9.97916 7.19255 9.65542 7.26318Z" fill="black"/>
<path d="M7.45877 10.3316C7.52227 10.305 7.59353 10.3036 7.65804 10.3276C7.72256 10.3517 7.77549 10.3994 7.80606 10.4611C7.82462 10.5189 7.81957 10.5816 7.79199 10.6357C7.76442 10.6897 7.71657 10.7307 7.6589 10.7495C7.59321 10.7668 7.52355 10.7603 7.46217 10.7312C7.4008 10.7021 7.35165 10.6523 7.32338 10.5906C7.30982 10.5383 7.31617 10.4829 7.34119 10.435C7.3662 10.3872 7.40811 10.3503 7.45877 10.3316Z" fill="black"/>
<path d="M8.88404 11.4421C8.89092 11.4716 8.89177 11.5021 8.88653 11.5318C8.8813 11.5616 8.87009 11.5899 8.85359 11.6152C8.83709 11.6405 8.81563 11.6622 8.79052 11.679C8.7654 11.6958 8.73715 11.7073 8.70745 11.7129C8.66029 11.7254 8.61045 11.7233 8.56449 11.7069C8.51854 11.6905 8.47864 11.6606 8.45006 11.621C8.42147 11.5815 8.40554 11.5342 8.40437 11.4854C8.40319 11.4366 8.41683 11.3887 8.44349 11.3478C8.47014 11.3069 8.50856 11.2751 8.55367 11.2565C8.59878 11.2379 8.64846 11.2334 8.69617 11.2436C8.74388 11.2539 8.78738 11.2783 8.82092 11.3137C8.85445 11.3492 8.87646 11.3939 8.88404 11.4421Z" fill="black"/>
<path d="M9.7725 8.34728C9.79299 8.41207 9.7872 8.48233 9.75637 8.54289C9.72554 8.60346 9.67214 8.64948 9.60768 8.67102C9.5485 8.68404 9.48658 8.67432 9.43423 8.64378C9.38188 8.61325 9.34294 8.56414 9.32514 8.50621C9.26039 8.23544 9.67832 8.11183 9.7725 8.34728Z" fill="black"/>
<path d="M10.9554 8.31237C10.9264 8.31744 10.8967 8.31674 10.868 8.31031C10.8393 8.30388 10.8121 8.29184 10.788 8.27489C10.764 8.25794 10.7435 8.23641 10.7278 8.21153C10.7121 8.18664 10.7014 8.1589 10.6964 8.1299C10.6914 8.10004 10.6926 8.06949 10.6997 8.04008C10.7069 8.01067 10.7199 7.98303 10.7381 7.95881C10.7563 7.9346 10.7791 7.91432 10.8054 7.89921C10.8316 7.8841 10.8606 7.87447 10.8907 7.8709C10.9443 7.86395 10.9985 7.87775 11.0423 7.90949C11.0861 7.94122 11.1161 7.98848 11.1261 8.0416C11.1331 8.07061 11.1341 8.10071 11.1293 8.13013C11.1244 8.15956 11.1137 8.18771 11.0978 8.21294C11.0819 8.23817 11.0611 8.25996 11.0366 8.27704C11.0122 8.29411 10.9846 8.30613 10.9554 8.31237Z" fill="black"/>
<path d="M10.3432 9.1887C10.3717 9.17783 10.4022 9.17325 10.4326 9.17527C10.4631 9.17729 10.4927 9.18585 10.5196 9.20038C10.5464 9.21491 10.5698 9.23507 10.5881 9.25946C10.6064 9.28386 10.6192 9.31192 10.6257 9.34174C10.6368 9.3939 10.6278 9.44833 10.6005 9.49415C10.5732 9.53998 10.5297 9.57383 10.4785 9.58896C10.4496 9.59803 10.4191 9.60126 10.3888 9.59847C10.3586 9.59567 10.3292 9.5869 10.3024 9.57266C10.2756 9.55843 10.2518 9.53901 10.2325 9.51554C10.2133 9.49207 10.1989 9.465 10.1901 9.43592C10.182 9.38323 10.1929 9.32938 10.221 9.28405C10.2491 9.23872 10.2924 9.20491 10.3432 9.1887Z" fill="black"/>
<path d="M7.57011 8.98837C7.58077 9.04058 7.57077 9.09488 7.54224 9.13988C7.5137 9.18488 7.46884 9.21708 7.41707 9.2297C7.38807 9.23761 7.35778 9.2396 7.32799 9.23554C7.29821 9.23148 7.26955 9.22146 7.24373 9.20607C7.2179 9.19069 7.19545 9.17026 7.1777 9.146C7.15995 9.12174 7.14727 9.09415 7.14042 9.06489C7.13381 9.0116 7.14609 8.95768 7.17513 8.91251C7.20417 8.86734 7.24812 8.83378 7.29935 8.81766C7.32835 8.81072 7.35845 8.80965 7.38787 8.81452C7.4173 8.81938 7.44545 8.83008 7.47068 8.84599C7.49591 8.86189 7.5177 8.88268 7.53478 8.90713C7.55186 8.93158 7.56387 8.9592 7.57011 8.98837Z" fill="black"/>
</svg>
