<svg width="16" height="16" viewBox="0 0 16 16" fill="none" xmlns="http://www.w3.org/2000/svg">
<path d="M11.8464 4.57522C11.6836 4.37785 11.5355 4.16567 11.353 3.97817C11.1063 3.71172 10.8595 3.46007 10.5931 3.20349C10.3266 2.94691 10.154 3.04066 9.6852 3.01599C9.57171 3.01599 9.45328 3.05053 9.33486 2.96665C9.36416 2.66322 9.31489 2.35735 9.19177 2.07848C9.14643 1.99228 9.07185 1.92507 8.98142 1.8889C8.89099 1.85272 8.79062 1.84996 8.69834 1.88111C8.18025 2.0242 8.14077 2.56204 8.02728 3.01599C7.77307 3.04325 7.51668 3.04325 7.26247 3.01599C7.29154 2.72164 7.25272 2.42455 7.14898 2.14756C6.96148 1.75282 6.55194 1.65413 6.16213 2.14756C5.98475 2.42954 5.88281 2.75236 5.86608 3.08507C5.43824 3.09363 5.0121 3.14153 4.59304 3.22816C4.49718 3.24541 4.40977 3.29403 4.34456 3.36638C4.27935 3.43873 4.24005 3.53071 4.23284 3.62784C4.20909 3.76503 4.19262 3.90338 4.18349 4.04232C4.19516 4.37179 4.18197 4.70168 4.14402 5.02917C4.07445 5.17349 4.04221 5.33297 4.05027 5.49299C4.05027 6.15418 4.00586 6.81044 4.00586 7.4667C4.00586 11.9815 4.07987 12.2332 4.34632 12.5144C5.45653 13.6987 5.64403 14.0737 6.1424 14.1279C7.54866 14.276 8.33814 14.1279 11.4911 13.9454C11.5553 13.9488 11.6188 13.93 11.6708 13.8923C11.7229 13.8546 11.7605 13.8002 11.7773 13.7381C11.8101 13.661 11.8317 13.5796 11.8415 13.4964C12.0388 10.6345 11.9846 10.8911 11.9994 5.0045C12.0026 4.84751 11.9482 4.69477 11.8464 4.57522ZM10.5339 3.76106C10.6819 3.84495 10.4845 3.62784 11.4566 4.80713C11.5178 4.88183 11.5479 4.97727 11.5405 5.07358C11.5405 5.31042 11.5405 5.54233 11.5405 5.81372C11.3826 5.74464 11.575 5.90253 10.6918 5.04891C10.6554 5.01766 10.6261 4.97909 10.6057 4.93573C10.5853 4.89236 10.5743 4.84518 10.5734 4.79726C10.5734 4.49134 10.5734 4.18048 10.5438 3.87455C10.5191 3.84495 10.529 3.81534 10.5339 3.76106ZM10.9089 9.72165C10.8645 9.2677 10.8645 8.80881 10.8299 8.35486C10.7017 6.64267 10.5931 6.04563 10.6326 5.66076C10.7362 5.66076 10.7707 5.72984 10.8003 5.79892C10.8079 5.84134 10.8079 5.88478 10.8003 5.92721C10.9977 9.41573 11.0964 10.4914 10.9632 11.8187C10.9632 12.0013 10.9632 12.1839 10.9632 12.3615C10.9632 12.4404 10.9632 12.5342 10.8793 12.6033L10.6918 12.4404C10.6982 12.4066 10.7081 12.3735 10.7214 12.3417C10.804 12.1577 10.8541 11.9607 10.8694 11.7595C10.944 11.0828 10.9572 10.4007 10.9089 9.72165ZM8.78716 2.32026C8.90327 2.52736 8.93508 2.77124 8.87598 3.00119C8.75666 3.04584 8.62522 3.04584 8.50591 3.00119C8.49821 2.87308 8.5195 2.74488 8.5682 2.62613C8.61689 2.50739 8.69174 2.40115 8.78716 2.31533V2.32026ZM6.47299 2.46829C6.48771 2.41655 6.51773 2.37048 6.55913 2.33613C6.60052 2.30179 6.65134 2.28077 6.7049 2.27585C6.81641 2.50557 6.85101 2.76508 6.80359 3.01599C6.65589 3.05645 6.50209 3.06982 6.34963 3.05546C6.3349 2.85046 6.37762 2.64542 6.47299 2.46335V2.46829ZM4.65225 3.80054C4.66517 3.74627 4.68335 3.69339 4.70652 3.64264C5.06485 3.55642 5.43466 3.5281 5.80193 3.55876C5.83095 3.61987 5.84218 3.68792 5.83433 3.75511C5.82648 3.8223 5.79986 3.88593 5.75752 3.9387C5.71969 4.00299 5.69693 4.07502 5.69095 4.14937C5.68496 4.22373 5.69592 4.29847 5.72298 4.36798C5.73822 4.43156 5.77408 4.4883 5.82496 4.52936C5.87583 4.57042 5.93887 4.59349 6.00424 4.59495C6.06652 4.60231 6.12945 4.60231 6.19174 4.59495C6.25887 4.58836 6.32298 4.56377 6.37731 4.52379C6.43165 4.48381 6.47419 4.42991 6.50045 4.36778C6.52672 4.30564 6.53574 4.23757 6.52657 4.17074C6.51739 4.10391 6.49036 4.0408 6.44832 3.98804C6.38517 3.91929 6.31579 3.85652 6.24108 3.80054L6.29536 3.55876C6.84453 3.50389 7.39675 3.48575 7.94833 3.50448C7.98705 3.58972 8.00708 3.68225 8.00708 3.77587C8.00708 3.86948 7.98705 3.96202 7.94833 4.04725C7.9255 4.13526 7.92963 4.2281 7.96017 4.31373C7.99071 4.39937 8.04627 4.47387 8.11964 4.52757C8.19301 4.58126 8.28081 4.61169 8.37168 4.61491C8.46254 4.61813 8.55228 4.59399 8.62926 4.54561C8.68245 4.5051 8.72555 4.45285 8.75523 4.39294C8.7849 4.33302 8.80034 4.26707 8.80034 4.20021C8.80034 4.13336 8.7849 4.0674 8.75523 4.00749C8.72555 3.94758 8.68245 3.89533 8.62926 3.85482C8.56022 3.81093 8.4876 3.77297 8.41216 3.74133V3.51435C8.9592 3.45114 9.51098 3.43958 10.0602 3.47981C10.0824 3.92197 10.0824 4.36497 10.0602 4.80713C9.70493 4.87621 10.3661 4.8318 7.59307 4.80713C6.63089 4.80713 5.73779 4.80713 5.48614 4.80713C5.37265 4.59002 5.4368 4.33837 5.31837 4.10646C5.15554 4.32357 5.24436 4.59989 5.15554 4.817C4.96577 4.85623 4.77133 4.86787 4.57823 4.85154C4.5733 4.67884 4.54369 4.88114 4.65225 3.7956V3.80054ZM4.56836 11.9815C4.53876 11.7842 4.50915 11.5819 4.49929 11.3796C4.43021 9.04566 4.44007 8.87789 4.44994 5.78905C4.44994 5.27095 4.44994 5.29562 5.23942 5.29562H5.28877C5.40378 5.30309 5.51915 5.30309 5.63417 5.29562H5.66377C5.71805 5.29562 5.76246 5.29562 5.8118 5.29562C6.57168 5.29562 9.91711 5.29562 10.1194 5.3499C10.1647 5.48141 10.1831 5.62067 10.1737 5.75944C10.1737 5.94201 10.4056 8.46342 10.4155 8.65585C10.5102 9.68494 10.5102 10.7205 10.4155 11.7496C10.3415 12.3023 10.2872 12.322 9.78388 12.3615C9.17697 12.4059 8.57005 12.4158 7.96314 12.4404C7.75096 12.4404 7.53879 12.47 7.32662 12.47C7.11444 12.47 6.83319 12.47 6.55687 12.47C5.08646 12.401 4.63744 12.4404 4.56836 11.9766V11.9815ZM5.28877 12.9339C5.32824 12.85 5.38745 12.8796 5.43186 12.8796C6.1547 12.9293 6.8801 12.9293 7.60294 12.8796C9.62105 12.8105 9.9023 12.8253 10.3859 12.6871L10.6079 12.9733C10.4364 13.0153 10.2612 13.0401 10.0849 13.0473C7.85952 13.151 6.20654 13.1214 5.47627 13.1214L5.28877 12.9339ZM10.9582 13.5506C7.89899 13.7283 7.10458 13.8023 6.20654 13.7283C6.18189 13.731 6.15695 13.7288 6.13315 13.7219C6.10935 13.7149 6.08718 13.7033 6.0679 13.6876C6.04863 13.672 6.03264 13.6528 6.02087 13.631C6.00909 13.6091 6.00176 13.5852 5.9993 13.5605C10.3513 13.521 8.12103 13.5112 11.0569 13.4914C11.0322 13.5605 10.9829 13.5457 10.9582 13.5506ZM11.5553 10.294C11.5553 11.3796 11.5553 11.044 11.4171 13.0967C11.4195 13.1047 11.4195 13.1133 11.4171 13.1214C11.3036 13.0572 11.2839 13.0424 11.2888 12.9931C11.2813 12.9506 11.2813 12.9072 11.2888 12.8648C11.3706 12.5418 11.417 12.2109 11.427 11.8779C11.4862 11.2957 11.4813 10.7134 11.4961 10.1263C11.4615 9.87462 11.4566 9.37625 11.3924 8.15256C11.3678 7.69861 11.3332 7.24465 11.3036 6.78577C11.3036 6.65254 11.3036 6.51438 11.3036 6.37129C11.427 6.37129 11.4566 6.49958 11.5454 6.55386C11.5454 6.86965 11.5454 7.18051 11.5454 7.48643C11.5454 10.2694 11.5454 9.8154 11.5158 10.1312C11.5279 10.1848 11.5361 10.2392 11.5405 10.294H11.5553Z" fill="#231A15"/>
<path d="M5.25462 5.29518C5.72038 5.29518 5.02013 5.29487 5.58028 5.29518C5.65371 5.28236 5.72787 5.27412 5.80233 5.27051C6.5622 5.27051 9.90763 5.27051 10.1099 5.32479C10.1552 5.4563 10.1737 5.59556 10.1642 5.73433C10.406 8.48765 10.5738 10.4762 10.4159 11.7245C10.3418 12.2772 10.2876 12.2969 9.78428 12.3364C9.17736 12.3808 8.57045 12.3906 7.96353 12.4153C7.75136 12.4153 7.53919 12.4449 7.32701 12.4449L5.35331 12.4055C5.20578 12.3954 5.05907 12.3756 4.91416 12.3462C4.82344 12.3322 4.74007 12.2881 4.67744 12.221C4.6148 12.1539 4.57653 12.0676 4.56876 11.9762C4.53915 11.7788 4.50955 11.5765 4.49968 11.3742C4.4306 9.03535 4.44047 8.90706 4.45034 5.78367C4.45034 5.26557 4.43554 5.29518 5.25462 5.29518ZM8.32867 8.98601C8.32867 9.97286 8.32867 10.0765 8.32867 10.1998C8.33657 10.2524 8.36308 10.3004 8.40337 10.3351C8.44367 10.3698 8.49507 10.3889 8.54824 10.3889C8.60141 10.3889 8.65282 10.3698 8.69311 10.3351C8.7334 10.3004 8.75991 10.2524 8.76782 10.1998C8.77029 10.1571 8.77029 10.1143 8.76782 10.0715C8.72787 9.42307 8.74769 8.77229 8.82703 8.12745C8.84682 7.98008 8.84682 7.83073 8.82703 7.68336C8.82871 7.62451 8.80842 7.56715 8.77011 7.52245C8.73179 7.47775 8.6782 7.44892 8.61979 7.44158C8.36814 7.44158 8.34347 7.70803 8.32867 7.93501C8.34665 8.06157 8.32728 8.19063 8.27294 8.30634C8.21859 8.42205 8.13163 8.51936 8.02274 8.58633C7.95579 8.59775 7.88739 8.59775 7.82044 8.58633V7.84619C7.82044 7.59455 7.82044 7.5156 7.69215 7.46132C7.65993 7.4499 7.62511 7.44802 7.59185 7.45589C7.55859 7.46377 7.52832 7.48107 7.50465 7.50573C7.47036 7.54652 7.44814 7.59608 7.4405 7.64882C7.4405 7.98929 7.4109 8.32975 7.4405 8.67022C7.44233 8.71821 7.45388 8.76534 7.47444 8.80874C7.495 8.85215 7.52414 8.89094 7.56012 8.92276C7.59609 8.95459 7.63815 8.97879 7.68374 8.9939C7.72933 9.00901 7.77751 9.01472 7.82537 9.01068C7.99807 9.02548 8.1313 8.98601 8.32867 8.98601ZM6.40431 8.94653C6.40431 9.26233 6.40431 9.82483 6.40431 10.1406C6.40431 10.2936 6.47832 10.3725 6.59674 10.3873C6.62865 10.39 6.66077 10.3862 6.69116 10.3762C6.72156 10.3661 6.7496 10.3499 6.77358 10.3287C6.79756 10.3075 6.81699 10.2817 6.8307 10.2527C6.84441 10.2238 6.8521 10.1924 6.85332 10.1604C6.85332 10.1061 6.85332 8.12251 6.85332 8.12251C6.85332 7.80672 6.85332 7.41691 6.59181 7.43172C6.54873 7.42908 6.50606 7.44139 6.47101 7.46656C6.43595 7.49172 6.41065 7.52822 6.39937 7.56987C6.38475 7.6415 6.38475 7.71535 6.39937 7.78698C6.5474 8.59127 5.66417 8.83798 5.44706 9.1143C5.42491 9.14812 5.41398 9.18806 5.41581 9.22845C5.41765 9.26884 5.43216 9.30762 5.45728 9.33929C5.4824 9.37097 5.51686 9.39393 5.55577 9.40491C5.59468 9.4159 5.63606 9.41435 5.67404 9.40049C5.70364 9.37088 5.68884 9.37581 6.40431 8.93667V8.94653ZM9.80895 7.59948C9.75529 7.59948 9.70384 7.62079 9.6659 7.65873C9.62796 7.69667 9.60664 7.74813 9.60664 7.80179C9.60664 7.85544 9.62796 7.9069 9.6659 7.94484C9.70384 7.98278 9.75529 8.00409 9.80895 8.00409C10.0458 7.99916 10.0655 7.58468 9.80895 7.58961V7.59948ZM8.26452 11.9466C8.29085 11.9493 8.31745 11.9467 8.34274 11.9389C8.36804 11.9311 8.39151 11.9183 8.41177 11.9013C8.43202 11.8843 8.44865 11.8633 8.46065 11.8397C8.47265 11.8162 8.47978 11.7904 8.48163 11.764C8.48163 11.7103 8.46032 11.6589 8.42238 11.6209C8.38444 11.583 8.33298 11.5617 8.27933 11.5617C8.22689 11.5664 8.17797 11.5901 8.14166 11.6282C8.10535 11.6663 8.08413 11.7163 8.08195 11.7689C8.08443 11.8161 8.1046 11.8606 8.13844 11.8935C8.17229 11.9264 8.21731 11.9454 8.26452 11.9466ZM5.1214 11.6702C5.09507 11.6696 5.06887 11.6742 5.04435 11.6838C5.01983 11.6935 4.99749 11.7079 4.97863 11.7263C4.95978 11.7447 4.9448 11.7667 4.93457 11.7909C4.92435 11.8152 4.91908 11.8413 4.91909 11.8676C4.91895 11.894 4.92437 11.9201 4.935 11.9442C4.94563 11.9684 4.96124 11.99 4.98079 12.0077C5.00035 12.0254 5.02343 12.0388 5.0485 12.0469C5.07358 12.0551 5.1001 12.0579 5.12633 12.0551C5.17867 12.0501 5.22715 12.0254 5.26197 11.986C5.29678 11.9467 5.31532 11.8955 5.31383 11.8429C5.31265 11.7918 5.29214 11.743 5.25643 11.7064C5.22073 11.6698 5.17248 11.6481 5.1214 11.6456V11.6702ZM9.56223 6.03532C9.61458 6.03532 9.66478 6.01452 9.7018 5.97751C9.73881 5.9405 9.7596 5.89029 9.7596 5.83795C9.75967 5.79119 9.7418 5.74619 9.70967 5.71222C9.67753 5.67825 9.63359 5.65791 9.5869 5.65538C9.5409 5.65916 9.49778 5.67934 9.46541 5.71226C9.43305 5.74518 9.4136 5.78864 9.41061 5.8347C9.40762 5.88077 9.42128 5.92638 9.44912 5.9632C9.47695 6.00003 9.5171 6.02563 9.56223 6.03532ZM8.679 5.65538C8.62664 5.65913 8.57766 5.68261 8.54194 5.72107C8.50622 5.75954 8.48643 5.81013 8.48656 5.86262C8.49344 5.90934 8.51644 5.95218 8.55159 5.98373C8.58674 6.01527 8.63181 6.03352 8.679 6.03532C8.70518 6.03412 8.73084 6.02758 8.75441 6.0161C8.77797 6.00463 8.79894 5.98847 8.81604 5.9686C8.83313 5.94873 8.84599 5.92558 8.85382 5.90057C8.86165 5.87556 8.86428 5.84921 8.86157 5.82315C8.86394 5.79685 8.86043 5.77035 8.85128 5.74559C8.84212 5.72082 8.82757 5.69841 8.80866 5.67998C8.78976 5.66154 8.76698 5.64756 8.74199 5.63903C8.717 5.63051 8.69043 5.62767 8.6642 5.63071L8.679 5.65538ZM4.91909 8.0485C4.96665 8.04594 5.01132 8.02491 5.04359 7.98988C5.07585 7.95485 5.09315 7.9086 5.09179 7.861C5.09125 7.83439 5.0852 7.80819 5.07402 7.78404C5.06283 7.7599 5.04677 7.73833 5.02683 7.72071C5.00689 7.70309 4.98351 7.6898 4.95817 7.68167C4.93283 7.67354 4.90609 7.67076 4.87962 7.67349C4.83275 7.68107 4.78977 7.70415 4.75757 7.73904C4.72537 7.77392 4.70579 7.8186 4.70198 7.86593C4.71307 7.91115 4.73906 7.95132 4.77576 7.97996C4.81246 8.0086 4.85773 8.02406 4.90429 8.02383L4.91909 8.0485ZM4.82041 10.713C4.79446 10.7149 4.76914 10.7219 4.74591 10.7335C4.72267 10.7452 4.70197 10.7614 4.68501 10.7811C4.66804 10.8008 4.65514 10.8237 4.64704 10.8484C4.63895 10.8732 4.63582 10.8992 4.63784 10.9252C4.64506 10.9718 4.66916 11.0141 4.70554 11.0441C4.74193 11.0742 4.78807 11.0898 4.83521 11.088C4.88712 11.083 4.93509 11.0581 4.96911 11.0186C5.00313 10.9791 5.02056 10.9279 5.01778 10.8758C5.01279 10.8235 4.9881 10.775 4.94871 10.7402C4.90931 10.7054 4.85816 10.6868 4.8056 10.6883L4.82041 10.713ZM9.23164 11.542C9.20571 11.5432 9.18028 11.5496 9.15682 11.5607C9.13335 11.5718 9.11231 11.5874 9.09489 11.6067C9.07747 11.6259 9.06402 11.6484 9.05532 11.6729C9.04661 11.6973 9.04281 11.7233 9.04414 11.7492C9.0439 11.7754 9.0493 11.8013 9.05997 11.8253C9.07065 11.8492 9.08635 11.8705 9.10601 11.8879C9.12567 11.9052 9.14883 11.9181 9.17391 11.9256C9.199 11.9332 9.22541 11.9353 9.25138 11.9318C9.29774 11.9244 9.33995 11.9007 9.37042 11.865C9.4009 11.8292 9.41764 11.7838 9.41764 11.7369C9.41764 11.6899 9.4009 11.6445 9.37042 11.6088C9.33995 11.573 9.29774 11.5494 9.25138 11.542H9.23164ZM10.1395 11.6999C10.1346 11.6532 10.1118 11.6102 10.0759 11.5799C10.0401 11.5496 9.99396 11.5342 9.94711 11.537C9.92077 11.537 9.89469 11.5423 9.87042 11.5525C9.84614 11.5627 9.82416 11.5777 9.80577 11.5966C9.78738 11.6154 9.77294 11.6378 9.76332 11.6623C9.7537 11.6868 9.74908 11.713 9.74973 11.7393C9.75781 11.786 9.78199 11.8283 9.81805 11.8589C9.85411 11.8896 9.89978 11.9066 9.94711 11.9071C10.0013 11.8997 10.0505 11.8712 10.0837 11.8278C10.117 11.7843 10.1318 11.7295 10.1247 11.6752L10.1395 11.6999ZM7.25793 11.9466C7.30475 11.9409 7.34813 11.9191 7.38057 11.8849C7.413 11.8506 7.43246 11.8061 7.43557 11.7591C7.4346 11.7108 7.41599 11.6646 7.38326 11.6291C7.35053 11.5937 7.30595 11.5714 7.25793 11.5666C7.23136 11.5673 7.20518 11.5731 7.18088 11.5839C7.15658 11.5947 7.13464 11.6101 7.11631 11.6294C7.09798 11.6486 7.08362 11.6713 7.07406 11.6961C7.06449 11.7209 7.05991 11.7473 7.06056 11.7739C7.0685 11.821 7.09249 11.8639 7.12846 11.8954C7.16442 11.9269 7.21017 11.945 7.25793 11.9466ZM9.97178 8.64554C9.92373 8.6473 9.87754 8.6646 9.84017 8.69486C9.8028 8.72511 9.77626 8.76668 9.76454 8.81331C9.76321 8.83988 9.76714 8.86646 9.7761 8.89151C9.78505 8.91657 9.79886 8.93961 9.81674 8.95932C9.83462 8.97903 9.8562 8.99501 9.88027 9.00637C9.90433 9.01772 9.9304 9.02422 9.95697 9.02548C10.0059 9.0255 10.0528 9.00642 10.0878 8.97232C10.1229 8.93822 10.1432 8.89178 10.1445 8.84291C10.142 8.79542 10.1236 8.75014 10.0923 8.71435C10.061 8.67856 10.0185 8.65433 9.97178 8.64554ZM4.85001 9.07482C4.89632 9.06903 4.93908 9.04702 4.97069 9.01269C5.00231 8.97837 5.02074 8.93395 5.02271 8.88732C5.02217 8.86136 5.01625 8.8358 5.00532 8.81225C4.99438 8.7887 4.97868 8.76768 4.9592 8.75052C4.93971 8.73335 4.91688 8.72042 4.89214 8.71255C4.8674 8.70467 4.84129 8.70202 4.81547 8.70476C4.77122 8.71495 4.73217 8.74085 4.70557 8.77766C4.67897 8.81447 4.66664 8.85968 4.67086 8.9049C4.67508 8.95012 4.69557 8.99226 4.72852 9.02351C4.76147 9.05477 4.80464 9.073 4.85001 9.07482ZM6.1872 12.0354C6.24436 12.0291 6.29688 12.001 6.33369 11.9568C6.3705 11.9126 6.38874 11.8559 6.38457 11.7985C6.38273 11.7747 6.37611 11.7515 6.36511 11.7303C6.3541 11.7091 6.33893 11.6904 6.3205 11.6752C6.30208 11.66 6.28077 11.6486 6.25787 11.6419C6.23497 11.6351 6.21093 11.633 6.1872 11.6357C6.13093 11.6431 6.07963 11.6718 6.04385 11.7158C6.00806 11.7599 5.99049 11.816 5.99476 11.8726C5.9983 11.9167 6.01776 11.9581 6.04954 11.9889C6.08131 12.0198 6.12322 12.0381 6.16746 12.0403L6.1872 12.0354ZM10.1346 9.8051C10.1376 9.75843 10.1231 9.71232 10.0939 9.67581C10.0647 9.63929 10.0229 9.61501 9.97671 9.60773C9.92464 9.60706 9.87407 9.62514 9.83422 9.65865C9.79436 9.69216 9.76788 9.73888 9.7596 9.79029C9.7596 9.84002 9.77936 9.88771 9.81452 9.92288C9.84969 9.95804 9.89738 9.9778 9.94711 9.9778C9.99683 9.9778 10.0445 9.95804 10.0797 9.92288C10.1149 9.88771 10.1346 9.84002 10.1346 9.79029V9.8051ZM9.77441 6.91362C9.82684 6.90888 9.87576 6.88524 9.91207 6.84712C9.94838 6.809 9.9696 6.75898 9.97178 6.70638C9.97115 6.68067 9.96538 6.65535 9.95481 6.63192C9.94423 6.60848 9.92907 6.5874 9.91021 6.56992C9.89135 6.55244 9.86918 6.53892 9.84501 6.53015C9.82084 6.52138 9.79515 6.51755 9.76947 6.51888C9.7435 6.52134 9.71828 6.52893 9.69526 6.5412C9.67225 6.55348 9.65189 6.57019 9.63537 6.59038C9.61885 6.61057 9.6065 6.63383 9.59903 6.65882C9.59156 6.68382 9.58911 6.71004 9.59184 6.73598C9.59431 6.78314 9.61448 6.82763 9.64833 6.86056C9.68217 6.89349 9.7272 6.91244 9.77441 6.91362ZM5.00791 9.90378C5.00793 9.8562 4.98937 9.8105 4.95619 9.7764C4.92301 9.7423 4.87784 9.7225 4.83028 9.72121C4.78327 9.7191 4.73705 9.73384 4.69996 9.76279C4.66286 9.79174 4.63733 9.833 4.62797 9.87911C4.62907 9.93205 4.64993 9.98267 4.68646 10.021C4.72298 10.0594 4.77252 10.0827 4.82534 10.0863C4.87263 10.0829 4.9171 10.0626 4.95062 10.0291C4.98414 9.99553 5.00448 9.95107 5.00791 9.90378ZM9.84349 10.6587C9.84295 10.7063 9.85963 10.7525 9.89046 10.7888C9.92129 10.8251 9.96419 10.849 10.0113 10.8561C10.0584 10.8579 10.1045 10.8423 10.1409 10.8122C10.1773 10.7822 10.2014 10.7399 10.2086 10.6933C10.2132 10.6448 10.1984 10.5966 10.1674 10.5591C10.1364 10.5216 10.0917 10.498 10.0433 10.4934C9.9949 10.4888 9.94665 10.5037 9.90917 10.5347C9.87169 10.5657 9.84807 10.6103 9.84349 10.6587ZM5.03751 5.9169C5.03613 5.86983 5.01876 5.82465 4.98827 5.78877C4.95778 5.7529 4.91598 5.72847 4.86975 5.71953C4.84382 5.7182 4.81789 5.722 4.79343 5.73071C4.76898 5.73941 4.74648 5.75286 4.72723 5.77028C4.70798 5.7877 4.69235 5.80874 4.68125 5.83221C4.67014 5.85567 4.66377 5.8811 4.66251 5.90703C4.6649 5.95468 4.6849 5.99974 4.71863 6.03347C4.75237 6.06721 4.79743 6.08721 4.84508 6.0896C4.89257 6.08878 4.93817 6.07087 4.97351 6.03915C5.00886 6.00742 5.03159 5.96402 5.03751 5.9169ZM6.83359 5.86262C6.83255 5.82633 6.82072 5.79117 6.79961 5.76164C6.7785 5.73211 6.74906 5.70954 6.71505 5.69682C6.68105 5.6841 6.64402 5.68181 6.60871 5.69024C6.5734 5.69866 6.5414 5.71743 6.51681 5.74413C6.49221 5.77084 6.47613 5.80426 6.47063 5.84015C6.46513 5.87604 6.47045 5.91275 6.48592 5.94559C6.50139 5.97844 6.52629 6.00593 6.55746 6.02454C6.58863 6.04316 6.62464 6.05207 6.66089 6.05012C6.68592 6.05078 6.71084 6.04642 6.73416 6.03729C6.75748 6.02816 6.77874 6.01446 6.79667 5.99698C6.81461 5.9795 6.82886 5.95861 6.83859 5.93553C6.84832 5.91246 6.85333 5.88766 6.85332 5.86262H6.83359ZM4.85988 7.12579C4.90699 7.12579 4.95217 7.10708 4.98549 7.07376C5.0188 7.04045 5.03751 6.99527 5.03751 6.94816C5.03692 6.92201 5.03101 6.89625 5.02013 6.87247C5.00925 6.84868 4.99363 6.82737 4.97424 6.80982C4.95484 6.79227 4.93207 6.77886 4.90732 6.77041C4.88257 6.76196 4.85635 6.75864 4.83028 6.76066C4.78186 6.76458 4.73698 6.78758 4.70552 6.8246C4.67405 6.86161 4.65858 6.90961 4.66251 6.95803C4.66644 7.00645 4.68944 7.05132 4.72645 7.08279C4.76346 7.11425 4.81146 7.12972 4.85988 7.12579ZM7.82044 5.83301C7.82473 5.80755 7.82341 5.78145 7.81659 5.75655C7.80976 5.73164 7.79758 5.70853 7.78091 5.68881C7.76423 5.66909 7.74346 5.65325 7.72003 5.64238C7.69661 5.63151 7.6711 5.62588 7.64527 5.62588C7.61945 5.62588 7.59394 5.63151 7.57051 5.64238C7.54709 5.65325 7.52631 5.66909 7.50964 5.68881C7.49296 5.70853 7.48079 5.73164 7.47396 5.75655C7.46713 5.78145 7.46582 5.80755 7.47011 5.83301C7.46582 5.85848 7.46713 5.88457 7.47396 5.90948C7.48079 5.93438 7.49296 5.9575 7.50964 5.97722C7.52631 5.99694 7.54709 6.01278 7.57051 6.02365C7.59394 6.03452 7.61945 6.04015 7.64527 6.04015C7.6711 6.04015 7.69661 6.03452 7.72003 6.02365C7.74346 6.01278 7.76423 5.99694 7.78091 5.97722C7.79758 5.9575 7.80976 5.93438 7.81659 5.90948C7.82341 5.88457 7.82473 5.85848 7.82044 5.83301Z" fill="#F9F8F7"/>
<path d="M10.075 3.48506C10.0972 3.92722 10.0972 4.37022 10.075 4.81238C10.0109 4.83183 9.9446 4.84343 9.87766 4.84692C4.83484 4.80251 4.76576 4.9308 4.55852 4.92587C4.51905 4.73343 4.52892 4.88146 4.63254 3.79592C4.64546 3.74165 4.66363 3.68877 4.68681 3.63803C5.05177 3.55133 5.42842 3.52466 5.80196 3.55908C5.83098 3.62019 5.84221 3.68823 5.83435 3.75543C5.8265 3.82262 5.79988 3.88625 5.75755 3.93902C5.71972 4.00331 5.69695 4.07534 5.69097 4.14969C5.68499 4.22404 5.69594 4.29879 5.72301 4.3683C5.73825 4.43188 5.7741 4.48862 5.82498 4.52968C5.87586 4.57074 5.9389 4.5938 6.00426 4.59527C6.06654 4.60263 6.12948 4.60263 6.19176 4.59527C6.2589 4.58867 6.32301 4.56409 6.37734 4.5241C6.43167 4.48412 6.47421 4.43023 6.50048 4.36809C6.52675 4.30596 6.53577 4.23789 6.52659 4.17106C6.51742 4.10423 6.49039 4.04111 6.44835 3.98836C6.38519 3.91961 6.31582 3.85684 6.24111 3.80086L6.29538 3.55908C6.84455 3.5042 7.39677 3.48607 7.94836 3.5048C7.98707 3.59004 8.0071 3.68257 8.0071 3.77619C8.0071 3.8698 7.98707 3.96233 7.94836 4.04757C7.92553 4.13558 7.92965 4.22841 7.96019 4.31405C7.99074 4.39969 8.04629 4.47418 8.11966 4.52788C8.19303 4.58158 8.28084 4.61201 8.3717 4.61523C8.46257 4.61845 8.5523 4.5943 8.62929 4.54593C8.68247 4.50541 8.72558 4.45316 8.75525 4.39325C8.78492 4.33334 8.80036 4.26739 8.80036 4.20053C8.80036 4.13367 8.78492 4.06772 8.75525 4.00781C8.72558 3.9479 8.68247 3.89565 8.62929 3.85513C8.56025 3.81125 8.48762 3.77329 8.41218 3.74165V3.51467C8.96427 3.45217 9.52106 3.44225 10.075 3.48506Z" fill="#DA0100"/>
<path d="M11.5163 5.8134C11.3584 5.74432 11.5508 5.90221 10.6676 5.04858C10.6312 5.01734 10.6019 4.97877 10.5815 4.9354C10.5611 4.89204 10.5501 4.84486 10.5491 4.79694C10.5491 4.49101 10.5491 4.18015 10.5195 3.87423C10.5195 3.84462 10.5195 3.81502 10.5195 3.76074C10.6676 3.84462 10.4702 3.62752 11.4422 4.80681C11.5035 4.88151 11.5335 4.97695 11.5261 5.07326C11.5311 5.3101 11.5261 5.53214 11.5163 5.8134Z" fill="#DA0100"/>
<path d="M8.32752 8.98703C8.13015 8.98703 7.97225 9.03637 7.83409 9.03637C7.78623 9.04041 7.73805 9.0347 7.69246 9.01959C7.64687 9.00448 7.60481 8.98028 7.56884 8.94846C7.53286 8.91663 7.50371 8.87785 7.48315 8.83444C7.46259 8.79103 7.45105 8.74391 7.44922 8.69591C7.44922 8.35545 7.44922 8.01498 7.44922 7.67452C7.4492 7.61428 7.4682 7.55557 7.5035 7.50675C7.52498 7.47988 7.55362 7.45963 7.58611 7.44833C7.6186 7.43703 7.65362 7.43513 7.68714 7.44287C7.72066 7.4506 7.75132 7.46765 7.77557 7.49205C7.79982 7.51645 7.81669 7.5472 7.82422 7.58077C7.82422 7.66465 7.82422 7.68932 7.82422 8.56762C7.89117 8.57903 7.95958 8.57903 8.02653 8.56762C8.10561 8.5237 8.17347 8.46211 8.22482 8.38765C8.27618 8.31318 8.30964 8.22786 8.32258 8.13834C8.34725 7.98044 8.27818 7.40313 8.62357 7.43274C8.68199 7.44007 8.73558 7.4689 8.77389 7.5136C8.81221 7.5583 8.8325 7.61567 8.83081 7.67452C8.83114 7.99289 8.81136 8.31096 8.7716 8.62683C8.7716 10.3242 8.7716 10.1663 8.7716 10.191C8.7637 10.2436 8.73719 10.2916 8.69689 10.3263C8.6566 10.3609 8.6052 10.38 8.55203 10.38C8.49886 10.38 8.44745 10.3609 8.40716 10.3263C8.36686 10.2916 8.34036 10.2436 8.33245 10.191C8.31272 10.0676 8.32752 9.97388 8.32752 8.98703Z" fill="#DA0D0D"/>
<path d="M6.40296 8.93704C5.68749 9.37619 5.70229 9.37126 5.65295 9.391C5.61497 9.40486 5.57359 9.40641 5.53468 9.39542C5.49578 9.38444 5.46132 9.36148 5.43619 9.3298C5.41107 9.29813 5.39656 9.25934 5.39473 9.21896C5.39289 9.17857 5.40383 9.13863 5.42597 9.10481C5.64802 8.82356 6.52631 8.61138 6.37829 7.77749C6.36366 7.70586 6.36366 7.63202 6.37829 7.56038C6.38956 7.51873 6.41487 7.48223 6.44992 7.45706C6.48498 7.4319 6.52765 7.41959 6.57072 7.42222C6.73849 7.42222 6.80263 7.56038 6.81744 7.72815C6.84704 8.06861 6.81744 10.141 6.81744 10.1509C6.81622 10.1829 6.80852 10.2143 6.79481 10.2432C6.78111 10.2722 6.76167 10.298 6.73769 10.3192C6.71371 10.3405 6.68567 10.3566 6.65528 10.3667C6.62488 10.3767 6.59276 10.3805 6.56085 10.3778C6.44243 10.3778 6.37335 10.2841 6.36842 10.1311C6.40296 9.81534 6.40296 9.25284 6.40296 8.93704Z" fill="#DA0D0D"/>
<path d="M9.81949 7.99951C9.76584 7.99951 9.71438 7.97819 9.67644 7.94026C9.6385 7.90232 9.61719 7.85086 9.61719 7.7972C9.61719 7.74355 9.6385 7.69209 9.67644 7.65415C9.71438 7.61621 9.76584 7.5949 9.81949 7.5949C10.0662 7.58503 10.0514 7.99951 9.81949 7.99951Z" fill="#332D28"/>
<path d="M8.2646 11.9474C8.21739 11.9462 8.17237 11.9272 8.13852 11.8943C8.10468 11.8614 8.0845 11.8169 8.08203 11.7697C8.08421 11.7171 8.10543 11.6671 8.14174 11.629C8.17804 11.5909 8.22697 11.5672 8.2794 11.5625C8.33306 11.5625 8.38451 11.5838 8.42245 11.6218C8.46039 11.6597 8.48171 11.7112 8.48171 11.7648C8.47986 11.7912 8.47273 11.817 8.46072 11.8405C8.44872 11.8641 8.4321 11.8851 8.41184 11.9021C8.39159 11.9191 8.36812 11.9319 8.34282 11.9397C8.31753 11.9475 8.29092 11.9501 8.2646 11.9474Z" fill="#332D28"/>
<path d="M5.12223 11.6456C5.16942 11.6474 5.21449 11.6656 5.24964 11.6972C5.28478 11.7287 5.30779 11.7715 5.31467 11.8183C5.31615 11.8708 5.29761 11.922 5.2628 11.9614C5.22799 12.0008 5.1795 12.0255 5.12716 12.0304C5.10093 12.0332 5.07441 12.0304 5.04934 12.0223C5.02426 12.0141 5.00119 12.0007 4.98163 11.983C4.96207 11.9653 4.94646 11.9437 4.93583 11.9196C4.9252 11.8954 4.91978 11.8693 4.91992 11.8429C4.91992 11.8166 4.92518 11.7905 4.93541 11.7663C4.94563 11.742 4.96061 11.72 4.97947 11.7016C4.99832 11.6832 5.02066 11.6688 5.04518 11.6592C5.0697 11.6495 5.0959 11.6449 5.12223 11.6456Z" fill="#332D28"/>
<path d="M9.54656 6.02545C9.50143 6.01575 9.46128 5.99016 9.43345 5.95333C9.40561 5.9165 9.39194 5.8709 9.39494 5.82483C9.39793 5.77876 9.41738 5.73531 9.44974 5.70239C9.48211 5.66947 9.52522 5.64928 9.57123 5.64551C9.61792 5.64804 9.66186 5.66838 9.69399 5.70235C9.72613 5.73632 9.744 5.78132 9.74393 5.82808C9.74393 5.88042 9.72314 5.93062 9.68612 5.96764C9.64911 6.00465 9.59891 6.02545 9.54656 6.02545Z" fill="#332D28"/>
<path d="M8.66314 5.63094C8.70944 5.62958 8.75443 5.64636 8.78854 5.6777C8.82264 5.70903 8.84315 5.75245 8.84571 5.7987C8.84842 5.82477 8.84579 5.85112 8.83796 5.87613C8.83013 5.90114 8.81727 5.92429 8.80018 5.94416C8.78308 5.96402 8.76211 5.98019 8.73855 5.99166C8.71498 6.00313 8.68932 6.00967 8.66314 6.01087C8.61595 6.00907 8.57088 5.99082 8.53573 5.95928C8.50059 5.92774 8.47758 5.8849 8.4707 5.83817C8.47057 5.78568 8.49036 5.73509 8.52608 5.69663C8.5618 5.65816 8.61078 5.63468 8.66314 5.63094Z" fill="#332D28"/>
<path d="M4.90461 8.02446C4.85199 8.02733 4.80025 8.01006 4.75992 7.97614C4.71959 7.94223 4.69369 7.89422 4.6875 7.84189C4.69131 7.79457 4.71088 7.74989 4.74308 7.715C4.77529 7.68011 4.81826 7.65703 4.86513 7.64946C4.8916 7.64672 4.91835 7.64951 4.94369 7.65763C4.96903 7.66576 4.9924 7.67905 5.01234 7.69668C5.03228 7.7143 5.04835 7.73586 5.05953 7.76001C5.07071 7.78415 5.07676 7.81035 5.07731 7.83696C5.07866 7.88456 5.06136 7.93081 5.0291 7.96584C4.99684 8.00087 4.95216 8.0219 4.90461 8.02446Z" fill="#332D28"/>
<path d="M4.80621 10.6885C4.85259 10.6896 4.89724 10.7063 4.93303 10.7358C4.96881 10.7653 4.99365 10.806 5.00358 10.8513C5.00637 10.9034 4.98893 10.9545 4.95491 10.9941C4.9209 11.0336 4.87293 11.0585 4.82101 11.0635C4.77387 11.0652 4.72773 11.0496 4.69135 11.0196C4.65496 10.9896 4.63087 10.9473 4.62364 10.9006C4.62162 10.8747 4.62475 10.8486 4.63285 10.8239C4.64094 10.7992 4.65384 10.7763 4.67081 10.7566C4.68778 10.7369 4.70847 10.7207 4.73171 10.709C4.75495 10.6973 4.78027 10.6903 4.80621 10.6885Z" fill="#332D28"/>
<path d="M9.21726 11.5169C9.26363 11.5243 9.30584 11.548 9.33631 11.5837C9.36679 11.6194 9.38353 11.6648 9.38353 11.7118C9.38353 11.7587 9.36679 11.8041 9.33631 11.8399C9.30584 11.8756 9.26363 11.8993 9.21726 11.9067C9.1913 11.9102 9.16489 11.9081 9.1398 11.9005C9.11472 11.893 9.09156 11.8801 9.0719 11.8628C9.05224 11.8454 9.03654 11.8241 9.02586 11.8002C9.01519 11.7762 9.00979 11.7503 9.01003 11.7241C9.00861 11.6965 9.013 11.6689 9.02291 11.6431C9.03282 11.6174 9.04804 11.5939 9.06757 11.5744C9.08711 11.5549 9.11053 11.5397 9.13631 11.5297C9.1621 11.5198 9.18968 11.5154 9.21726 11.5169Z" fill="#332D28"/>
<path d="M10.1242 11.6749C10.1244 11.7274 10.1046 11.778 10.0689 11.8164C10.0331 11.8549 9.98417 11.8784 9.93181 11.8821C9.88448 11.8817 9.83881 11.8646 9.80275 11.834C9.76669 11.8033 9.74252 11.761 9.73444 11.7143C9.73378 11.688 9.7384 11.6618 9.74802 11.6373C9.75764 11.6128 9.77208 11.5904 9.79047 11.5716C9.80886 11.5527 9.83085 11.5378 9.85512 11.5275C9.87939 11.5173 9.90547 11.512 9.93181 11.512C9.97867 11.5092 10.0248 11.5246 10.0606 11.5549C10.0965 11.5852 10.1193 11.6282 10.1242 11.6749Z" fill="#332D28"/>
<path d="M7.25798 11.9473C7.21021 11.9457 7.16447 11.9276 7.1285 11.8962C7.09253 11.8647 7.06855 11.8218 7.06061 11.7746C7.05995 11.7481 7.06454 11.7216 7.0741 11.6968C7.08367 11.672 7.09803 11.6494 7.11635 11.6301C7.13468 11.6109 7.15663 11.5954 7.18093 11.5847C7.20523 11.5739 7.23141 11.568 7.25798 11.5674C7.30599 11.5722 7.35058 11.5944 7.38331 11.6299C7.41604 11.6654 7.43465 11.7116 7.43561 11.7598C7.4325 11.8069 7.41305 11.8514 7.38061 11.8856C7.34818 11.9198 7.3048 11.9417 7.25798 11.9473Z" fill="#332D28"/>
<path d="M9.97116 8.64551C10.0179 8.65429 10.0603 8.67852 10.0917 8.71432C10.123 8.75011 10.1414 8.79538 10.1439 8.84288C10.1426 8.89175 10.1223 8.93818 10.0872 8.97228C10.0522 9.00639 10.0052 9.02546 9.95636 9.02545C9.92978 9.02418 9.90372 9.01769 9.87965 9.00633C9.85559 8.99498 9.834 8.97899 9.81613 8.95928C9.79825 8.93957 9.78444 8.91653 9.77548 8.89148C9.76652 8.86642 9.7626 8.83985 9.76392 8.81327C9.77565 8.76664 9.80219 8.72507 9.83956 8.69482C9.87693 8.66457 9.92311 8.64726 9.97116 8.64551Z" fill="#332D28"/>
<path d="M4.83035 9.07522C4.78498 9.07339 4.74181 9.05516 4.70886 9.02391C4.67591 8.99266 4.65542 8.95051 4.6512 8.90529C4.64698 8.86008 4.65932 8.81486 4.68591 8.77805C4.71251 8.74125 4.75156 8.71534 4.79581 8.70515C4.82163 8.70241 4.84774 8.70506 4.87248 8.71294C4.89722 8.72082 4.92005 8.73375 4.93954 8.75091C4.95902 8.76807 4.97472 8.78909 4.98566 8.81264C4.99659 8.83619 5.00252 8.86176 5.00305 8.88771C5.00108 8.93434 4.98265 8.97876 4.95103 9.01309C4.91942 9.04741 4.87666 9.06943 4.83035 9.07522Z" fill="#332D28"/>
<path d="M6.16768 12.0405C6.12082 12.0433 6.07468 12.0279 6.03884 11.9976C6.00301 11.9673 5.98023 11.9243 5.97524 11.8777C5.97097 11.8211 5.98853 11.765 6.02432 11.7209C6.06011 11.6769 6.11141 11.6482 6.16768 11.6408C6.19141 11.6381 6.21544 11.6402 6.23835 11.647C6.26125 11.6537 6.28255 11.6651 6.30098 11.6803C6.31941 11.6955 6.33458 11.7142 6.34558 11.7354C6.35659 11.7566 6.36321 11.7798 6.36505 11.8036C6.36922 11.861 6.35098 11.9177 6.31417 11.9619C6.27735 12.0061 6.22484 12.0342 6.16768 12.0405Z" fill="#251E19"/>
<path d="M10.1289 9.81052C10.1289 9.86024 10.1092 9.90794 10.074 9.9431C10.0388 9.97826 9.99114 9.99802 9.94141 9.99802C9.89168 9.99802 9.84399 9.97826 9.80882 9.9431C9.77366 9.90794 9.75391 9.86024 9.75391 9.81052C9.76219 9.75911 9.78867 9.71239 9.82852 9.67887C9.86838 9.64536 9.91895 9.62728 9.97101 9.62795C10.0146 9.63492 10.0544 9.65705 10.0832 9.69045C10.1121 9.72384 10.1283 9.76636 10.1289 9.81052Z" fill="#332D28"/>
<path d="M9.77349 6.91355C9.72628 6.91237 9.68126 6.89343 9.64741 6.8605C9.61357 6.82757 9.59339 6.78308 9.59092 6.73592C9.5882 6.70998 9.59064 6.68375 9.59812 6.65876C9.60559 6.63377 9.61794 6.6105 9.63446 6.59032C9.65098 6.57013 9.67133 6.55341 9.69435 6.54114C9.71737 6.52887 9.74259 6.52128 9.76856 6.51881C9.79424 6.51748 9.81992 6.52132 9.84409 6.53008C9.86827 6.53885 9.89044 6.55237 9.90929 6.56985C9.92815 6.58733 9.94332 6.60841 9.95389 6.63185C9.96447 6.65529 9.97024 6.68061 9.97086 6.70631C9.96868 6.75891 9.94746 6.80893 9.91116 6.84706C9.87485 6.88518 9.82592 6.90881 9.77349 6.91355Z" fill="#332D28"/>
<path d="M5.00689 9.90347C5.00346 9.95076 4.98312 9.99522 4.9496 10.0287C4.91608 10.0623 4.87161 10.0826 4.82432 10.086C4.7715 10.0824 4.72196 10.0591 4.68544 10.0207C4.64892 9.98236 4.62806 9.93174 4.62695 9.8788C4.63632 9.83269 4.66185 9.79143 4.69894 9.76248C4.73603 9.73353 4.78225 9.71879 4.82926 9.7209C4.87682 9.72219 4.922 9.74199 4.95517 9.77609C4.98835 9.81019 5.00691 9.85589 5.00689 9.90347Z" fill="#332D28"/>
<path d="M10.2089 10.6938C10.2017 10.7404 10.1776 10.7828 10.1412 10.8128C10.1048 10.8428 10.0587 10.8584 10.0115 10.8566C9.96446 10.8495 9.92157 10.8256 9.89074 10.7893C9.85991 10.7531 9.84322 10.7069 9.84376 10.6593C9.84834 10.6109 9.87197 10.5662 9.90945 10.5352C9.94692 10.5042 9.99518 10.4894 10.0436 10.494C10.092 10.4986 10.1366 10.5222 10.1676 10.5597C10.1986 10.5971 10.2135 10.6454 10.2089 10.6938Z" fill="#332D28"/>
<path d="M5.03711 5.91736C5.03118 5.96448 5.00846 6.00788 4.97311 6.03961C4.93777 6.07133 4.89216 6.08924 4.84468 6.09005C4.79703 6.08767 4.75197 6.06767 4.71823 6.03393C4.6845 6.0002 4.6645 5.95514 4.66211 5.90749C4.66337 5.88156 4.66974 5.85613 4.68085 5.83267C4.69195 5.8092 4.70758 5.78816 4.72683 5.77074C4.74608 5.75332 4.76858 5.73987 4.79303 5.73117C4.81749 5.72246 4.84342 5.71866 4.86935 5.71999C4.91557 5.72893 4.95737 5.75336 4.98787 5.78923C5.01836 5.8251 5.03573 5.87029 5.03711 5.91736Z" fill="#332D28"/>
<path d="M5.88179 5.91735C5.87586 5.96448 5.85314 6.00788 5.81779 6.0396C5.78244 6.07132 5.73684 6.08924 5.68935 6.09005C5.64179 6.08877 5.59661 6.06897 5.56344 6.03487C5.53026 6.00077 5.5117 5.95506 5.51172 5.90749C5.51234 5.88178 5.51811 5.85646 5.52869 5.83302C5.53926 5.80958 5.55443 5.7885 5.57329 5.77102C5.59215 5.75355 5.61432 5.74002 5.63849 5.73126C5.66266 5.72249 5.68835 5.71866 5.71402 5.71998C5.76066 5.72806 5.80299 5.75223 5.83364 5.7883C5.86429 5.82436 5.88133 5.87003 5.88179 5.91735Z" fill="#332D28"/>
<path d="M6.85304 5.86302C6.85318 5.91028 6.83547 5.95586 6.80345 5.99063C6.77143 6.0254 6.72746 6.04679 6.68034 6.05052C6.64544 6.05143 6.61105 6.04205 6.58146 6.02353C6.55186 6.00501 6.52838 5.97819 6.51395 5.94641C6.49951 5.91462 6.49476 5.87929 6.50029 5.84482C6.50581 5.81035 6.52137 5.77828 6.54502 5.7526C6.56867 5.72693 6.59936 5.70879 6.63326 5.70045C6.66716 5.69212 6.70276 5.69395 6.73562 5.70573C6.76848 5.71751 6.79714 5.73871 6.81803 5.76668C6.83891 5.79466 6.85109 5.82816 6.85304 5.86302Z" fill="#332D28"/>
<path d="M4.87961 7.12645C4.83119 7.13038 4.78319 7.11491 4.74618 7.08345C4.70917 7.05198 4.68617 7.00711 4.68224 6.95869C4.67831 6.91027 4.69378 6.86227 4.72525 6.82526C4.75671 6.78824 4.80159 6.76524 4.85001 6.76132C4.87608 6.7593 4.9023 6.76262 4.92705 6.77107C4.9518 6.77952 4.97457 6.79293 4.99397 6.81048C5.01336 6.82803 5.02897 6.84935 5.03985 6.87313C5.05073 6.89692 5.05665 6.92267 5.05724 6.94882C5.05724 6.99593 5.03853 7.04111 5.00522 7.07442C4.9719 7.10774 4.92672 7.12645 4.87961 7.12645Z" fill="#332D28"/>
<path d="M7.83522 5.83311C7.83951 5.85858 7.8382 5.88467 7.83137 5.90958C7.82454 5.93448 7.81237 5.9576 7.79569 5.97732C7.77902 5.99703 7.75824 6.01288 7.73482 6.02375C7.71139 6.03462 7.68588 6.04025 7.66006 6.04025C7.63423 6.04025 7.60872 6.03462 7.58529 6.02375C7.56187 6.01288 7.54109 5.99703 7.52442 5.97732C7.50774 5.9576 7.49557 5.93448 7.48874 5.90958C7.48191 5.88467 7.4806 5.85858 7.48489 5.83311C7.4806 5.80765 7.48191 5.78155 7.48874 5.75665C7.49557 5.73174 7.50774 5.70863 7.52442 5.68891C7.54109 5.66919 7.56187 5.65334 7.58529 5.64248C7.60872 5.63161 7.63423 5.62598 7.66006 5.62598C7.68588 5.62598 7.71139 5.63161 7.73482 5.64248C7.75824 5.65334 7.77902 5.66919 7.79569 5.68891C7.81237 5.70863 7.82454 5.73174 7.83137 5.75665C7.8382 5.78155 7.83951 5.80765 7.83522 5.83311Z" fill="#332D28"/>
</svg>
