<svg width="16" height="16" viewBox="0 0 16 16" fill="none" xmlns="http://www.w3.org/2000/svg">
<path d="M7.88223 10.1596C8.11423 9.98942 8.32864 9.79646 8.52223 9.5836C8.49074 9.32347 8.47578 9.06161 8.47743 8.7996C8.4834 8.75875 8.50259 8.72099 8.53207 8.6921C8.56154 8.6632 8.59967 8.64476 8.64063 8.6396C8.68273 8.6391 8.72386 8.65223 8.75788 8.67703C8.79191 8.70183 8.817 8.73697 8.82943 8.7772C8.85823 8.8796 8.87103 8.982 8.89343 9.0972C9.37343 8.598 9.89823 7.4012 9.69663 6.5372C9.63706 6.53082 9.57699 6.53082 9.51743 6.5372C7.17823 7.0204 6.03583 4.5628 7.59742 3.1036C7.89864 2.81956 8.25847 2.60503 8.65157 2.4751C9.04467 2.34517 9.46147 2.30302 9.87263 2.3516C10.1297 2.37995 10.3754 2.47246 10.5874 2.62065C10.7993 2.76883 10.9706 2.96791 11.0854 3.1996C11.3174 3.51584 11.4469 3.89553 11.4566 4.2876C11.4504 4.69668 11.3362 5.09686 11.1254 5.44754C10.9147 5.79822 10.615 6.08693 10.2566 6.2844C10.2214 6.3034 10.1881 6.32592 10.1574 6.3516C10.2199 6.92072 10.1721 7.49657 10.0166 8.0476C10.0634 8.03332 10.1084 8.014 10.151 7.99C10.4536 7.79537 10.7938 7.66671 11.1494 7.6124C11.7446 7.5164 12.471 7.462 13.0182 7.718C13.3926 7.8908 13.1942 8.3292 12.9414 8.518C11.7382 9.4268 11.0214 9.3244 9.49183 9.1196C9.25503 9.398 9.03743 9.6828 8.79103 9.942C8.54463 10.2012 8.27262 10.4124 8.00063 10.678C8.14143 10.7004 8.25023 10.7164 8.35903 10.7388C8.40106 10.7445 8.43987 10.7645 8.46898 10.7953C8.49809 10.8262 8.51576 10.8661 8.51903 10.9084C8.51736 10.9511 8.50174 10.992 8.47458 11.025C8.44741 11.0579 8.41019 11.081 8.36863 11.0908C8.14783 11.1324 8.09023 11.0908 7.53982 10.9916C7.05415 11.2877 6.55081 11.5538 6.03263 11.7884C6.06908 11.826 6.10226 11.8667 6.13183 11.91C6.15085 11.9358 6.16229 11.9665 6.16488 11.9985C6.16746 12.0305 6.16109 12.0625 6.14647 12.0911C6.13186 12.1197 6.10957 12.1436 6.08212 12.1602C6.05466 12.1769 6.02312 12.1855 5.99102 12.1852C5.91347 12.2017 5.83266 12.1927 5.76063 12.1596C5.64249 12.0925 5.51016 12.0544 5.37445 12.0483C5.23875 12.0422 5.10352 12.0682 4.97983 12.1244C4.48414 12.2708 3.97283 12.3578 3.45663 12.3836C3.40325 12.3814 3.35256 12.3596 3.31421 12.3224C3.27585 12.2853 3.25251 12.2353 3.24863 12.182C3.245 12.1343 3.25847 12.0869 3.28661 12.0482C3.31474 12.0095 3.35573 11.982 3.40223 11.9708C4.55493 11.8657 5.67419 11.5271 6.69183 10.9756C6.74623 10.9436 6.79743 10.9052 6.86143 10.8636L6.78143 10.6556C6.61642 10.2419 6.55693 9.79362 6.60833 9.35119C6.65972 8.90876 6.82038 8.48607 7.07583 8.1212C7.14459 8.00975 7.22049 7.90286 7.30303 7.8012C7.33234 7.74421 7.37809 7.69733 7.43435 7.66664C7.49061 7.63596 7.55479 7.62287 7.61857 7.62907C7.68236 7.63528 7.74281 7.6605 7.7921 7.70145C7.84139 7.74241 7.87725 7.79722 7.89503 7.8588C8.36863 8.6908 8.11263 9.2348 7.75743 10.1212C7.7179 10.1707 7.69051 10.2288 7.67742 10.2908C7.74963 10.2535 7.8182 10.2096 7.88223 10.1596ZM9.84063 5.1452L9.97503 5.1004C10.0358 5.1004 10.0902 5.1004 10.1126 5.0268L10.1926 4.9372C10.2058 4.93491 10.2183 4.92999 10.2295 4.92274C10.2407 4.91549 10.2503 4.90606 10.2578 4.895C10.2653 4.88395 10.2704 4.87151 10.273 4.85841C10.2755 4.84532 10.2754 4.83184 10.2726 4.8188C10.3078 4.8188 10.359 4.8188 10.3814 4.79C10.5484 4.63617 10.6733 4.44229 10.7444 4.22671C10.8155 4.01112 10.8305 3.78096 10.7878 3.558C10.7154 3.34325 10.5805 3.15507 10.4003 3.01764C10.2201 2.88021 10.0029 2.79982 9.77663 2.7868C9.90997 2.85431 10.0383 2.93131 10.1606 3.0172C10.3727 3.16008 10.5271 3.37367 10.5962 3.61985C10.6654 3.86603 10.6448 4.12878 10.5382 4.3612C10.4604 4.52114 10.3728 4.67611 10.2758 4.8252C10.2627 4.82748 10.2501 4.8324 10.2389 4.83965C10.2277 4.8469 10.2181 4.85633 10.2107 4.86739C10.2032 4.87844 10.198 4.89089 10.1955 4.90398C10.1929 4.91707 10.193 4.93055 10.1958 4.9436L10.119 4.9244C10.0821 4.93647 10.0489 4.95781 10.0225 4.98638C9.99621 5.01495 9.97765 5.0498 9.96863 5.0876L9.83423 5.1356C9.81503 5.174 9.81183 5.1708 9.84063 5.1452ZM10.1894 3.8652H10.1702C10.176 3.83453 10.176 3.80306 10.1702 3.7724C10.1291 3.61326 10.0378 3.4716 9.90982 3.36843C9.78186 3.26526 9.62407 3.20606 9.45983 3.1996C9.15778 3.20649 8.86231 3.28923 8.60061 3.44021C8.33891 3.59119 8.11938 3.80556 7.96222 4.0636C7.87544 4.20435 7.84073 4.37106 7.86412 4.53475C7.8875 4.69845 7.96751 4.84877 8.09023 4.9596C8.2296 5.09844 8.39911 5.2033 8.58558 5.26601C8.77205 5.32872 8.97047 5.3476 9.16543 5.3212C9.21711 5.31286 9.26693 5.29553 9.31263 5.27C8.76223 5.1804 8.33023 4.854 8.42943 4.31C8.45867 4.11512 8.5406 3.93194 8.66637 3.78023C8.79213 3.62853 8.95695 3.51406 9.14303 3.4492C9.30093 3.3839 9.47599 3.37265 9.64095 3.41722C9.80591 3.46179 9.95149 3.55966 10.055 3.6956L10.1894 3.8652ZM10.8294 4.9852C10.7852 5.01248 10.7435 5.04353 10.7046 5.078C10.3937 5.41342 9.97669 5.63151 9.52383 5.6956C9.23815 5.77636 8.93691 5.78502 8.64707 5.7208C8.35723 5.65657 8.08784 5.52147 7.86303 5.3276C7.69984 5.19924 7.57567 5.02794 7.50445 4.83293C7.43323 4.63791 7.41777 4.42691 7.45983 4.2236C7.47582 4.1564 7.48223 4.0892 7.49503 4.006C7.37279 4.18371 7.30903 4.39513 7.31263 4.6108C7.33183 6.022 8.73983 6.5468 10.0326 5.91C10.3172 5.76501 10.5555 5.54332 10.7206 5.27C10.7828 5.18495 10.8195 5.08393 10.8262 4.9788C10.8806 4.9404 10.8678 4.9532 10.8646 4.9276L10.8294 4.9852ZM12.7494 8.0828C12.6432 8.02089 12.5235 7.98575 12.4006 7.9804C12.0435 7.94145 11.6828 7.95222 11.3286 8.0124C10.8328 8.07521 10.367 8.2847 9.99103 8.614C9.96235 8.64612 9.93764 8.68158 9.91743 8.7196C10.1791 8.78548 10.4476 8.81986 10.7174 8.822C11.3997 8.86392 12.0733 8.6519 12.6086 8.2268C12.6589 8.17988 12.7059 8.12963 12.7494 8.0764V8.0828ZM7.57823 8.2268C7.11103 8.6396 6.88383 9.5996 7.10463 10.3068C7.12063 10.3068 7.14303 10.2908 7.15263 10.278C7.426 9.88171 7.61348 9.43263 7.70303 8.9596C7.75571 8.70627 7.71116 8.44239 7.57823 8.2204V8.2268ZM9.60063 4.758C9.52824 4.74406 9.45932 4.71596 9.39782 4.67533C9.33631 4.63469 9.28344 4.58231 9.24223 4.5212C9.05983 4.2012 9.46943 3.8812 9.61023 4.1692C9.63263 4.2204 9.61023 4.3036 9.69023 4.3164C9.95583 4.23 9.71583 3.7788 9.41183 3.8108C8.97983 3.8588 8.67583 4.4508 8.94782 4.6652C9.03451 4.74482 9.14329 4.79631 9.25983 4.81287C9.37636 4.82944 9.49518 4.81031 9.60063 4.758Z" fill="#1A1418"/>
<path d="M10.7206 5.26693C10.5555 5.54026 10.3172 5.76194 10.0326 5.90693C8.75264 6.54693 7.33184 6.01893 7.31264 4.60773C7.30905 4.39206 7.37281 4.18065 7.49504 4.00293C7.49504 4.08613 7.47584 4.15333 7.45984 4.22053C7.41779 4.42384 7.43324 4.63485 7.50447 4.82986C7.57569 5.02487 7.69986 5.19617 7.86304 5.32453C8.02664 5.47617 8.21937 5.59295 8.42952 5.66777C8.63966 5.74258 8.86283 5.77387 9.08544 5.75973C9.38681 5.76345 9.68579 5.7058 9.96416 5.59027C10.2425 5.47474 10.4945 5.30375 10.7046 5.08773C10.7435 5.05326 10.7853 5.02221 10.8294 4.99493C10.8208 5.09435 10.783 5.18899 10.7206 5.26693Z" fill="#DA0700"/>
<path d="M10.0541 3.6962C9.95058 3.56026 9.805 3.46239 9.64004 3.41782C9.47508 3.37325 9.30002 3.3845 9.14212 3.4498C8.95604 3.51466 8.79122 3.62912 8.66546 3.78083C8.53969 3.93254 8.45776 4.11572 8.42852 4.3106C8.32932 4.845 8.74852 5.1714 9.31172 5.2706C9.26602 5.29613 9.2162 5.31346 9.16452 5.32179C8.96956 5.3482 8.77114 5.32932 8.58467 5.26661C8.3982 5.2039 8.22869 5.09904 8.08932 4.9602C7.76932 4.6402 7.73732 4.2018 8.21092 3.7378C8.54176 3.40398 8.98906 3.2113 9.45892 3.2002C9.62412 3.20335 9.78387 3.25992 9.91424 3.36145C10.0446 3.46297 10.1386 3.60399 10.1821 3.7634C10.1879 3.79406 10.1879 3.82553 10.1821 3.8562C10.1821 3.8562 10.1885 3.8594 10.0541 3.6962Z" fill="#DA0700"/>
<path d="M9.60066 4.75839C9.49675 4.8079 9.3805 4.8255 9.26659 4.80898C9.15268 4.79247 9.04622 4.74257 8.96066 4.66559C8.68866 4.45759 8.99266 3.85919 9.42466 3.81119C9.74466 3.77919 9.96866 4.23039 9.70306 4.31679C9.61026 4.31679 9.64546 4.22079 9.62306 4.16959C9.48226 3.86879 9.07266 4.19519 9.25506 4.52159C9.33528 4.64227 9.45916 4.72715 9.60066 4.75839Z" fill="#DA0700"/>
<path d="M10.2746 4.82551C10.3726 4.67706 10.4603 4.52202 10.537 4.36151C10.6436 4.12909 10.6642 3.86634 10.595 3.62016C10.5259 3.37398 10.3715 3.16039 10.1594 3.01751C10.0371 2.93162 9.90874 2.85462 9.77539 2.78711C10.0016 2.80013 10.2188 2.88052 10.399 3.01795C10.5792 3.15538 10.7142 3.34356 10.7866 3.55831C10.8313 3.78274 10.8174 4.01491 10.7462 4.23239C10.675 4.44988 10.5489 4.64534 10.3802 4.79991C10.3578 4.82231 10.3066 4.81911 10.2714 4.82871L10.2746 4.82551Z" fill="#DA0700"/>
<path d="M9.96875 5.088C9.97777 5.05021 9.99634 5.01536 10.0227 4.98679C10.049 4.95822 10.0822 4.93688 10.1192 4.9248C10.1192 4.9568 10.1192 4.992 10.1192 5.0272C10.1192 5.0624 10.0424 5.104 9.98155 5.1008L9.96875 5.088Z" fill="#201E22"/>
<path d="M10.8802 4.9248C10.8802 4.9504 10.8802 4.9248 10.8418 4.976C10.829 4.9824 10.8258 4.9856 10.8802 4.9248Z" fill="#DA0700"/>
<path d="M10.2716 4.81934C10.2744 4.83238 10.2745 4.84586 10.272 4.85895C10.2694 4.87205 10.2643 4.88449 10.2568 4.89555C10.2493 4.9066 10.2397 4.91603 10.2285 4.92328C10.2173 4.93053 10.2048 4.93545 10.1916 4.93774C10.1889 4.92469 10.1887 4.91121 10.1913 4.89812C10.1938 4.88503 10.199 4.87258 10.2065 4.86153C10.2139 4.85047 10.2235 4.84104 10.2347 4.83379C10.2459 4.82654 10.2585 4.82163 10.2716 4.81934Z" fill="#DA0700"/>
<path d="M9.97424 5.10103L9.83984 5.14583C9.98704 5.08183 9.96464 5.08183 9.97424 5.10103Z" fill="#201E22"/>
<path d="M10.1113 5.0272C10.1113 4.992 10.1113 4.9568 10.1113 4.9248L10.1881 4.944C10.1611 4.97036 10.1354 4.99813 10.1113 5.0272Z" fill="#DA0700"/>
<path d="M9.84073 5.14551C9.81193 5.17111 9.81513 5.17431 9.84073 5.14551V5.14551Z" fill="#201E22"/>
</svg>
