<svg width="16" height="16" viewBox="0 0 16 16" fill="none" xmlns="http://www.w3.org/2000/svg">
<path d="M7.89603 6.93359C8.75098 6.04849 9.55058 5.05447 11.3281 5C11.5343 5.00199 11.74 5.02248 11.9432 5.06128C12.4547 5.11736 12.9332 5.36655 13.2983 5.76699C13.6635 6.16744 13.893 6.69475 13.9484 7.26039C14.2129 8.77185 13.4686 10.862 11.5434 10.7871C10.8385 10.778 10.154 10.5231 9.58748 10.0586C9.29225 9.80673 8.97241 9.58205 8.70793 9.31653C8.44344 9.051 8.21586 8.79228 7.93908 8.49271C7.83452 8.59484 7.74226 8.68335 7.65615 8.77866C7.13347 9.48196 6.52243 10.0987 5.84167 10.6101C3.84882 11.931 1.58534 9.68418 2.0651 7.04252C2.14911 6.55948 2.37613 6.1212 2.71029 5.79693C3.04446 5.47265 3.46671 5.28088 3.91033 5.25191C5.55259 5.08851 7.2994 6.50466 7.89603 6.93359ZM8.56031 7.61443C9.08758 8.44651 9.79356 9.12035 10.6147 9.57525C10.9056 9.76628 11.2399 9.86078 11.578 9.84751C11.916 9.83423 12.2435 9.71373 12.5214 9.50035C12.7922 9.25368 12.9938 8.9267 13.1028 8.55773C13.2117 8.18875 13.2234 7.79305 13.1365 7.41698C13.096 6.9991 12.9104 6.61497 12.619 6.34566C12.3275 6.07636 11.9528 5.94295 11.5742 5.9736C10.9851 5.94458 10.399 6.08257 9.87159 6.37449C9.34415 6.6664 8.8928 7.10257 8.56031 7.64166V7.61443ZM7.33015 7.66889C6.54164 6.91842 5.58962 6.40912 4.56846 6.19147C4.36488 6.15338 4.15697 6.15338 3.95339 6.19147C2.75399 6.38891 2.67403 8.02974 3.30756 9.11228C3.41913 9.33977 3.57524 9.53677 3.76448 9.68885C3.95371 9.84094 4.17127 9.94426 4.40124 9.99125C4.6312 10.0382 4.86775 10.0277 5.09357 9.96046C5.31938 9.89319 5.52876 9.77088 5.70635 9.60248C6.32154 9.05583 6.86223 8.41376 7.3117 7.69613L7.33015 7.66889Z" fill="black"/>
</svg>
