<svg width="16" height="16" viewBox="0 0 16 16" fill="none" xmlns="http://www.w3.org/2000/svg">
<path d="M8.3362 8.96004C8.42196 9.1429 8.46775 9.34195 8.47051 9.54391C8.47327 9.74587 8.43294 9.9461 8.3522 10.1312C8.2548 10.3465 8.07715 10.5151 7.85715 10.6012C7.63715 10.6873 7.39221 10.684 7.1746 10.592C6.95776 10.5086 6.76056 10.3811 6.5954 10.2176C6.3586 10.3872 6.0162 10.8064 5.3154 10.7008C5.0818 10.6656 4.8546 10.6016 4.5986 10.544C4.5474 10.5728 4.4738 10.624 4.397 10.6656C3.6962 11.0304 3.117 10.9664 2.7266 10.7168C2.6003 10.6356 2.50241 10.5171 2.44651 10.3778C2.39061 10.2384 2.37948 10.0851 2.41466 9.93912C2.44983 9.79314 2.52957 9.66173 2.64281 9.56312C2.75605 9.46452 2.89718 9.40361 3.0466 9.38884C3.4978 9.33124 3.6226 9.44964 4.5186 10.0096C4.8866 9.68964 4.861 8.52484 3.8786 7.71844C3.4402 7.36324 3.4018 7.30564 3.3378 7.25124C2.1666 6.18884 3.389 4.23364 5.1394 4.83524C5.8466 5.07844 6.157 5.96804 5.5042 6.75524C5.4146 6.86084 5.3058 6.93124 5.2034 6.84164C5.101 6.75204 5.2034 6.56964 5.3186 6.40644C5.38709 6.31776 5.43585 6.21549 5.46164 6.10645C5.48743 5.99742 5.48964 5.88413 5.46813 5.77417C5.44662 5.66421 5.40189 5.56011 5.33692 5.46883C5.27196 5.37754 5.18825 5.30118 5.0914 5.24484C4.85024 5.13819 4.58389 5.10173 4.32294 5.13966C4.06199 5.17758 3.81703 5.28835 3.6162 5.45924C3.51431 5.5535 3.43238 5.66727 3.37527 5.79379C3.31817 5.92032 3.28705 6.05702 3.28377 6.19579C3.28049 6.33456 3.3051 6.47258 3.35616 6.60166C3.40722 6.73075 3.48368 6.84826 3.581 6.94724C4.1378 7.46244 4.4322 7.58724 4.8226 8.25284C4.99155 8.51685 5.09608 8.81687 5.12777 9.1287C5.15945 9.44053 5.1174 9.75544 5.005 10.048L4.941 10.1952C5.1103 10.3003 5.30876 10.3485 5.5074 10.3328C5.64202 10.3355 5.7757 10.3098 5.89974 10.2574C6.02378 10.2051 6.13542 10.1272 6.2274 10.0288C6.5218 9.72484 6.1794 9.66724 6.2274 8.86404C6.21394 8.73928 6.24795 8.61403 6.32267 8.51323C6.39739 8.41242 6.50733 8.34344 6.6306 8.32004C6.83368 8.25242 7.04962 8.23255 7.26163 8.26197C7.47363 8.29138 7.676 8.36929 7.853 8.48964C7.997 8.58244 8.045 8.64964 8.173 8.59844C9.0626 8.24004 8.6402 8.27844 8.9506 7.91044C8.98864 7.86498 9.04048 7.83319 9.09824 7.8199C9.15601 7.80662 9.21653 7.81256 9.2706 7.83684C9.4914 7.93284 9.4562 8.27524 9.2706 8.41284C9.21197 8.45833 9.16715 8.51924 9.14115 8.58875C9.11516 8.65826 9.10901 8.73363 9.1234 8.80644C9.11471 9.2055 9.22621 9.59795 9.4434 9.93284C9.7634 10.3904 10.3842 9.72484 10.5442 9.05604C10.4162 8.73604 10.301 8.54084 10.429 8.21764C10.4429 8.16931 10.4717 8.12664 10.5115 8.09582C10.5512 8.06499 10.5997 8.04761 10.6499 8.04618C10.7002 8.04476 10.7496 8.05936 10.791 8.08789C10.8324 8.11641 10.8636 8.15737 10.8802 8.20484C10.9566 8.41963 10.9966 8.64567 10.9986 8.87364C11.0636 8.94422 11.1437 8.99927 11.2329 9.03472C11.3221 9.07017 11.4181 9.08511 11.5138 9.07844C11.5362 9.01124 11.565 8.93764 11.5874 8.86404C11.6459 8.57379 11.8032 8.31279 12.0325 8.1255C12.2618 7.9382 12.5489 7.83619 12.845 7.83684C13.4242 7.83684 13.6418 8.57604 13.0242 9.02084C12.6836 9.23986 12.3064 9.39594 11.9106 9.48164C11.8953 9.58182 11.9007 9.68408 11.9266 9.78207C11.9525 9.88006 11.9982 9.97168 12.061 10.0512C12.0981 10.1106 12.1509 10.1585 12.2137 10.1896C12.2764 10.2207 12.3465 10.2337 12.4162 10.2272C12.6239 10.2075 12.8233 10.1363 12.9965 10.0201C13.1697 9.90389 13.3112 9.74631 13.4082 9.56164C13.4254 9.52291 13.4554 9.49123 13.4931 9.47188C13.5308 9.45253 13.574 9.44667 13.6155 9.45527C13.657 9.46387 13.6943 9.48641 13.7212 9.51915C13.7481 9.55189 13.763 9.59286 13.7634 9.63524C13.7736 9.71553 13.753 9.79671 13.7058 9.86244C13.1906 10.56 12.1794 10.9696 11.725 10.24C11.6561 10.1205 11.6003 9.99392 11.5586 9.86244C11.3954 9.38564 11.645 9.57764 11.1938 9.43044L10.9058 9.32164C10.8642 9.40164 10.8258 9.46884 10.7938 9.53604C10.1954 10.816 9.1682 10.6656 8.9026 9.73764C8.82362 9.44041 8.76693 9.1377 8.733 8.83204C8.5762 8.82564 8.4802 8.92484 8.3362 8.96004ZM6.8098 9.83684C7.085 10.2592 7.7474 10.5024 8.0034 9.94884C8.07044 9.81499 8.09905 9.66517 8.08606 9.51603C8.07306 9.36689 8.01898 9.22428 7.9298 9.10404C7.5867 9.15574 7.23994 9.17929 6.893 9.17444L6.8098 9.83684ZM4.1794 10.3264C4.1602 10.2816 4.1602 10.256 4.1602 10.24C3.4114 9.76644 3.4466 9.78564 3.2866 9.75684C3.2183 9.74344 3.14779 9.74662 3.08097 9.76611C3.01416 9.78559 2.95299 9.82082 2.9026 9.86884C2.6338 10.1152 2.8706 10.4768 3.3282 10.5088C3.62441 10.5321 3.92081 10.4664 4.1794 10.32V10.3264ZM11.997 9.01444C12.2914 9.01444 12.8994 8.77444 12.9922 8.45764C13.1202 8.02244 12.0674 8.20804 11.997 9.00804V9.01444ZM7.4402 8.77124C7.35757 8.704 7.25662 8.66317 7.15048 8.65404C7.04434 8.64491 6.93791 8.6679 6.845 8.72004C7.03508 8.79137 7.24159 8.80691 7.4402 8.76484V8.77124Z" fill="black"/>
</svg>
