<svg width="16" height="16" viewBox="0 0 16 16" fill="none" xmlns="http://www.w3.org/2000/svg">
<path d="M8.56735 3.33409C8.60924 3.29373 8.64877 3.25099 8.68575 3.20609C8.87002 2.99187 9.09765 2.81921 9.35361 2.69951C9.60957 2.5798 9.88801 2.51579 10.1705 2.51169C10.5488 2.49135 10.9231 2.59679 11.2351 2.81155C11.5471 3.02631 11.7793 3.33832 11.8953 3.69889C12.0649 4.28768 12.0976 4.90742 11.9912 5.51081C11.8847 6.11419 11.6418 6.68528 11.2809 7.18049C11.1017 7.43969 11.3961 6.93409 10.2345 13.3181C10.1961 13.5357 10.1321 13.7469 10.0905 13.9581C10.0822 14.0181 10.0529 14.0732 10.0078 14.1136C9.96269 14.1541 9.9047 14.1772 9.84415 14.1789C9.24542 14.2574 8.63937 14.2628 8.03935 14.1949C7.7244 14.172 7.4142 14.1052 7.11775 13.9965C6.94175 13.9357 6.79775 13.8397 6.76255 13.6541C6.66975 13.0781 6.50015 12.4061 6.14815 9.45249C5.95295 7.83329 5.94335 7.76929 5.89215 7.11329C5.86655 6.80929 5.09855 6.13729 4.86175 4.88929C4.76776 4.43092 4.80889 3.95512 4.98015 3.51969C5.22655 2.89889 5.65855 2.28449 6.31775 2.15329C6.69274 2.10008 7.07513 2.14627 7.42667 2.28722C7.77821 2.42817 8.08658 2.65896 8.32095 2.95649C8.41055 3.07169 8.48095 3.19969 8.56735 3.33409ZM11.7673 4.72929C11.806 4.17339 11.6257 3.62442 11.2649 3.19969C10.7913 2.75169 10.3369 2.71649 9.71615 2.87969C9.46528 2.95362 9.23416 3.08283 9.03979 3.25782C8.84542 3.43281 8.69273 3.64913 8.59295 3.89089C8.57877 3.91275 8.55779 3.92933 8.53323 3.93805C8.50868 3.94677 8.48194 3.94715 8.45715 3.93913C8.43236 3.93111 8.41091 3.91514 8.39612 3.89369C8.38133 3.87224 8.37403 3.84651 8.37535 3.82049C8.38393 3.60387 8.30954 3.39213 8.16735 3.22849C8.01558 3.01294 7.82105 2.83095 7.59588 2.69387C7.37071 2.55678 7.11972 2.46753 6.85855 2.43169C6.67294 2.40282 6.48338 2.41263 6.30175 2.46049C5.72575 2.61409 5.34175 3.27649 5.16895 3.85249C5.09802 4.09094 5.07411 4.34091 5.09855 4.58849C5.13891 4.98277 5.24717 5.3671 5.41855 5.72449C5.72099 6.35371 6.12054 6.93144 6.60255 7.43649C6.85116 7.67277 7.11991 7.88691 7.40575 8.07649C7.6393 8.24074 7.90407 8.35532 8.18369 8.41311C8.46331 8.47091 8.75181 8.47069 9.03135 8.41249C9.69305 8.24655 10.2923 7.8919 10.7561 7.39169C11.4145 6.66135 11.7783 5.71258 11.7769 4.72929H11.7673ZM6.52575 10.2397C6.90367 10.3624 7.28966 10.4586 7.68095 10.5277C7.69695 10.5277 7.71615 10.5277 7.73535 10.5277L7.47935 8.45409L7.26175 8.31329C6.95808 8.10336 6.67036 7.87126 6.40095 7.61889C6.33429 7.54422 6.25911 7.47763 6.17695 7.42049L6.52575 10.2397ZM7.76735 8.58209C7.76735 8.69729 7.73535 8.39009 7.98495 10.3421C7.99372 10.4205 8.02236 10.4954 8.06815 10.5597C8.41028 10.5973 8.75437 10.6144 9.09855 10.6109C9.13375 10.5021 9.07935 10.7901 9.46655 8.60769C9.46655 8.60769 9.46655 8.60769 9.46655 8.58849C9.10514 8.70367 8.72405 8.74395 8.34655 8.70689C8.15155 8.67894 7.9582 8.64048 7.76735 8.59169V8.58209ZM10.8809 7.67969C10.6568 7.89175 10.41 8.07847 10.1449 8.23649C10.0201 8.31329 9.88895 8.38049 9.76095 8.45089L9.39295 10.6013C9.75326 10.6071 10.1115 10.5452 10.4489 10.4189C10.6153 9.52609 10.7721 8.63969 10.8809 7.67969ZM9.39295 12.9277C9.45055 12.5757 9.46015 12.2301 9.49215 11.8781C8.64415 11.9229 8.74655 11.9133 8.69215 11.9485C8.66113 12.2905 8.6665 12.6348 8.70815 12.9757C8.93215 12.9629 9.15615 12.9565 9.39295 12.9277ZM8.39455 12.9533C8.43284 12.6125 8.42531 12.2681 8.37215 11.9293L8.00095 11.8973C7.87859 11.8701 7.75459 11.8509 7.62975 11.8397C7.6441 12.1961 7.69015 12.5506 7.76735 12.8989C7.97357 12.9415 8.18407 12.9597 8.39455 12.9533ZM7.48895 10.7837C7.52095 11.0461 7.54335 11.2925 7.59455 11.5421C7.72538 11.573 7.85786 11.5965 7.99135 11.6125C8.12326 11.6452 8.26046 11.6507 8.39455 11.6285C8.40276 11.3787 8.39528 11.1286 8.37215 10.8797C8.07596 10.8671 7.78093 10.835 7.48895 10.7837ZM6.84895 12.6013C7.00795 12.7452 7.21705 12.821 7.43135 12.8125C7.39295 12.4637 7.35775 12.1117 7.30655 11.7661C6.91935 11.6445 6.98655 11.6573 6.89695 11.6285C6.80735 11.5997 6.77215 11.5613 6.68255 11.5709L6.84895 12.6013ZM8.66975 11.6221C8.94644 11.6443 9.2249 11.6238 9.49535 11.5613C9.52856 11.3431 9.54673 11.1228 9.54975 10.9021H8.64095C8.66655 11.1517 8.66015 11.3885 8.68255 11.6221H8.66975ZM7.22015 10.7261L6.55135 10.5405C6.57375 10.7805 6.59615 11.0045 6.63775 11.2189C6.83253 11.3398 7.0506 11.4183 7.27775 11.4493L7.22015 10.7261ZM10.0521 12.7453C10.2473 11.5709 10.2217 11.7661 10.2089 11.6669L9.78015 11.8077C9.72159 12.135 9.6948 12.4672 9.70015 12.7997C9.70015 12.7997 9.71615 12.8317 9.72575 12.8541L10.0521 12.7453ZM9.17215 13.9613C9.26155 13.7261 9.30815 13.4769 9.30975 13.2253C8.63135 13.2477 8.75295 13.2253 8.66975 13.2701C8.66975 13.4909 8.63775 13.7181 8.66975 13.9645C8.84139 13.9736 9.01343 13.9725 9.18495 13.9613H9.17215ZM8.38175 13.9613C8.40415 13.2029 8.40415 13.3885 8.38175 13.2477C8.27295 13.2477 8.17375 13.2477 8.06175 13.2477C7.96296 13.2266 7.86161 13.2201 7.76095 13.2285C7.78482 13.4636 7.82546 13.6967 7.88255 13.9261L8.38175 13.9613ZM7.04095 13.7021C7.20556 13.7758 7.38031 13.8243 7.55935 13.8461C7.54815 13.6078 7.51495 13.3711 7.46015 13.1389C7.29361 13.0724 7.12109 13.0221 6.94495 12.9885C6.94495 12.9885 6.94495 12.9885 6.91935 13.0173L7.04095 13.7021ZM10.3049 11.3181C10.3463 11.1315 10.3741 10.9422 10.3881 10.7517L9.85055 10.8797C9.80109 11.0895 9.79456 11.3072 9.83135 11.5197C9.99726 11.4732 10.1565 11.4055 10.3049 11.3181ZM9.82175 13.9005C10.0233 13.0013 9.99135 13.1741 9.97855 13.0749L9.65855 13.1741C9.63295 13.3053 9.61055 13.4301 9.59135 13.5549C9.55342 13.6839 9.53192 13.8173 9.52735 13.9517L9.82175 13.9005Z" fill="#231A15"/>
<path d="M11.7766 4.72981C11.7798 5.71072 11.4196 6.65807 10.7654 7.38901C10.3025 7.89039 9.70289 8.24525 9.04061 8.40981C8.76106 8.46763 8.47264 8.46765 8.19308 8.40987C7.91352 8.35209 7.64873 8.23772 7.41501 8.07381C7.12918 7.88423 6.86043 7.67009 6.61181 7.43381C6.13462 6.92882 5.73944 6.35224 5.44061 5.72501C5.26924 5.36762 5.16098 4.98329 5.12061 4.58901C5.09618 4.34143 5.12009 4.09146 5.19101 3.85301C5.35421 3.27701 5.74461 2.61461 6.32381 2.46101C6.50545 2.41315 6.69501 2.40334 6.88061 2.43221C7.14102 2.4669 7.39153 2.55466 7.61666 2.69007C7.84178 2.82547 8.03672 3.00563 8.18941 3.21941C8.55101 3.71221 8.29501 3.85941 8.47101 3.92341C8.49634 3.93249 8.52389 3.93336 8.54974 3.92589C8.57559 3.91842 8.59843 3.903 8.61501 3.88181C8.71363 3.64423 8.8634 3.4313 9.05366 3.25819C9.24393 3.08507 9.47001 2.95601 9.71581 2.88021C10.3366 2.72661 10.791 2.76181 11.2646 3.20021C11.6288 3.62347 11.8126 4.1726 11.7766 4.72981ZM8.73341 7.54901C8.83931 7.55026 8.94402 7.52658 9.03908 7.47988C9.13414 7.43319 9.21688 7.36479 9.28061 7.28021C9.47261 7.05301 9.24221 6.87061 9.12701 7.00181C9.08895 7.08041 9.03001 7.14706 8.95666 7.19446C8.88329 7.24186 8.79832 7.2682 8.71101 7.27061C8.61071 7.27718 8.51016 7.26199 8.41627 7.22609C8.32238 7.19019 8.23735 7.13442 8.16701 7.06261C8.14633 7.04838 8.12174 7.0409 8.09663 7.0412C8.07152 7.04151 8.04712 7.04958 8.02678 7.06431C8.00644 7.07903 7.99116 7.0997 7.98304 7.12346C7.97492 7.14722 7.97435 7.17291 7.98141 7.19701C7.98856 7.2225 8.00051 7.24639 8.01661 7.26741C8.05135 7.30851 8.09113 7.34506 8.13501 7.37621C8.3117 7.49454 8.52084 7.55494 8.73341 7.54901ZM6.95741 5.25781C7.09265 5.25086 7.22051 5.19401 7.31626 5.09826C7.41202 5.0025 7.46887 4.87464 7.47581 4.73941C7.48218 4.70419 7.47429 4.66788 7.45389 4.63847C7.43348 4.60907 7.40224 4.58897 7.36701 4.58261C7.33179 4.57624 7.29549 4.58413 7.26608 4.60453C7.23668 4.62494 7.21658 4.65619 7.21021 4.69141C7.18781 4.74261 7.18141 4.79701 7.15581 4.84181C7.13751 4.88209 7.10768 4.91605 7.07009 4.9394C7.0325 4.96275 6.98884 4.97444 6.94461 4.97301C6.75261 4.97301 6.74301 4.74261 6.72701 4.69781C6.71735 4.66689 6.69708 4.64039 6.66979 4.62294C6.6425 4.6055 6.60994 4.59824 6.57782 4.60245C6.54571 4.60665 6.51611 4.62205 6.49423 4.64593C6.47235 4.66981 6.4596 4.70065 6.45821 4.73301C6.45608 4.80036 6.46735 4.86746 6.49137 4.93042C6.51538 4.99338 6.55166 5.05094 6.5981 5.09976C6.64455 5.14859 6.70022 5.1877 6.76191 5.21483C6.82359 5.24196 6.89004 5.25657 6.95741 5.25781ZM9.49821 4.80021C9.49821 4.85141 9.49821 4.89941 9.51421 4.94421C9.5338 5.038 9.5847 5.12235 9.65854 5.18341C9.73239 5.24447 9.82481 5.2786 9.92061 5.28021C10.3046 5.28021 10.5862 4.67861 10.327 4.61141C10.298 4.60267 10.2668 4.60427 10.2388 4.61594C10.2108 4.62761 10.1877 4.64862 10.1734 4.67541C10.1597 4.72037 10.1426 4.76423 10.1222 4.80661C10.0919 4.86511 10.0506 4.91725 10.0006 4.96021C9.9823 4.97512 9.96037 4.98494 9.93705 4.98868C9.91372 4.99242 9.88982 4.98995 9.86776 4.98152C9.8457 4.97308 9.82624 4.95898 9.81137 4.94063C9.79649 4.92228 9.78671 4.90034 9.78301 4.87701C9.77868 4.81064 9.76242 4.7456 9.73501 4.68501C9.72256 4.66497 9.70481 4.64877 9.68372 4.63819C9.66264 4.62761 9.63904 4.62306 9.61554 4.62505C9.59203 4.62704 9.56953 4.63548 9.55052 4.64945C9.53151 4.66342 9.51673 4.68237 9.50781 4.70421C9.5014 4.7358 9.49818 4.76796 9.49821 4.80021Z" fill="#DA0100"/>
<path d="M5.05025 0.668945V0.691345C5.05025 0.691345 5.04705 0.675345 5.05025 0.668945Z" fill="#FCFBFB"/>
<path d="M8.73246 7.54833C8.51989 7.55426 8.31074 7.49386 8.13406 7.37553C8.09017 7.34438 8.05039 7.30783 8.01566 7.26673C7.99955 7.24571 7.9876 7.22182 7.98046 7.19633C7.97392 7.17011 7.97564 7.14252 7.98538 7.11732C7.99512 7.09212 8.01239 7.07054 8.03486 7.05553C8.13086 6.99153 8.19486 7.10033 8.27486 7.15153C8.40291 7.23787 8.5559 7.27949 8.71006 7.26993C8.7972 7.26683 8.88188 7.2402 8.95511 7.19288C9.02835 7.14556 9.08742 7.0793 9.12606 7.00113C9.23806 6.87313 9.47486 7.04913 9.27966 7.27953C9.21592 7.36411 9.13318 7.43251 9.03812 7.4792C8.94306 7.5259 8.83836 7.54958 8.73246 7.54833Z" fill="#27110C"/>
<path d="M6.95649 5.25743C6.88911 5.25619 6.82266 5.24158 6.76098 5.21445C6.6993 5.18732 6.64362 5.14821 6.59718 5.09939C6.55073 5.05056 6.51445 4.993 6.49044 4.93004C6.46642 4.86708 6.45516 4.79998 6.45729 4.73263C6.45867 4.70027 6.47142 4.66944 6.4933 4.64556C6.51518 4.62168 6.54478 4.60628 6.57689 4.60207C6.60901 4.59787 6.64157 4.60512 6.66886 4.62257C6.69615 4.64001 6.71642 4.66652 6.72609 4.69743C6.74529 4.75183 6.75169 4.96303 6.94369 4.97263C6.98791 4.97407 7.03157 4.96237 7.06916 4.93902C7.10675 4.91567 7.13658 4.88171 7.15489 4.84143C7.18049 4.79663 7.18689 4.74223 7.20929 4.69103C7.21565 4.65581 7.23575 4.62456 7.26515 4.60416C7.29456 4.58375 7.33086 4.57586 7.36609 4.58223C7.40131 4.5886 7.43256 4.60869 7.45296 4.6381C7.47336 4.6675 7.48125 4.70381 7.47489 4.73903C7.46794 4.87427 7.41109 5.00213 7.31534 5.09788C7.21958 5.19363 7.09172 5.25048 6.95649 5.25743Z" fill="#27110C"/>
<path d="M9.49805 4.80018C9.49805 4.75538 9.49805 4.64658 9.62605 4.62738C9.6496 4.62448 9.67349 4.62873 9.6946 4.63957C9.71571 4.65041 9.73308 4.66735 9.74445 4.68818C9.77407 4.74798 9.79044 4.81347 9.79245 4.88018C9.79614 4.90351 9.80592 4.92546 9.8208 4.9438C9.83568 4.96215 9.85513 4.97625 9.87719 4.98469C9.89926 4.99313 9.92315 4.9956 9.94648 4.99186C9.9698 4.98812 9.99173 4.97829 10.01 4.96338C10.06 4.92043 10.1013 4.86829 10.1316 4.80978C10.152 4.76741 10.1691 4.72355 10.1828 4.67858C10.1972 4.65159 10.2204 4.63032 10.2485 4.61828C10.2766 4.60623 10.308 4.60414 10.3375 4.61235C10.367 4.62055 10.3927 4.63857 10.4106 4.66341C10.4284 4.68825 10.4373 4.71844 10.4356 4.74898C10.4258 4.88393 10.3688 5.01113 10.2746 5.10826C10.1804 5.20539 10.055 5.26625 9.92045 5.28018C9.82254 5.28061 9.72752 5.24702 9.65164 5.18515C9.57576 5.12328 9.52373 5.03697 9.50445 4.94098C9.50445 4.89618 9.50445 4.84818 9.49805 4.80018Z" fill="#27110C"/>
</svg>
