<svg width="16" height="16" viewBox="0 0 16 16" fill="none" xmlns="http://www.w3.org/2000/svg">
<path d="M5.72829 10.7143C5.61373 10.7884 5.51549 10.8851 5.43956 10.9984C5.20162 11.3141 4.91912 11.5935 4.60088 11.8279C4.47249 11.9385 4.30756 11.9974 4.13816 11.9932C3.96877 11.989 3.80699 11.9219 3.68429 11.805C3.61216 11.7231 3.55619 11.6282 3.5193 11.5255C3.26265 10.7464 3.34515 10.6364 3.12516 10.5081C2.97227 10.4154 2.84472 10.2863 2.75394 10.1322C2.71326 10.0531 2.69067 9.96593 2.68781 9.87699C2.68495 9.78805 2.7019 9.69959 2.73743 9.61801C2.77296 9.53643 2.82618 9.46377 2.89323 9.40528C2.96029 9.34679 3.03951 9.30393 3.12516 9.27982C3.29745 9.20538 3.47335 9.1396 3.65221 9.08275C4.50464 8.82611 4.61463 8.84444 4.62838 8.78486C4.82643 8.15591 5.15607 7.57631 5.59538 7.08458C6.36735 6.15361 7.476 5.56551 8.67972 5.44846C9.17553 5.39744 9.67622 5.42216 10.1646 5.52179C10.217 5.46841 10.266 5.41178 10.3113 5.35222C10.6772 4.82773 11.1448 4.38202 11.6861 4.04149C11.7203 4.02086 11.7584 4.00756 11.798 4.00241C11.8377 3.99726 11.8779 4.00039 11.9162 4.01158C11.9546 4.02278 11.9902 4.04181 12.0208 4.06747C12.0514 4.09313 12.0763 4.12486 12.094 4.16065C12.1421 4.25286 12.185 4.34773 12.2223 4.44479C12.2898 4.47477 12.3556 4.50843 12.4194 4.54562C12.6577 4.6831 12.9831 4.83434 12.9144 5.16432C12.8777 5.34305 13.0152 5.38888 13.1573 5.65011C13.2541 5.80018 13.3104 5.97272 13.3209 6.15098C13.3313 6.32925 13.2955 6.50719 13.2169 6.66753C13.1902 6.73662 13.1483 6.79884 13.0944 6.84961C13.0404 6.90037 12.9758 6.93838 12.9052 6.96084C12.259 7.18082 11.9382 7.10749 11.2416 7.35956C11.2255 8.06092 10.957 8.73296 10.4854 9.25232C9.72545 10.1637 8.66031 10.7679 7.48815 10.9526C6.89114 11.0636 6.27428 10.98 5.72829 10.7143ZM6.75487 6.58962C6.65405 6.58962 6.59447 6.65836 6.53031 6.71794C6.03043 7.20802 5.7148 7.85546 5.63663 8.55113C5.58392 8.98185 5.58392 9.41739 5.63663 9.84811C5.65229 10.0254 5.73607 10.1896 5.87036 10.3064C5.91144 10.329 5.95664 10.343 6.00327 10.3477C6.00694 10.3111 6.00694 10.2742 6.00327 10.2377C5.95099 9.60965 5.98492 8.97745 6.10409 8.35864C6.23342 7.83115 6.42737 7.32165 6.68154 6.84168C6.71821 6.76835 6.78695 6.69503 6.75946 6.59878C6.79612 6.59878 6.78695 6.59878 6.79154 6.57587L6.75487 6.58962ZM8.12976 10.366C8.15268 9.98101 8.12976 10.0223 8.16643 9.4998C8.2226 8.2426 8.60139 7.02102 9.26634 5.95259C9.29228 5.90264 9.31375 5.8505 9.3305 5.79677C9.18384 5.79677 9.06927 5.81968 8.95011 5.79677C8.89622 5.79655 8.84308 5.80935 8.79521 5.83409C8.74733 5.85883 8.70614 5.89476 8.67513 5.93884C8.20126 6.63544 7.85663 7.41164 7.65772 8.23032C7.49605 8.92312 7.41152 9.63168 7.40565 10.3431C7.41135 10.4031 7.42053 10.4628 7.43315 10.5218C7.67494 10.5126 7.91348 10.463 8.13893 10.3751L8.12976 10.366ZM8.18017 5.93884L7.93728 5.99842C7.84343 6.01882 7.75458 6.0577 7.6759 6.11277C7.59722 6.16785 7.53028 6.23803 7.47898 6.31922C7.38274 6.47046 7.26816 6.60795 7.17651 6.77752C6.52544 7.84575 6.24663 9.09959 6.38365 10.3431C6.39394 10.4117 6.41083 10.4793 6.43407 10.5447C6.63488 10.5948 6.8437 10.6042 7.04818 10.5722C6.96754 8.95232 7.36434 7.3444 8.18934 5.948L8.18017 5.93884ZM10.5633 5.93884C10.7263 5.77804 10.9061 5.63515 11.0995 5.51262C11.2462 5.43929 11.4432 5.62261 11.2553 5.8426C11.2049 5.89759 10.9849 6.06258 10.852 6.1909C10.8466 6.20317 10.8438 6.21644 10.8438 6.22986C10.8438 6.24327 10.8466 6.25654 10.852 6.26881C10.8762 6.2977 10.9108 6.31583 10.9483 6.31922C11.0124 6.31922 11.9107 5.98008 11.9795 5.96175C12.0026 5.95272 12.0273 5.94835 12.0522 5.94888C12.0771 5.9494 12.1016 5.95482 12.1244 5.96482C12.1471 5.97482 12.1677 5.98921 12.1849 6.00716C12.2021 6.02511 12.2156 6.04628 12.2246 6.06945C12.2337 6.09262 12.238 6.11734 12.2375 6.14221C12.237 6.16707 12.2316 6.19158 12.2216 6.21435C12.2116 6.23712 12.1972 6.25769 12.1792 6.2749C12.1613 6.29211 12.1401 6.30561 12.1169 6.31464C12.0388 6.35339 11.9575 6.38558 11.874 6.41088C11.0216 6.69503 11.2508 6.5942 11.1133 6.68128L11.2233 6.90584C12.5982 6.6492 12.8044 6.6492 12.8685 6.47504C13.1206 5.79218 12.4515 5.65469 12.5202 5.21015C12.5202 5.15973 12.5202 5.1139 12.5202 5.05432C12.4167 4.99023 12.3096 4.93209 12.1994 4.88017C12.1147 4.85403 12.0369 4.80914 11.9718 4.74885C11.9068 4.68855 11.8561 4.6144 11.8236 4.53187C11.8236 4.50437 11.787 4.48604 11.7549 4.44479C11.2609 4.82517 10.8254 5.27606 10.4625 5.78302C10.4625 5.78302 10.4625 5.81968 10.4625 5.83801C10.4625 5.85634 10.4762 5.87468 10.5725 5.94342L10.5633 5.93884ZM9.32592 9.77936C9.28758 8.52621 9.62257 7.28993 10.2883 6.22756C10.1718 6.07127 10.0127 5.95192 9.83004 5.88384C9.20972 6.72142 8.80521 7.69888 8.65222 8.72986C8.57889 9.16524 8.56056 9.61437 8.5239 10.0543C8.5239 10.1002 8.4964 10.1552 8.57889 10.2056C8.8424 10.0906 9.09283 9.94768 9.32592 9.77936ZM4.74295 9.20191C4.52755 9.22941 4.74295 9.14691 3.4643 9.56855C3.38971 9.59397 3.31761 9.62618 3.2489 9.66479C3.20635 9.6815 3.16837 9.70808 3.13809 9.74234C3.10781 9.7766 3.0861 9.81756 3.07475 9.86186C3.12975 10.0589 3.32681 10.1597 3.47805 10.2697C3.58209 10.3466 3.65394 10.4592 3.6797 10.586C3.6797 10.586 3.87219 11.3467 3.89969 11.4109C3.90834 11.4498 3.92644 11.486 3.95239 11.5163C3.97834 11.5465 4.01135 11.5699 4.04848 11.5844C4.08562 11.5989 4.12576 11.6041 4.16534 11.5994C4.20493 11.5947 4.24276 11.5803 4.27549 11.5576C4.61004 11.4063 4.73378 11.1909 5.42581 10.4118L5.28832 10.2606C5.14167 10.3751 4.79795 10.7647 4.67879 10.8472C4.64677 10.8703 4.60829 10.8827 4.5688 10.8827C4.52931 10.8827 4.49082 10.8703 4.45881 10.8472C4.26174 10.6685 4.56422 10.4531 4.99043 10.036C5.02224 10.0028 5.04994 9.96586 5.07292 9.92602C4.99501 9.7427 4.93085 9.86186 4.49547 10.0223C4.44676 10.0486 4.38966 10.0547 4.3365 10.0392C4.28333 10.0238 4.23837 9.98807 4.21133 9.93977C4.1655 9.83436 4.21133 9.73353 4.36256 9.66937C4.87127 9.44481 4.74295 9.54563 4.82086 9.44022L4.74295 9.20191ZM10.5725 6.62628C10.1417 7.13041 9.59173 8.91776 9.73838 9.42189C9.83921 9.39898 9.8942 9.3119 9.96753 9.25232C10.0217 9.21023 10.0638 9.15458 10.0895 9.091C10.1153 9.02743 10.1238 8.95818 10.1142 8.89027C10.1056 8.65398 10.1318 8.41771 10.1921 8.18907C10.2758 7.73138 10.4436 7.29317 10.6871 6.89668C10.6987 6.86535 10.7079 6.83317 10.7146 6.80043L10.5725 6.62628ZM5.24708 8.29448C5.17655 8.35363 5.11889 8.4266 5.07766 8.50889C5.03643 8.59119 5.0125 8.68106 5.00735 8.77296C5.00219 8.86486 5.01593 8.95684 5.0477 9.04323C5.07947 9.12961 5.12861 9.20858 5.19208 9.27524L5.24708 8.29448ZM10.4946 8.50988C10.5807 8.40749 10.6489 8.29128 10.6962 8.16616C10.7376 8.06736 10.7684 7.96443 10.7879 7.8591C10.7879 7.8041 10.82 7.74453 10.8291 7.68953C10.8383 7.63453 10.8658 7.58412 10.8062 7.51996C10.6802 7.84213 10.5776 8.17296 10.4992 8.50988H10.4946Z" fill="#1B151A"/>
<path d="M4.27076 5.10938C4.30856 5.12412 4.34405 5.14418 4.37617 5.16895C4.40929 5.20615 4.43426 5.24986 4.4495 5.29728C4.62608 5.63464 4.77921 5.98378 4.9078 6.34219C4.91114 6.37649 4.90423 6.41102 4.88794 6.44139C4.87165 6.47176 4.84671 6.49662 4.81629 6.51281C4.78587 6.52901 4.75132 6.53581 4.71703 6.53236C4.68274 6.52891 4.65024 6.51536 4.62365 6.49343C4.59062 6.4568 4.56144 6.41687 4.53658 6.37427C4.10578 5.59059 4.07828 5.55851 4.05078 5.27894C4.06453 5.18728 4.16077 5.10938 4.27076 5.10938Z" fill="#201E22"/>
<path d="M4.0629 7.72275C4.02166 7.76858 3.98958 7.82816 3.94375 7.84649C3.89058 7.86655 3.83193 7.86655 3.77876 7.84649C3.73654 7.81811 3.70318 7.7784 3.68252 7.73192C3.25172 6.98948 3.24713 6.98031 3.22422 6.81532C3.20131 6.65034 3.43504 6.46244 3.60919 6.77866C4.10873 7.71817 4.00791 7.54402 4.0629 7.72275Z" fill="#201E22"/>
<path d="M5.63637 4.49128C5.74178 4.56002 5.76928 4.53711 5.82886 4.73417C5.91135 5.00457 5.99384 5.27955 6.06717 5.55452C6.08095 5.59932 6.08095 5.64722 6.06717 5.69201C6.05548 5.7168 6.03796 5.73838 6.0161 5.75491C5.99425 5.77144 5.96871 5.78243 5.94168 5.78693C5.91465 5.79144 5.88693 5.78933 5.8609 5.78078C5.83486 5.77223 5.81129 5.75749 5.79219 5.73784C5.74445 5.68843 5.70842 5.62891 5.68678 5.56369C5.60429 5.32538 5.52638 5.08248 5.45764 4.835C5.44381 4.76695 5.44381 4.69681 5.45764 4.62876C5.4671 4.5888 5.49003 4.55332 5.52259 4.52828C5.55514 4.50324 5.59532 4.49017 5.63637 4.49128Z" fill="#201E22"/>
<path d="M12.8052 8.55952C12.2598 8.47245 11.9619 8.72909 11.8886 8.47703C11.8519 8.36704 11.9207 8.2708 12.0765 8.22955C12.3341 8.15653 12.6041 8.1378 12.8693 8.17455C12.9585 8.18129 13.0427 8.21851 13.1076 8.27996C13.1324 8.30466 13.1491 8.33623 13.1556 8.37056C13.1621 8.40489 13.1582 8.44039 13.1443 8.47245C13.0756 8.60535 12.9747 8.56869 12.8052 8.55952Z" fill="#1B191E"/>
<path d="M10.825 11.5492C10.6875 11.4667 10.7242 11.5767 10.3667 10.7335C10.3439 10.6895 10.3313 10.6409 10.3301 10.5914C10.343 10.5352 10.3698 10.4832 10.408 10.4401C10.4365 10.4212 10.47 10.4111 10.5042 10.4111C10.5385 10.4111 10.5719 10.4212 10.6005 10.4401C10.6646 10.4951 10.6555 10.4631 10.9946 11.2284C11.0132 11.2739 11.0256 11.3217 11.0313 11.3705C11.0302 11.396 11.0238 11.421 11.0127 11.444C11.0016 11.467 10.9859 11.4875 10.9666 11.5042C10.9473 11.521 10.9248 11.5336 10.9005 11.5413C10.8761 11.549 10.8505 11.5517 10.825 11.5492Z" fill="#201E22"/>
<path d="M12.3777 10.2423C12.3456 10.2423 12.2906 10.2148 12.2356 10.1873L11.704 9.9352C11.4199 9.79771 11.594 9.50899 11.8278 9.60064C12.0615 9.6923 12.5106 9.89395 12.5289 9.9077C12.6939 10.0269 12.6252 10.2652 12.3777 10.2423Z" fill="#201E22"/>
<path d="M8.13817 10.3755C7.91669 10.4686 7.68129 10.5244 7.44156 10.5405C7.42894 10.4815 7.41976 10.4218 7.41406 10.3617C7.41993 9.65034 7.50446 8.94179 7.66613 8.24899C7.86681 7.43091 8.21131 6.65502 8.68354 5.9575C8.71455 5.91343 8.75574 5.87749 8.80362 5.85276C8.85149 5.82802 8.90463 5.81522 8.95852 5.81543C9.07768 5.81543 9.19225 5.81543 9.33891 5.81543C9.32216 5.86916 9.30069 5.92131 9.27475 5.97125C8.6098 7.03968 8.23101 8.26127 8.17483 9.51847C8.1565 9.99051 8.16109 9.99051 8.13817 10.3755Z" fill="#E30503"/>
<path d="M8.18876 5.94824C7.3623 7.34102 6.96236 8.94555 7.03843 10.5633C6.83395 10.5952 6.62513 10.5859 6.42432 10.5358C6.40108 10.4703 6.38419 10.4028 6.3739 10.3341C6.23688 9.09066 6.51569 7.83683 7.16676 6.76859C7.25842 6.61735 7.37299 6.47987 7.46923 6.3103C7.52053 6.2291 7.58747 6.15892 7.66615 6.10385C7.74483 6.04877 7.83368 6.0099 7.92753 5.98949L8.18876 5.94824Z" fill="#F7F7F7"/>
<path d="M10.5725 5.94327C10.4809 5.8791 10.5084 5.9066 10.458 5.84244C10.4075 5.77828 10.458 5.80119 10.458 5.78744C10.8209 5.28049 11.2563 4.8296 11.7503 4.44922C11.7824 4.49047 11.8099 4.5088 11.8191 4.5363C11.8516 4.61882 11.9022 4.69298 11.9673 4.75328C12.0324 4.81357 12.1101 4.85845 12.1949 4.8846C12.3051 4.93652 12.4122 4.99466 12.5157 5.05875C12.5157 5.11833 12.5157 5.16416 12.5157 5.21457C12.4699 5.48955 12.6853 5.59954 12.8228 5.86077C12.8818 5.95185 12.9165 6.05649 12.9237 6.16477C12.931 6.27304 12.9104 6.38137 12.864 6.47947C12.7998 6.65363 12.5844 6.65821 11.2187 6.91027L11.1087 6.68571C11.2462 6.59863 11.0171 6.68571 11.8695 6.41531C11.953 6.39001 12.0342 6.35781 12.1124 6.31907C12.1356 6.31004 12.1567 6.29654 12.1747 6.27933C12.1926 6.26212 12.207 6.24155 12.217 6.21878C12.227 6.19601 12.2325 6.1715 12.233 6.14663C12.2335 6.12177 12.2291 6.09705 12.2201 6.07388C12.2111 6.05071 12.1976 6.02954 12.1804 6.01159C12.1632 5.99364 12.1426 5.97925 12.1198 5.96925C12.097 5.95925 12.0725 5.95383 12.0477 5.9533C12.0228 5.95278 11.9981 5.95715 11.9749 5.96618C11.9062 5.96618 11.0079 6.31907 10.9437 6.32365C10.9063 6.32026 10.8716 6.30213 10.8475 6.27324C10.8421 6.26097 10.8393 6.2477 10.8393 6.23428C10.8393 6.22087 10.8421 6.2076 10.8475 6.19533C10.9942 6.05326 11.1912 5.91118 11.2508 5.84702C11.4387 5.62704 11.2508 5.44372 11.095 5.51705C10.9069 5.64114 10.7319 5.78394 10.5725 5.94327Z" fill="#F5F5F5"/>
<path d="M9.32531 9.77931C9.09367 9.94735 8.84478 10.0902 8.58287 10.2055C8.50037 10.1551 8.52329 10.1001 8.52787 10.0543C8.59203 9.3256 8.59662 7.48324 9.83402 5.88379C10.0167 5.95187 10.1758 6.07122 10.2923 6.22751C9.62494 7.28938 9.28835 8.52568 9.32531 9.77931Z" fill="#F7F7F7"/>
<path d="M4.72942 9.20312L4.80275 9.42311C4.72942 9.52852 4.85775 9.42311 4.34445 9.65226C4.1978 9.71642 4.14739 9.81724 4.19322 9.92265C4.22026 9.97095 4.26522 10.0067 4.31839 10.0221C4.37155 10.0376 4.42865 10.0315 4.47736 10.0051C4.93566 9.84474 4.9769 9.72558 5.05481 9.9089C5.03183 9.94874 5.00413 9.98567 4.97232 10.0189C4.5461 10.4359 4.24363 10.6513 4.4407 10.8301C4.47271 10.8532 4.5112 10.8656 4.55069 10.8656C4.59018 10.8656 4.62866 10.8532 4.66068 10.8301C4.77525 10.7522 5.11897 10.3718 5.27021 10.2435L5.4077 10.3947C4.74317 11.1692 4.59193 11.3892 4.25738 11.5404C4.22465 11.5632 4.18682 11.5776 4.14723 11.5822C4.10764 11.5869 4.06751 11.5818 4.03037 11.5673C3.99323 11.5528 3.96023 11.5294 3.93428 11.4991C3.90833 11.4689 3.89023 11.4327 3.88157 11.3938C3.85408 11.3296 3.66617 10.578 3.66159 10.5688C3.63583 10.4421 3.56398 10.3294 3.45994 10.2526C3.3087 10.1426 3.11164 10.0418 3.05664 9.84474C3.06799 9.80045 3.0897 9.75949 3.11998 9.72523C3.15025 9.69097 3.18823 9.66438 3.23079 9.64767C3.2995 9.60907 3.3716 9.57685 3.44619 9.55143C4.74317 9.14813 4.51402 9.23062 4.72942 9.20312Z" fill="#F5F5F5"/>
<path d="M6.75025 6.59433C6.77774 6.69057 6.709 6.7639 6.67234 6.83723C6.41816 7.31719 6.22421 7.8267 6.09488 8.35419C5.9753 8.97295 5.94138 9.60521 5.99406 10.2332C5.99773 10.2698 5.99773 10.3066 5.99406 10.3432C5.94743 10.3385 5.90223 10.3245 5.86115 10.302C5.72686 10.1852 5.64308 10.0209 5.62742 9.84365C5.57471 9.41293 5.57471 8.9774 5.62742 8.54667C5.70559 7.85101 6.02122 7.20357 6.5211 6.71349C6.58526 6.65391 6.64484 6.58058 6.74566 6.58517L6.75025 6.59433Z" fill="#DD0604"/>
<path d="M10.5732 6.62695L10.7152 6.82402C10.7085 6.85676 10.6993 6.88894 10.6877 6.92026C10.4443 7.31675 10.2764 7.75496 10.1928 8.21266C10.1325 8.44129 10.1062 8.67756 10.1149 8.91385C10.1244 8.98177 10.1159 9.05102 10.0902 9.11459C10.0644 9.17816 10.0224 9.23381 9.9682 9.27591C9.89487 9.33549 9.83988 9.42256 9.73905 9.44548C9.5924 8.91844 10.1424 7.13108 10.5732 6.62695Z" fill="#DD0604"/>
<path d="M5.24665 8.29492L5.19165 9.27568C5.12818 9.20902 5.07904 9.13006 5.04727 9.04367C5.0155 8.95728 5.00176 8.8653 5.00692 8.7734C5.01207 8.6815 5.036 8.59163 5.07723 8.50933C5.11846 8.42704 5.17612 8.35407 5.24665 8.29492Z" fill="#E9E9E9"/>
<path d="M10.498 8.50997C10.579 8.1807 10.6832 7.85756 10.8097 7.54297C10.8693 7.60713 10.8372 7.66213 10.8326 7.71254C10.828 7.76295 10.7455 8.00127 10.7455 8.02876C10.711 8.13072 10.6697 8.23024 10.6218 8.32666C10.5989 8.37249 10.5668 8.40915 10.498 8.50997Z" fill="#E9E9E9"/>
<path d="M6.75458 6.59976L6.78208 6.57227C6.78208 6.59518 6.78208 6.59518 6.75 6.59518L6.75458 6.59976Z" fill="#DD0604"/>
</svg>
