<svg width="16" height="16" viewBox="0 0 16 16" fill="none" xmlns="http://www.w3.org/2000/svg">
<path d="M7.47057 5.17789C7.66173 4.63857 7.87336 4.12655 8.01672 3.59406C8.05776 3.39497 8.15791 3.21288 8.30406 3.0716C8.45021 2.93032 8.63558 2.83641 8.83595 2.80214C10.2628 2.3857 10.3447 2.16724 10.6997 2.46762C11.0547 2.768 12.2221 3.55309 12.5498 3.76473C12.6517 3.82515 12.7361 3.91105 12.7948 4.01399C12.8534 4.11693 12.8843 4.23336 12.8843 4.35184C12.9253 4.9526 12.9526 5.54654 12.9935 6.14731C13.0083 6.2479 12.9944 6.35062 12.9533 6.44363C12.9122 6.53664 12.8457 6.61615 12.7614 6.67298C12.3928 6.95971 11.5872 7.60826 11.1912 7.9496C11.4321 8.70201 11.4763 9.50355 11.3198 10.2779C11.1632 11.0523 10.8111 11.7737 10.2969 12.3734C9.81908 12.9137 9.21382 13.3259 8.53614 13.5728C7.85846 13.8196 7.12984 13.8932 6.41649 13.7868C5.70314 13.6805 5.02768 13.3975 4.45149 12.9637C3.8753 12.5299 3.41665 11.959 3.11721 11.3029C2.81778 10.6467 2.68705 9.92617 2.73692 9.20666C2.78679 8.48715 3.01567 7.79151 3.40276 7.18295C3.78985 6.57439 4.32288 6.07221 4.9534 5.72205C5.58393 5.37188 6.29197 5.18483 7.01317 5.17789H7.47057ZM9.04758 12.6875C9.67124 12.2929 10.1635 11.7217 10.4616 11.0466C10.7598 10.3716 10.8505 9.62306 10.7222 8.8963C10.5939 8.16954 10.2523 7.49736 9.74094 6.96524C9.22958 6.43312 8.57151 6.06509 7.85043 5.90796C7.12935 5.75083 6.37783 5.81169 5.69143 6.0828C5.00503 6.35391 4.41476 6.82302 3.99568 7.43049C3.5766 8.03796 3.34764 8.75634 3.33791 9.49428C3.32819 10.2322 3.53814 10.9564 3.94108 11.5747C4.48492 12.3879 5.32716 12.9541 6.28544 13.1509C7.24373 13.3477 8.24096 13.1591 9.06124 12.626L9.04758 12.6875ZM11.437 5.77866C11.0404 6.03736 10.6897 6.36037 10.3993 6.73442C10.5148 6.99675 10.6874 7.22999 10.9045 7.41711C11.2071 7.20736 11.4966 6.97938 11.7715 6.73442C11.9012 6.61836 12.0992 6.55009 12.1675 6.35211C11.9591 6.10829 11.7178 5.89461 11.4506 5.71722L11.437 5.77866ZM8.65845 3.81252C8.40754 4.2718 8.2367 4.77046 8.15326 5.28712L8.83595 5.52606C8.99736 5.36525 9.12298 5.17216 9.2046 4.95943C9.29335 4.76828 9.46402 4.60443 9.44354 4.35867L8.65845 3.81252ZM9.93508 6.21558C10.2623 5.94076 10.5639 5.63686 10.8362 5.3076C10.602 5.07986 10.323 4.90319 10.017 4.78876C9.8026 5.131 9.6198 5.49203 9.47085 5.86741L9.93508 6.21558ZM9.1295 3.38242C9.33274 3.58801 9.58025 3.74446 9.85315 3.83982C10.1423 3.69453 10.4091 3.50829 10.6451 3.28685C10.3447 3.00012 10.3242 2.97281 10.1604 3.0206C9.80498 3.10464 9.45945 3.22592 9.1295 3.38242ZM10.3993 4.2153C10.6472 4.44058 10.9372 4.61459 11.2527 4.72732C11.3209 4.44742 11.3892 4.19482 11.437 3.9354C11.4387 3.89902 11.4329 3.86268 11.42 3.82862C11.4071 3.79457 11.3873 3.76353 11.3619 3.73742C11.3291 3.72064 11.2929 3.7119 11.2561 3.7119C11.2193 3.7119 11.183 3.72064 11.1503 3.73742C10.9181 3.8603 10.686 4.01732 10.3993 4.2153ZM12.304 5.51924C12.3182 5.15197 12.2999 4.78416 12.2494 4.42011C12.2473 4.387 12.2374 4.35485 12.2206 4.32625C12.2038 4.29765 12.1805 4.2734 12.1526 4.25546C12.1247 4.23752 12.093 4.22639 12.06 4.22298C12.027 4.21956 11.9936 4.22394 11.9627 4.23578C11.8689 4.52597 11.8093 4.82611 11.7852 5.1301C11.9189 5.30517 12.0985 5.43985 12.304 5.51924Z" fill="black"/>
<path d="M9.0602 12.6258C8.43949 13.0214 7.7154 13.224 6.97953 13.208C6.24365 13.192 5.52906 12.9581 4.92616 12.5358C4.32326 12.1136 3.85914 11.522 3.59252 10.836C3.3259 10.1499 3.26876 9.40017 3.42833 8.68162C3.5879 7.96308 3.95701 7.308 4.48896 6.79928C5.02091 6.29056 5.6918 5.95104 6.41675 5.82369C7.1417 5.69634 7.88813 5.78688 8.56162 6.08384C9.2351 6.38081 9.80538 6.87086 10.2003 7.492C10.4668 7.90266 10.6488 8.36228 10.7357 8.84404C10.8227 9.3258 10.8128 9.82005 10.7067 10.2979C10.6005 10.7758 10.4003 11.2278 10.1176 11.6275C9.83491 12.0272 9.47545 12.3665 9.0602 12.6258ZM5.42147 7.06873C4.91639 7.39888 4.52053 7.87136 4.28392 8.42644C4.04731 8.98152 3.98057 9.59429 4.09214 10.1873C4.2037 10.7803 4.48857 11.3269 4.91074 11.7581C5.3329 12.1892 5.8734 12.4855 6.46393 12.6095C7.05445 12.7335 7.66849 12.6797 8.22843 12.4548C8.78837 12.2299 9.26907 11.8441 9.60977 11.3461C9.95047 10.8481 10.1359 10.2602 10.1426 9.65685C10.1492 9.05348 9.9769 8.46167 9.64731 7.95623C9.43077 7.61746 9.14885 7.32527 8.81804 7.09675C8.48723 6.86823 8.11418 6.70797 7.72071 6.62533C7.32723 6.54269 6.92122 6.53934 6.52643 6.61548C6.13165 6.69161 5.756 6.8457 5.42147 7.06873Z" fill="white"/>
<path d="M11.4498 5.71777C11.7171 5.87103 11.9628 6.05929 12.1803 6.27758C12.112 6.47556 11.914 6.54383 11.7843 6.65988C11.5093 6.90467 11.2198 7.13265 10.9173 7.34257C10.7002 7.15545 10.5276 6.92221 10.4121 6.65988C10.7036 6.29071 11.0543 5.97237 11.4498 5.71777Z" fill="#DA0100"/>
<path d="M8.65755 3.81152L9.4563 4.35767C9.4563 4.60344 9.3061 4.76729 9.21735 4.95844C9.13574 5.17117 9.01011 5.36426 8.8487 5.52507L8.16602 5.28613C8.24518 4.77031 8.41139 4.27168 8.65755 3.81152Z" fill="#DA0100"/>
<path d="M9.93493 6.21587L9.4707 5.86087C9.61965 5.4855 9.80246 5.12446 10.0169 4.78223C10.3229 4.89666 10.6018 5.07333 10.8361 5.30107C10.5641 5.6327 10.2624 5.93889 9.93493 6.21587Z" fill="#DA0100"/>
<path d="M9.12891 3.38306C9.45885 3.22656 9.80438 3.10528 10.1598 3.02124C10.3236 2.97345 10.3441 3.02124 10.6445 3.28749C10.4085 3.50893 10.1417 3.69517 9.85256 3.84046C9.57965 3.7451 9.33214 3.58865 9.12891 3.38306Z" fill="#DA0100"/>
<path d="M10.4004 4.21529C10.6871 4.01731 10.9192 3.86029 11.1513 3.71693C11.1841 3.70016 11.2204 3.69141 11.2572 3.69141C11.294 3.69141 11.3302 3.70016 11.363 3.71693C11.3884 3.74304 11.4081 3.77408 11.4211 3.80813C11.434 3.84219 11.4398 3.87853 11.4381 3.91491C11.3903 4.17433 11.322 4.42693 11.2538 4.70683C10.94 4.60023 10.65 4.43325 10.4004 4.21529Z" fill="#DA0100"/>
<path d="M12.303 5.52004C12.1 5.43957 11.9229 5.30498 11.791 5.13091C11.8152 4.82691 11.8748 4.52677 11.9685 4.23659C11.9995 4.22475 12.0328 4.22036 12.0658 4.22378C12.0988 4.2272 12.1306 4.23833 12.1585 4.25627C12.1864 4.27421 12.2097 4.29846 12.2265 4.32706C12.2433 4.35566 12.2531 4.38781 12.2552 4.42091C12.3035 4.78517 12.3195 5.15297 12.303 5.52004Z" fill="#DA0100"/>
<path d="M5.4221 7.06957C5.92761 6.74082 6.51918 6.56921 7.12215 6.57639C7.72511 6.58357 8.31243 6.76923 8.80996 7.10993C9.3075 7.45063 9.69294 7.93109 9.91764 8.49067C10.1423 9.05025 10.1962 9.66385 10.0725 10.254C9.94872 10.8442 9.6529 11.3845 9.22235 11.8067C8.7918 12.2289 8.24582 12.514 7.65333 12.6262C7.06085 12.7383 6.44842 12.6724 5.89336 12.4368C5.33829 12.2012 4.86548 11.8064 4.53461 11.3022C4.31049 10.9675 4.15552 10.5913 4.07879 10.1958C4.00207 9.8003 4.00513 9.39347 4.0878 8.99918C4.17048 8.60489 4.3311 8.23108 4.56023 7.89972C4.78936 7.56836 5.08238 7.28612 5.4221 7.06957ZM8.43958 11.6709C8.71036 11.4932 8.94311 11.2634 9.12431 10.9949C9.3055 10.7264 9.43152 10.4246 9.49504 10.107C9.55857 9.78938 9.55832 9.46231 9.49433 9.1448C9.43033 8.82728 9.30386 8.52566 9.12227 8.25745C8.74525 7.76145 8.19393 7.42715 7.57982 7.32217C6.96571 7.21718 6.33464 7.34935 5.81427 7.69193C5.29389 8.03451 4.92304 8.56194 4.77673 9.16754C4.63042 9.77313 4.71957 10.4117 5.02614 10.9541C5.38319 11.4964 5.93988 11.876 6.57521 12.0102C7.21054 12.1444 7.87317 12.0225 8.4191 11.6709H8.43958Z" fill="black"/>
</svg>
