<svg width="16" height="16" viewBox="0 0 16 16" fill="none" xmlns="http://www.w3.org/2000/svg">
<path d="M7.77958 5.73195C7.86795 5.70418 7.95117 5.66371 8.02623 5.61199C8.59102 5.191 9.27901 4.94005 9.99942 4.89225C10.2693 4.84634 10.5471 4.86232 10.809 4.93882C11.0709 5.01532 11.309 5.15006 11.503 5.3315C11.697 5.51293 11.841 5.73565 11.9228 5.98056C12.0046 6.22548 12.0217 6.48529 11.9726 6.73774C11.3313 9.14609 6.62526 13.972 5.30322 11.13C4.58952 9.64737 4.14921 8.06249 4.00091 6.44246C3.992 6.14483 4.04872 5.84867 4.16754 5.57244C4.28635 5.29621 4.46472 5.04583 4.69153 4.83689C4.96777 4.56929 5.86558 3.36973 6.9903 4.43088C7.34558 4.80964 7.61419 5.25242 7.77958 5.73195Z" fill="black"/>
</svg>
