<svg width="16" height="16" viewBox="0 0 16 16" fill="none" xmlns="http://www.w3.org/2000/svg">
<path d="M10.2222 6.68753C10.452 6.28329 10.5704 5.83066 10.5664 5.37158C10.5683 5.24431 10.5395 5.1183 10.4821 5.00318C10.4248 4.88806 10.3404 4.78687 10.2354 4.70733C10.0006 4.9665 9.66798 5.12844 9.3087 5.15852C8.70856 5.22118 8.42613 4.66556 8.81888 4.32299C8.97892 4.20202 9.16278 4.11239 9.35975 4.05932C9.55672 4.00625 9.76288 3.99079 9.96622 4.01384C9.97827 3.75055 9.89834 3.49083 9.73881 3.27485C9.57927 3.05888 9.34902 2.89868 9.08365 2.81904C8.54928 2.62015 7.96181 2.58795 7.40677 2.72713C7.36264 2.83575 7.43324 2.89424 7.45972 2.96526C7.54798 3.15662 7.57203 3.36902 7.52862 3.57375C7.48521 3.77847 7.37644 3.96564 7.21701 4.10993C7.0863 4.23014 6.93761 4.33149 6.77573 4.41072C6.13587 4.71986 5.53572 4.08069 5.76077 3.42898C5.8996 3.09186 6.14065 2.80116 6.45359 2.59345C6.37416 2.55167 6.20647 2.38039 5.5975 2.52243C5.2257 2.61311 4.87634 2.77209 4.5693 2.99032C4.16642 3.2655 3.86465 3.65319 3.70636 4.09899C3.54808 4.5448 3.54121 5.02633 3.68673 5.47602C3.76443 5.71188 3.86951 5.93886 4.00005 6.15279C4.12802 6.17786 4.18539 6.09013 4.2604 6.04835C4.52959 5.89378 4.75464 5.59717 5.17387 6.04835C5.67985 6.56575 6.15286 7.1112 6.59039 7.68181C6.62652 7.72118 6.65268 7.76785 6.66686 7.81825C6.68105 7.86865 6.68289 7.92145 6.67225 7.97262C6.66161 8.0238 6.63876 8.072 6.60546 8.11354C6.57215 8.15509 6.52927 8.18889 6.48007 8.21237C6.44281 8.24076 6.40293 8.26593 6.36092 8.28756C5.91098 8.54347 5.48831 8.84008 5.09885 9.17322C5.06018 9.21351 5.01255 9.24517 4.9594 9.26591C4.90624 9.28665 4.84888 9.29596 4.79146 9.29316C4.73404 9.29037 4.67799 9.27553 4.62736 9.24973C4.57673 9.22393 4.53279 9.18781 4.4987 9.14398C4.20745 8.85154 3.17484 7.58154 3.11748 7.52724C2.82182 7.08441 3.11748 6.93401 3.63378 6.47865C3.37992 6.06906 3.2079 5.61872 3.1263 5.15016C3.04872 4.65171 3.12195 4.14266 3.33752 3.68201C3.55308 3.22136 3.90215 2.82798 4.34425 2.54749C4.64875 2.34545 4.98755 2.19426 5.34597 2.10049C5.61939 2.00642 5.91314 1.97779 6.20108 2.01715C6.48902 2.05651 6.76222 2.16263 6.99637 2.32608L7.34057 2.2467C8.86742 1.91249 10.4958 2.60598 10.4737 3.96789C10.4737 4.04727 10.4737 4.12246 10.4737 4.20184C10.4922 4.23338 10.5144 4.26281 10.5399 4.28957C10.7869 4.50005 10.9633 4.77451 11.0473 5.07896C11.1312 5.3834 11.119 5.70447 11.0121 6.0024C10.9542 6.1871 10.8849 6.36844 10.8047 6.54549C10.8047 6.58727 10.8047 6.63322 10.7738 6.68753C10.9326 6.74602 11.0959 6.68753 11.2636 6.75855C11.8926 7.49477 12.4453 8.2866 12.914 9.12309C12.986 9.24194 13.014 9.38017 12.9934 9.51579C12.9581 9.82911 12.9361 10.1466 12.8919 10.4641C12.8427 10.9151 12.8221 11.3685 12.8302 11.8218C12.8302 11.9639 12.7816 13.66 12.7728 13.7644C12.7287 14.1404 12.3977 13.9483 11.6608 13.9691C10.2839 14.0109 9.59554 13.7895 7.3141 13.7895C7.25265 13.7897 7.19182 13.7778 7.13552 13.7545C7.07922 13.7312 7.02868 13.697 6.98713 13.6542C6.94559 13.6113 6.91397 13.5607 6.89428 13.5056C6.87459 13.4505 6.86728 13.3921 6.87281 13.3341C6.93459 12.6657 7.00961 12.0015 7.06256 11.3331C7.26114 8.72204 6.99196 9.02283 7.63624 8.37529C8.07752 7.93247 8.83212 7.15125 9.05276 6.92983C9.12565 6.85314 9.21589 6.79302 9.31675 6.75395C9.41761 6.71489 9.52649 6.6979 9.63526 6.70424C9.81177 6.70842 10.0148 6.69589 10.2222 6.68753ZM12.2786 13.472C12.3315 13.3634 12.2786 13.7268 12.3315 11.166C12.3315 10.7189 12.4242 9.98786 12.4771 9.5701C12.4959 9.45831 12.4707 9.3439 12.4065 9.24842C11.9912 8.5326 11.536 7.83814 11.043 7.16796L9.46757 7.12618C9.24251 7.32671 9.67497 6.90059 7.79068 8.87243C7.52591 9.15233 7.6583 9.41135 7.62741 9.95444C7.42883 13.1629 7.27879 13.1963 7.39794 13.3425C7.67595 13.3425 7.95396 13.3174 8.22756 13.3425C8.96892 13.3801 9.71027 13.4219 10.434 13.4845C11.0209 13.5347 11.6078 13.4845 12.1991 13.5138C12.2344 13.5054 12.2565 13.4845 12.2786 13.472ZM6.88164 2.93184C6.60369 3.03465 6.38001 3.2374 6.25943 3.49582C6.10056 3.81332 6.31238 4.06815 6.50655 4.01384C6.66386 3.96315 6.80082 3.86774 6.89875 3.74064C6.99667 3.61355 7.0508 3.46094 7.05374 3.30365C7.04255 3.16482 6.98187 3.03372 6.88164 2.93184ZM5.01059 6.61233C4.98411 6.95072 4.92233 8.40036 4.93116 8.60089C4.93116 8.60089 4.95764 8.63013 4.98411 8.65937L5.19152 8.51316C5.18521 8.39626 5.18521 8.27913 5.19152 8.16224C5.19711 7.82975 5.22215 7.49782 5.26653 7.16796C5.31508 6.90477 5.21358 6.77526 5.01059 6.61233ZM4.42368 8.28339C4.50192 7.68196 4.5373 7.07622 4.52959 6.47029C4.48117 6.46915 4.4342 6.486 4.39873 6.51723C4.36327 6.54846 4.34213 6.5916 4.33984 6.6374C4.33984 6.69171 4.28688 7.37684 4.23393 8.02437C4.21186 8.15388 4.29571 8.20819 4.41044 8.28756L4.42368 8.28339ZM5.70341 8.11628C5.85764 8.05103 6.00533 7.97273 6.14469 7.88233C6.06579 7.68994 5.91931 7.52913 5.72988 7.42697C5.64163 8.14135 5.64604 7.97842 5.69017 8.12046L5.70341 8.11628ZM3.72645 7.58572L3.80147 7.56483C3.80147 7.44786 3.83236 7.32671 3.83677 7.20556C3.84118 7.08441 3.87649 7.05516 3.81029 6.96743C3.66312 7.03286 3.53789 7.13551 3.44844 7.26404L3.72645 7.58572ZM9.71469 4.51934C9.64009 4.50024 9.56199 4.4967 9.4858 4.50896C9.40962 4.52122 9.33715 4.54899 9.2734 4.59036C9.22927 4.61125 9.17191 4.63631 9.20721 4.72404C9.4004 4.71572 9.58251 4.63627 9.71469 4.50263V4.51934Z" fill="#241D18"/>
<path d="M10.0102 10.3187C10.0546 10.2702 10.102 10.2247 10.1521 10.1823C10.2175 10.1258 10.2903 10.0787 10.3685 10.0423C10.4366 10.0101 10.5116 9.99588 10.5866 10.001C10.6616 10.0062 10.7341 10.0305 10.7972 10.0718C10.8603 10.1131 10.9121 10.1699 10.9475 10.2369C10.983 10.304 11.001 10.379 11 10.4551C10.9999 10.5926 10.9796 10.7292 10.9396 10.8606C10.9097 10.9536 10.8692 11.0427 10.819 11.1262C10.6566 11.404 10.4599 11.6596 10.2337 11.8871C10.2102 11.9219 10.1788 11.9504 10.142 11.97C10.1052 11.9897 10.0642 12 10.0226 12C9.98098 12 9.93999 11.9897 9.90321 11.97C9.86642 11.9504 9.83494 11.9219 9.81151 11.8871C9.50744 11.6008 9.25002 11.2677 9.04877 10.9001C8.81108 10.3259 9.49222 9.91673 10.0102 10.3187Z" fill="#DA0106"/>
</svg>
