<svg width="16" height="16" viewBox="0 0 16 16" fill="none" xmlns="http://www.w3.org/2000/svg">
<path d="M7.61637 6.25866C7.86124 5.83362 8.07838 5.36237 8.54038 5.20067C8.80366 5.0795 9.10237 5.05964 9.37938 5.14487C9.65639 5.2301 9.89226 5.41446 10.0419 5.66268C10.3191 6.07417 10.5383 6.5219 10.6933 6.99324C10.9659 7.79712 11.779 7.6539 12.047 7.7232C12.0991 7.74131 12.1455 7.77263 12.1819 7.81408C12.2183 7.85553 12.2433 7.90571 12.2544 7.95971C12.2656 8.01371 12.2626 8.06968 12.2457 8.12216C12.2287 8.17464 12.1985 8.22183 12.1579 8.25912C11.9336 8.40581 11.6953 8.52963 11.4464 8.62873C10.4438 8.97523 10.4531 9.79297 9.71848 10.8741C9.48516 11.1649 9.19554 11.4058 8.86696 11.5821C8.53838 11.7585 8.1776 11.8667 7.80622 11.9003C7.43483 11.934 7.06047 11.8923 6.70555 11.7779C6.35064 11.6635 6.02245 11.4786 5.74065 11.2344C5.22518 10.7268 4.80295 10.1326 4.49324 9.47881C4.37177 9.2409 4.23279 9.01235 4.07744 8.79505C4.01765 8.70328 3.93407 8.62946 3.83562 8.58146C3.73718 8.53345 3.62755 8.51306 3.51842 8.52246C3.45326 8.53034 3.38717 8.52425 3.32456 8.50458C3.26194 8.48492 3.20423 8.45214 3.15527 8.40843C3.10631 8.36471 3.06723 8.31107 3.04062 8.25107C3.01402 8.19107 3.00051 8.12609 3.00098 8.06046C2.96402 7.50606 3.98042 8.0004 4.73349 6.87312C4.99156 6.40018 5.31334 5.96491 5.68983 5.57951C5.80029 5.48092 5.93037 5.40684 6.07151 5.36213C6.21266 5.31743 6.36167 5.30311 6.50874 5.32014C6.65582 5.33716 6.79762 5.38512 6.92483 5.46089C7.05203 5.53665 7.16175 5.63848 7.24677 5.7597C7.38075 5.8983 7.47315 6.06924 7.61637 6.25866ZM4.76583 7.85256C6.55684 8.51312 8.52666 8.50163 10.3098 7.82022C9.81088 6.67908 9.7231 6.40188 9.41818 6.0369C9.36706 5.96344 9.2976 5.90463 9.21672 5.86633C9.13583 5.82803 9.04633 5.81157 8.9571 5.81858C8.86788 5.82558 8.78204 5.85582 8.70813 5.90627C8.63421 5.95673 8.57479 6.02566 8.53576 6.1062C8.21236 6.753 8.11534 7.12722 8.0137 7.29816C7.98648 7.35065 7.94734 7.39604 7.89944 7.4307C7.85153 7.46536 7.79617 7.48832 7.7378 7.49775C7.67943 7.50718 7.61966 7.50282 7.56327 7.485C7.50689 7.46719 7.45546 7.43643 7.41309 7.39518C7.04811 7.0764 7.03887 6.53124 6.66465 6.16626C6.63725 6.12445 6.60039 6.08967 6.55707 6.06474C6.51375 6.0398 6.46517 6.0254 6.41525 6.0227C6.36534 6.02001 6.31549 6.02908 6.26973 6.04921C6.22397 6.06933 6.18358 6.09993 6.15183 6.13854C5.58819 6.66522 5.46345 7.2381 4.76583 7.85256ZM10.0788 8.69803C8.49715 9.16262 6.81725 9.17702 5.22783 8.73961C5.14005 8.73961 5.04765 8.7396 4.92291 8.70726C5.29251 9.63127 5.99937 10.8694 6.95571 11.1374C7.40152 11.2699 7.87925 11.246 8.30956 11.0695C8.73986 10.893 9.09683 10.5746 9.32116 10.1672C9.5845 9.71443 9.80164 9.24319 10.0788 8.69803Z" fill="#241712"/>
<path d="M12.0654 2.96943C12.1896 2.93706 12.3163 2.91542 12.4442 2.90475C12.5319 2.90076 12.6192 2.91856 12.6984 2.95656C12.7775 2.99456 12.846 3.05158 12.8977 3.12251C12.9494 3.19344 12.9827 3.27609 12.9947 3.36305C13.0067 3.45001 12.9969 3.53858 12.9663 3.62085C12.711 4.15578 12.2542 4.56777 11.6958 4.76661C11.6373 4.80097 11.5716 4.82116 11.5039 4.82555C11.4363 4.82995 11.3685 4.81844 11.3061 4.79195C11.2437 4.76545 11.1883 4.72471 11.1445 4.67297C11.1006 4.62124 11.0695 4.55996 11.0536 4.49403C10.8612 4.01228 10.7654 3.49739 10.7718 2.97867C10.7729 2.8435 10.8188 2.71251 10.9025 2.60631C10.9861 2.5001 11.1026 2.42469 11.2338 2.39193C11.6958 2.30415 11.8852 2.67837 12.0654 2.96943Z" fill="#201A14"/>
<path d="M4.76562 7.85294C5.44939 7.23848 5.57413 6.6656 6.15163 6.13892C6.18353 6.10381 6.22287 6.07626 6.26677 6.05829C6.31068 6.04031 6.35804 6.03236 6.4054 6.03502C6.45277 6.03768 6.49894 6.05087 6.54056 6.07364C6.58218 6.09641 6.61819 6.12818 6.64597 6.16664C7.03405 6.54548 7.01557 7.06292 7.39441 7.39556C7.43678 7.43681 7.48821 7.46758 7.54459 7.48539C7.60098 7.5032 7.66075 7.50756 7.71912 7.49813C7.77749 7.4887 7.83285 7.46574 7.88076 7.43108C7.92866 7.39642 7.96779 7.35103 7.99502 7.29854C8.0828 7.1507 8.24912 6.6425 8.51708 6.10658C8.5561 6.02604 8.61553 5.95711 8.68945 5.90666C8.76336 5.8562 8.8492 5.82596 8.93842 5.81896C9.02764 5.81195 9.11715 5.82841 9.19803 5.86672C9.27892 5.90502 9.34838 5.96382 9.3995 6.03728C9.70442 6.40226 9.78758 6.67022 10.2912 7.8206C8.51349 8.4974 6.5511 8.50888 4.76562 7.85294Z" fill="#DA0100"/>
<path d="M10.0783 8.69824C9.80114 9.2434 9.584 9.71465 9.3299 10.1674C9.10773 10.5773 8.75169 10.8987 8.3212 11.0778C7.89071 11.2568 7.41181 11.2829 6.96445 11.1515C6.0081 10.8835 5.30124 9.64072 4.93164 8.72134C5.05638 8.72134 5.14878 8.72134 5.23656 8.75368C6.82464 9.18264 8.50049 9.16345 10.0783 8.69824Z" fill="#DA0100"/>
</svg>
