<svg width="16" height="16" viewBox="0 0 16 16" fill="none" xmlns="http://www.w3.org/2000/svg">
<path d="M4.73687 10.4542C4.46077 10.9639 4.22697 11.4954 4.03783 12.0433L4.25174 12.1999C4.87057 12.6621 4.81327 13.2198 4.35106 13.4452C4.24547 13.4979 4.13188 13.5327 4.01491 13.5483C3.70144 13.5846 3.3839 13.5587 3.08044 13.4721C2.77698 13.3856 2.49353 13.2402 2.24628 13.0441C1.76115 12.6621 1.66565 12.0891 2.1928 11.8294C2.49133 11.707 2.81798 11.67 3.13632 11.7224C3.27827 11.4505 3.40577 11.1712 3.51832 10.8859C3.65201 10.6146 3.78189 10.3472 3.90031 10.0684C3.76295 9.78191 3.68869 9.46927 3.68257 9.15161C3.70841 7.83598 4.09561 6.55279 4.80181 5.44246C4.95843 5.19034 5.09595 4.94205 5.46266 4.95351C6.08458 4.94807 6.69571 5.11606 7.22747 5.43864C7.32953 5.49005 7.41179 5.57368 7.46152 5.67658C7.51124 5.77947 7.52564 5.89589 7.5025 6.00781C7.30924 7.2154 6.8342 8.36048 6.11587 9.35025C5.80077 9.86934 5.31234 10.2604 4.73687 10.4542ZM6.64684 7.6542L6.60864 7.62364L6.38708 7.77643C6.16411 7.92418 5.90877 8.01592 5.64275 8.04385C5.37674 8.07178 5.10791 8.03508 4.85911 7.93687C4.76569 7.91526 4.66889 7.91258 4.57442 7.92898C4.47994 7.94538 4.38971 7.98054 4.30904 8.03237C4.26592 8.05638 4.22876 8.08979 4.20032 8.13013C4.17188 8.17047 4.1529 8.2167 4.14478 8.26539C4.07221 8.73142 4.00345 9.49922 4.27084 9.88886C4.48476 10.1945 4.83237 10.0837 5.13415 9.86594C5.796 9.29421 6.30753 8.56888 6.62392 7.75352C6.63635 7.72114 6.64656 7.68796 6.65448 7.6542H6.64684ZM4.28994 7.60072C4.36634 7.60072 4.40072 7.60072 4.4351 7.60072C4.62934 7.55108 4.83295 7.55108 5.02719 7.60072C5.21351 7.67817 5.4165 7.7069 5.617 7.68417C5.81749 7.66145 6.0089 7.58803 6.17317 7.47084C6.38629 7.30793 6.6234 7.17907 6.87603 7.08885C6.95789 6.86409 7.0205 6.63279 7.06321 6.39744H7.02501H6.89513C6.05093 6.4853 5.59254 6.01545 5.12651 5.70985C4.76744 6.30052 4.48868 6.93641 4.29758 7.60072H4.28994ZM2.95297 12.1044C2.57097 12.0509 2.04 12.1961 2.27302 12.5246C2.34336 12.6293 2.43123 12.721 2.53277 12.7958C2.931 13.089 3.42335 13.225 3.91559 13.1778C3.99693 13.1705 4.07675 13.1512 4.15242 13.1205C4.33578 13.0441 4.37016 12.9219 4.26702 12.7385C4.1722 12.5923 4.04042 12.4737 3.88503 12.3947C3.80863 12.5055 3.67111 12.7767 3.42282 12.708C3.32008 12.6851 3.22554 12.6346 3.14946 12.5619C3.07337 12.4892 3.01863 12.397 2.99117 12.2954C2.97494 12.2325 2.96219 12.1687 2.95297 12.1044ZM5.44356 5.40426C5.67802 5.6449 5.96595 5.82682 6.28395 5.93523C6.48438 5.99524 6.69501 6.01344 6.90277 5.98871C6.97535 5.98871 7.05175 5.98871 7.08995 5.90085C7.12815 5.81299 7.06703 5.77861 6.95625 5.72131C6.65089 5.56353 6.3219 5.45644 5.98217 5.40426C5.80405 5.37237 5.62168 5.37237 5.44356 5.40426ZM3.45338 12.41L4.33196 10.4084L4.20208 10.3702C4.10277 10.5153 3.4572 11.9402 3.33496 12.2801L3.45338 12.41Z" fill="#241C16"/>
<path d="M11.1896 12.2385C10.9795 11.696 10.8496 11.1383 10.6242 10.615C10.2176 10.4799 9.86274 10.2224 9.60815 9.87774C8.81381 8.80695 8.31934 7.54374 8.17567 6.21825C8.17567 6.11893 8.17567 6.01961 8.15275 5.9203C8.14514 5.85213 8.15602 5.78317 8.18425 5.72067C8.21248 5.65816 8.25702 5.6044 8.31319 5.56504C8.40642 5.49312 8.50472 5.42801 8.60732 5.37023C8.95545 5.1881 9.34137 5.08998 9.7342 5.08373C9.96948 5.07043 10.2055 5.08582 10.4371 5.12957C10.5085 5.14344 10.5759 5.17334 10.6341 5.21701C10.6923 5.26068 10.7399 5.31698 10.7732 5.38169C11.3986 6.50651 11.7334 7.76958 11.7473 9.05646C11.7575 9.48428 11.6476 9.90639 11.4303 10.275L12.0758 12.0016C12.3561 11.9946 12.6355 12.0373 12.9009 12.1277C13.5427 12.3989 13.4968 13.14 12.5839 13.5602C12.3072 13.699 12.0046 13.7785 11.6955 13.7936C11.3863 13.8088 11.0774 13.7592 10.7885 13.648C10.2957 13.3883 10.2614 12.8191 10.9375 12.3874L11.1896 12.2385ZM10.2346 9.88156C10.228 9.88764 10.2228 9.89503 10.2191 9.90325C10.2155 9.91146 10.2137 9.92034 10.2137 9.92931C10.2137 9.93828 10.2155 9.94716 10.2191 9.95538C10.2228 9.9636 10.228 9.97098 10.2346 9.97706C10.3425 10.0846 10.473 10.1668 10.6166 10.2177C10.7004 10.2562 10.7953 10.2631 10.8837 10.2371C10.9722 10.2111 11.0483 10.1541 11.0979 10.0764C11.1617 9.98891 11.2119 9.89233 11.2469 9.78988C11.2998 9.63529 11.3344 9.47504 11.35 9.31239C11.3868 8.83203 11.3586 8.34889 11.266 7.8761C11.2502 7.81604 11.2297 7.7573 11.2049 7.70038C10.9757 7.76532 10.8229 8.00216 10.4791 8.24663C10.3492 8.3225 10.2008 8.36088 10.0505 8.3575C9.90009 8.35413 9.75359 8.30914 9.62724 8.22753L9.34457 8.1244C9.31016 8.11261 9.27294 8.11179 9.23805 8.12205C9.20315 8.13232 9.1723 8.15316 9.14975 8.18169C9.13055 8.20696 9.12015 8.23782 9.12015 8.26955C9.12015 8.30129 9.13055 8.33215 9.14975 8.35741C9.34799 8.81759 9.60477 9.25026 9.91374 9.64473C9.9825 9.72495 10.0627 9.80134 10.1391 9.87774C10.1449 9.88459 10.1521 9.89016 10.1602 9.89409C10.1682 9.89803 10.1771 9.90025 10.186 9.9006C10.195 9.90096 10.204 9.89946 10.2123 9.89618C10.2207 9.8929 10.2283 9.88792 10.2346 9.88156ZM10.5784 5.80952C10.3422 5.986 10.0858 6.13349 9.81442 6.24881C9.55368 6.35472 9.27455 6.40795 8.99314 6.40543C8.85944 6.40543 8.73338 6.34431 8.61114 6.36723C8.64868 6.88016 8.77806 7.38218 8.99314 7.84936C9.09629 7.79112 9.21274 7.76051 9.3312 7.76051C9.44966 7.76051 9.56611 7.79112 9.66926 7.84936C9.7342 7.8761 9.80678 7.8952 9.87172 7.92576C9.96548 7.97436 10.0728 7.99023 10.1766 7.97085C10.2804 7.95147 10.3748 7.89795 10.4447 7.8188C10.6415 7.60881 10.876 7.43775 11.1361 7.31457C11.0064 6.79381 10.8194 6.28904 10.5784 5.80952ZM11.3424 12.6472C11.1533 12.6942 10.9885 12.8099 10.8802 12.9719C10.8581 12.9961 10.8424 13.0254 10.8344 13.0571C10.8264 13.0888 10.8264 13.1221 10.8343 13.1538C10.8423 13.1856 10.8579 13.2149 10.8799 13.2391C10.9019 13.2633 10.9296 13.2818 10.9604 13.2928C11.0724 13.3519 11.1939 13.3907 11.3195 13.4074C11.6083 13.4473 11.9024 13.4198 12.1787 13.327C12.4551 13.2343 12.7062 13.0787 12.9124 12.8726C12.9395 12.8475 12.9598 12.816 12.9714 12.7809C12.983 12.7458 12.9855 12.7084 12.9786 12.6721C12.9717 12.6358 12.9557 12.6018 12.9321 12.5734C12.9085 12.545 12.8781 12.5231 12.8436 12.5097C12.6634 12.414 12.4566 12.3805 12.2554 12.4142C12.2701 12.4604 12.2736 12.5094 12.2656 12.5572C12.2577 12.605 12.2384 12.6503 12.2095 12.6892C12.127 12.7748 12.0269 12.8413 11.916 12.8842C11.8052 12.9271 11.6864 12.9453 11.5678 12.9375C11.3959 12.9299 11.3806 12.8076 11.3271 12.6625L11.3424 12.6472ZM10.2423 5.5383C10.0993 5.46276 9.93486 5.43849 9.77622 5.46954C9.38941 5.5124 9.01384 5.62637 8.66844 5.8057C8.63788 5.8057 8.6226 5.85536 8.59586 5.87828C8.63178 5.9214 8.67676 5.95607 8.72759 5.97984C8.77843 6.00361 8.83388 6.01589 8.89 6.01579C9.13381 6.03947 9.37987 6.01157 9.61218 5.93392C9.8445 5.85626 10.0579 5.73058 10.2384 5.56504C10.2384 5.56504 10.2423 5.54976 10.2423 5.5383ZM11.6938 12.5517C11.9268 12.5211 11.8543 12.4868 11.7473 12.1697C11.1132 10.3705 11.2545 10.7525 11.1361 10.5386L11.0062 10.6035L11.6938 12.5517Z" fill="#241C16"/>
<path d="M7.56429 3.58574C7.62528 3.57997 7.68667 3.57997 7.74765 3.58574C7.79161 3.58905 7.83422 3.60247 7.87214 3.62494C7.91007 3.64741 7.94231 3.67833 7.96633 3.71529C7.99036 3.75225 8.00553 3.79426 8.01067 3.83805C8.0158 3.88183 8.01077 3.92621 7.99595 3.96773C7.96206 4.04154 7.92113 4.1119 7.87371 4.17783C7.73422 4.3472 7.55421 4.4786 7.35038 4.55982C7.15174 4.64004 6.99894 4.58656 6.93783 4.38793C6.87319 4.1519 6.82343 3.91204 6.78885 3.66978C6.77975 3.61104 6.78755 3.55093 6.81134 3.49647C6.83512 3.442 6.87391 3.39542 6.92318 3.36218C6.97245 3.32893 7.03016 3.31039 7.08957 3.30872C7.14898 3.30704 7.20764 3.32231 7.2587 3.35272C7.36795 3.4202 7.47031 3.49824 7.56429 3.58574Z" fill="#241C16"/>
<path d="M9.32807 3.13515C9.3814 3.09312 9.43755 3.05483 9.49615 3.02055C9.53454 3.00008 9.57713 2.98875 9.62061 2.98743C9.66409 2.98612 9.70729 2.99486 9.74684 3.01297C9.7864 3.03108 9.82123 3.05808 9.84865 3.09186C9.87606 3.12564 9.8953 3.16529 9.90488 3.20772C9.92184 3.25945 9.92959 3.31375 9.9278 3.36816C9.91827 3.58702 9.85672 3.80047 9.74827 3.99081C9.73164 4.03104 9.70641 4.06714 9.67433 4.09658C9.64226 4.12601 9.60412 4.14805 9.56261 4.16116C9.5211 4.17427 9.47722 4.17812 9.43406 4.17245C9.3909 4.16678 9.34951 4.15172 9.31279 4.12833C9.05941 4.00034 8.85141 3.79768 8.71689 3.5477C8.69052 3.4899 8.67499 3.42775 8.67105 3.36434C8.66337 3.30967 8.67011 3.25395 8.69058 3.20269C8.71105 3.15142 8.74455 3.10639 8.78777 3.07205C8.83099 3.0377 8.88243 3.01524 8.93699 3.00688C8.99156 2.99852 9.04736 3.00454 9.09888 3.02437C9.17817 3.05498 9.25482 3.09203 9.32807 3.13515Z" fill="#201A14"/>
<path d="M7.8737 1.58413C7.93309 1.53036 7.99699 1.4818 8.0647 1.43897C8.29389 1.30528 8.50399 1.49245 8.48107 1.74457C8.45449 1.99928 8.36236 2.24275 8.21368 2.45126C8.19527 2.48348 8.16987 2.51117 8.13934 2.53228C8.10882 2.5534 8.07396 2.5674 8.03731 2.57326C8.00066 2.57913 7.96317 2.5767 7.92758 2.56616C7.892 2.55563 7.85923 2.53725 7.83168 2.51237C7.58607 2.35304 7.39329 2.12437 7.27779 1.85535C7.25835 1.80203 7.25454 1.74428 7.26681 1.68887C7.27908 1.63347 7.30691 1.58272 7.34703 1.5426C7.38716 1.50247 7.43791 1.47464 7.49331 1.46237C7.54872 1.4501 7.60647 1.45392 7.65979 1.47335C7.72472 1.49245 7.7973 1.53447 7.8737 1.58413Z" fill="#231C17"/>
<path d="M6.65551 7.65361C6.64759 7.68737 6.63738 7.72055 6.62495 7.75292C5.81512 9.66289 4.33299 10.8738 4.11526 9.45661C4.06236 9.06022 4.07268 8.65795 4.14581 8.2648C4.15393 8.21611 4.17291 8.16988 4.20135 8.12954C4.22979 8.0892 4.26695 8.05579 4.31007 8.03178C4.42991 7.9661 4.56337 7.92915 4.69993 7.92385C4.83648 7.91855 4.9724 7.94503 5.09698 8.00122C5.31675 8.06109 5.547 8.07194 5.77143 8.03299C5.99586 7.99405 6.209 7.90626 6.39575 7.77584L6.61731 7.62305L6.65551 7.65361ZM5.18484 9.18158C5.14462 9.18212 5.10593 9.19706 5.07579 9.2237C5.04565 9.25033 5.02606 9.28689 5.02058 9.32674C5.0134 9.35029 5.01149 9.37513 5.01498 9.3995C5.01846 9.42387 5.02726 9.44718 5.04074 9.46778C5.05423 9.48837 5.07207 9.50576 5.09302 9.5187C5.11396 9.53164 5.13749 9.53982 5.16195 9.54266C5.1864 9.54551 5.21118 9.54294 5.23454 9.53516C5.25789 9.52737 5.27925 9.51454 5.2971 9.49759C5.31496 9.48063 5.32887 9.45996 5.33785 9.43704C5.34683 9.41412 5.35067 9.3895 5.34909 9.36494C5.34773 9.31991 5.3305 9.27682 5.30044 9.24326C5.27039 9.20971 5.22944 9.18786 5.18484 9.18158ZM5.94882 8.44433C5.944 8.39936 5.92165 8.3581 5.88661 8.3295C5.85157 8.3009 5.80667 8.28726 5.76165 8.29153C5.72887 8.2954 5.69796 8.30883 5.67276 8.33015C5.64757 8.35147 5.62921 8.37974 5.61998 8.41143C5.61074 8.44311 5.61104 8.47681 5.62083 8.50833C5.63063 8.53985 5.64948 8.56779 5.67505 8.58866C5.70062 8.60953 5.73176 8.62241 5.7646 8.6257C5.79744 8.62898 5.83052 8.62253 5.85972 8.60714C5.88892 8.59174 5.91293 8.5681 5.92878 8.53915C5.94462 8.5102 5.95159 8.47722 5.94882 8.44433ZM4.95182 8.8416C4.95141 8.80095 4.9366 8.76175 4.91003 8.73098C4.88345 8.70021 4.84683 8.67985 4.80666 8.67353C4.76393 8.67787 4.72409 8.69707 4.69407 8.72779C4.66405 8.75851 4.64576 8.79879 4.64241 8.8416C4.64213 8.88205 4.65679 8.92118 4.68358 8.95149C4.71036 8.9818 4.74739 9.00116 4.78756 9.00586C4.82996 9.00238 4.86975 8.98396 4.89984 8.95388C4.92992 8.92379 4.94834 8.88401 4.95182 8.8416Z" fill="#FF0303"/>
<path d="M4.29688 7.60039C4.48637 6.92948 4.76518 6.28708 5.1258 5.69043C5.58419 5.9922 6.0464 6.45442 6.89443 6.37802H7.02812H7.06632C7.02362 6.61337 6.961 6.84467 6.87915 7.06942C6.62651 7.15964 6.38941 7.28851 6.17628 7.45142C6.01156 7.56762 5.82022 7.64043 5.61993 7.66313C5.41963 7.68583 5.21684 7.65769 5.0303 7.5813C4.83606 7.53165 4.63245 7.53165 4.43821 7.5813C4.40765 7.59275 4.37327 7.59275 4.29688 7.60039Z" fill="#FBFAFA"/>
<path d="M2.95321 12.1045C2.94815 12.2455 2.9917 12.3839 3.07654 12.4966C3.16139 12.6092 3.28238 12.6893 3.41924 12.7234C3.48183 12.739 3.5477 12.7349 3.60786 12.7116C3.66803 12.6884 3.71955 12.6471 3.75539 12.5935C3.80094 12.5349 3.84303 12.4737 3.88145 12.4101C4.03684 12.4891 4.16862 12.6077 4.26344 12.7539C4.36658 12.922 4.3322 13.0443 4.14885 13.1359C4.07317 13.1666 3.99336 13.186 3.91201 13.1932C3.41977 13.2404 2.92743 13.1044 2.5292 12.8112C2.42766 12.7364 2.33978 12.6447 2.26944 12.54C2.04025 12.1962 2.55594 12.0511 2.95321 12.1045Z" fill="#F7F7F6"/>
<path d="M5.44336 5.40478C5.62148 5.37289 5.80385 5.37289 5.98197 5.40478C6.32282 5.46296 6.65186 5.57651 6.95605 5.74093C7.06683 5.79823 7.11649 5.86699 7.08975 5.92047C7.06301 5.97395 6.97515 6.00069 6.90257 6.00833C6.69481 6.03306 6.48418 6.01486 6.28374 5.95485C5.96386 5.84092 5.67577 5.65235 5.44336 5.40478Z" fill="#F5F5F4"/>
<path d="M3.4524 12.41L3.33398 12.2801C3.45622 11.9248 4.09797 10.5 4.20111 10.3701L4.33099 10.4274L3.4524 12.41Z" fill="#E5E4E3"/>
<path d="M10.5766 5.80859C10.8175 6.28812 11.0046 6.79289 11.1343 7.31365C10.8715 7.44096 10.6356 7.61729 10.439 7.83316C10.3691 7.91231 10.2748 7.96583 10.1709 7.98521C10.0671 8.00459 9.95981 7.98871 9.86605 7.94011C9.80111 7.90955 9.72853 7.89046 9.66359 7.86372C9.56044 7.80547 9.44399 7.77487 9.32553 7.77487C9.20707 7.77487 9.09061 7.80547 8.98746 7.86372C8.77239 7.39654 8.643 6.89452 8.60547 6.38158C8.73917 6.35866 8.86522 6.43124 8.98746 6.41978C9.1097 6.40832 9.27778 6.41978 9.41911 6.38158C9.84163 6.27601 10.2364 6.08057 10.5766 5.80859Z" fill="#FBFAFA"/>
<path d="M10.2336 9.88048C10.2275 9.88708 10.2201 9.89235 10.2119 9.89595C10.2037 9.89955 10.1948 9.90141 10.1859 9.90141C10.1769 9.90141 10.168 9.89955 10.1598 9.89595C10.1516 9.89235 10.1442 9.88708 10.1381 9.88048C10.0617 9.80409 9.98149 9.72769 9.91273 9.64747C9.60377 9.25301 9.34699 8.82033 9.14875 8.36015C9.12954 8.33489 9.11914 8.30403 9.11914 8.27229C9.11914 8.24056 9.12954 8.2097 9.14875 8.18444C9.1713 8.1559 9.20215 8.13506 9.23704 8.12479C9.27194 8.11453 9.30916 8.11535 9.34356 8.12714L9.62624 8.23027C9.75259 8.31188 9.89909 8.35687 10.0495 8.36025C10.1998 8.36362 10.3482 8.32524 10.4781 8.24938C10.8333 8.00108 10.9709 7.76806 11.2039 7.70312C11.2287 7.76004 11.2492 7.81878 11.265 7.87884C11.3576 8.35164 11.3858 8.83477 11.349 9.31514C11.3334 9.47778 11.2988 9.63803 11.2459 9.79263C11.2109 9.89507 11.1607 9.99165 11.0969 10.0791C11.0472 10.1568 10.9712 10.2139 10.8827 10.2399C10.7942 10.2658 10.6994 10.2589 10.6156 10.2205C10.472 10.1696 10.3415 10.0873 10.2336 9.9798C10.227 9.97372 10.2217 9.96634 10.2181 9.95812C10.2145 9.9499 10.2127 9.94103 10.2127 9.93205C10.2127 9.92308 10.2145 9.91421 10.2181 9.90599C10.2217 9.89777 10.227 9.89039 10.2336 9.8843H10.3406C10.3716 9.88786 10.4029 9.8831 10.4315 9.87052C10.46 9.85793 10.4847 9.83797 10.503 9.81269C10.5213 9.78741 10.5325 9.75772 10.5355 9.72667C10.5385 9.69562 10.5332 9.66433 10.5201 9.63601C10.5102 9.59967 10.488 9.56786 10.4574 9.5459C10.4268 9.52395 10.3895 9.51319 10.3519 9.51543C10.3143 9.51767 10.2786 9.53277 10.2508 9.5582C10.223 9.58363 10.2048 9.61785 10.1992 9.65511C10.1971 9.73168 10.2088 9.80801 10.2336 9.88048ZM10.6691 9.16234C10.7116 9.16234 10.7524 9.14544 10.7825 9.11535C10.8126 9.08526 10.8295 9.04445 10.8295 9.0019C10.8295 8.95935 10.8126 8.91854 10.7825 8.88845C10.7524 8.85837 10.7116 8.84146 10.6691 8.84146C10.6288 8.84142 10.5901 8.85686 10.561 8.8846C10.5318 8.91234 10.5144 8.95024 10.5125 8.99044C10.5114 9.03376 10.5271 9.07582 10.5562 9.10785C10.5854 9.13988 10.6259 9.1594 10.6691 9.16234ZM9.83634 8.71159C9.83588 8.69134 9.8313 8.67141 9.82287 8.65299C9.81445 8.63458 9.80236 8.61808 9.78735 8.60449C9.77233 8.59091 9.75471 8.58052 9.73554 8.57398C9.71638 8.56743 9.69609 8.56487 9.6759 8.56643C9.63592 8.56728 9.59771 8.58303 9.56874 8.61058C9.53977 8.63814 9.52213 8.67552 9.51928 8.71541C9.52223 8.76066 9.54256 8.80303 9.57602 8.83364C9.60948 8.86425 9.65348 8.88074 9.69882 8.87966C9.73864 8.87398 9.77487 8.85356 9.80034 8.82243C9.82581 8.7913 9.83865 8.75174 9.83634 8.71159Z" fill="#FF0303"/>
<path d="M11.3265 12.6618C11.38 12.8222 11.3914 12.9444 11.5519 12.9521C11.6705 12.9598 11.7893 12.9416 11.9001 12.8988C12.011 12.8559 12.1111 12.7893 12.1936 12.7038C12.2225 12.6649 12.2418 12.6196 12.2497 12.5718C12.2577 12.524 12.2542 12.475 12.2395 12.4288C12.4407 12.3951 12.6475 12.4286 12.8277 12.5243C12.8621 12.5376 12.8926 12.5596 12.9162 12.588C12.9398 12.6164 12.9558 12.6503 12.9627 12.6866C12.9696 12.7229 12.9671 12.7604 12.9555 12.7955C12.9439 12.8305 12.9236 12.8621 12.8965 12.8871C12.6907 13.094 12.4397 13.2502 12.1633 13.3437C11.8869 13.4371 11.5926 13.4652 11.3036 13.4258C11.178 13.4091 11.0565 13.3703 10.9445 13.3112C10.9137 13.3002 10.886 13.2818 10.864 13.2575C10.842 13.2333 10.8264 13.204 10.8184 13.1722C10.8105 13.1405 10.8105 13.1072 10.8185 13.0755C10.8265 13.0438 10.8422 13.0145 10.8643 12.9903C10.9719 12.8269 11.1368 12.7097 11.3265 12.6618Z" fill="#F5F5F4"/>
<path d="M10.2402 5.53841C10.2402 5.53841 10.2402 5.56133 10.2402 5.56515C10.0597 5.73069 9.84629 5.85637 9.61398 5.93403C9.38166 6.01168 9.1356 6.03958 8.89179 6.0159C8.83567 6.016 8.78022 6.00372 8.72939 5.97995C8.67855 5.95619 8.63357 5.92151 8.59766 5.87839C8.6244 5.85547 8.63967 5.82109 8.67023 5.80581C9.01564 5.62648 9.3912 5.51251 9.77801 5.46965C9.93542 5.4395 10.0984 5.46374 10.2402 5.53841Z" fill="#F0EFEF"/>
<path d="M11.6936 12.5512L11.0137 10.603L11.1435 10.5381C11.2543 10.752 11.1092 10.37 11.7471 12.1845C11.8541 12.4862 11.9266 12.5206 11.6936 12.5512Z" fill="#E5E4E3"/>
<path d="M5.18327 9.18164C5.22787 9.18793 5.26882 9.20977 5.29888 9.24333C5.32894 9.27688 5.34617 9.31997 5.34753 9.365C5.34911 9.38957 5.34527 9.41418 5.33628 9.4371C5.3273 9.46003 5.31339 9.4807 5.29554 9.49765C5.27769 9.5146 5.25633 9.52743 5.23297 9.53522C5.20962 9.54301 5.18484 9.54557 5.16038 9.54273C5.13593 9.53988 5.1124 9.5317 5.09145 9.51876C5.07051 9.50582 5.05266 9.48844 5.03918 9.46784C5.02569 9.44724 5.01689 9.42393 5.01341 9.39956C5.00993 9.37519 5.01184 9.35035 5.01901 9.3268C5.02449 9.28695 5.04408 9.25039 5.07422 9.22376C5.10436 9.19712 5.14305 9.18218 5.18327 9.18164Z" fill="#27110C"/>
<path d="M5.96251 8.46021C5.96529 8.4931 5.95831 8.52607 5.94247 8.55502C5.92662 8.58398 5.90261 8.60762 5.87341 8.62301C5.84422 8.6384 5.81113 8.64486 5.77829 8.64157C5.74545 8.63829 5.71431 8.6254 5.68874 8.60453C5.66318 8.58366 5.64432 8.55573 5.63452 8.52421C5.62473 8.49269 5.62443 8.45899 5.63367 8.4273C5.6429 8.39562 5.66126 8.36735 5.68645 8.34603C5.71165 8.32471 5.74256 8.31128 5.77534 8.30741C5.82036 8.30313 5.86526 8.31677 5.9003 8.34538C5.93534 8.37398 5.95769 8.41524 5.96251 8.46021Z" fill="#27110C"/>
<path d="M4.95004 8.84217C4.94351 8.88569 4.92123 8.92529 4.88743 8.95345C4.85363 8.98162 4.81066 8.99639 4.76668 8.99497C4.73191 8.98669 4.70078 8.96729 4.67803 8.93971C4.65528 8.91214 4.64215 8.87789 4.64062 8.84217C4.64709 8.79831 4.66922 8.75828 4.70294 8.72948C4.73665 8.70069 4.77965 8.68508 4.82398 8.68556C4.85877 8.69513 4.88967 8.71541 4.91229 8.74352C4.93492 8.77163 4.94812 8.80614 4.95004 8.84217Z" fill="#27110C"/>
<path d="M10.2336 9.88088C10.207 9.80744 10.1941 9.72977 10.1954 9.65169C10.201 9.61442 10.2192 9.58021 10.247 9.55478C10.2748 9.52935 10.3105 9.51425 10.3481 9.51201C10.3857 9.50977 10.4229 9.52053 10.4536 9.54248C10.4842 9.56444 10.5063 9.59625 10.5163 9.63259C10.5294 9.66091 10.5347 9.6922 10.5317 9.72325C10.5287 9.7543 10.5174 9.78399 10.4992 9.80927C10.4809 9.83455 10.4562 9.85451 10.4277 9.8671C10.3991 9.87968 10.3677 9.88444 10.3367 9.88088H10.2336Z" fill="#27110C"/>
<path d="M10.6681 9.16267C10.6457 9.16268 10.6236 9.15821 10.6029 9.14952C10.5823 9.14084 10.5636 9.12811 10.5479 9.1121C10.5322 9.09609 10.5199 9.0771 10.5117 9.05627C10.5035 9.03543 10.4995 9.01317 10.5 8.99077C10.502 8.95057 10.5194 8.91267 10.5485 8.88494C10.5777 8.8572 10.6164 8.84175 10.6567 8.8418C10.6992 8.8418 10.74 8.8587 10.7701 8.88879C10.8002 8.91888 10.8171 8.95968 10.8171 9.00223C10.8171 9.04478 10.8002 9.08559 10.7701 9.11568C10.74 9.14577 10.6992 9.16267 10.6567 9.16267H10.6681Z" fill="#27110C"/>
<path d="M9.83659 8.71298C9.8389 8.75314 9.82606 8.7927 9.80059 8.82383C9.77512 8.85495 9.73889 8.87538 9.69907 8.88106C9.65373 8.88214 9.60973 8.86565 9.57627 8.83504C9.54281 8.80443 9.52248 8.76206 9.51953 8.7168C9.52238 8.67692 9.54001 8.63954 9.56899 8.61198C9.59796 8.58442 9.63617 8.56868 9.67615 8.56783C9.69634 8.56626 9.71663 8.56883 9.73579 8.57538C9.75496 8.58192 9.77258 8.5923 9.7876 8.60589C9.80261 8.61947 9.8147 8.63598 9.82312 8.65439C9.83155 8.6728 9.83613 8.69274 9.83659 8.71298Z" fill="#27110C"/>
</svg>
