<svg width="16" height="16" viewBox="0 0 16 16" fill="none" xmlns="http://www.w3.org/2000/svg">
<path d="M10.5605 5.23479C10.6117 5.23479 10.6565 5.23479 10.7013 5.20919C10.7745 5.19175 10.8506 5.19073 10.9242 5.20623C10.9978 5.22172 11.067 5.25333 11.1269 5.29879C11.2549 5.37879 11.0853 5.53559 10.8805 5.48119C10.7529 5.45525 10.6391 5.38355 10.5605 5.27959C10.5605 5.27959 10.5605 5.25719 10.5605 5.23479Z" fill="#DA0700"/>
<path d="M10.5605 4.93399C10.6052 4.79012 10.6978 4.6659 10.8229 4.58199C10.8426 4.56664 10.8658 4.55653 10.8905 4.55261C10.9151 4.54869 10.9403 4.55109 10.9637 4.55959C11.0117 4.57559 11.0629 4.58839 11.0821 4.63959C11.1013 4.69079 11.0533 4.73239 11.0213 4.76439C10.971 4.82382 10.9082 4.87151 10.8374 4.90412C10.7667 4.93673 10.6897 4.95348 10.6117 4.95319C10.5936 4.95005 10.5763 4.94353 10.5605 4.93399Z" fill="#DA0700"/>
<path d="M10.289 5.31836C10.3567 5.41462 10.4045 5.5234 10.4297 5.63836C10.4383 5.67366 10.4387 5.71043 10.4309 5.74591C10.4231 5.78138 10.4074 5.81464 10.3849 5.84316C10.3745 5.85647 10.3611 5.86723 10.3459 5.87463C10.3306 5.88203 10.3139 5.88588 10.2969 5.88588C10.28 5.88588 10.2633 5.88203 10.248 5.87463C10.2328 5.86723 10.2194 5.85647 10.2089 5.84316C10.1657 5.76741 10.1456 5.6806 10.1513 5.59355C10.157 5.50649 10.1882 5.42304 10.2409 5.35356C10.2409 5.35356 10.257 5.33756 10.289 5.31836Z" fill="#DA0700"/>
<path d="M10.0319 4.17897C9.98395 4.27253 9.92006 4.357 9.84307 4.42857C9.79187 4.45058 9.73953 4.46981 9.68627 4.48617C9.62522 4.50211 9.56125 4.50327 9.49968 4.48954C9.4381 4.47581 9.38068 4.4476 9.33218 4.40724C9.28369 4.36688 9.24552 4.31554 9.22084 4.25747C9.19615 4.19941 9.18567 4.1363 9.19027 4.07337C9.19027 4.04457 9.20627 4.00937 9.16787 3.98697C9.12947 3.96457 9.19347 3.93577 8.78067 4.40937C8.87334 4.45056 8.96221 4.49982 9.04627 4.55657C9.09946 4.59409 9.14186 4.64495 9.1692 4.70403C9.19653 4.76311 9.20785 4.82834 9.20202 4.89318C9.19618 4.95802 9.1734 5.02018 9.13595 5.07343C9.0985 5.12668 9.04771 5.16915 8.98867 5.19657C8.88705 5.24629 8.77952 5.28285 8.66867 5.30537H8.52787V5.32137H8.66867L9.12627 5.45257C9.33345 5.27966 9.58524 5.16874 9.85267 5.13257C9.79249 5.06798 9.74087 4.99592 9.69907 4.91817C9.68077 4.88512 9.66932 4.84872 9.66538 4.81115C9.66144 4.77357 9.66511 4.73559 9.67616 4.69946C9.6872 4.66334 9.70541 4.6298 9.72968 4.60085C9.75396 4.57191 9.78381 4.54814 9.81747 4.53097L9.89107 4.49257C9.98599 4.46986 10.0855 4.47566 10.1771 4.50924C10.2688 4.54283 10.3485 4.6027 10.4063 4.68137C10.4866 4.59015 10.5721 4.50361 10.6623 4.42217C10.7392 4.35982 10.8352 4.32579 10.9343 4.32579C11.0333 4.32579 11.1293 4.35982 11.2063 4.42217C11.2389 4.44427 11.2667 4.47269 11.2882 4.50574C11.3096 4.5388 11.3242 4.57582 11.331 4.61461C11.3379 4.6534 11.3369 4.69318 11.3281 4.73158C11.3193 4.76998 11.3029 4.80623 11.2799 4.83817C11.2351 4.90217 11.1775 4.95657 11.1231 5.02057L11.2479 5.09737C11.3025 5.12576 11.3478 5.1693 11.3783 5.22278C11.4088 5.27627 11.4233 5.33742 11.4199 5.3989C11.4165 5.46038 11.3955 5.51959 11.3593 5.5694C11.3231 5.61922 11.2733 5.65755 11.2159 5.67977C11.0893 5.74422 10.9432 5.75906 10.8063 5.72137C10.7758 5.7137 10.7459 5.70408 10.7167 5.69257C10.6719 5.71497 10.6879 5.75337 10.6815 5.78217C10.6047 6.23977 10.1279 6.23977 10.0031 5.96457C9.91154 5.77984 9.89214 5.56763 9.94867 5.36937C9.85708 5.36287 9.7652 5.37709 9.67987 5.41097C9.56824 5.43947 9.46509 5.49434 9.37907 5.57097C9.59347 5.83977 9.65427 5.89097 9.68307 6.08297C9.73113 6.3644 9.71582 6.653 9.63827 6.92777C9.53907 7.22537 9.35027 7.27017 9.07507 7.37577L8.95347 7.41097C8.95347 7.44617 8.97587 7.47497 8.98867 7.50377C9.84947 9.21897 9.75667 8.96297 10.1183 9.93257C10.233 10.2648 10.3072 10.6097 10.3391 10.9598C10.3649 11.2174 10.3287 11.4774 10.2335 11.7182C10.1002 12.061 9.93182 12.3892 9.73107 12.6974C9.63406 12.8574 9.47756 12.9725 9.29587 13.0174C8.97587 13.0974 9.02707 13.0814 7.13907 13.0686C7.0223 13.0672 6.90618 13.0511 6.79347 13.0206C6.57888 12.9712 6.38987 12.8448 6.26227 12.6654C5.97301 12.2391 5.76874 11.761 5.66067 11.2574C5.52307 10.6174 5.81427 9.76937 6.11187 9.16137C6.50547 8.35817 6.29747 8.81897 6.99827 7.34057C6.99827 7.34057 6.99827 7.32137 6.99827 7.29897C6.67827 7.14537 6.44787 7.09417 6.38707 6.73577C6.34114 6.47712 6.32824 6.21368 6.34867 5.95177C6.34867 5.75017 6.46707 5.67337 6.61427 5.53897C6.57715 5.46938 6.52846 5.40661 6.47027 5.35337C6.44863 5.41429 6.41476 5.47013 6.37074 5.51745C6.32671 5.56478 6.27346 5.6026 6.21427 5.62857C6.17522 5.64509 6.13307 5.65299 6.09069 5.65171C6.04831 5.65044 6.00671 5.64002 5.96873 5.62119C5.93074 5.60235 5.89728 5.57553 5.87062 5.54256C5.84396 5.50959 5.82474 5.47125 5.81427 5.43017C5.81427 5.39497 5.81427 5.35337 5.79187 5.30537C5.65702 5.35702 5.50956 5.36596 5.36947 5.33097C5.32219 5.32251 5.2777 5.3026 5.23988 5.27299C5.20205 5.24338 5.17205 5.20497 5.15249 5.16111C5.13292 5.11724 5.12438 5.06925 5.12762 5.02133C5.13086 4.97341 5.14578 4.92701 5.17107 4.88617C5.23562 4.76778 5.33354 4.67097 5.45267 4.60777C5.41107 4.48297 5.29907 4.26217 5.49747 4.09257C5.54808 4.05189 5.60904 4.02614 5.67349 4.01822C5.73794 4.01031 5.80332 4.02054 5.86227 4.04777C5.94061 4.08917 6.00951 4.14638 6.06459 4.21578C6.11967 4.28519 6.15974 4.36527 6.18227 4.45097C6.22707 4.47657 6.25267 4.45097 6.28147 4.45097C6.34654 4.43512 6.41297 4.42548 6.47987 4.42217C6.5547 4.42325 6.62716 4.44858 6.68636 4.49437C6.74556 4.54017 6.78829 4.60394 6.80813 4.6761C6.82798 4.74826 6.82386 4.82491 6.7964 4.89454C6.76894 4.96416 6.71963 5.02298 6.65587 5.06217C6.63101 5.07737 6.60538 5.09126 6.57907 5.10377C6.60467 5.18057 6.67507 5.22537 6.71987 5.28617C6.76467 5.34697 6.81267 5.39817 6.86387 5.46217L7.11987 5.38217C7.12283 5.28578 7.1164 5.18932 7.10067 5.09417C7.04557 5.06801 6.99659 5.03057 6.9569 4.98426C6.91721 4.93795 6.88769 4.88382 6.87027 4.82537C6.86289 4.76779 6.86823 4.70929 6.88593 4.654C6.90362 4.59871 6.93323 4.54797 6.97267 4.50537L6.95027 4.26537C6.89587 4.23977 6.87987 4.26537 6.85427 4.29737C6.81742 4.33163 6.77378 4.35775 6.72617 4.37403C6.67857 4.3903 6.62807 4.39638 6.57796 4.39185C6.52785 4.38732 6.47926 4.3723 6.43534 4.34775C6.39143 4.3232 6.35317 4.28968 6.32307 4.24937C6.25952 4.13455 6.23281 4.00298 6.24655 3.87248C6.26029 3.74197 6.31381 3.61884 6.39987 3.51977C6.41907 3.49097 6.43507 3.45577 6.45747 3.42057C6.36787 3.36617 5.91987 3.45257 5.79187 3.05257C5.76851 2.98928 5.76456 2.92045 5.78052 2.8549C5.79648 2.78935 5.83163 2.73005 5.88147 2.68457C6.11507 2.44777 6.46387 2.53417 6.74547 2.70697L6.87347 2.79337C6.90227 2.74857 6.92787 2.70377 6.95667 2.66537C7.06648 2.50218 7.23495 2.38758 7.42707 2.34537C7.81747 2.26857 8.04787 2.56297 7.94227 2.85737C7.87453 3.01517 7.75483 3.14503 7.60307 3.22537C7.69622 3.26855 7.77332 3.34009 7.82333 3.42976C7.87334 3.51943 7.89369 3.62263 7.88147 3.72457C7.9555 3.66622 8.04518 3.63112 8.13916 3.62372C8.23314 3.61631 8.3272 3.63693 8.40947 3.68297C8.49073 3.73199 8.55697 3.80237 8.60099 3.88644C8.645 3.97052 8.66509 4.06506 8.65907 4.15977C8.68285 4.1458 8.70534 4.12974 8.72627 4.11177C8.88219 3.90069 9.06878 3.71409 9.27987 3.55817C9.16141 3.51476 9.05267 3.44843 8.95987 3.36297C8.91871 3.31887 8.88924 3.26516 8.87414 3.20675C8.85904 3.14835 8.8588 3.08709 8.87343 3.02856C8.88806 2.97004 8.9171 2.9161 8.95791 2.87167C8.99872 2.82724 9.04999 2.79372 9.10707 2.77417C9.20528 2.73147 9.31431 2.72023 9.41917 2.742C9.52403 2.76378 9.61957 2.8175 9.69267 2.89577L9.78547 2.98857C9.93587 2.75817 10.0223 2.55977 10.3423 2.47977C10.4081 2.46711 10.4759 2.46907 10.5409 2.4855C10.6059 2.50194 10.6665 2.53245 10.7183 2.57488C10.7702 2.61731 10.8122 2.67063 10.8412 2.73105C10.8702 2.79148 10.8856 2.85754 10.8863 2.92457C10.8575 3.15497 10.7103 3.22537 10.5247 3.36617C10.5471 3.39177 10.5727 3.42697 10.5983 3.46217C10.8703 3.87177 10.6399 4.46377 10.1919 4.23337C10.1637 4.21055 10.137 4.18597 10.1119 4.15977L10.0543 4.11177L10.0319 4.17897ZM7.22547 7.35977C6.98867 7.86217 7.12307 7.67977 6.67827 8.53417C6.31063 9.15481 6.04384 9.82988 5.88787 10.5342C5.84304 10.7592 5.84304 10.9908 5.88787 11.2158C5.98163 11.6296 6.1404 12.026 6.35827 12.3902C6.40628 12.4887 6.47527 12.5756 6.5604 12.6447C6.64552 12.7138 6.74473 12.7635 6.85107 12.7902C7.09829 12.8324 7.34938 12.8474 7.59987 12.835C8.90867 12.835 9.30547 12.899 9.51987 12.579C9.75987 12.2078 10.1311 11.5454 10.1055 11.1038C10.0939 10.8356 10.0531 10.5695 9.98387 10.3102C9.70619 9.45491 9.34386 8.62948 8.90227 7.84617C8.83507 7.71497 8.75827 7.58377 8.68147 7.44937C8.19447 7.49789 7.70284 7.46763 7.22547 7.35977ZM6.55667 6.10537C6.55825 6.3019 6.57753 6.4979 6.61427 6.69097C6.62069 6.7464 6.64149 6.79919 6.6746 6.84409C6.70772 6.889 6.75201 6.92446 6.80307 6.94697C7.13643 7.10772 7.49894 7.19917 7.86867 7.21577C8.21898 7.26019 8.57442 7.24177 8.91827 7.16137C9.02784 7.13295 9.13488 7.09549 9.23827 7.04937C9.27672 7.03263 9.311 7.00759 9.33866 6.97606C9.36632 6.94453 9.38667 6.90728 9.39827 6.86697C9.4789 6.61178 9.48666 6.33914 9.42067 6.07977C9.39827 6.07977 9.38547 6.07977 9.37907 6.07977C9.18838 6.18674 8.97854 6.25524 8.76147 6.28137C8.12147 6.38377 7.16147 6.37097 6.59187 6.07657C6.58867 6.07977 6.58227 6.07977 6.55667 6.09577V6.10537ZM7.03987 3.06217C7.16858 3.07342 7.29827 3.06369 7.42387 3.03337C7.47831 3.01765 7.52903 2.99113 7.57301 2.95539C7.61699 2.91966 7.65333 2.87544 7.67987 2.82537C7.87187 2.51497 7.24147 2.39657 7.03987 3.06217ZM6.48947 3.19977H6.68787C6.70587 3.19835 6.72302 3.19151 6.73708 3.18017C6.75113 3.16882 6.76143 3.1535 6.76662 3.1362C6.77181 3.1189 6.77165 3.10043 6.76616 3.08323C6.76067 3.06602 6.75011 3.05087 6.73587 3.03977C6.34867 2.69417 5.91987 2.81897 6.02867 3.03977C6.09907 3.16777 6.22067 3.15177 6.48947 3.19977ZM8.25587 4.74217C8.27827 4.79337 8.29747 4.82857 8.31027 4.86377C8.33209 4.92878 8.37615 4.984 8.43468 5.0197C8.49322 5.05541 8.56248 5.06932 8.63027 5.05897C8.69612 5.04982 8.7606 5.03263 8.82227 5.00777C9.01427 4.93737 8.95347 4.74217 8.75507 4.68777C8.59013 4.63407 8.41064 4.64788 8.25587 4.72617V4.74217ZM9.99987 3.16777C10.113 3.195 10.2312 3.19283 10.3432 3.16146C10.4552 3.1301 10.5573 3.07058 10.6399 2.98857C10.7455 2.85097 10.5695 2.66857 10.4031 2.71657C10.2367 2.76457 10.0959 2.95657 9.99987 3.16777ZM9.77587 3.60937C9.6653 3.63672 9.56986 3.70632 9.51003 3.80324C9.45021 3.90016 9.43076 4.01667 9.45587 4.12777C9.46183 4.15792 9.47619 4.18578 9.49729 4.20813C9.51839 4.23048 9.54537 4.24641 9.57513 4.2541C9.60489 4.26179 9.63621 4.26092 9.6655 4.2516C9.69478 4.24227 9.72084 4.22486 9.74067 4.20137C9.79842 4.14676 9.83378 4.07262 9.83987 3.99337C9.84092 3.89393 9.83557 3.79453 9.82387 3.69577C9.81387 3.66403 9.79754 3.63463 9.77587 3.60937ZM10.0031 3.41097C10.0324 3.62382 10.1262 3.82258 10.2719 3.98057C10.2959 4.00309 10.3242 4.02051 10.3551 4.03177C10.5119 4.10537 10.5855 3.68617 10.3551 3.52617C10.2477 3.4623 10.1275 3.42297 10.0031 3.41097ZM7.26067 4.30697C7.34796 4.28882 7.43742 4.28343 7.52627 4.29097C7.57107 4.29097 7.61587 4.31017 7.66067 4.31337C7.70547 4.31657 7.74067 4.34857 7.79507 4.31337C7.76518 4.15576 7.77396 3.99325 7.82067 3.83977C7.74449 3.91816 7.64469 3.96938 7.53659 3.98557C7.42849 4.00175 7.31806 3.98201 7.22227 3.92937C7.21587 4.01897 7.20627 3.91657 7.26067 4.30697ZM8.09907 4.52457C8.16087 4.49807 8.21407 4.45485 8.25267 4.39977C8.30484 4.34284 8.35096 4.28064 8.39027 4.21417C8.41739 4.15752 8.42155 4.09257 8.40187 4.03292C8.38218 3.97327 8.34018 3.92355 8.28467 3.89417C8.26327 3.87877 8.23846 3.86879 8.21237 3.86507C8.18627 3.86135 8.15966 3.864 8.13482 3.87281C8.10997 3.88162 8.08763 3.89631 8.0697 3.91563C8.05177 3.93496 8.03879 3.95834 8.03187 3.98377C8.00468 4.1668 8.02792 4.35377 8.09907 4.52457ZM7.99987 4.84457C7.87824 4.96977 7.79305 5.12577 7.75347 5.29577C7.74234 5.35606 7.74234 5.41788 7.75347 5.47817C7.75536 5.49076 7.76013 5.50274 7.76738 5.5132C7.77464 5.52366 7.7842 5.53231 7.79533 5.5385C7.80646 5.54468 7.81886 5.54822 7.83157 5.54886C7.84428 5.5495 7.85698 5.54721 7.86867 5.54217C8.13107 5.47817 8.22387 5.14217 7.99987 4.85097V4.84457ZM8.66867 6.07977L8.91187 5.65097C8.77221 5.57641 8.61575 5.53895 8.45747 5.54217C8.45747 5.95177 8.44147 6.01897 8.50227 6.10537L8.66867 6.07977ZM7.83987 4.63017C7.82067 4.61417 7.81107 4.59817 7.79827 4.59177C7.68488 4.54432 7.56274 4.52142 7.43987 4.52457C7.34477 4.52699 7.25201 4.55459 7.17107 4.60457C7.14571 4.61688 7.12475 4.63668 7.11102 4.66129C7.09728 4.6859 7.09144 4.71413 7.09427 4.74217C7.09427 4.79977 7.15507 4.81257 7.20307 4.82857C7.26804 4.8461 7.33649 4.8461 7.40147 4.82857C7.55909 4.7915 7.70799 4.72412 7.83987 4.63017ZM6.83507 3.45257C6.81267 3.45257 6.80627 3.45257 6.80307 3.45257C6.64081 3.56332 6.52648 3.73138 6.48307 3.92297C6.47358 3.9597 6.47358 3.99824 6.48307 4.03497C6.48488 4.04875 6.48987 4.06192 6.49764 4.07344C6.50542 4.08496 6.51577 4.09452 6.52788 4.10135C6.53999 4.10817 6.55352 4.11209 6.5674 4.11279C6.58128 4.11349 6.59513 4.11095 6.60787 4.10537C6.64205 4.09351 6.67353 4.07495 6.70046 4.05077C6.72738 4.0266 6.74921 3.99729 6.76467 3.96457C6.84146 3.80558 6.8661 3.62639 6.83507 3.45257ZM9.68627 3.36617C9.6914 3.33223 9.6914 3.29771 9.68627 3.26377C9.65653 3.17305 9.59954 3.09371 9.52307 3.03657C9.47848 3.00063 9.4241 2.97896 9.36702 2.97439C9.30993 2.96982 9.25279 2.98257 9.20307 3.01097C9.18769 3.01736 9.17399 3.02719 9.16302 3.0397C9.15204 3.05222 9.14408 3.06708 9.13976 3.08316C9.13543 3.09923 9.13485 3.11608 9.13806 3.13242C9.14126 3.14875 9.14818 3.16413 9.15827 3.17737C9.23187 3.31817 9.51667 3.34697 9.68627 3.36617ZM7.03987 3.30857C7.05938 3.39716 7.09817 3.48036 7.15348 3.55225C7.20878 3.62415 7.27925 3.68299 7.35987 3.72457C7.54867 3.80457 7.67987 3.66697 7.59027 3.54857C7.55715 3.5116 7.51824 3.48025 7.47507 3.45577C7.36947 3.40457 7.26067 3.35977 7.15507 3.31817C7.11723 3.31011 7.07852 3.30689 7.03987 3.30857ZM10.5599 5.22857C10.5599 5.25097 10.5599 5.26377 10.5599 5.27337C10.6384 5.37733 10.7522 5.44903 10.8799 5.47497C11.0847 5.52937 11.2543 5.37257 11.1263 5.29257C11.0664 5.24711 10.9971 5.2155 10.9235 5.2C10.8499 5.18451 10.7738 5.18552 10.7007 5.20297C10.6463 5.22217 10.6015 5.22537 10.5599 5.23497V5.22857ZM8.23987 6.09897C8.23987 6.00937 8.23987 5.93577 8.23987 5.86537C8.24604 5.78442 8.24604 5.70312 8.23987 5.62217C8.14133 5.69539 8.03378 5.75562 7.91987 5.80137C7.91235 5.91026 7.92873 6.01948 7.96787 6.12137C8.05566 6.12596 8.14368 6.12059 8.23027 6.10537L8.23987 6.09897ZM10.5599 4.93417C10.5756 4.94371 10.5929 4.95023 10.6111 4.95337C10.689 4.95366 10.766 4.93691 10.8368 4.9043C10.9075 4.87169 10.9703 4.824 11.0207 4.76457C11.0527 4.73257 11.1007 4.69737 11.0815 4.63977C11.0623 4.58217 11.0111 4.57577 10.9631 4.55977C10.9396 4.55127 10.9144 4.54887 10.8898 4.55279C10.8651 4.55671 10.8419 4.56682 10.8223 4.58217C10.6971 4.66607 10.6045 4.7903 10.5599 4.93417ZM10.3007 5.31817C10.2687 5.33737 10.2527 5.34057 10.2431 5.35337C10.1898 5.42477 10.1591 5.51052 10.1551 5.59953C10.1511 5.68854 10.174 5.77669 10.2207 5.85257C10.2311 5.86589 10.2445 5.87665 10.2598 5.88405C10.275 5.89145 10.2917 5.89529 10.3087 5.89529C10.3256 5.89529 10.3423 5.89145 10.3576 5.88405C10.3728 5.87665 10.3862 5.86589 10.3967 5.85257C10.4191 5.82405 10.4348 5.7908 10.4426 5.75532C10.4504 5.71985 10.45 5.68307 10.4415 5.64777C10.4136 5.52847 10.3613 5.41624 10.2879 5.31817H10.3007ZM5.87827 4.86377C5.78055 4.81017 5.66589 4.79641 5.55827 4.82537C5.51807 4.8386 5.48138 4.86072 5.45091 4.89008C5.42044 4.91944 5.39697 4.9553 5.38227 4.99497C5.37825 5.00414 5.37633 5.0141 5.37665 5.02411C5.37697 5.03412 5.37952 5.04393 5.38412 5.05282C5.38872 5.06172 5.39526 5.06947 5.40324 5.07552C5.41122 5.08157 5.42046 5.08575 5.43027 5.08777C5.46066 5.10053 5.4933 5.10706 5.52627 5.10697C5.60015 5.09766 5.6707 5.07069 5.73197 5.02836C5.79324 4.98603 5.84342 4.92958 5.87827 4.86377ZM7.67987 6.09897V5.77897L7.51667 5.54217H7.42067C7.43411 5.71685 7.4663 5.88957 7.51667 6.05737L7.67987 6.09897ZM5.95507 4.60777C5.93587 4.28777 5.70867 4.19497 5.63507 4.28777C5.61625 4.31546 5.60844 4.34918 5.61317 4.38233C5.61791 4.41547 5.63484 4.44566 5.66067 4.46697C5.74498 4.53856 5.84641 4.58707 5.95507 4.60777ZM10.1951 5.01737C10.2119 4.99286 10.2227 4.96473 10.2266 4.93525C10.2305 4.90578 10.2273 4.87581 10.2175 4.84777C10.1985 4.79569 10.1607 4.75263 10.1115 4.72714C10.0623 4.70165 10.0053 4.6956 9.95187 4.71017C9.80787 4.76137 9.99027 4.97257 10.1951 5.01737ZM7.50707 5.27337L7.58387 5.04617C7.56787 5.04617 7.56467 5.02697 7.56147 5.04617L7.31827 5.09737C7.3054 5.16973 7.31783 5.2443 7.35347 5.30857L7.50707 5.27337ZM6.22707 4.73897C6.48627 4.93417 6.59507 4.79977 6.54707 4.70057C6.53526 4.67548 6.51501 4.65532 6.48987 4.64363C6.46472 4.63193 6.43627 4.62943 6.40947 4.63657C6.33615 4.65191 6.26856 4.68737 6.21427 4.73897H6.22707ZM6.12467 5.03977C6.0734 5.11878 6.04667 5.2112 6.04787 5.30537C6.04518 5.32181 6.04815 5.33867 6.05629 5.3532C6.06442 5.36773 6.07725 5.37907 6.09267 5.38537C6.16307 5.40777 6.21427 5.32777 6.22067 5.28937C6.22747 5.24177 6.22089 5.19321 6.20168 5.14914C6.18247 5.10506 6.15137 5.06719 6.11187 5.03977H6.12467ZM8.98547 5.99977C9.04699 6.00028 9.10781 5.9867 9.16328 5.96008C9.21874 5.93346 9.26738 5.89449 9.30547 5.84617C9.28933 5.82061 9.26719 5.79938 9.24098 5.78432C9.21477 5.76926 9.18528 5.76084 9.15507 5.75977C9.07712 5.82466 9.01106 5.90262 8.95987 5.99017L8.98547 5.99977ZM6.66547 5.81417C6.6956 5.85706 6.73527 5.89239 6.78135 5.91738C6.82743 5.94236 6.87868 5.95632 6.93107 5.95817C6.89179 5.87722 6.8375 5.80446 6.77107 5.74377L6.66547 5.81417ZM7.01107 5.65097C7.08147 5.72777 7.10067 5.80777 7.18707 5.85257L7.15827 5.62537L7.01107 5.65097Z" fill="#191419"/>
<path d="M7.03906 3.06194C7.24066 2.39634 7.87106 2.51474 7.67906 2.82514C7.65111 2.87653 7.61278 2.92156 7.56651 2.95736C7.52023 2.99317 7.46703 3.01897 7.41026 3.03314C7.28876 3.06189 7.16354 3.0716 7.03906 3.06194Z" fill="#DA0700"/>
<path d="M6.48853 3.20032C6.20373 3.16512 6.09813 3.17792 6.03093 3.03712C6.01904 3.02213 6.01076 3.00461 6.00672 2.98592C6.00268 2.96722 6.00299 2.94785 6.00763 2.92929C6.01227 2.91074 6.02111 2.89349 6.03348 2.8789C6.04584 2.8643 6.06139 2.85275 6.07893 2.84512C6.11543 2.82093 6.15707 2.80559 6.20053 2.80032C6.30081 2.79657 6.40081 2.81338 6.49436 2.8497C6.58791 2.88602 6.67304 2.94109 6.74453 3.01152C6.75878 3.02262 6.76934 3.03776 6.77483 3.05497C6.78031 3.07218 6.78047 3.09064 6.77528 3.10794C6.77009 3.12524 6.7598 3.14057 6.74574 3.15191C6.73169 3.16326 6.71454 3.17009 6.69653 3.17152H6.49813L6.48853 3.20032Z" fill="#DA0700"/>
<path d="M8.25586 4.72646C8.57586 4.56326 8.96306 4.66246 8.95026 4.86086C8.9471 4.89199 8.9343 4.92137 8.91365 4.94489C8.893 4.9684 8.86553 4.98489 8.83506 4.99206C8.77339 5.01691 8.70891 5.03411 8.64306 5.04326C8.57528 5.0536 8.50601 5.0397 8.44748 5.00399C8.38894 4.96828 8.34488 4.91306 8.32306 4.84806C8.29746 4.80006 8.27826 4.77766 8.25586 4.72646Z" fill="#DA0700"/>
<path d="M10 3.1677C10.0928 2.9629 10.192 2.7773 10.3968 2.7165C10.6016 2.6557 10.7392 2.8509 10.6336 2.9885C10.5517 3.06946 10.4507 3.12835 10.3399 3.15969C10.2291 3.19102 10.1121 3.19378 10 3.1677Z" fill="#DA0700"/>
<path d="M9.77514 3.60938C9.79227 3.63567 9.80422 3.665 9.81034 3.69578C9.82205 3.79453 9.82739 3.89393 9.82634 3.99337C9.82025 4.07262 9.78489 4.14677 9.72714 4.20138C9.70732 4.22486 9.68126 4.24227 9.65197 4.2516C9.62269 4.26093 9.59136 4.2618 9.56161 4.25411C9.53185 4.24642 9.50487 4.23048 9.48377 4.20813C9.46267 4.18578 9.44831 4.15793 9.44234 4.12777C9.42966 4.07186 9.42823 4.01397 9.43815 3.9575C9.44807 3.90102 9.46913 3.84709 9.50011 3.79883C9.53108 3.75058 9.57136 3.70898 9.61858 3.67645C9.6658 3.64392 9.71902 3.62112 9.77514 3.60938Z" fill="#DA0700"/>
<path d="M10.0039 3.41113C10.1239 3.42494 10.2395 3.46422 10.3431 3.52633C10.5863 3.68633 10.5127 4.10553 10.3431 4.03193C10.3122 4.02067 10.2839 4.00325 10.2599 3.98073C10.1189 3.82113 10.0297 3.62252 10.0039 3.41113Z" fill="#DA0700"/>
<path d="M8.09986 4.52512C8.0285 4.3555 8.00525 4.16949 8.03266 3.98752C8.03958 3.96209 8.05256 3.93871 8.07049 3.91939C8.08842 3.90006 8.11076 3.88537 8.13561 3.87656C8.16046 3.86776 8.18706 3.8651 8.21316 3.86882C8.23926 3.87254 8.26406 3.88253 8.28546 3.89792C8.34098 3.9273 8.38298 3.97702 8.40266 4.03667C8.42235 4.09632 8.41819 4.16127 8.39106 4.21792C8.35175 4.28439 8.30564 4.3466 8.25346 4.40352C8.21442 4.45742 8.16127 4.4995 8.09986 4.52512Z" fill="#DA0700"/>
<path d="M8.0003 4.85156C8.2211 5.13956 8.1347 5.47556 7.8755 5.54916C7.86381 5.5542 7.85112 5.55649 7.83841 5.55585C7.82569 5.55522 7.81329 5.55167 7.80216 5.54549C7.79104 5.5393 7.78148 5.53065 7.77422 5.52019C7.76696 5.50973 7.7622 5.49775 7.7603 5.48516C7.74917 5.42487 7.74917 5.36305 7.7603 5.30276C7.79806 5.13344 7.881 4.97751 8.0003 4.85156Z" fill="#DA0700"/>
<path d="M7.84005 4.63084C7.70767 4.72253 7.5588 4.78772 7.40165 4.82284C7.33667 4.84037 7.26822 4.84037 7.20325 4.82284C7.15525 4.80684 7.10405 4.79404 7.09445 4.73644C7.09162 4.7084 7.09746 4.68017 7.1112 4.65556C7.12493 4.63095 7.14589 4.61115 7.17125 4.59884C7.25219 4.54886 7.34495 4.52126 7.44005 4.51884C7.56292 4.51569 7.68506 4.53859 7.79845 4.58604C7.79845 4.58604 7.82085 4.61484 7.84005 4.63084Z" fill="#DA0700"/>
<path d="M6.83584 3.45242C6.86917 3.62421 6.84791 3.80212 6.77504 3.96122C6.75958 3.99394 6.73775 4.02324 6.71083 4.04742C6.68391 4.0716 6.65243 4.09016 6.61824 4.10202C6.60551 4.1076 6.59166 4.11014 6.57777 4.10944C6.56389 4.10874 6.55036 4.10482 6.53826 4.09799C6.52615 4.09116 6.5158 4.08161 6.50802 4.07009C6.50024 4.05857 6.49525 4.0454 6.49344 4.03162C6.48396 3.99489 6.48396 3.95635 6.49344 3.91962C6.53686 3.72803 6.65118 3.55997 6.81344 3.44922C6.81344 3.44922 6.81344 3.44922 6.83584 3.45242Z" fill="#DA0700"/>
<path d="M9.6868 3.36632C9.514 3.34712 9.2324 3.31832 9.1492 3.17752C9.13912 3.16428 9.1322 3.1489 9.12899 3.13257C9.12578 3.11623 9.12637 3.09938 9.13069 3.08331C9.13502 3.06723 9.14298 3.05237 9.15396 3.03985C9.16493 3.02734 9.17863 3.01751 9.194 3.01112C9.24373 2.98272 9.30087 2.96997 9.35795 2.97454C9.41504 2.97911 9.46942 3.00078 9.514 3.03672C9.59048 3.09386 9.64747 3.1732 9.6772 3.26392C9.68554 3.29738 9.68878 3.3319 9.6868 3.36632Z" fill="#DA0700"/>
<path d="M7.03906 3.30896C7.08047 3.30326 7.12246 3.30326 7.16386 3.30896C7.27266 3.35056 7.38146 3.39536 7.48386 3.44656C7.52704 3.47104 7.56595 3.50239 7.59906 3.53936C7.61324 3.55472 7.62297 3.57365 7.62721 3.59412C7.63145 3.61458 7.63004 3.63582 7.62314 3.65555C7.61623 3.67528 7.60409 3.69276 7.58801 3.70611C7.57193 3.71947 7.55252 3.72819 7.53186 3.73136C7.45454 3.73538 7.37764 3.71774 7.3098 3.68043C7.24196 3.64312 7.18587 3.58761 7.14786 3.52016C7.10254 3.45481 7.06597 3.3838 7.03906 3.30896Z" fill="#DA0700"/>
<path d="M5.87844 4.8636C5.84269 4.93065 5.79102 4.98789 5.72797 5.0303C5.66492 5.0727 5.59242 5.09897 5.51684 5.1068C5.48388 5.10689 5.45124 5.10036 5.42084 5.0876C5.41103 5.08559 5.4018 5.0814 5.39382 5.07535C5.38583 5.06931 5.3793 5.06155 5.3747 5.05266C5.3701 5.04376 5.36754 5.03395 5.36722 5.02394C5.3669 5.01393 5.36882 5.00398 5.37284 4.9948C5.38755 4.95513 5.41101 4.91928 5.44148 4.88991C5.47195 4.86055 5.50865 4.83843 5.54884 4.8252C5.6036 4.80956 5.66091 4.80491 5.71748 4.8115C5.77404 4.81809 5.82875 4.8358 5.87844 4.8636Z" fill="#DA0700"/>
<path d="M5.95459 4.60781C5.84611 4.5838 5.74575 4.53197 5.66339 4.45741C5.54499 4.34861 5.64419 4.17581 5.80419 4.28461C5.85217 4.32351 5.89065 4.37283 5.91671 4.42884C5.94278 4.48484 5.95573 4.54605 5.95459 4.60781Z" fill="#DA0700"/>
<path d="M10.1947 5.01781C10.1357 5.00623 10.0798 4.98228 10.0307 4.94753C9.98162 4.91279 9.94045 4.86803 9.90992 4.81621C9.83632 4.67541 10.1371 4.63701 10.2299 4.84821C10.238 4.87723 10.239 4.90778 10.2329 4.93728C10.2268 4.96679 10.2137 4.9944 10.1947 5.01781Z" fill="#DA0700"/>
<path d="M6.21484 4.7392C6.26558 4.68962 6.32849 4.65429 6.39724 4.6368C6.42404 4.62966 6.4525 4.63216 6.47765 4.64386C6.50279 4.65555 6.52304 4.67571 6.53484 4.7008C6.57964 4.8 6.47724 4.9376 6.21484 4.7392Z" fill="#DA0700"/>
<path d="M6.11292 5.04004C6.1501 5.06899 6.17868 5.10752 6.19559 5.1515C6.21251 5.19548 6.21712 5.24324 6.20892 5.28964C6.20892 5.32804 6.15132 5.40804 6.08092 5.38564C6.0655 5.37934 6.05268 5.368 6.04454 5.35347C6.0364 5.33894 6.03343 5.32208 6.03612 5.30564C6.03493 5.21146 6.06165 5.11904 6.11292 5.04004Z" fill="#DA0700"/>
<path d="M7.85628 9.8845C7.9459 9.7829 8.06544 9.71236 8.1977 9.68303C8.32996 9.6537 8.46812 9.6671 8.59228 9.7213C8.65511 9.75052 8.70949 9.79521 8.75035 9.85117C8.7912 9.90714 8.81719 9.97255 8.82588 10.0413C8.84673 10.1479 8.84012 10.258 8.80668 10.3613C8.75566 10.5215 8.67417 10.6704 8.56668 10.7997C8.40616 10.9925 8.22113 11.1636 8.01628 11.3085C7.91068 11.3885 7.81788 11.4173 7.71548 11.3277C6.96668 10.6877 6.73628 10.4157 6.80988 10.0477C6.82896 9.91967 6.89702 9.80406 6.99971 9.72525C7.10239 9.64645 7.23168 9.61061 7.36028 9.6253C7.55242 9.64593 7.72963 9.73854 7.85628 9.8845ZM7.85628 11.1261C8.04388 11.001 8.213 10.8502 8.35868 10.6781C8.44443 10.5754 8.51353 10.4598 8.56348 10.3357C8.59118 10.2689 8.60322 10.1967 8.59868 10.1245C8.59883 10.0711 8.57879 10.0197 8.54258 9.98054C8.50637 9.94136 8.45668 9.91734 8.40348 9.9133C8.30192 9.89832 8.1985 9.92329 8.11496 9.98296C8.03141 10.0426 7.97425 10.1324 7.95548 10.2333C7.957 10.2503 7.957 10.2675 7.95548 10.2845C7.9504 10.3062 7.93877 10.3258 7.92218 10.3407C7.90558 10.3556 7.88481 10.365 7.86268 10.3677C7.83995 10.371 7.8168 10.366 7.79742 10.3537C7.77805 10.3413 7.76373 10.3225 7.75708 10.3005C7.73861 10.2613 7.72775 10.2189 7.72508 10.1757C7.72508 9.9965 7.53308 9.8973 7.35708 9.8749C7.08508 9.8429 6.93788 10.1597 7.15868 10.4413C7.36527 10.6935 7.59804 10.923 7.85308 11.1261H7.85628Z" fill="#1C1318"/>
<path d="M7.85219 11.1263C7.59218 10.9209 7.35508 10.6881 7.14499 10.4319C6.92419 10.1535 7.06819 9.8335 7.34339 9.8655C7.51939 9.8879 7.71459 9.9871 7.71139 10.1663C7.71407 10.2096 7.72493 10.2519 7.74339 10.2911C7.75005 10.3131 7.76436 10.3319 7.78374 10.3443C7.80311 10.3566 7.82626 10.3616 7.84899 10.3583C7.87112 10.3556 7.89189 10.3462 7.90849 10.3313C7.92509 10.3164 7.93671 10.2968 7.94179 10.2751C7.94331 10.2581 7.94331 10.2409 7.94179 10.2239C7.96057 10.123 8.01773 10.0332 8.10127 9.97357C8.18481 9.91389 8.28823 9.88892 8.38979 9.9039C8.44299 9.90794 8.49269 9.93197 8.5289 9.97114C8.56511 10.0103 8.58515 10.0618 8.58499 10.1151C8.58954 10.1873 8.5775 10.2595 8.54979 10.3263C8.49984 10.4504 8.43074 10.566 8.34499 10.6687C8.20292 10.8435 8.03704 10.9976 7.85219 11.1263Z" fill="#DA0100"/>
</svg>
