<svg width="16" height="16" viewBox="0 0 16 16" fill="none" xmlns="http://www.w3.org/2000/svg">
<path d="M10.4299 8.04669C9.29244 9.77091 8.46246 11.2085 6.21123 13.0269C5.94499 13.2182 5.66415 13.3884 5.3713 13.5358C5.26535 13.5907 5.14957 13.6241 5.03064 13.634C4.7683 13.6628 4.66203 13.4212 4.70608 13.1463C4.79886 12.5981 4.93684 12.0586 5.1186 11.5332C6.81494 5.75754 6.18639 7.93394 6.67136 6.38456C6.51408 6.30403 6.3765 6.1898 6.26842 6.05C6.16035 5.91021 6.08445 5.74829 6.04614 5.57579C6.01231 5.44893 6.01696 5.31488 6.0595 5.19067C6.10204 5.06646 6.18055 4.9577 6.28505 4.87822C6.52538 4.69787 6.81049 4.58675 7.10948 4.55692C7.2478 4.16633 7.46999 3.81077 7.76043 3.51523C8.05088 3.2197 8.40252 2.99136 8.79065 2.84627C9.13978 2.71399 9.51674 2.67237 9.88632 2.72531C10.2559 2.77824 10.606 2.92401 10.904 3.14898C11.2854 3.3893 11.5707 3.75561 11.7102 4.1843C11.8497 4.613 11.8347 5.07702 11.6678 5.49582C11.5667 5.74168 11.4519 5.98166 11.3238 6.21463L11.4791 6.38074C11.6237 6.50036 11.7183 6.66972 11.7444 6.85554C11.7705 7.04136 11.7262 7.23022 11.6201 7.38503C11.5222 7.56949 11.3778 7.72523 11.2013 7.83688C11.0248 7.94853 10.8223 8.01223 10.6136 8.0217L10.4299 8.04669ZM7.56211 4.60527C7.6132 4.64141 7.6611 4.68186 7.70529 4.72616C7.85476 4.88345 8.05966 5.10551 7.89245 5.24379C7.81003 5.31088 7.70511 5.29399 7.60352 5.18619C7.57075 5.16727 7.55927 5.11149 7.52241 5.09021C7.47709 5.0448 7.42057 5.01217 7.35858 4.99563C7.22317 4.97623 7.08523 4.98448 6.9531 5.01988C6.82097 5.05529 6.69738 5.11711 6.58982 5.20162C6.5406 5.23838 6.50464 5.29013 6.48735 5.34907C6.47006 5.40802 6.47236 5.47099 6.49392 5.52851C6.52038 5.64595 6.58049 5.75314 6.6669 5.83697C6.7533 5.9208 6.86226 5.97764 6.98045 6.00054L7.23835 6.04568C7.95835 6.1228 7.69351 6.58151 7.75396 7.23349C7.76162 7.32902 7.79169 7.42141 7.84173 7.50315C7.89176 7.5849 7.96034 7.65371 8.04193 7.704C8.12351 7.7543 8.2158 7.78466 8.31131 7.79264C8.40682 7.80061 8.50287 7.78597 8.59166 7.7499C8.76684 7.68701 8.91956 7.57383 9.03071 7.42454C9.40427 6.91938 9.41888 7.06434 10.135 7.4887C10.2779 7.57416 10.4419 7.61778 10.6084 7.61458C10.7671 7.60615 10.9199 7.55195 11.0485 7.45852C11.1771 7.3651 11.2758 7.23645 11.3328 7.08811C11.4262 6.80344 11.2505 6.72933 10.9951 6.53814C10.8687 6.59624 10.7617 6.64914 10.6512 6.68912C10.4613 6.7596 10.2538 6.76725 10.0592 6.71094C9.86464 6.65464 9.69328 6.53735 9.57035 6.37635C9.40704 6.16738 9.24752 5.89508 8.91171 6.08892C8.81937 6.14482 8.61606 6.35509 8.48597 6.19261C8.41542 6.09727 8.45578 5.98951 8.53538 5.89894C8.6084 5.81358 8.69888 5.74489 8.80073 5.6975C8.90257 5.6501 9.01339 5.62512 9.12572 5.62423C9.23805 5.62334 9.34925 5.64657 9.45184 5.69234C9.55442 5.73811 9.64598 5.80536 9.72034 5.88956C9.77405 5.94787 9.81247 6.01374 9.85972 6.07378C9.90736 6.144 9.97002 6.20275 10.0432 6.24577C10.1163 6.28879 10.1981 6.31501 10.2826 6.32251C10.3672 6.33002 10.4523 6.31863 10.5319 6.28918C10.6115 6.25972 10.6835 6.21294 10.7428 6.15221C10.8326 6.07407 10.9164 5.98914 10.9932 5.89816C11.1702 5.70332 11.2972 5.46847 11.3634 5.21375C11.4296 4.95903 11.433 4.69204 11.3734 4.43571C11.3466 4.27358 11.2817 4.12012 11.1842 3.98788C10.9363 3.62043 10.5686 3.35032 10.1439 3.2236C9.71917 3.09688 9.26363 3.12139 8.85494 3.29295C8.26967 3.54553 7.8059 4.01629 7.56211 4.60527ZM9.3422 8.87129C9.05039 8.93217 6.40696 9.90705 6.00246 10.1158C5.89781 10.3779 5.82586 10.6518 5.78824 10.9314C6.01544 10.8879 5.55786 11.0278 8.38986 10.1235C8.49507 10.092 8.586 10.0248 8.64705 9.93345C9.4158 8.81003 9.27265 9.07688 9.3422 8.87129ZM9.96295 7.91908C9.80465 7.79206 9.62786 7.68999 9.43871 7.61641C9.30168 7.8231 9.11135 7.98892 8.88784 8.09634C8.66433 8.20376 8.41595 8.2488 8.16895 8.22668C7.93562 8.19572 7.92317 8.22676 6.50187 8.74954C6.4605 8.76428 6.42327 8.78874 6.39332 8.82087C6.36337 8.85299 6.34157 8.89184 6.32976 8.93414C6.14379 9.59675 6.17521 9.39099 6.1942 9.60401C7.06968 9.27942 7.66216 9.00987 9.63166 8.28481C9.7152 8.26026 9.79033 8.21312 9.84879 8.14858C9.90725 8.08405 9.94675 8.00463 9.96295 7.91908ZM7.92315 10.7333C7.62661 10.8023 7.63181 10.8217 6.27498 11.2234C5.89966 11.3343 5.64551 11.3678 5.58403 11.4743C5.50914 11.6577 5.4735 11.8548 5.47939 12.0528C5.516 12.0583 5.55328 12.0577 5.58968 12.0509C6.8121 11.6645 6.9997 11.822 7.23248 11.5796C7.46526 11.3372 7.66684 11.1205 7.87552 10.8914C7.89849 10.8411 7.91452 10.7879 7.92315 10.7333ZM7.53459 7.88774C7.51806 7.83633 7.4977 7.78624 7.47367 7.73788C7.35548 7.54348 7.29542 7.31931 7.30056 7.09186C7.31586 6.55461 7.3037 6.65134 7.27854 6.50575L7.0868 6.48789C7.071 6.51149 7.05678 6.53612 7.04424 6.56161L6.56492 8.15795C6.55073 8.18252 6.5816 8.2331 6.59544 8.28479L7.53459 7.88774ZM6.35687 12.3301C5.98972 12.313 5.62425 12.3895 5.29473 12.5523C5.20785 12.7336 5.16745 12.9336 5.17717 13.1343C5.30435 13.1352 5.42754 13.0899 5.52383 13.0068C5.82629 12.8136 6.10577 12.5865 6.35687 12.3301Z" fill="black"/>
<path d="M7.56263 4.60491C7.8097 4.01817 8.27548 3.55066 8.86129 3.30141C9.26998 3.12985 9.72552 3.10534 10.1503 3.23206C10.575 3.35878 10.9426 3.62889 11.1905 3.99634C11.2881 4.12858 11.3529 4.28204 11.3797 4.44417C11.4353 4.69958 11.4284 4.96461 11.3598 5.21681C11.2912 5.46902 11.1628 5.70098 10.9855 5.89306C10.9087 5.98404 10.825 6.06898 10.7351 6.14712C10.6758 6.20784 10.6038 6.25463 10.5242 6.28409C10.4446 6.31354 10.3595 6.32493 10.275 6.31742C10.1904 6.30991 10.1086 6.2837 10.0355 6.24068C9.96235 6.19766 9.89969 6.13891 9.85205 6.06869C9.8048 6.00864 9.76638 5.94277 9.71267 5.88446C9.63831 5.80027 9.54675 5.73302 9.44417 5.68724C9.34159 5.64147 9.23038 5.61825 9.11805 5.61914C9.00573 5.62003 8.8949 5.64501 8.79306 5.6924C8.69121 5.73979 8.60073 5.80849 8.52771 5.89385C8.44812 5.98442 8.41184 6.09454 8.4783 6.18751C8.60839 6.34999 8.81406 6.13563 8.90404 6.08382C8.9759 6.03218 9.06466 6.00968 9.15244 6.02084C9.24022 6.03201 9.32052 6.07601 9.37716 6.144C9.44488 6.21587 9.50142 6.29766 9.56268 6.37125C9.68561 6.53226 9.85697 6.64954 10.0516 6.70585C10.2461 6.76216 10.4537 6.75451 10.6436 6.68403C10.754 6.64405 10.861 6.59114 10.9874 6.53304C11.2388 6.72187 11.4256 6.78606 11.3252 7.08302C11.2681 7.23135 11.1694 7.36 11.0408 7.45343C10.9123 7.54685 10.7594 7.60105 10.6007 7.60948C10.4342 7.61268 10.2702 7.56907 10.1273 7.4836C9.41058 7.0698 9.39661 6.91429 9.02304 7.41944C8.91189 7.56873 8.75917 7.68191 8.58399 7.74481C8.4952 7.78087 8.39915 7.79552 8.30364 7.78754C8.20813 7.77957 8.11585 7.7492 8.03426 7.69891C7.95268 7.64861 7.88409 7.5798 7.83406 7.49806C7.78402 7.41631 7.75396 7.32393 7.74629 7.22839C7.68347 6.58051 7.95068 6.11771 7.23068 6.04059L6.97278 5.99545C6.86099 5.97017 6.7584 5.91437 6.67642 5.83426C6.59445 5.75416 6.53631 5.65288 6.50846 5.5417C6.4869 5.48418 6.4846 5.42121 6.50189 5.36226C6.51918 5.30331 6.55514 5.25157 6.60436 5.21481C6.71055 5.13053 6.8326 5.06845 6.96326 5.03225C7.09391 4.99605 7.23051 4.98648 7.36493 5.00409C7.42692 5.02063 7.48344 5.05326 7.52876 5.09867C7.56562 5.11995 7.58183 5.16754 7.60987 5.19465C7.71146 5.30245 7.81875 5.31524 7.8988 5.25225C8.06601 5.11397 7.86111 4.89191 7.71164 4.73462C7.66597 4.68699 7.6161 4.64358 7.56263 4.60491Z" fill="#FF0303"/>
<path d="M9.3409 8.87232C9.27136 9.07791 9.42869 8.78648 8.64575 9.93448C8.5847 10.0258 8.49377 10.093 8.38857 10.1246C5.56949 11.0253 6.01414 10.8889 5.78694 10.9325C5.82456 10.6528 5.89651 10.3789 6.00116 10.1169C6.39621 9.92446 9.0491 8.9332 9.3409 8.87232Z" fill="white"/>
<path d="M9.96251 7.91855C9.94535 8.00204 9.90594 8.07935 9.84846 8.14229C9.79097 8.20523 9.71754 8.25146 9.63594 8.27609C7.70111 8.9884 7.05867 9.27825 6.19849 9.59529C6.18659 9.36998 6.15753 9.57164 6.33404 8.92541C6.34586 8.88311 6.36765 8.84427 6.3976 8.81215C6.42755 8.78002 6.46478 8.75556 6.50615 8.74082C7.89042 8.23488 7.92352 8.17754 8.17323 8.21796C8.38203 8.24509 8.59429 8.21816 8.78969 8.13973C8.98508 8.06131 9.15707 7.93403 9.28917 7.77008C9.32464 7.70864 9.39114 7.65966 9.45245 7.5913C9.63817 7.67372 9.81018 7.78408 9.96251 7.91855Z" fill="white"/>
<path d="M7.92274 10.7335C7.9022 10.7833 7.87517 10.8301 7.84234 10.8728C7.63367 11.1018 7.41444 11.3302 7.1993 11.5609C6.98417 11.7917 6.79467 11.6659 5.56815 12.0499C5.53175 12.0567 5.49447 12.0573 5.45786 12.0518C5.4633 11.8573 5.50868 11.666 5.59118 11.4898C5.63218 11.3715 5.89452 11.3428 6.28213 11.2389C7.6314 10.822 7.6262 10.8026 7.92274 10.7335Z" fill="white"/>
<path d="M7.53476 7.88812L6.60443 8.27934C6.59058 8.22766 6.56791 8.1818 6.57391 8.1525L7.05322 6.55616C7.06577 6.53067 7.07999 6.50605 7.09579 6.48244L7.28753 6.50031C7.29664 6.56018 7.31049 6.61186 7.31378 6.66291C7.32121 7.10406 7.26061 7.40765 7.465 7.74409C7.49179 7.7903 7.5151 7.83845 7.53476 7.88812Z" fill="white"/>
<path d="M6.3566 12.3301C6.1055 12.5866 5.82602 12.8136 5.52356 13.0069C5.42727 13.09 5.30408 13.1353 5.1769 13.1344C5.16718 12.9336 5.20758 12.7336 5.29446 12.5524C5.62398 12.3896 5.98945 12.3131 6.3566 12.3301Z" fill="white"/>
</svg>
