<svg width="16" height="16" viewBox="0 0 16 16" fill="none" xmlns="http://www.w3.org/2000/svg">
<path d="M7.38889 6.10898L8.93769 5.38578C9.04942 5.34937 9.15201 5.28935 9.23849 5.20978C9.26695 5.18128 9.30405 5.16299 9.34399 5.15778C9.38393 5.15257 9.42447 5.16073 9.45929 5.18098C9.53289 5.20978 9.60009 5.24818 9.67049 5.28338C10.2881 5.60338 10.9025 5.92338 11.5233 6.24338C11.5785 6.26355 11.6247 6.30252 11.654 6.35344C11.6833 6.40436 11.6936 6.46397 11.6833 6.52178C11.6833 6.59858 11.6641 6.67538 11.6545 6.75538C11.4284 8.56658 11.2001 10.3682 10.9697 12.1602C10.9672 12.2183 10.9597 12.2761 10.9473 12.333C10.9417 12.3676 10.9281 12.4005 10.9076 12.429C10.8872 12.4575 10.8604 12.4809 10.8294 12.4973C10.7984 12.5137 10.7641 12.5227 10.729 12.5237C10.6939 12.5246 10.6591 12.5174 10.6273 12.5026C10.5454 12.4707 10.4662 12.4321 10.3905 12.3874L6.02889 10.125L5.24489 9.71859C5.15714 9.6757 5.08212 9.61062 5.02729 9.52978C4.98965 9.47841 4.96503 9.41867 4.95555 9.35569C4.94608 9.2927 4.95203 9.22836 4.97289 9.16818C5.09449 8.73618 5.20969 8.29778 5.32489 7.85938C5.38889 7.61298 5.46249 7.36978 5.51369 7.12018C5.52005 7.06675 5.54062 7.016 5.57327 6.97323C5.60591 6.93045 5.64943 6.89722 5.69929 6.87698C5.98409 6.74898 6.26889 6.61458 6.55369 6.48018L7.38249 6.09618L7.38889 6.10898ZM7.52649 10.4034C7.52649 10.4482 7.56489 10.4642 7.60649 10.4386C7.60717 10.454 7.6118 10.4689 7.61995 10.482C7.62809 10.4951 7.63946 10.5058 7.65297 10.5132C7.66648 10.5206 7.68167 10.5244 7.69707 10.5242C7.71247 10.5241 7.72756 10.5199 7.74089 10.5122L8.06089 10.6786C8.06089 10.7202 8.09929 10.7394 8.14409 10.717C8.17609 10.7522 8.20169 10.797 8.24009 10.8162C8.76276 11.0914 9.28436 11.3634 9.80489 11.6322C9.8539 11.6476 9.90426 11.6583 9.95529 11.6642C9.74911 11.4012 9.52341 11.1541 9.28009 10.925C9.05929 10.6786 8.82569 10.4386 8.60169 10.1922C8.37769 9.94578 8.16649 9.71218 7.96169 9.47218C7.75689 9.23218 7.54569 8.95698 7.30569 8.71378L5.91369 9.28018C5.84088 9.3091 5.77029 9.34333 5.70249 9.38258C5.68649 9.38258 5.68009 9.41138 5.65769 9.44338C5.70707 9.4846 5.75949 9.52204 5.81449 9.55538L6.80649 10.0706L7.07209 10.2018C7.08036 10.2066 7.08957 10.2097 7.0991 10.2107C7.10863 10.2117 7.11827 10.2106 7.12736 10.2076C7.13645 10.2045 7.14479 10.1996 7.15182 10.1931C7.15884 10.1866 7.16439 10.1786 7.16809 10.1698C7.20009 10.2914 7.22569 10.3074 7.35049 10.2786C7.35049 10.3522 7.39209 10.3778 7.46249 10.3554C7.45929 10.4066 7.48169 10.4258 7.52649 10.4034ZM5.65129 8.25938L5.61289 8.42258L5.59049 8.50258C5.49958 8.66509 5.46155 8.85187 5.48169 9.03698C5.50825 9.04033 5.53513 9.04033 5.56169 9.03698L6.92489 8.39698C6.93183 8.39211 6.93735 8.38549 6.94089 8.37778C6.9425 8.36825 6.9425 8.35852 6.94089 8.34898C6.61096 8.0263 6.25092 7.73591 5.86569 7.48178C5.76789 7.70568 5.70425 7.94299 5.67689 8.18578L5.65129 8.25938ZM10.1313 11.2034C10.1057 11.0786 10.0897 10.9826 10.0641 10.8834C9.79209 9.92338 9.49769 8.94418 9.29609 7.95538C9.27805 7.90434 9.2533 7.85591 9.22249 7.81138C8.6922 8.01884 8.17685 8.26262 7.68009 8.54098C7.83049 8.78738 9.55529 10.6978 10.0225 11.133C10.0601 11.1603 10.101 11.1829 10.1441 11.2002L10.1313 11.2034ZM10.6529 11.3154C10.668 11.251 10.6797 11.1858 10.6881 11.1202C10.8225 10.0813 10.9548 9.04018 11.0849 7.99698C11.1233 7.69618 11.1585 7.39538 11.1937 7.09458C11.1911 7.0499 11.1825 7.00577 11.1681 6.96338C10.6323 7.13297 10.1188 7.3661 9.63849 7.65778C9.90612 8.89676 10.2492 10.1182 10.6657 11.3154H10.6529ZM11.0561 6.51538C10.9665 6.40018 10.8257 6.37138 10.7137 6.30098C10.6017 6.23058 10.4705 6.17298 10.3489 6.10898C10.2273 6.04498 10.0897 5.96498 9.95849 5.90418C9.85393 5.82106 9.73107 5.76402 9.60009 5.73778C9.60009 6.18578 9.64169 6.61138 9.65769 7.04338C9.66426 7.07934 9.67389 7.11467 9.68649 7.14898C10.1635 6.9714 10.6258 6.75633 11.0689 6.50578L11.0561 6.51538ZM8.97609 7.44018C8.94729 7.40498 8.93769 7.38578 8.92169 7.37618L7.90409 6.73618C7.85609 6.71058 7.80489 6.69458 7.74409 6.66898C7.72915 6.71179 7.71738 6.75564 7.70889 6.80018C7.68009 7.19378 7.65129 7.58418 7.62889 7.97458C7.62889 8.00018 7.64809 8.02578 7.66089 8.05138C8.12107 7.88419 8.56549 7.67644 8.98889 7.43058L8.97609 7.44018ZM6.11529 7.13938C6.15689 7.18738 6.17609 7.22258 6.20169 7.24498L7.16169 7.97458C7.17769 7.97458 7.20969 7.97458 7.24489 7.97458C7.27049 7.52658 7.29289 7.08818 7.31529 6.64978C7.31529 6.64978 7.29609 6.62098 7.28649 6.60498C6.88191 6.73595 6.49334 6.91199 6.12809 7.12978L6.11529 7.13938ZM8.00009 6.29778C8.33314 6.54864 8.68513 6.77332 9.05289 6.96978C9.10089 6.99858 9.14889 7.04018 9.21289 7.00498C9.23179 6.5896 9.21788 6.17338 9.17129 5.76018C8.76347 5.8987 8.371 6.07885 8.00009 6.29778Z" fill="#1B1014"/>
<path d="M10.3362 3.40178C10.3423 3.43994 10.3423 3.47882 10.3362 3.51698C10.3244 3.57535 10.3062 3.63223 10.2818 3.68658C10.1506 3.98098 10.0162 4.27538 9.88184 4.56978C9.86577 4.60457 9.84649 4.63778 9.82424 4.66898C9.80348 4.69706 9.7741 4.71757 9.74059 4.7274C9.70708 4.73722 9.67127 4.73581 9.63864 4.72338C9.60592 4.71281 9.57728 4.69237 9.55665 4.66487C9.53602 4.63737 9.52442 4.60415 9.52344 4.56978C9.52391 4.52069 9.53256 4.47202 9.54904 4.42578C9.68024 4.10578 9.81464 3.78578 9.95544 3.44978C9.97377 3.40448 10.0022 3.36397 10.0386 3.33138C10.0598 3.30866 10.0866 3.29195 10.1164 3.28295C10.1461 3.27394 10.1777 3.27297 10.2079 3.28012C10.2381 3.28727 10.2659 3.30229 10.2885 3.32366C10.311 3.34503 10.3275 3.37198 10.3362 3.40178Z" fill="#201E22"/>
<path d="M10.9378 5.11967C10.8813 5.11714 10.8254 5.10746 10.7714 5.09087C10.7436 5.07961 10.7205 5.05919 10.706 5.03299C10.6914 5.00679 10.6863 4.9764 10.6914 4.94687C10.6994 4.87963 10.7201 4.8145 10.7522 4.75487C10.9378 4.47647 11.1298 4.20447 11.3186 3.92927C11.3418 3.89797 11.3712 3.87182 11.405 3.85247C11.4337 3.83279 11.4677 3.82227 11.5026 3.82227C11.5374 3.82227 11.5714 3.83279 11.6002 3.85247C11.6255 3.8674 11.6454 3.89007 11.6569 3.91714C11.6685 3.9442 11.671 3.97425 11.6642 4.00287C11.6402 4.09747 11.6025 4.18804 11.5522 4.27167C11.4722 4.39327 11.3762 4.50527 11.2866 4.62367C11.197 4.74207 11.1202 4.86687 11.0338 4.98527C11.0046 5.03203 10.9726 5.07692 10.9378 5.11967Z" fill="#201E22"/>
<path d="M5.61022 5.31509L5.47582 5.02389C5.45881 4.98925 5.44592 4.95274 5.43742 4.91509C5.42867 4.87193 5.43502 4.82707 5.45541 4.78804C5.47581 4.749 5.509 4.71816 5.54942 4.70069C5.58764 4.69145 5.62778 4.69417 5.66441 4.70847C5.70104 4.72278 5.73239 4.74799 5.75422 4.78069C5.76997 4.80411 5.78388 4.82872 5.79582 4.85429L6.16062 5.52309C6.19454 5.58134 6.22344 5.64235 6.24702 5.70549C6.25954 5.73795 6.2596 5.77389 6.2472 5.80639C6.23479 5.83888 6.21079 5.86564 6.17982 5.88149C6.12938 5.9069 6.07159 5.91369 6.01662 5.90069C5.92443 5.86532 5.84977 5.79525 5.80862 5.70549C5.73502 5.57749 5.67422 5.44629 5.60702 5.31829L5.61022 5.31509Z" fill="#201E22"/>
<path d="M7.0145 4.71641C6.9665 4.61081 6.9153 4.50521 6.8673 4.39641C6.84608 4.3533 6.82894 4.30831 6.8161 4.26201C6.80868 4.22761 6.81281 4.19172 6.82785 4.1599C6.84289 4.12808 6.868 4.10211 6.8993 4.08601C6.92509 4.07501 6.95285 4.06934 6.9809 4.06934C7.00894 4.06934 7.0367 4.07501 7.0625 4.08601C7.11903 4.12335 7.16438 4.17533 7.1937 4.23641C7.3217 4.48921 7.4401 4.74521 7.5617 5.00121C7.5714 5.018 7.57792 5.03645 7.5809 5.05561C7.59411 5.08779 7.59524 5.12366 7.58406 5.1566C7.57289 5.18954 7.55017 5.21732 7.5201 5.23481C7.47039 5.26224 7.41298 5.27237 7.3569 5.26361C7.31864 5.25479 7.28328 5.23635 7.25416 5.21003C7.22504 5.1837 7.20312 5.15038 7.1905 5.11321C7.1265 4.98201 7.0657 4.84761 7.0049 4.71641H7.0145Z" fill="#191419"/>
<path d="M8.38043 4.5921L8.18522 3.8753C8.18045 3.84777 8.18045 3.81962 8.18522 3.7921C8.18775 3.75762 8.20075 3.72474 8.22249 3.69786C8.24422 3.67098 8.27364 3.65139 8.30682 3.6417C8.33938 3.63037 8.37471 3.62986 8.40758 3.64024C8.44045 3.65062 8.46908 3.67133 8.48923 3.6993C8.51784 3.7384 8.54048 3.78154 8.55642 3.8273C8.63002 4.0385 8.70362 4.2497 8.77402 4.4673C8.7932 4.52219 8.80609 4.57909 8.81243 4.6369C8.81602 4.6664 8.81098 4.69631 8.79792 4.72301C8.78486 4.7497 8.76433 4.77204 8.73882 4.7873C8.71263 4.81004 8.67911 4.82256 8.64442 4.82256C8.60974 4.82256 8.57622 4.81004 8.55002 4.7873C8.48975 4.72558 8.43312 4.6604 8.38043 4.5921Z" fill="#201E22"/>
<path d="M4.91482 6.60773C4.92659 6.632 4.93263 6.65864 4.93247 6.68561C4.93231 6.71258 4.92596 6.73915 4.91389 6.76327C4.90183 6.78739 4.88439 6.80842 4.86291 6.82473C4.84144 6.84104 4.8165 6.85219 4.79002 6.85733C4.72254 6.86379 4.65449 6.85391 4.59162 6.82853C4.35875 6.72118 4.14307 6.57992 3.95162 6.40933C3.91681 6.3826 3.89324 6.34381 3.88554 6.3006C3.87784 6.25738 3.88658 6.21284 3.91002 6.17573C3.93678 6.14024 3.97519 6.11533 4.01851 6.10538C4.06182 6.09543 4.10726 6.10108 4.14682 6.12133L4.22042 6.16613C4.40602 6.27493 4.59162 6.38373 4.77402 6.48613C4.82419 6.52276 4.87128 6.56343 4.91482 6.60773Z" fill="#201E22"/>
<path d="M4.64634 8.26871C4.59514 8.26871 4.55354 8.30071 4.52154 8.29111C4.31674 8.23351 4.11194 8.17271 3.91034 8.10551C3.88292 8.09446 3.8599 8.07468 3.84486 8.04922C3.82982 8.02377 3.82359 7.99406 3.82714 7.96471C3.82714 7.85271 3.90394 7.76631 4.00634 7.78871C4.21968 7.83564 4.42448 7.89324 4.62074 7.96151C4.65377 7.97252 4.68169 7.99511 4.69934 8.02512C4.71699 8.05512 4.72317 8.0905 4.71674 8.12471C4.69847 8.17508 4.67487 8.22336 4.64634 8.26871Z" fill="#201E22"/>
<path d="M10.1449 11.1998C10.1005 11.1817 10.0586 11.158 10.0201 11.1294C9.55293 10.6942 7.82813 8.78378 7.67773 8.53738C8.17993 8.26163 8.70064 8.02106 9.23613 7.81738C9.26694 7.86191 9.29169 7.91033 9.30973 7.96138C9.51133 8.95978 9.80573 9.91978 10.0777 10.8798C10.1033 10.9822 10.1193 11.0782 10.1449 11.1998Z" fill="#DA0100"/>
<path d="M10.6667 11.3149C10.2545 10.1175 9.91578 8.89599 9.65234 7.65729C10.1327 7.3656 10.6462 7.13248 11.1819 6.96289C11.1963 7.00528 11.2049 7.04941 11.2075 7.09409C11.1723 7.39489 11.1371 7.69569 11.0987 7.99649C10.9686 9.03969 10.8363 10.0808 10.7019 11.1197C10.6936 11.1853 10.6818 11.2505 10.6667 11.3149ZM10.6155 9.27969C10.6415 9.26086 10.6633 9.2369 10.6795 9.20929C10.7136 9.13836 10.7373 9.06293 10.7499 8.98529C10.8043 8.56929 10.8491 8.15009 10.8939 7.73089C10.9003 7.68203 10.9003 7.63255 10.8939 7.58369C10.8912 7.54408 10.8746 7.5067 10.8471 7.47805C10.8197 7.44939 10.783 7.43129 10.7435 7.42689C10.704 7.42411 10.6646 7.43454 10.6316 7.45655C10.5986 7.47855 10.5738 7.51089 10.5611 7.54849C10.5514 7.57534 10.5449 7.60328 10.5419 7.63169C10.4779 8.07969 10.4139 8.52769 10.3531 8.97249C10.345 9.03088 10.345 9.0901 10.3531 9.14849C10.3592 9.17594 10.3713 9.2017 10.3886 9.22387C10.4059 9.24604 10.4279 9.26407 10.4531 9.27664C10.4782 9.28922 10.5059 9.29602 10.534 9.29654C10.5621 9.29707 10.5899 9.29131 10.6155 9.27969Z" fill="#DA0909"/>
<path d="M7.1686 10.179C7.1649 10.1879 7.15935 10.1958 7.15233 10.2023C7.1453 10.2089 7.13696 10.2138 7.12787 10.2168C7.11878 10.2199 7.10914 10.2209 7.09961 10.2199C7.09008 10.2189 7.08087 10.2159 7.0726 10.211L6.807 10.0798L5.815 9.56463C5.76 9.53129 5.70758 9.49385 5.6582 9.45263C5.6806 9.42063 5.687 9.39823 5.703 9.39183C5.7708 9.35257 5.84139 9.31835 5.9142 9.28943L7.271 8.70703C7.511 8.95023 7.7062 9.21903 7.927 9.46543C8.1478 9.71183 8.359 9.94863 8.567 10.1854C8.775 10.4222 9.0246 10.6718 9.2454 10.9182C9.48872 11.1473 9.71442 11.3944 9.9206 11.6574C9.86957 11.6516 9.81921 11.6408 9.7702 11.6254C9.24967 11.3566 8.72807 11.0846 8.2054 10.8094C8.167 10.7902 8.1414 10.7454 8.1094 10.7102H8.135C8.231 10.6782 8.3206 10.6366 8.327 10.5182C8.32465 10.4691 8.30836 10.4216 8.28002 10.3814C8.25169 10.3411 8.21249 10.3098 8.167 10.291H8.1414L6.7494 9.48783C6.70688 9.46451 6.66177 9.44625 6.615 9.43343C6.58117 9.42824 6.54656 9.43341 6.51571 9.44826C6.48487 9.46311 6.45925 9.48695 6.4422 9.51663C6.42498 9.54096 6.41573 9.57003 6.41573 9.59983C6.41573 9.62964 6.42498 9.65871 6.4422 9.68303C6.48327 9.73587 6.53305 9.78132 6.5894 9.81743C6.7462 9.91983 6.9094 10.0094 7.063 10.1118C7.10016 10.131 7.13551 10.1535 7.1686 10.179Z" fill="#DA0909"/>
<path d="M11.0694 6.50557C10.621 6.75579 10.1534 6.9698 9.67097 7.14557C9.65837 7.11126 9.64873 7.07593 9.64217 7.03997C9.62617 6.60797 9.57817 6.18237 9.58457 5.73438C9.72476 5.75327 9.85793 5.8072 9.97177 5.89117C10.103 5.95197 10.231 6.02557 10.3622 6.09597C10.4934 6.16637 10.6086 6.21757 10.727 6.28797C10.8454 6.35837 10.9798 6.39997 11.0694 6.50557Z" fill="#DA0700"/>
<path d="M8.98944 7.42994C8.57163 7.66928 8.13369 7.87165 7.68064 8.03474C7.68064 8.00914 7.64544 7.98354 7.64864 7.95794C7.67104 7.56754 7.69984 7.17714 7.72864 6.78354C7.73713 6.739 7.7489 6.69515 7.76384 6.65234C7.82464 6.67794 7.87584 6.69394 7.92384 6.71954L8.94144 7.35954C8.94144 7.35954 8.96064 7.39474 8.98944 7.42994Z" fill="#DA0100"/>
<path d="M6.12891 7.12929C6.49719 6.91084 6.88902 6.73479 7.29691 6.60449C7.29691 6.62049 7.32571 6.63649 7.32571 6.64929C7.30331 7.08769 7.28091 7.52609 7.25531 7.97409C7.22011 7.97409 7.18811 7.97409 7.17211 7.97409L6.21211 7.24449C6.18971 7.21249 6.17051 7.17729 6.12891 7.12929Z" fill="#DA0700"/>
<path d="M5.67382 8.17959C5.70388 7.93695 5.76853 7.69988 5.86582 7.47559C6.25105 7.72972 6.61109 8.0201 6.94102 8.34279C6.94263 8.35232 6.94263 8.36205 6.94102 8.37159C6.93748 8.37929 6.93196 8.38591 6.92502 8.39079L5.56182 9.03079C5.53526 9.03413 5.50838 9.03413 5.48182 9.03079C5.46168 8.84567 5.49971 8.65889 5.59062 8.49639L5.64502 8.51239C5.64182 8.5411 5.64182 8.57007 5.64502 8.59879C5.64581 8.63848 5.66023 8.67668 5.68587 8.70699C5.71152 8.73729 5.74681 8.75784 5.78582 8.76519C5.82517 8.7735 5.8662 8.76699 5.90104 8.74691C5.93588 8.72683 5.96209 8.6946 5.97462 8.65639C6.0386 8.49218 6.09309 8.32444 6.13782 8.15399C6.14214 8.11958 6.13468 8.08473 6.11667 8.05509C6.09866 8.02546 6.07115 8.0028 6.03862 7.99079C6.00758 7.97543 5.9724 7.97056 5.93835 7.97691C5.90431 7.98326 5.87324 8.00048 5.84982 8.02599C5.80953 8.08161 5.77215 8.13929 5.73782 8.19879L5.67382 8.17959Z" fill="#DA0909"/>
<path d="M7.1678 10.179C7.1402 10.1429 7.10912 10.1097 7.075 10.0798C6.9182 9.97738 6.755 9.88778 6.6014 9.78538C6.54505 9.74927 6.49527 9.70382 6.4542 9.65098C6.43698 9.62665 6.42773 9.59758 6.42773 9.56778C6.42773 9.53797 6.43698 9.5089 6.4542 9.48457C6.47124 9.45489 6.49687 9.43105 6.52771 9.4162C6.55855 9.40135 6.59317 9.39618 6.627 9.40137C6.67377 9.4142 6.71888 9.43245 6.7614 9.45577L8.1534 10.259H8.179C8.22449 10.2778 8.26369 10.3091 8.29202 10.3493C8.32036 10.3896 8.33665 10.437 8.339 10.4862C8.339 10.6046 8.243 10.6462 8.147 10.6782H8.1214L8.0382 10.6398L7.7182 10.4734C7.70597 10.4489 7.68654 10.4287 7.66252 10.4155C7.6385 10.4024 7.61104 10.3969 7.5838 10.3998C7.5678 10.3614 7.5486 10.3358 7.5038 10.3646C7.5038 10.3134 7.475 10.2846 7.4238 10.3262C7.4238 10.2462 7.379 10.2302 7.3118 10.2494C7.30776 10.2298 7.2997 10.2113 7.28812 10.195C7.27654 10.1788 7.2617 10.1651 7.24455 10.1548C7.22739 10.1446 7.2083 10.138 7.18847 10.1356C7.16865 10.1331 7.14853 10.1348 7.1294 10.1406L7.1678 10.179Z" fill="#F9ECEB"/>
<path d="M8 6.29737C8.37091 6.07843 8.76338 5.89828 9.1712 5.75977C9.21655 6.17198 9.22939 6.58713 9.2096 7.00137C9.1456 7.03657 9.0976 7.00137 9.0496 6.96617C8.68304 6.77058 8.33213 6.54698 8 6.29737Z" fill="#DA0100"/>
<path d="M7.16211 10.1828C7.18124 10.1771 7.20136 10.1754 7.22118 10.1778C7.241 10.1803 7.2601 10.1869 7.27725 10.1971C7.29441 10.2073 7.30925 10.221 7.32083 10.2373C7.3324 10.2536 7.34047 10.2721 7.34451 10.2916C7.21971 10.3204 7.19411 10.3044 7.16211 10.1828Z" fill="#DA0909"/>
<path d="M5.61328 8.42199L5.65168 8.25879L5.71248 8.27799L5.66448 8.44119L5.61328 8.42199Z" fill="#DA0909"/>
<path d="M7.59961 10.4324C7.62684 10.4295 7.65431 10.435 7.67833 10.4482C7.70235 10.4613 7.72177 10.4815 7.73401 10.506C7.72068 10.5137 7.70559 10.5179 7.69018 10.518C7.67478 10.5182 7.6596 10.5144 7.64609 10.507C7.63258 10.4996 7.6212 10.4889 7.61306 10.4758C7.60492 10.4627 7.60029 10.4478 7.59961 10.4324Z" fill="#DA0909"/>
<path d="M7.35938 10.2911C7.42657 10.2719 7.46818 10.2911 7.47138 10.3679C7.38498 10.3903 7.35938 10.3647 7.35938 10.2911Z" fill="#DA0909"/>
<path d="M5.65234 8.25969C5.65234 8.23409 5.66834 8.20529 5.67794 8.17969L5.74194 8.20529L5.71314 8.27889L5.65234 8.25969Z" fill="#DA0909"/>
<path d="M5.58984 8.50285C5.59582 8.47579 5.6033 8.44908 5.61224 8.42285L5.66344 8.44205L5.64424 8.51885L5.58984 8.50285Z" fill="#DA0909"/>
<path d="M9.96484 11.7023L9.97764 11.6895L9.98084 11.7055L9.96484 11.7023Z" fill="#DA0909"/>
<path d="M8.04102 10.6719L8.12422 10.7103C8.07942 10.7327 8.05382 10.7135 8.04102 10.6719Z" fill="#DA0909"/>
<path d="M7.52344 10.4004C7.56824 10.3716 7.58744 10.4004 7.60344 10.4356C7.56184 10.4612 7.53624 10.4452 7.52344 10.4004Z" fill="#DA0909"/>
<path d="M7.44727 10.365C7.49847 10.3234 7.51767 10.365 7.52727 10.4034C7.48247 10.4258 7.46007 10.4066 7.44727 10.365Z" fill="#DA0909"/>
<path d="M10.6135 9.28C10.5877 9.29222 10.5595 9.29845 10.531 9.29823C10.5025 9.298 10.4745 9.29133 10.4489 9.27871C10.4234 9.26608 10.401 9.24784 10.3835 9.22534C10.366 9.20284 10.3538 9.17667 10.3479 9.1488C10.3398 9.09041 10.3398 9.03119 10.3479 8.9728C10.4087 8.528 10.4727 8.08 10.5367 7.632C10.5397 7.60359 10.5461 7.57565 10.5559 7.5488C10.5685 7.5112 10.5933 7.47886 10.6263 7.45686C10.6593 7.43485 10.6987 7.42442 10.7383 7.4272C10.7777 7.4316 10.8144 7.4497 10.8419 7.47835C10.8694 7.50701 10.8859 7.54439 10.8887 7.584C10.8951 7.63286 10.8951 7.68234 10.8887 7.7312C10.8439 8.1504 10.7991 8.5696 10.7447 8.9856C10.732 9.06324 10.7083 9.13867 10.6743 9.2096C10.6589 9.2369 10.6383 9.26085 10.6135 9.28Z" fill="#F9ECEB"/>
<path d="M5.6456 8.51866L5.6648 8.44186L5.7128 8.27866L5.7416 8.20506C5.77593 8.14556 5.81331 8.08789 5.8536 8.03226C5.87702 8.00675 5.90809 7.98953 5.94213 7.98318C5.97617 7.97683 6.01136 7.9817 6.0424 7.99706C6.07493 8.00907 6.10243 8.03173 6.12045 8.06137C6.13846 8.091 6.14591 8.12585 6.1416 8.16026C6.09687 8.33071 6.04238 8.49846 5.9784 8.66266C5.96586 8.70087 5.93966 8.7331 5.90482 8.75318C5.86997 8.77326 5.82894 8.77977 5.7896 8.77146C5.75059 8.76411 5.71529 8.74356 5.68965 8.71326C5.66401 8.68295 5.64958 8.64475 5.6488 8.60506C5.64454 8.57646 5.64346 8.54749 5.6456 8.51866Z" fill="#F9ECEB"/>
</svg>
