<svg width="16" height="16" viewBox="0 0 16 16" fill="none" xmlns="http://www.w3.org/2000/svg">
<path d="M10.2407 11.4628C10.0583 11.1428 10.4935 11.7636 7.97832 8.52835C5.55592 5.41795 6.48072 6.56035 5.67432 5.61955C4.52552 5.45635 4.71432 5.49475 4.60552 5.47235C4.56344 5.45904 4.52699 5.43208 4.50196 5.39572C4.47692 5.35937 4.46472 5.3157 4.46729 5.27164C4.46986 5.22757 4.48706 5.18562 4.51615 5.15242C4.54524 5.11923 4.58458 5.09668 4.62792 5.08835C4.82599 5.08435 5.02404 5.0972 5.21992 5.12675C5.31272 4.96995 5.11112 4.92515 4.93192 4.89315C4.63043 4.85972 4.33265 4.79866 4.04232 4.71075C4.00711 4.69309 3.97818 4.66503 3.95946 4.63037C3.94074 4.5957 3.93314 4.55612 3.93768 4.51699C3.94222 4.47786 3.95869 4.44108 3.98485 4.41162C4.01101 4.38217 4.0456 4.36148 4.08392 4.35235C4.28151 4.34186 4.47945 4.36457 4.66952 4.41955C4.81352 4.23395 4.41032 4.24035 3.74472 4.07715C3.56552 4.03235 3.47912 3.92675 3.50152 3.80835C3.52392 3.68995 3.64872 3.62915 3.82152 3.66435L4.11592 3.71555C4.11592 3.71555 4.13512 3.71555 4.16072 3.68035C4.18632 3.64515 3.97192 3.36035 3.96552 3.36035C3.95062 3.31712 3.95038 3.27018 3.96484 3.22679C3.9793 3.18341 4.00766 3.146 4.04552 3.12035C4.21192 3.02435 4.29192 3.14915 4.43592 3.28995C4.63752 3.49155 4.58312 3.45635 4.63752 3.45955C4.70472 3.38595 4.67272 3.29315 4.67592 3.20675C4.67912 3.12035 4.67592 2.98275 4.67592 2.87075C4.67979 2.82002 4.70211 2.77247 4.73867 2.73709C4.77523 2.70171 4.82349 2.68095 4.87432 2.67875C4.92517 2.67772 4.97454 2.69594 5.01252 2.72976C5.0505 2.76359 5.07429 2.81052 5.07912 2.86115C5.11148 3.23165 5.11148 3.60426 5.07912 3.97475C5.0733 4.00612 5.0776 4.03853 5.09141 4.06729C5.10521 4.09605 5.12781 4.11968 5.15592 4.13475C5.17104 4.07915 5.18174 4.02244 5.18792 3.96515C5.18792 3.75075 5.18792 3.48515 5.20392 3.39235C5.21406 3.346 5.23974 3.30451 5.2767 3.27475C5.31366 3.245 5.35968 3.22878 5.40712 3.22878C5.45457 3.22878 5.50059 3.245 5.53755 3.27475C5.57451 3.30451 5.60019 3.346 5.61032 3.39235C5.6254 3.76327 5.60827 4.1348 5.55912 4.50275C5.55956 4.57556 5.5649 4.64826 5.57512 4.72035C5.66472 4.72035 5.66472 4.66595 5.66792 4.62755C5.69032 4.32995 5.69992 4.02595 5.72232 3.92035C5.73139 3.86924 5.75924 3.82336 5.80041 3.79174C5.84157 3.76011 5.89308 3.74502 5.9448 3.74943C5.99652 3.75384 6.04473 3.77744 6.07994 3.81557C6.11516 3.85371 6.13484 3.90364 6.13512 3.95555C6.13512 4.11235 6.04552 4.94435 6.02632 5.09795C6.0156 5.15834 6.01835 5.22035 6.0344 5.27954C6.05044 5.33874 6.07937 5.39365 6.11912 5.44035C7.07912 6.65635 10.2791 10.8196 10.5607 11.0788C10.6375 10.9892 10.5895 10.9124 10.5927 10.8388C10.592 10.7048 10.6027 10.5709 10.6247 10.4388C10.7463 9.98435 11.3479 9.88835 11.6423 10.6916C11.8521 11.2532 11.9127 11.8595 11.8183 12.4516C11.7671 12.7716 11.6487 13.034 11.3319 12.9636C10.8871 12.8708 9.88232 12.6436 9.50472 12.3236C9.43454 12.265 9.38338 12.1868 9.35773 12.0991C9.33209 12.0113 9.33313 11.9179 9.36072 11.8308C9.44712 11.4724 9.77672 11.5204 10.2407 11.4628Z" fill="black"/>
</svg>
