<svg width="16" height="16" viewBox="0 0 16 16" fill="none" xmlns="http://www.w3.org/2000/svg">
<path d="M11.0796 6.96349C11.3397 7.16769 11.5668 7.41066 11.753 7.68389C11.885 7.90115 11.9666 8.14521 11.9919 8.39815C12.0172 8.65109 11.9855 8.90649 11.8992 9.14558C11.7565 9.59326 11.5297 10.0096 11.231 10.3724C10.1869 11.6357 8.48509 12.8259 6.86157 13.0713C6.61088 13.1419 6.34566 13.1428 6.09451 13.0738C5.84336 13.0048 5.61581 12.8686 5.43642 12.6797C5.20987 12.4458 5.03238 12.1689 4.91439 11.8654C4.2852 10.4778 3.97483 8.96697 4.00605 7.44376C4.02321 6.76061 4.22527 6.09489 4.59072 5.51745C4.73267 5.31454 4.9207 5.14818 5.1394 5.03203C5.3581 4.91587 5.60123 4.85323 5.84882 4.84925C5.96889 4.84925 6.08896 4.84925 6.21425 4.84925C6.33953 4.76051 6.36564 4.60912 6.42828 4.48383C6.64519 3.98491 6.97818 3.54505 7.39952 3.2009C7.82085 2.85675 8.31834 2.61827 8.85051 2.50533C10.5523 2.22343 11.894 3.69556 11.5338 5.73149C11.4375 6.16042 11.2847 6.57469 11.0796 6.96349ZM4.75778 6.17C4.40082 7.2763 4.37361 8.46258 4.67947 9.58409C4.87262 10.2784 5.10754 10.9623 5.34245 11.6461C5.42203 11.8468 5.52732 12.0363 5.65567 12.2099C5.75747 12.3684 5.90429 12.4928 6.0773 12.5672C6.25031 12.6416 6.44162 12.6626 6.62665 12.6275C6.99672 12.5822 7.35971 12.491 7.70726 12.3561C8.99111 11.8536 10.1175 11.0174 10.97 9.93385C11.2167 9.62718 11.3947 9.27114 11.492 8.88978C11.5503 8.68548 11.5549 8.46961 11.5056 8.26297C11.4562 8.05633 11.3544 7.86589 11.2101 7.70999C11.0641 7.54063 10.8851 7.40281 10.6841 7.30498C10.483 7.20714 10.2641 7.15134 10.0407 7.14098C9.67988 7.1306 9.32136 7.20227 8.99221 7.35057C8.66306 7.49887 8.37186 7.71993 8.14055 7.99711C7.92651 8.15894 7.67072 7.89792 7.70204 7.66823C7.70204 7.61081 7.73858 7.55338 7.74902 7.49074C7.82941 7.03046 7.73545 6.55673 7.48547 6.16198C7.23549 5.76722 6.84742 5.47975 6.39696 5.35562C6.23634 5.2939 6.06465 5.2662 5.89276 5.2743C5.72088 5.2824 5.55255 5.32612 5.39845 5.40268C5.24434 5.47924 5.10782 5.58698 4.99754 5.71906C4.88725 5.85115 4.80561 6.0047 4.75778 6.17ZM8.23973 7.17752C8.26583 7.17752 8.2815 7.17752 8.29194 7.17752C8.31433 7.18202 8.3374 7.18202 8.3598 7.17752C8.74475 6.88577 9.20859 6.7166 9.69098 6.69203C9.73967 6.68802 9.78618 6.67016 9.82504 6.64056C9.86389 6.61096 9.89346 6.57085 9.91024 6.52498C10.1109 6.19538 10.2268 5.82126 10.2478 5.43597C10.2687 5.05068 10.194 4.66619 10.0303 4.31678C9.53959 3.54417 8.37024 3.7582 7.67072 5.19901C7.62279 5.28028 7.60202 5.3747 7.61141 5.46857C7.62079 5.56245 7.65985 5.65088 7.72292 5.72105C8.0185 6.09029 8.19021 6.54329 8.21363 7.01569C8.21895 7.07012 8.22766 7.12417 8.23973 7.17752ZM7.15913 5.13115C7.40916 4.54672 7.81785 4.04399 8.33892 3.6799C9.77973 2.76634 11.1527 4.12363 10.6202 6.00295C10.5367 6.3005 10.4532 6.52498 10.3957 6.68159C10.5262 6.75467 10.4636 6.74423 10.615 6.74423C10.615 6.70769 10.6724 6.67637 10.6985 6.6346C11.6538 4.90146 10.8864 2.90729 9.20549 2.90729C8.7014 2.95704 8.2199 3.14121 7.81127 3.44056C7.40264 3.73991 7.08187 4.14348 6.88245 4.60912C6.80732 4.71145 6.77206 4.83765 6.78326 4.9641C6.89811 5.03196 6.99208 5.13637 7.15913 5.13115Z" fill="black"/>
<path d="M4.75796 6.17063C4.80772 6.00862 4.8901 5.8585 5.00003 5.72951C5.10996 5.60052 5.24512 5.49539 5.39719 5.42057C5.54926 5.34576 5.71503 5.30285 5.88431 5.29448C6.05358 5.28612 6.22277 5.31247 6.38148 5.37192C6.83194 5.49604 7.22001 5.78352 7.46999 6.17828C7.71997 6.57303 7.81393 7.04675 7.73355 7.50704C7.73355 7.56968 7.697 7.6271 7.68656 7.68453C7.68143 7.75659 7.69748 7.82858 7.73272 7.89165C7.76797 7.95472 7.82087 8.00611 7.88494 8.03951C8.06765 8.12825 8.17727 7.95598 8.30256 7.83592C8.52261 7.6037 8.79092 7.42258 9.08857 7.30532C9.38622 7.18807 9.70597 7.13753 10.0253 7.15727C10.2486 7.16763 10.4675 7.22344 10.6686 7.32128C10.8696 7.41911 11.0486 7.55692 11.1946 7.72629C11.339 7.88219 11.4407 8.07263 11.4901 8.27927C11.5395 8.48591 11.5348 8.70177 11.4765 8.90608C11.3792 9.28744 11.2012 9.64347 10.9545 9.95015C10.102 11.0337 8.97563 11.8699 7.69178 12.3724C7.34423 12.5073 6.98124 12.5985 6.61118 12.6438C6.42614 12.6789 6.23484 12.6579 6.06183 12.5835C5.88882 12.5091 5.74199 12.3847 5.6402 12.2262C5.51184 12.0526 5.40655 11.8631 5.32698 11.6624C4.64311 9.68913 4.39254 8.98961 4.47084 7.45483C4.49209 7.01345 4.58922 6.57903 4.75796 6.17063ZM6.43369 10.9368C6.62684 11.344 7.12277 11.3701 7.51429 10.9681C7.95819 10.5191 8.22195 9.92287 8.25558 9.29239C8.26284 9.13758 8.23795 8.98294 8.1825 8.83822C8.03633 8.44147 7.53517 8.27964 6.98704 8.87476C6.63728 9.25585 6.14657 10.3365 6.43369 10.9368ZM5.7707 10.467C5.7851 10.4443 5.7949 10.4191 5.79954 10.3927C5.80419 10.3663 5.80358 10.3392 5.79777 10.313C5.79195 10.2869 5.78103 10.2621 5.76564 10.2401C5.75025 10.2182 5.73068 10.1995 5.70806 10.1851C5.68544 10.1707 5.6602 10.1609 5.63379 10.1562C5.60738 10.1516 5.58031 10.1522 5.55414 10.158C5.52796 10.1638 5.50319 10.1747 5.48123 10.1901C5.45927 10.2055 5.44056 10.2251 5.42616 10.2477C5.39671 10.3 5.38842 10.3616 5.40298 10.4199C5.41754 10.4782 5.45386 10.5286 5.50447 10.5609C5.52795 10.5732 5.55369 10.5804 5.5801 10.5823C5.60652 10.5842 5.63303 10.5806 5.65799 10.5718C5.68296 10.563 5.70585 10.5491 5.72524 10.5311C5.74463 10.513 5.7601 10.4912 5.7707 10.467ZM10.4011 9.17232C10.3857 9.22003 10.388 9.2717 10.4075 9.31789C10.427 9.36408 10.4625 9.40169 10.5075 9.42387C10.5525 9.44604 10.6039 9.45129 10.6524 9.43865C10.701 9.42601 10.7433 9.39633 10.7718 9.35503C10.7922 9.30557 10.7933 9.25028 10.7749 9.20003C10.7566 9.14979 10.7201 9.10824 10.6726 9.08357C10.6492 9.07031 10.6233 9.06207 10.5966 9.05939C10.5698 9.0567 10.5428 9.05963 10.5173 9.06798C10.4917 9.07633 10.4682 9.08993 10.4482 9.1079C10.4282 9.12586 10.4122 9.1478 10.4011 9.17232ZM5.11294 6.97978C5.06647 6.96231 5.01505 6.96342 4.96936 6.98286C4.92367 7.0023 4.88723 7.03859 4.86759 7.08419C4.85574 7.11189 4.8496 7.14169 4.84951 7.17182C4.84943 7.20195 4.85541 7.23178 4.8671 7.25955C4.87879 7.28731 4.89596 7.31244 4.91756 7.33344C4.93917 7.35443 4.96478 7.37086 4.99288 7.38175C5.04198 7.39105 5.09279 7.38196 5.13563 7.35621C5.17847 7.33047 5.21034 7.28986 5.22517 7.24214C5.24001 7.19441 5.23677 7.14289 5.21607 7.0974C5.19538 7.05191 5.15867 7.01562 5.11294 6.99544V6.97978ZM7.02358 6.67178C6.97337 6.65112 6.91728 6.64983 6.86616 6.66815C6.81505 6.68647 6.77256 6.72311 6.74691 6.77097C6.72337 6.81804 6.7195 6.87254 6.73614 6.92247C6.75278 6.9724 6.78858 7.01367 6.83565 7.03721C6.88272 7.06074 6.93722 7.06462 6.98715 7.04797C7.03708 7.03133 7.07835 6.99553 7.10189 6.94846C7.12225 6.90279 7.12555 6.85132 7.11118 6.80342C7.09681 6.75552 7.06573 6.71436 7.02358 6.68744V6.67178ZM10.4429 8.38927C10.4674 8.40011 10.494 8.40572 10.5208 8.40573C10.5476 8.40575 10.5742 8.40018 10.5987 8.38938C10.6233 8.37857 10.6453 8.36277 10.6634 8.34298C10.6815 8.32319 10.6953 8.29984 10.7039 8.27442C10.7217 8.23031 10.7231 8.18126 10.7078 8.13622C10.6924 8.09118 10.6614 8.05315 10.6204 8.02907C10.5714 8.00754 10.5162 8.00468 10.4652 8.02103C10.4143 8.03738 10.371 8.0718 10.3437 8.11781C10.3297 8.14285 10.3212 8.17056 10.3187 8.19913C10.3161 8.22769 10.3197 8.25647 10.329 8.28358C10.3384 8.31069 10.3534 8.33551 10.373 8.35642C10.3926 8.37734 10.4164 8.39387 10.4429 8.40493V8.38927ZM5.66108 6.24372C5.7072 6.25755 5.75672 6.25459 5.80087 6.23536C5.84501 6.21613 5.88091 6.18188 5.90219 6.13869C5.92347 6.09551 5.92876 6.04617 5.91711 5.99945C5.90546 5.95274 5.87764 5.91166 5.83857 5.88351C5.59843 5.76867 5.42616 6.15497 5.66108 6.25938V6.24372ZM9.40927 8.03429C9.42195 8.01105 9.42984 7.98552 9.4325 7.95918C9.43515 7.93285 9.43251 7.90625 9.42472 7.88096C9.41694 7.85566 9.40417 7.83218 9.38718 7.81189C9.37018 7.7916 9.34929 7.77492 9.32575 7.76283C9.28343 7.74044 9.23401 7.73555 9.18813 7.74922C9.14224 7.76289 9.10356 7.79402 9.08039 7.83592C9.06426 7.86067 9.05372 7.88864 9.04948 7.91788C9.04525 7.94712 9.04743 7.97693 9.05587 8.00524C9.06432 8.03355 9.07882 8.05969 9.09838 8.08183C9.11794 8.10398 9.14208 8.1216 9.16914 8.13347C9.21235 8.15216 9.261 8.15395 9.30547 8.13848C9.34994 8.12302 9.38698 8.09142 9.40927 8.04995V8.03429ZM5.32698 8.65029C5.30205 8.63872 5.27494 8.6326 5.24746 8.63235C5.21999 8.63209 5.19277 8.6377 5.16763 8.64881C5.1425 8.65991 5.12002 8.67624 5.1017 8.69673C5.08338 8.71721 5.06964 8.74137 5.0614 8.76758C5.05316 8.7938 5.05061 8.82147 5.05392 8.84875C5.05723 8.87602 5.06632 8.90229 5.08059 8.92577C5.09485 8.94926 5.11397 8.96943 5.13665 8.98494C5.15934 9.00045 5.18507 9.01094 5.21213 9.01571C5.25831 9.02385 5.30587 9.01492 5.34595 8.99057C5.38602 8.96623 5.41588 8.92814 5.42994 8.8834C5.44399 8.83867 5.4413 8.79035 5.42236 8.74746C5.40341 8.70456 5.36951 8.67003 5.32698 8.65029ZM9.79558 10.3887C9.81161 10.3442 9.8103 10.2953 9.79192 10.2518C9.77354 10.2083 9.73943 10.1733 9.69639 10.1537C9.67179 10.1439 9.64542 10.1392 9.61893 10.1399C9.59243 10.1407 9.56638 10.1469 9.54238 10.1581C9.51839 10.1694 9.49697 10.1855 9.47946 10.2054C9.46195 10.2253 9.44872 10.2486 9.44059 10.2738C9.43186 10.3189 9.43991 10.3656 9.46324 10.4051C9.48658 10.4446 9.52357 10.4743 9.56724 10.4884C9.61091 10.5025 9.65825 10.5002 9.70031 10.4818C9.74238 10.4634 9.77626 10.4303 9.79558 10.3887ZM8.2608 11.3179C8.21609 11.3005 8.16659 11.2999 8.12148 11.3162C8.07637 11.3326 8.0387 11.3647 8.01545 11.4066C7.99917 11.4514 7.99913 11.5005 8.01535 11.5454C8.03157 11.5902 8.06301 11.6279 8.10419 11.652C8.12613 11.6623 8.14988 11.6681 8.17408 11.6692C8.19828 11.6703 8.22246 11.6667 8.24525 11.6584C8.26803 11.6502 8.28897 11.6375 8.30686 11.6212C8.32476 11.6049 8.33926 11.5852 8.34955 11.5632C8.35983 11.5413 8.36569 11.5175 8.3668 11.4933C8.3679 11.4691 8.36423 11.445 8.35599 11.4222C8.34775 11.3994 8.3351 11.3785 8.31877 11.3606C8.30243 11.3427 8.28274 11.3282 8.2608 11.3179ZM6.59552 12.0278C6.61808 11.9869 6.62361 11.9388 6.61091 11.8938C6.5982 11.8489 6.56829 11.8107 6.52765 11.7877C6.48658 11.7644 6.4381 11.7579 6.39236 11.7696C6.34662 11.7813 6.30718 11.8102 6.2823 11.8503C6.26877 11.8727 6.26005 11.8976 6.25668 11.9235C6.25332 11.9494 6.25538 11.9757 6.26275 12.0007C6.27012 12.0258 6.28262 12.049 6.29947 12.069C6.31632 12.0889 6.33714 12.1051 6.3606 12.1166C6.38185 12.1262 6.40479 12.1315 6.4281 12.1323C6.45141 12.133 6.47463 12.1291 6.49645 12.1209C6.51827 12.1127 6.53824 12.1002 6.55524 12.0842C6.57224 12.0683 6.58593 12.0491 6.59552 12.0278Z" fill="#FF0303"/>
<path d="M7.15915 5.13158C6.9921 5.13158 6.89813 5.03239 6.78329 4.98541C6.77209 4.85896 6.80735 4.73276 6.88247 4.63043C7.0794 4.1612 7.39902 3.75364 7.80777 3.45052C8.21652 3.1474 8.69932 2.95991 9.20552 2.90772C10.8917 2.87118 11.6695 4.881 10.6985 6.61415C10.6724 6.65591 10.6411 6.68723 10.615 6.72378C10.4636 6.72378 10.5263 6.72378 10.3958 6.66113C10.448 6.51496 10.5367 6.29049 10.6202 5.98249C11.1423 4.09795 9.77453 2.74589 8.33894 3.65944C7.81364 4.02792 7.40435 4.53862 7.15915 5.13158Z" fill="white"/>
<path d="M6.57505 9.56394C6.67794 9.31524 6.8169 9.08305 6.98746 8.87485C7.50949 8.28496 8.03153 8.43635 8.18291 8.83831C8.23837 8.98303 8.26326 9.13767 8.256 9.29248C8.22237 9.92296 7.95861 10.5192 7.51471 10.9682C6.81519 11.6938 5.91207 11.0152 6.57505 9.56394ZM7.70786 8.94272C7.62857 8.97591 7.55327 9.01794 7.48339 9.068C7.28474 9.25119 7.12435 9.4719 7.01145 9.7174C6.89856 9.9629 6.8354 10.2283 6.82563 10.4984C6.82402 10.5586 6.83285 10.6187 6.85173 10.6759C6.85633 10.6933 6.86497 10.7094 6.87695 10.7229C6.88893 10.7363 6.90391 10.7468 6.92068 10.7534C6.93746 10.76 6.95555 10.7626 6.9735 10.7609C6.99145 10.7592 7.00875 10.7533 7.024 10.7437C7.06634 10.7219 7.10507 10.6938 7.13885 10.6602C7.34178 10.4692 7.50344 10.2386 7.61387 9.98276C7.7243 9.72688 7.78116 9.4511 7.78095 9.17241C7.76666 9.093 7.7421 9.01578 7.70786 8.94272Z" fill="black"/>
<path d="M5.77122 10.4662C5.76062 10.4904 5.74515 10.5123 5.72576 10.5303C5.70637 10.5483 5.68348 10.5622 5.65851 10.571C5.63355 10.5798 5.60703 10.5834 5.58062 10.5815C5.55421 10.5796 5.52847 10.5724 5.50499 10.5601C5.45438 10.5278 5.41806 10.4774 5.4035 10.4191C5.38894 10.3609 5.39723 10.2992 5.42668 10.2469C5.44108 10.2243 5.45979 10.2047 5.48175 10.1893C5.5037 10.1739 5.52848 10.163 5.55466 10.1572C5.58083 10.1514 5.6079 10.1508 5.63431 10.1554C5.66072 10.1601 5.68596 10.1699 5.70858 10.1843C5.7312 10.1987 5.75077 10.2174 5.76616 10.2393C5.78155 10.2613 5.79247 10.2861 5.79828 10.3122C5.8041 10.3384 5.8047 10.3655 5.80006 10.3919C5.79542 10.4183 5.78562 10.4435 5.77122 10.4662Z" fill="black"/>
<path d="M10.4008 9.17249C10.4118 9.14798 10.4278 9.12604 10.4478 9.10807C10.4678 9.0901 10.4913 9.07651 10.5169 9.06816C10.5424 9.0598 10.5694 9.05687 10.5962 9.05956C10.6229 9.06224 10.6488 9.07048 10.6722 9.08375C10.7197 9.10842 10.7562 9.14996 10.7745 9.20021C10.7929 9.25045 10.7918 9.30575 10.7714 9.35521C10.743 9.3965 10.7006 9.42618 10.6521 9.43882C10.6035 9.45146 10.5521 9.44621 10.5071 9.42404C10.4621 9.40187 10.4266 9.36425 10.4071 9.31806C10.3876 9.27188 10.3853 9.22021 10.4008 9.17249Z" fill="black"/>
<path d="M5.11232 6.99433C5.15678 7.01483 5.19236 7.05068 5.21254 7.09529C5.23272 7.1399 5.23614 7.19028 5.22219 7.23721C5.20824 7.28414 5.17784 7.32447 5.13657 7.35081C5.0953 7.37715 5.04592 7.38774 4.99748 7.38063C4.96892 7.37026 4.94277 7.35421 4.9206 7.33344C4.89844 7.31267 4.88071 7.28761 4.86851 7.25979C4.85631 7.23197 4.84988 7.20197 4.84962 7.17159C4.84935 7.14121 4.85526 7.1111 4.86697 7.08307C4.88937 7.04028 4.92698 7.00744 4.9724 6.99101C5.01782 6.97458 5.06774 6.97576 5.11232 6.99433Z" fill="black"/>
<path d="M7.02419 6.68642C7.0702 6.71372 7.10398 6.75765 7.11855 6.80913C7.13312 6.86061 7.12738 6.91572 7.10249 6.96309C7.07896 7.01017 7.03768 7.04596 6.98776 7.06261C6.93783 7.07925 6.88333 7.07538 6.83626 7.05184C6.78918 7.0283 6.75339 6.98703 6.73675 6.9371C6.7201 6.88717 6.72398 6.83268 6.74751 6.7856C6.77316 6.73774 6.81566 6.70111 6.86677 6.68278C6.91788 6.66446 6.97398 6.66575 7.02419 6.68642Z" fill="black"/>
<path d="M10.4427 8.40509C10.4183 8.39385 10.3964 8.3779 10.3781 8.35815C10.3599 8.3384 10.3458 8.31524 10.3366 8.29001C10.3274 8.26477 10.3232 8.23796 10.3244 8.21113C10.3256 8.18429 10.3321 8.15795 10.3435 8.13363C10.3709 8.08762 10.4141 8.05319 10.465 8.03684C10.516 8.0205 10.5712 8.02336 10.6202 8.04488C10.6612 8.06897 10.6922 8.10699 10.7076 8.15203C10.7229 8.19707 10.7215 8.24612 10.7037 8.29024C10.6951 8.31565 10.6813 8.339 10.6632 8.35879C10.6451 8.37859 10.6231 8.39439 10.5985 8.40519C10.574 8.416 10.5474 8.42157 10.5206 8.42155C10.4938 8.42153 10.4672 8.41592 10.4427 8.40509Z" fill="black"/>
<path d="M5.66059 6.25889C5.42567 6.15449 5.59794 5.76818 5.83808 5.89869C5.87714 5.92683 5.90497 5.96791 5.91662 6.01463C5.92827 6.06135 5.92298 6.11068 5.9017 6.15387C5.88042 6.19706 5.84452 6.23131 5.80037 6.25054C5.75623 6.26977 5.7067 6.27273 5.66059 6.25889Z" fill="black"/>
<path d="M9.40877 8.04951C9.38921 8.09378 9.35333 8.12881 9.3086 8.14728C9.26387 8.16576 9.21373 8.16627 9.16863 8.1487C9.14158 8.13682 9.11743 8.1192 9.09788 8.09705C9.07832 8.07491 9.06381 8.04878 9.05537 8.02046C9.04692 7.99215 9.04474 7.96234 9.04898 7.9331C9.05321 7.90386 9.06376 7.87589 9.07988 7.85114C9.10305 7.80924 9.14174 7.77811 9.18762 7.76444C9.23351 7.75077 9.28292 7.75566 9.32524 7.77805C9.34878 7.79014 9.36967 7.80682 9.38667 7.82711C9.40367 7.8474 9.41643 7.87088 9.42422 7.89618C9.432 7.92147 9.43464 7.94807 9.43199 7.97441C9.42934 8.00074 9.42144 8.02628 9.40877 8.04951Z" fill="black"/>
<path d="M5.32719 8.64978C5.36973 8.66952 5.40363 8.70406 5.42257 8.74695C5.44152 8.78985 5.44421 8.83817 5.43015 8.8829C5.41609 8.92763 5.38624 8.96573 5.34616 8.99007C5.30609 9.01441 5.25853 9.02335 5.21235 9.01521C5.18528 9.01043 5.15955 8.99994 5.13687 8.98443C5.11418 8.96892 5.09507 8.94875 5.08081 8.92527C5.06654 8.90178 5.05745 8.87552 5.05414 8.84824C5.05083 8.82096 5.05338 8.79329 5.06162 8.76708C5.06986 8.74086 5.0836 8.71671 5.10192 8.69622C5.12024 8.67574 5.14271 8.6594 5.16785 8.6483C5.19299 8.6372 5.2202 8.63159 5.24768 8.63184C5.27516 8.6321 5.30227 8.63822 5.32719 8.64978Z" fill="black"/>
<path d="M9.79592 10.3992C9.77661 10.4408 9.74272 10.474 9.70065 10.4923C9.65859 10.5107 9.61126 10.5131 9.56758 10.4989C9.52391 10.4848 9.48692 10.4552 9.46359 10.4156C9.44026 10.3761 9.4322 10.3294 9.44094 10.2844C9.44906 10.2591 9.46229 10.2358 9.4798 10.2159C9.49731 10.196 9.51873 10.18 9.54272 10.1687C9.56672 10.1574 9.59277 10.1512 9.61927 10.1505C9.64577 10.1497 9.67213 10.1544 9.69673 10.1643C9.73977 10.1838 9.77388 10.2188 9.79226 10.2623C9.81064 10.3059 9.81195 10.3547 9.79592 10.3992Z" fill="black"/>
<path d="M8.2615 11.3182C8.3058 11.3389 8.34004 11.3764 8.35668 11.4225C8.37333 11.4685 8.37101 11.5192 8.35024 11.5635C8.32947 11.6078 8.29196 11.6421 8.24594 11.6587C8.19993 11.6753 8.14919 11.673 8.10489 11.6523C8.0637 11.6282 8.03226 11.5905 8.01605 11.5457C7.99983 11.5008 7.99986 11.4517 8.01614 11.4069C8.03939 11.3649 8.07706 11.3328 8.12217 11.3165C8.16729 11.3002 8.21678 11.3008 8.2615 11.3182Z" fill="black"/>
<path d="M6.59431 12.0276C6.58472 12.0488 6.57103 12.068 6.55403 12.0839C6.53704 12.0999 6.51706 12.1124 6.49524 12.1206C6.47343 12.1289 6.4502 12.1327 6.42689 12.132C6.40358 12.1312 6.38064 12.1259 6.35939 12.1163C6.33593 12.1049 6.31511 12.0886 6.29826 12.0687C6.28142 12.0487 6.26891 12.0255 6.26154 12.0005C6.25418 11.9754 6.25211 11.9491 6.25547 11.9232C6.25884 11.8973 6.26756 11.8724 6.28109 11.8501C6.30597 11.81 6.34542 11.781 6.39115 11.7694C6.43689 11.7577 6.48538 11.7642 6.52644 11.7874C6.56708 11.8105 6.597 11.8486 6.6097 11.8936C6.6224 11.9385 6.61687 11.9867 6.59431 12.0276Z" fill="black"/>
<path d="M7.70664 8.94141C7.74221 9.01943 7.7668 9.102 7.77972 9.18676C7.77781 9.46281 7.71992 9.7356 7.60955 9.98864C7.49918 10.2417 7.33864 10.4697 7.13762 10.6589C7.10385 10.6925 7.06511 10.7206 7.02278 10.7424C7.00752 10.752 6.99022 10.7579 6.97227 10.7596C6.95432 10.7613 6.93623 10.7587 6.91946 10.7521C6.90268 10.7455 6.8877 10.735 6.87572 10.7216C6.86374 10.7081 6.85511 10.692 6.85051 10.6746C6.83163 10.6173 6.8228 10.5573 6.8244 10.4971C6.8335 10.2274 6.89584 9.96219 7.00783 9.71671C7.11982 9.47123 7.27925 9.25032 7.47695 9.06669C7.54846 9.01628 7.62553 8.97424 7.70664 8.94141Z" fill="white"/>
</svg>
