<svg width="16" height="16" viewBox="0 0 16 16" fill="none" xmlns="http://www.w3.org/2000/svg">
<path d="M9.90374 5.91492C10.0248 6.05539 10.1627 6.18046 10.3143 6.28729C10.8983 6.70773 11.3598 7.27626 11.651 7.93431C11.8635 8.64123 11.9807 9.37334 11.9995 10.1113C12.0081 10.6866 11.9358 11.2603 11.7847 11.8156C11.7539 11.9343 11.7107 12.0496 11.6558 12.1593C11.6073 12.2725 11.5348 12.3739 11.4433 12.4563C11.3518 12.5387 11.2435 12.6003 11.1259 12.6367C10.6691 12.7588 10.1997 12.8277 9.7271 12.842C8.7723 12.9518 7.8175 12.8849 6.86271 12.9136C6.42223 12.9303 5.98115 12.9063 5.54509 12.842C5.21016 12.7739 4.90094 12.6135 4.65235 12.3789C4.30862 12.0877 4.2943 11.7153 4.19882 11.109C4.07238 10.2477 4.01491 9.37766 4.02696 8.50719C4.02696 7.09887 4.98175 6.51644 5.64534 6.00085C5.64534 5.8624 5.53554 5.84808 5.45915 5.82421C5.37542 5.79547 5.30322 5.74043 5.25332 5.6673C5.20342 5.59417 5.1785 5.50687 5.18226 5.41842C5.18226 5.02059 5.17271 4.62435 5.15362 4.2297C5.15362 3.2749 7.65519 2.9073 9.06829 3.18897C9.30357 3.23903 9.53491 3.30604 9.76052 3.38948C9.88436 3.43813 9.99899 3.50755 10.0995 3.59476C10.1832 3.65776 10.2513 3.7392 10.2985 3.83274C10.3456 3.92629 10.3707 4.02945 10.3716 4.13422C10.3716 4.54955 10.3716 4.96967 10.3716 5.385C10.3764 5.44621 10.3642 5.50754 10.3364 5.56228C10.3086 5.61702 10.2663 5.66305 10.214 5.69531L9.90374 5.91492ZM9.30699 6.10588C8.81558 6.22117 8.3127 6.28043 7.80796 6.28251C6.49988 6.25387 6.28505 5.98653 5.93655 6.28251C5.19658 6.90313 4.55687 7.2946 4.46139 8.28759C4.44707 8.54041 4.44707 8.79384 4.46139 9.04665C4.47017 9.86953 4.53397 10.6909 4.65235 11.5053C4.66486 11.6658 4.72078 11.8199 4.81412 11.951C4.90746 12.0822 5.03472 12.1856 5.18226 12.25C5.29968 12.3064 5.42296 12.3496 5.54986 12.3789C6.31457 12.4742 7.08636 12.4998 7.8557 12.4553C8.78307 12.4733 9.71044 12.419 10.6294 12.293C11.145 12.2261 11.2882 12.0925 11.398 11.5864C11.6221 10.5391 11.6009 9.45419 11.3359 8.41649C11.3067 8.26647 11.2552 8.12166 11.1832 7.98683C10.9118 7.42871 10.5027 6.94895 9.99444 6.59282C9.78196 6.39411 9.54443 6.22399 9.28789 6.08678L9.30699 6.10588ZM7.49287 4.71664C8.1944 4.74794 8.89406 4.62236 9.54092 4.34905C9.6497 4.29853 9.74964 4.23083 9.8369 4.14854C9.85562 4.13641 9.87101 4.1198 9.88166 4.1002C9.89232 4.0806 9.8979 4.05866 9.8979 4.03635C9.8979 4.01405 9.89232 3.9921 9.88166 3.9725C9.87101 3.95291 9.85562 3.93629 9.8369 3.92416C9.01578 3.35128 7.02025 3.44676 6.09409 3.83823C5.95345 3.89874 5.82044 3.97565 5.69785 4.06738C5.66903 4.07929 5.64439 4.09948 5.62705 4.1254C5.60972 4.15132 5.60046 4.1818 5.60046 4.21299C5.60046 4.24417 5.60972 4.27466 5.62705 4.30058C5.64439 4.3265 5.66903 4.34669 5.69785 4.3586C6.24646 4.63664 6.8603 4.76039 7.47378 4.71664H7.49287ZM7.45946 5.82421C7.68017 5.86722 7.9071 5.86722 8.12781 5.82421C8.14196 5.6037 8.11773 5.3824 8.0562 5.17017C7.85108 5.13208 7.6407 5.13208 7.43559 5.17017C7.37599 5.38434 7.37764 5.61093 7.44036 5.82421H7.45946ZM9.40724 4.86941C9.40724 5.59983 9.40724 5.39933 9.45021 5.58551C9.59557 5.55847 9.73374 5.50157 9.856 5.41842C9.89018 5.39988 9.91855 5.37221 9.93794 5.33849C9.95732 5.30477 9.96697 5.26634 9.9658 5.22746C9.9658 4.72619 10.004 4.70232 9.89896 4.64981L9.40724 4.86941ZM6.99638 5.1654C6.77982 5.08196 6.54219 5.07024 6.31847 5.13198C6.3027 5.32897 6.32706 5.52711 6.39008 5.71441C6.57795 5.77464 6.7765 5.79417 6.97251 5.7717C7.01104 5.5764 7.01266 5.37561 6.97728 5.17972L6.99638 5.1654ZM8.94894 5.73828C8.98479 5.50413 8.98479 5.26588 8.94894 5.03173C8.78311 5.01171 8.61531 5.04695 8.47154 5.13198C8.46876 5.3521 8.50098 5.57125 8.56702 5.78124L8.94894 5.73828ZM5.89836 4.97444C5.80425 4.89639 5.68642 4.85263 5.56418 4.85032C5.53949 5.0533 5.55408 5.25914 5.60715 5.45661C5.70263 5.51868 5.78378 5.58074 5.90791 5.53777C5.92686 5.35047 5.92686 5.16174 5.90791 4.97444H5.89836Z" fill="black"/>
<path d="M9.28754 6.08594C9.54317 6.21307 9.78077 6.37361 9.9941 6.56334C10.5074 6.93006 10.9169 7.42348 11.1828 7.99553C11.2548 8.13036 11.3063 8.27517 11.3356 8.42519C11.6015 9.46439 11.6227 10.5511 11.3976 11.5999C11.2878 12.1059 11.1446 12.2396 10.629 12.3064C9.71312 12.4304 8.78896 12.4831 7.86489 12.464C7.09556 12.5085 6.32376 12.4829 5.55906 12.3876C5.43216 12.3583 5.30888 12.3151 5.19146 12.2587C5.04077 12.1949 4.91064 12.0907 4.81544 11.9576C4.72024 11.8245 4.66368 11.6676 4.652 11.5044C4.52083 10.6909 4.44428 9.86954 4.42285 9.04581C4.40853 8.79299 4.40853 8.53957 4.42285 8.28675C4.51833 7.29376 5.16282 6.90229 5.89801 6.28167C6.24651 5.98568 6.46134 6.25303 7.76942 6.28167C8.28131 6.27512 8.79073 6.20944 9.28754 6.08594ZM7.99857 9.42773C7.82193 9.17948 7.71213 8.95033 7.35408 8.95033C6.9101 8.95033 6.87668 9.46592 7.09628 9.85262C7.25638 10.2124 7.45315 10.5548 7.68348 10.8743C7.87922 11.0939 8.10837 11.0461 8.31365 10.8456C8.57219 10.597 8.78685 10.3064 8.94859 9.98629C9.02223 9.83862 9.05205 9.67296 9.03452 9.50889C9.02407 9.43002 8.99262 9.35541 8.94345 9.29286C8.89428 9.23031 8.82922 9.18212 8.75505 9.15333C8.68088 9.12454 8.60034 9.11621 8.52185 9.12921C8.44336 9.14221 8.3698 9.17606 8.30888 9.22722L7.99857 9.42773ZM5.76434 7.94779C5.69949 7.90751 5.6307 7.87392 5.55906 7.84754C5.44514 7.80958 5.32585 7.79024 5.20578 7.79025C5.15587 7.79118 5.1069 7.80395 5.06289 7.82751C5.01888 7.85107 4.9811 7.88475 4.95266 7.92578C4.92422 7.96681 4.90594 8.014 4.89931 8.06348C4.89269 8.11296 4.89792 8.1633 4.91457 8.21036C4.98618 8.47771 5.07688 8.57796 5.62589 9.30838C5.65775 9.3749 5.70863 9.43046 5.7721 9.46802C5.83557 9.50558 5.90876 9.52345 5.9824 9.51936C6.05604 9.51527 6.12681 9.4894 6.18572 9.44504C6.24464 9.40068 6.28906 9.33983 6.31335 9.27019C6.87668 8.35836 6.47089 7.42743 5.90279 7.83799L5.76434 7.94779ZM6.11761 10.6546C6.02213 10.4685 5.91711 10.1391 5.54951 10.1772C5.46672 10.1846 5.38825 10.2175 5.32496 10.2714C5.26167 10.3252 5.21669 10.3974 5.19623 10.478C5.16967 10.5498 5.15672 10.6259 5.15804 10.7024C5.18191 10.9888 5.20101 11.2753 5.24397 11.5569C5.28694 11.8386 5.43016 11.9245 5.72137 11.872C6.10824 11.7471 6.44358 11.4989 6.67617 11.1655C6.85281 10.9124 6.80507 10.6117 6.50431 10.583C6.37362 10.5959 6.24426 10.6199 6.11761 10.6546ZM9.62172 11.7527C9.72198 11.8243 9.79836 11.8959 9.87952 11.9436C10.2232 12.125 10.5765 11.7909 10.4524 11.366C10.3661 11.0405 10.2023 10.7408 9.975 10.4923C9.94542 10.458 9.90878 10.4305 9.86759 10.4116C9.8264 10.3927 9.78161 10.3829 9.7363 10.3829C9.69098 10.3829 9.6462 10.3927 9.60501 10.4116C9.56382 10.4305 9.52718 10.458 9.4976 10.4923C9.30298 10.7003 9.11971 10.9186 8.94859 11.1464C8.87646 11.2427 8.82598 11.3534 8.8006 11.471C8.77748 11.5402 8.77548 11.6147 8.79485 11.6851C8.81422 11.7554 8.8541 11.8184 8.90939 11.866C8.96468 11.9136 9.03289 11.9437 9.10533 11.9524C9.17778 11.9612 9.25118 11.9481 9.31619 11.915C9.42599 11.872 9.50237 11.8147 9.62172 11.7527ZM8.40913 7.37969C8.32021 7.31627 8.21946 7.27134 8.11285 7.24756C8.00625 7.22378 7.89596 7.22163 7.78851 7.24124C7.73075 7.24992 7.67605 7.27279 7.62929 7.3078C7.58254 7.3428 7.54519 7.38885 7.5206 7.44183C7.496 7.4948 7.48492 7.55305 7.48835 7.61135C7.49179 7.66966 7.50962 7.72621 7.54026 7.77593C7.76451 8.15559 8.08583 8.46868 8.47119 8.68299C8.52448 8.71361 8.58696 8.72418 8.64736 8.7128C8.70776 8.70142 8.7621 8.66884 8.8006 8.62093C8.85499 8.56655 8.90014 8.50366 8.93427 8.43474C9.11344 8.11883 9.19174 7.75569 9.15865 7.39401C9.15941 7.33 9.14066 7.26727 9.10489 7.21418C9.06912 7.16108 9.01802 7.12015 8.9584 7.09682C8.89879 7.07349 8.83348 7.06888 8.77117 7.08359C8.70887 7.0983 8.65252 7.13165 8.60964 7.17918C8.53808 7.24112 8.47107 7.30813 8.40913 7.37969ZM10.4142 8.81189C10.2735 8.68533 10.0925 8.61262 9.90339 8.6066C9.85916 8.60686 9.8155 8.61657 9.77532 8.63507C9.73515 8.65358 9.6994 8.68047 9.67047 8.71392C9.64153 8.74737 9.62009 8.78663 9.60756 8.82905C9.59504 8.87147 9.59173 8.91608 9.59785 8.95988C9.69589 9.36469 9.91586 9.72963 10.228 10.0054C10.2541 10.0448 10.2896 10.0771 10.3313 10.0994C10.3729 10.1218 10.4195 10.1335 10.4667 10.1335C10.514 10.1335 10.5605 10.1218 10.6022 10.0994C10.6438 10.0771 10.6793 10.0448 10.7054 10.0054C10.9482 9.70787 11.0784 9.3343 11.073 8.95033C11.0719 8.87359 11.0522 8.79826 11.0157 8.73073C10.9983 8.69362 10.9729 8.66084 10.9413 8.63475C10.9097 8.60867 10.8727 8.58992 10.8329 8.57987C10.7932 8.56983 10.7517 8.56873 10.7115 8.57665C10.6713 8.58457 10.6333 8.60133 10.6004 8.6257C10.5331 8.68052 10.4708 8.74123 10.4142 8.80711V8.81189Z" fill="#FF0303"/>
<path d="M7.47358 4.71693C6.85533 4.76332 6.23618 4.63949 5.68333 4.35889C5.65451 4.34698 5.62987 4.32679 5.61253 4.30087C5.59519 4.27495 5.58594 4.24446 5.58594 4.21328C5.58594 4.1821 5.59519 4.15161 5.61253 4.12569C5.62987 4.09977 5.65451 4.07958 5.68333 4.06767C5.80592 3.97594 5.93892 3.89903 6.07957 3.83852C7.00095 3.44705 9.00125 3.36112 9.82238 3.92445C9.8411 3.93658 9.85649 3.9532 9.86714 3.97279C9.87779 3.99239 9.88337 4.01434 9.88337 4.03664C9.88337 4.05895 9.87779 4.0809 9.86714 4.10049C9.85649 4.12009 9.8411 4.1367 9.82238 4.14883C9.73512 4.23112 9.63518 4.29883 9.52639 4.34934C8.87807 4.62335 8.17669 4.74894 7.47358 4.71693Z" fill="white"/>
<path d="M7.4401 5.82442C7.37291 5.6159 7.36465 5.39286 7.41623 5.17994C7.62135 5.14184 7.83173 5.14184 8.03685 5.17994C8.09838 5.39216 8.12261 5.61346 8.10846 5.83397C7.88714 5.87383 7.6602 5.87059 7.4401 5.82442Z" fill="white"/>
<path d="M9.3875 4.88345L9.90309 4.6543C10.0129 4.70681 9.97947 4.73545 9.96992 5.23195C9.97109 5.27082 9.96145 5.30926 9.94206 5.34298C9.92268 5.37669 9.89431 5.40436 9.86012 5.42291C9.73101 5.5166 9.58258 5.58021 9.42569 5.60909C9.37795 5.41336 9.3875 5.60909 9.3875 4.88345Z" fill="white"/>
<path d="M6.9765 5.17969C7.01226 5.37218 7.01226 5.56962 6.9765 5.76211C6.78049 5.78459 6.58195 5.76506 6.39407 5.70482C6.33071 5.52086 6.30475 5.32609 6.31769 5.13195C6.53691 5.07891 6.76722 5.0956 6.9765 5.17969Z" fill="white"/>
<path d="M8.9496 5.73864L8.55336 5.79115C8.49115 5.57732 8.46375 5.35487 8.4722 5.13234C8.61482 5.04399 8.7827 5.00537 8.9496 5.02254C8.98642 5.25982 8.98642 5.50136 8.9496 5.73864Z" fill="white"/>
<path d="M5.90812 4.97471C5.92708 5.16201 5.92708 5.35074 5.90812 5.53804C5.784 5.58101 5.70284 5.53804 5.60736 5.45688C5.5543 5.25941 5.53971 5.05357 5.5644 4.85059C5.68992 4.85071 5.81148 4.8946 5.90812 4.97471Z" fill="white"/>
<path d="M7.9944 9.46175C8.29516 9.22783 8.40019 9.09893 8.67231 9.13712C8.76617 9.14623 8.85359 9.18891 8.91849 9.25733C8.9834 9.32574 9.02142 9.41528 9.02558 9.50949C9.04311 9.67357 9.01329 9.83923 8.93965 9.98689C8.76572 10.3528 8.51687 10.6781 8.20923 10.9417C7.73183 11.2854 7.48836 10.6123 7.09212 9.86754C6.99652 9.6926 6.95498 9.49323 6.97277 9.29466C7.02051 8.85068 7.56474 8.89365 7.80821 9.19441C7.87028 9.27557 7.92279 9.3615 7.9944 9.46175Z" fill="white"/>
<path d="M5.76429 7.94968L5.90274 7.83511C6.47085 7.42932 6.85754 8.36025 6.3133 9.26731C6.28902 9.33694 6.2446 9.3978 6.18568 9.44216C6.12676 9.48652 6.056 9.51239 5.98236 9.51648C5.90872 9.52057 5.83553 9.5027 5.77206 9.46514C5.70859 9.42758 5.6577 9.37202 5.62585 9.3055C5.0291 8.51301 4.98136 8.45095 4.91452 8.20748C4.89788 8.16042 4.89265 8.11007 4.89927 8.0606C4.90589 8.01112 4.92418 7.96392 4.95262 7.9229C4.98105 7.88187 5.01883 7.84819 5.06284 7.82462C5.10685 7.80106 5.15583 7.78829 5.20574 7.78737C5.32581 7.78735 5.4451 7.8067 5.55901 7.84466C5.63085 7.87255 5.69964 7.90775 5.76429 7.94968Z" fill="white"/>
<path d="M6.11895 10.6553C6.24772 10.6267 6.37868 10.6091 6.51042 10.6027C6.81118 10.6314 6.85892 10.9321 6.68228 11.1852C6.44969 11.5186 6.11436 11.7668 5.72749 11.8917C5.44582 11.9442 5.3026 11.8535 5.25009 11.5766C5.19757 11.2997 5.18802 11.0085 5.16415 10.7221C5.16283 10.6456 5.17579 10.5695 5.20235 10.4977C5.2228 10.4171 5.26778 10.3449 5.33107 10.2911C5.39436 10.2372 5.47283 10.2043 5.55562 10.1969C5.91844 10.1397 6.02347 10.4738 6.11895 10.6553Z" fill="white"/>
<path d="M9.62175 11.7533C9.5024 11.8106 9.40215 11.8727 9.29234 11.9156C9.22733 11.9488 9.15394 11.9618 9.08149 11.9531C9.00905 11.9444 8.94084 11.9143 8.88554 11.8667C8.83025 11.8191 8.79038 11.7561 8.77101 11.6857C8.75163 11.6154 8.75363 11.5409 8.77675 11.4717C8.80925 11.352 8.86796 11.2411 8.94862 11.147C9.11482 10.9164 9.2933 10.6949 9.4833 10.4834C9.51288 10.4491 9.54952 10.4216 9.59071 10.4027C9.63191 10.3838 9.67669 10.374 9.722 10.374C9.76732 10.374 9.8121 10.3838 9.85329 10.4027C9.89449 10.4216 9.93112 10.4491 9.9607 10.4834C10.188 10.7319 10.3518 11.0316 10.4381 11.3571C10.5622 11.782 10.2042 12.1161 9.86522 11.9347C9.79839 11.8965 9.722 11.8154 9.62175 11.7533Z" fill="white"/>
<path d="M8.4101 7.37973C8.47051 7.30833 8.53592 7.24133 8.60584 7.17922C8.64872 7.13169 8.70506 7.09834 8.76737 7.08363C8.82967 7.06892 8.89498 7.07353 8.9546 7.09686C9.01422 7.12019 9.06531 7.16112 9.10109 7.21421C9.13686 7.26731 9.15561 7.33004 9.15484 7.39405C9.19374 7.75376 9.12213 8.11678 8.94956 8.43478C8.91544 8.5037 8.87028 8.56659 8.81589 8.62096C8.7774 8.66888 8.72305 8.70146 8.66265 8.71284C8.60225 8.72422 8.53978 8.71365 8.48649 8.68303C8.10288 8.46804 7.78326 8.15501 7.56033 7.77597C7.52969 7.72625 7.51186 7.6697 7.50842 7.61139C7.50499 7.55309 7.51607 7.49484 7.54066 7.44186C7.56526 7.38889 7.60261 7.34284 7.64936 7.30783C7.69612 7.27283 7.75082 7.24996 7.80858 7.24128C8.0195 7.2064 8.23565 7.25616 8.4101 7.37973Z" fill="white"/>
<path d="M10.4155 8.80817C10.4724 8.7456 10.5347 8.68809 10.6017 8.63631C10.6346 8.61193 10.6726 8.59518 10.7128 8.58726C10.753 8.57933 10.7945 8.58043 10.8342 8.59048C10.8739 8.60053 10.9109 8.61927 10.9426 8.64536C10.9742 8.67145 10.9996 8.70423 11.017 8.74133C11.0535 8.80887 11.0731 8.8842 11.0743 8.96094C11.0654 9.34703 10.9199 9.71746 10.6637 10.0064C10.6376 10.0458 10.6021 10.0781 10.5605 10.1005C10.5188 10.1228 10.4723 10.1345 10.425 10.1345C10.3778 10.1345 10.3312 10.1228 10.2896 10.1005C10.2479 10.0781 10.2125 10.0458 10.1863 10.0064C9.87953 9.72553 9.66625 9.35729 9.57526 8.95139C9.56913 8.90759 9.57244 8.86298 9.58496 8.82056C9.59749 8.77814 9.61893 8.73888 9.64787 8.70543C9.6768 8.67198 9.71255 8.64509 9.75272 8.62658C9.7929 8.60808 9.83656 8.59837 9.88079 8.59811C10.0788 8.59971 10.2693 8.67453 10.4155 8.80817Z" fill="white"/>
</svg>
