<svg width="16" height="16" viewBox="0 0 16 16" fill="none" xmlns="http://www.w3.org/2000/svg">
<path d="M7.63561 7.24764C7.683 7.18876 7.73432 7.13317 7.78921 7.08124C7.85838 7.01591 7.93585 6.95996 8.01961 6.91484C8.55401 6.64284 9.02761 7.20924 8.94761 7.82364C8.80989 8.52237 8.43172 9.15076 7.87881 9.59964C7.61001 9.83644 7.41801 9.81404 7.19401 9.53884C6.8828 9.07811 6.60477 8.59583 6.36201 8.09564C6.11561 7.55164 6.11561 6.92124 6.68201 6.74844C6.82281 6.69593 6.97693 6.69097 7.12081 6.73431C7.2647 6.77765 7.39043 6.8669 7.47881 6.98844C7.52361 7.07164 7.56841 7.14524 7.63561 7.24764ZM6.45161 7.53244C6.45593 7.66376 6.49939 7.79079 6.57641 7.89724C6.5934 7.91213 6.61318 7.92349 6.63462 7.93063C6.65605 7.93777 6.67869 7.94056 6.70121 7.93884C6.74921 7.93884 6.79401 7.85884 6.77801 7.80764C6.72361 7.60284 6.64361 7.50684 6.74601 7.30844C6.76487 7.27436 6.79279 7.24616 6.82667 7.22696C6.86056 7.20776 6.89909 7.19831 6.93801 7.19964C6.95937 7.19819 6.97979 7.19029 6.99656 7.17698C7.01332 7.16366 7.02565 7.14557 7.0319 7.12509C7.03814 7.10461 7.03802 7.08272 7.03154 7.06232C7.02506 7.04191 7.01253 7.02396 6.99561 7.01084C6.82921 6.88604 6.44521 7.08124 6.45161 7.53244ZM8.39721 8.49244C8.39612 8.47402 8.39061 8.45613 8.38117 8.44029C8.37172 8.42444 8.3586 8.41109 8.34292 8.40137C8.32724 8.39165 8.30945 8.38584 8.29106 8.38442C8.27266 8.38301 8.2542 8.38603 8.23721 8.39324C8.20629 8.41289 8.18007 8.43911 8.16041 8.47004C7.93961 8.88924 7.66761 9.07484 7.63241 9.21244C7.62964 9.23007 7.63078 9.2481 7.63576 9.26525C7.64073 9.28239 7.64943 9.29823 7.66121 9.31164C7.68681 9.33084 7.73161 9.31164 7.76681 9.31164C7.78587 9.30842 7.80301 9.29813 7.81481 9.28284C8.04055 9.07675 8.22893 8.83316 8.37161 8.56284C8.38193 8.54337 8.3905 8.52302 8.39721 8.50204V8.49244Z" fill="#DA0100"/>
<path d="M3.90777 9.57433C4.66297 9.57433 4.95097 9.53273 5.12057 9.57433C5.15236 9.5873 5.17957 9.60944 5.19872 9.63794C5.21787 9.66644 5.2281 9.69999 5.2281 9.73433C5.2281 9.76866 5.21787 9.80222 5.19872 9.83072C5.17957 9.85921 5.15236 9.88136 5.12057 9.89433C4.91897 9.93593 4.98937 9.92953 2.59257 10.0159C2.49673 10.0239 2.4004 10.0239 2.30457 10.0159C2.27186 10.006 2.24275 9.98679 2.22078 9.9606C2.19882 9.93442 2.18495 9.9024 2.18088 9.86847C2.17681 9.83453 2.1827 9.80015 2.19785 9.76951C2.213 9.73887 2.23673 9.7133 2.26617 9.69593C2.44217 9.63193 2.56057 9.65753 3.26457 9.62873C3.33253 9.62358 3.39995 9.61288 3.46617 9.59673C3.50021 9.27763 3.50021 8.95582 3.46617 8.63673C3.46617 8.50233 3.43097 6.90873 3.43097 6.77113C3.26457 6.66553 3.11097 6.72313 2.93817 6.71673C2.76537 6.71033 2.61817 6.71673 2.46457 6.71673C2.46457 6.81273 2.44857 6.89593 2.43577 6.97593C2.43243 7.01408 2.41578 7.04984 2.38873 7.07695C2.36168 7.10406 2.32596 7.1208 2.28782 7.12423C2.24968 7.12766 2.21154 7.11757 2.18009 7.09573C2.14864 7.07388 2.12587 7.04167 2.11577 7.00473C2.06777 6.86713 2.07097 6.87353 2.05497 6.25913C2.04678 6.232 2.04678 6.20306 2.05497 6.17593C2.09269 6.12921 2.14421 6.09561 2.20217 6.07993C2.22553 6.07659 2.24936 6.07891 2.27163 6.08671C2.29391 6.09451 2.31399 6.10755 2.33017 6.12473C2.37553 6.18656 2.41415 6.25308 2.44537 6.32313C2.68217 6.33913 2.25337 6.34553 4.77497 6.30713C4.79097 6.30713 4.80697 6.29113 4.83577 6.27833C4.85177 6.20153 4.86457 6.11833 4.88697 6.03833C4.89914 6.01255 4.91839 5.99077 4.94246 5.97551C4.96654 5.96025 4.99446 5.95215 5.02297 5.95215C5.05147 5.95215 5.07939 5.96025 5.10347 5.97551C5.12755 5.99077 5.1468 6.01255 5.15897 6.03833C5.1791 6.08183 5.19207 6.12829 5.19737 6.17593C5.19737 6.38713 5.22617 6.59833 5.22937 6.81593C5.22937 6.96313 5.16857 7.03993 5.06617 7.04313C4.96377 7.04633 4.90937 6.93113 4.85497 6.75193C4.52511 6.69652 4.1893 6.68576 3.85657 6.71993C3.81177 6.94713 3.80537 6.48313 3.87577 9.37593C3.87897 9.42713 3.89497 9.49113 3.90777 9.57433Z" fill="black"/>
<path d="M12.1865 6.59146L12.0521 6.56586C12.0041 6.56586 11.9561 6.56586 11.9113 6.54986C11.6969 6.50826 11.7001 6.24906 11.9401 6.22986C11.9401 6.22986 12.5225 6.20746 12.7177 6.20746C12.8515 6.20493 12.9853 6.2135 13.1177 6.23306C13.1586 6.24095 13.1951 6.26359 13.2204 6.29668C13.2457 6.32976 13.2579 6.37097 13.2547 6.41248C13.2515 6.45398 13.2332 6.49287 13.2032 6.52174C13.1733 6.55062 13.1337 6.56746 13.0921 6.56906C12.977 6.57537 12.8616 6.57537 12.7465 6.56906C12.706 6.57366 12.6662 6.58334 12.6281 6.59786C12.7521 7.3881 12.6863 8.19648 12.4361 8.95626C12.0073 10.1211 11.1209 10.2651 10.6025 9.37226C10.2372 8.62645 10.111 7.7861 10.2409 6.96586C10.2711 6.86678 10.2711 6.76095 10.2409 6.66186C9.78973 6.62666 9.68733 6.66186 9.67453 6.49226C9.65853 6.27466 9.91133 6.29706 10.7433 6.25866C10.7867 6.25249 10.8309 6.26243 10.8674 6.2866C10.904 6.31078 10.9304 6.34752 10.9417 6.38986C10.9518 6.43226 10.9464 6.47687 10.9264 6.51561C10.9065 6.55435 10.8733 6.58466 10.8329 6.60106C10.7863 6.62358 10.7382 6.64282 10.6889 6.65866C10.6665 6.78026 10.6377 6.89866 10.6217 7.02026C10.4297 8.64906 11.1465 10.1851 11.8345 9.30826C11.9526 9.15646 12.0435 8.98541 12.1033 8.80266C12.2946 8.25797 12.3635 7.6778 12.3049 7.10346C12.3068 6.92581 12.2662 6.75028 12.1865 6.59146Z" fill="black"/>
</svg>
