<svg width="16" height="16" viewBox="0 0 16 16" fill="none" xmlns="http://www.w3.org/2000/svg">
<path d="M8.29222 11.2009C2.33277 11.2416 2.72813 11.2474 2.58278 11.2009C2.51437 11.195 2.45104 11.1624 2.40644 11.1102C2.36185 11.058 2.33957 10.9903 2.3444 10.9218V5.60775C2.3444 5.02634 2.54789 5.02634 3.15256 5.02634C14.397 4.99727 13.6179 4.98564 13.9203 5.02634C14.0009 5.03632 14.0751 5.0756 14.1287 5.1367C14.1823 5.1978 14.2116 5.27647 14.211 5.35775C14.211 5.77055 14.3679 10.5904 14.3621 10.666C14.3621 11.0149 14.2342 11.1428 13.8738 11.1428C7.90267 11.1951 8.29222 11.1428 8.29222 11.2009ZM2.93162 10.6602C3.09442 10.7358 2.55371 10.7183 12.583 10.6602C13.0028 10.699 13.426 10.6755 13.8389 10.5904C13.8389 9.39273 13.8389 9.85204 13.7749 8.08456C13.7749 7.66013 13.7749 7.22989 13.74 6.79964C13.744 6.37959 13.7168 5.95982 13.6586 5.5438C12.7865 5.50891 4.80958 5.5438 3.28628 5.5438C3.15837 5.5438 3.01883 5.50891 2.90255 5.60775C2.86767 5.85776 2.86185 9.86367 2.90255 10.4683C2.87348 10.5323 2.89092 10.5962 2.90255 10.6602H2.93162Z" fill="black"/>
<path d="M2.90267 10.6605C2.90267 10.5966 2.8736 10.5326 2.86778 10.4686C2.8329 9.88724 2.83871 5.85807 2.86778 5.60806C2.98406 5.50922 3.1236 5.54411 3.25151 5.54411C4.65852 5.54411 12.7227 5.4976 13.6239 5.54411C13.682 5.96013 13.7093 6.3799 13.7053 6.79995C13.7053 7.2302 13.7053 7.66044 13.7401 8.08487C13.7808 9.8291 13.7925 9.42211 13.8041 10.5907C13.3912 10.6758 12.968 10.6993 12.5483 10.6605C2.28637 10.7187 3.05965 10.7361 2.90267 10.6605ZM11.7343 8.42209C12.0903 8.31022 12.4123 8.11023 12.6703 7.84068C12.7522 7.74976 12.8092 7.63921 12.8358 7.51976C12.8623 7.40031 12.8575 7.27603 12.8218 7.15899C12.7861 7.04195 12.7207 6.93613 12.6321 6.85183C12.5434 6.76752 12.4344 6.70759 12.3157 6.67786C12.1221 6.61312 11.9109 6.62752 11.7279 6.71792C11.5449 6.80831 11.4051 6.96738 11.3389 7.16043C11.1485 7.65185 11.116 8.1904 11.2459 8.70116C11.4261 9.39304 12.3622 9.6256 13.1355 8.95698C13.1953 8.91374 13.236 8.84897 13.249 8.7763C13.2621 8.70364 13.2464 8.62876 13.2052 8.56744C13.1703 8.52491 13.1219 8.49545 13.0681 8.48384C13.0143 8.47223 12.9581 8.47915 12.9087 8.50348C12.7045 8.67873 12.4543 8.79172 12.1878 8.82907C11.9029 8.88721 11.7808 8.77675 11.7343 8.42209ZM6.5481 7.90463C6.60625 9.19536 7.56557 9.49188 8.06558 8.79419C8.22734 8.53946 8.31803 8.24611 8.32826 7.94453C8.33848 7.64295 8.26786 7.34413 8.12372 7.07903C8.06573 6.96015 7.9764 6.85935 7.86535 6.78749C7.7543 6.71563 7.62574 6.67544 7.49354 6.67126C7.36133 6.66707 7.23049 6.69904 7.11512 6.76373C6.99974 6.82841 6.90421 6.92336 6.83881 7.03833C6.67946 7.30225 6.58021 7.59802 6.5481 7.90463ZM9.63539 8.54418C9.49004 8.44534 9.52492 8.36976 9.4319 7.17787C9.42922 7.07242 9.41755 6.96738 9.39701 6.86391C9.3505 6.64879 8.96095 6.63135 8.96677 6.99182C8.96677 8.23022 8.96677 8.52093 9.17026 8.88721C9.20724 8.9598 9.26139 9.02226 9.328 9.06915C9.39462 9.11604 9.47168 9.14594 9.55249 9.15626C9.6333 9.16658 9.7154 9.15699 9.79166 9.12834C9.86792 9.09969 9.93602 9.05284 9.99005 8.99187C10.4186 8.39351 10.7176 7.71231 10.868 6.99182C10.8765 6.93335 10.8636 6.87377 10.8316 6.82411C10.7996 6.77445 10.7506 6.73808 10.6938 6.72176C10.637 6.70543 10.5763 6.71025 10.5228 6.73532C10.4692 6.76039 10.4266 6.80401 10.4028 6.8581C10.3658 6.94304 10.3347 7.03046 10.3098 7.11973C9.804 8.48604 9.804 8.53255 9.64702 8.56744L9.63539 8.54418ZM5.65855 8.74768C5.37021 8.83521 5.06489 8.85118 4.76899 8.79419C4.74819 8.72801 4.73455 8.65979 4.72829 8.5907C4.75736 6.26506 4.78062 7.07322 4.76899 6.84647C4.75736 6.61972 4.37945 6.58483 4.31549 6.84647C4.21684 7.45945 4.18565 8.08139 4.22247 8.70116C4.22247 9.12559 4.35038 9.36978 4.76899 9.3756C5.02481 9.3756 5.27482 9.3756 5.53064 9.3756C5.62521 9.37151 5.71893 9.35589 5.80971 9.32909C6.29228 9.22443 6.26903 8.67791 6.1353 8.20697C6.11694 8.15979 6.08403 8.11969 6.04135 8.09247C5.99867 8.06525 5.94844 8.05232 5.89792 8.05556C5.8474 8.05879 5.79922 8.07803 5.76037 8.11048C5.72151 8.14293 5.694 8.1869 5.6818 8.23604C5.66803 8.41398 5.66415 8.59256 5.67018 8.77093L5.65855 8.74768ZM3.42012 6.38134C3.47322 6.38623 3.52612 6.37009 3.56743 6.33639C3.60875 6.30268 3.63519 6.2541 3.64106 6.2011C3.6451 6.1684 3.64233 6.13522 3.6329 6.10365C3.62348 6.07208 3.60761 6.0428 3.58631 6.01767C3.565 5.99254 3.53872 5.9721 3.50911 5.95764C3.47951 5.94318 3.44723 5.93501 3.41431 5.93365C3.36113 5.94225 3.31276 5.9695 3.27784 6.01051C3.24293 6.05153 3.22375 6.10363 3.22375 6.1575C3.22375 6.21136 3.24293 6.26347 3.27784 6.30448C3.31276 6.3455 3.36113 6.37274 3.41431 6.38134H3.42012ZM13.0657 6.23599C13.118 6.23576 13.1685 6.21699 13.2083 6.18301C13.248 6.14903 13.2745 6.10205 13.2828 6.05042C13.2912 5.99879 13.281 5.94587 13.254 5.90107C13.227 5.85626 13.185 5.82249 13.1355 5.80574C13.1026 5.80254 13.0695 5.80588 13.0379 5.81557C13.0063 5.82525 12.977 5.8411 12.9516 5.86218C12.9262 5.88326 12.9052 5.90916 12.8899 5.9384C12.8745 5.96763 12.8651 5.99961 12.8622 6.03249C12.8614 6.06151 12.8664 6.09039 12.8768 6.1175C12.8872 6.1446 12.9028 6.16939 12.9228 6.19044C12.9428 6.2115 12.9667 6.22842 12.9932 6.24022C13.0197 6.25203 13.0483 6.25849 13.0773 6.25924L13.0657 6.23599ZM13.4669 10.0907C13.4671 10.0366 13.4468 9.98434 13.4102 9.94447C13.3735 9.90459 13.3232 9.88 13.2692 9.87561C13.2392 9.87557 13.2095 9.88164 13.1819 9.89347C13.1543 9.90529 13.1294 9.92261 13.1087 9.94438C13.088 9.96614 13.072 9.99189 13.0616 10.0201C13.0512 10.0482 13.0467 10.0782 13.0483 10.1082C13.0481 10.1623 13.0683 10.2146 13.105 10.2544C13.1416 10.2943 13.192 10.3189 13.2459 10.3233C13.3042 10.325 13.3608 10.3042 13.4041 10.2652C13.4474 10.2262 13.474 10.1721 13.4785 10.114L13.4669 10.0907ZM3.47245 10.3524C3.52394 10.353 3.57397 10.3352 3.61345 10.3022C3.65292 10.2691 3.67922 10.2229 3.68757 10.1721C3.69437 10.113 3.67827 10.0536 3.64258 10.006C3.60689 9.95843 3.55433 9.92633 3.4957 9.91631C3.46555 9.91555 3.43553 9.92073 3.40738 9.93157C3.37922 9.9424 3.35348 9.95868 3.33161 9.97946C3.30974 10.0002 3.29219 10.0251 3.27994 10.0527C3.26769 10.0803 3.261 10.11 3.26023 10.1402C3.25947 10.1703 3.26465 10.2003 3.27549 10.2285C3.28633 10.2566 3.3026 10.2824 3.32339 10.3042C3.34417 10.3261 3.36906 10.3437 3.39663 10.3559C3.4242 10.3682 3.45392 10.3749 3.48408 10.3756L3.47245 10.3524Z" fill="white"/>
<path d="M11.7346 8.4213C11.7927 8.77596 11.9032 8.88643 12.1881 8.8748C12.4546 8.83745 12.7048 8.72445 12.909 8.54921C12.9584 8.52487 13.0146 8.51795 13.0684 8.52956C13.1222 8.54117 13.1706 8.57063 13.2055 8.61316C13.2466 8.67448 13.2623 8.74936 13.2493 8.82203C13.2363 8.89469 13.1956 8.95947 13.1358 9.00271C12.3567 9.67133 11.4264 9.43876 11.2462 8.74689C11.1163 8.23613 11.1488 7.69757 11.3392 7.20615C11.4089 7.01629 11.5501 6.86128 11.7327 6.77433C11.9153 6.68739 12.1247 6.67543 12.316 6.74102C12.4347 6.77076 12.5437 6.83069 12.6323 6.91499C12.721 6.9993 12.7864 7.10511 12.8221 7.22215C12.8578 7.33919 12.8626 7.46348 12.8361 7.58293C12.8095 7.70238 12.7525 7.81293 12.6706 7.90384C12.4058 8.15059 12.0844 8.32831 11.7346 8.4213ZM11.7346 7.86896C11.9317 7.82969 12.1098 7.72525 12.2404 7.57244C12.2745 7.53166 12.2931 7.48022 12.2931 7.42709C12.2931 7.37396 12.2745 7.32251 12.2404 7.28174C12.2107 7.25533 12.1753 7.2362 12.137 7.22585C12.0986 7.2155 12.0584 7.21423 12.0195 7.22213C11.9805 7.23002 11.944 7.24688 11.9127 7.27135C11.8814 7.29583 11.8563 7.32725 11.8392 7.36313C11.7548 7.5174 11.7221 7.69474 11.7462 7.86896H11.7346Z" fill="black"/>
<path d="M6.54883 7.90464C6.58093 7.59803 6.68019 7.30225 6.83953 7.03834C6.90493 6.92337 7.00046 6.82842 7.11584 6.76373C7.23122 6.69905 7.36206 6.66708 7.49426 6.67126C7.62647 6.67545 7.75502 6.71564 7.86607 6.7875C7.97712 6.85935 8.06646 6.96016 8.12445 7.07904C8.26859 7.34414 8.3392 7.64296 8.32898 7.94454C8.31876 8.24611 8.22807 8.53947 8.06631 8.7942C7.57792 9.51514 6.6186 9.22444 6.54883 7.90464ZM7.62444 8.51512C7.74079 8.33599 7.80272 8.12697 7.80272 7.91336C7.80272 7.69976 7.74079 7.49073 7.62444 7.3116C7.60677 7.28274 7.58199 7.25889 7.55247 7.24235C7.52294 7.2258 7.48967 7.21711 7.45583 7.21711C7.42198 7.21711 7.38871 7.2258 7.35919 7.24235C7.32966 7.25889 7.30488 7.28274 7.28722 7.3116C6.84535 7.86394 7.25815 9.02676 7.63606 8.53838L7.62444 8.51512Z" fill="black"/>
<path d="M9.64732 8.56741C9.8043 8.53252 9.79848 8.49182 10.3218 7.14295C10.3466 7.05369 10.3777 6.96626 10.4148 6.88132C10.4386 6.82723 10.4812 6.78361 10.5347 6.75854C10.5882 6.73347 10.649 6.72865 10.7058 6.74498C10.7626 6.76131 10.8115 6.79767 10.8435 6.84733C10.8755 6.89699 10.8885 6.95658 10.8799 7.01504C10.7288 7.73527 10.4298 8.41631 10.002 9.01509C9.58918 9.42208 9.04265 9.05579 9.00195 8.29414C9.00195 7.86972 9.00195 7.43947 9.00195 7.01504C9.00195 6.59061 9.38568 6.67201 9.4322 6.88713C9.47871 7.10226 9.48452 7.54413 9.54848 8.28252C9.54076 8.33445 9.54572 8.38749 9.56293 8.43709C9.58014 8.4867 9.60909 8.53141 9.64732 8.56741Z" fill="black"/>
<path d="M5.66995 8.77126C5.65758 8.57766 5.65758 8.38346 5.66995 8.18985C5.68214 8.14072 5.70966 8.09674 5.74851 8.0643C5.78737 8.03185 5.83555 8.01261 5.88606 8.00937C5.93658 8.00613 5.98682 8.01906 6.0295 8.04628C6.07218 8.07351 6.10509 8.11361 6.12345 8.16078C6.25718 8.63172 6.28043 9.17825 5.79786 9.2829C5.70708 9.30971 5.61336 9.32533 5.51879 9.32942C5.26297 9.32942 5.01296 9.35849 4.75714 9.32942C4.33852 9.32942 4.17573 9.07941 4.21061 8.65498C4.17587 8.03886 4.20901 7.42078 4.30945 6.81191C4.36759 6.54446 4.75133 6.57353 4.76295 6.81191C4.77458 7.05029 4.76295 6.2712 4.72225 8.55614C4.72851 8.62523 4.74216 8.69345 4.76295 8.75963C5.05966 8.83852 5.37132 8.84252 5.66995 8.77126Z" fill="black"/>
<path d="M3.43079 6.40374C3.37762 6.39514 3.32924 6.3679 3.29432 6.32688C3.25941 6.28587 3.24023 6.23376 3.24023 6.1799C3.24023 6.12603 3.25941 6.07393 3.29432 6.03291C3.32924 5.9919 3.37762 5.96465 3.43079 5.95605C3.46371 5.95741 3.49599 5.96558 3.5256 5.98004C3.5552 5.9945 3.58148 6.01494 3.60279 6.04007C3.6241 6.06521 3.63996 6.09448 3.64939 6.12605C3.65881 6.15762 3.66159 6.19081 3.65754 6.2235C3.65466 6.2503 3.64648 6.27625 3.63348 6.29985C3.62049 6.32346 3.60293 6.34425 3.58184 6.36102C3.56075 6.37779 3.53653 6.3902 3.5106 6.39753C3.48467 6.40486 3.45754 6.40697 3.43079 6.40374Z" fill="black"/>
<path d="M13.0765 6.25857C13.0239 6.25455 12.9744 6.23183 12.9371 6.1945C12.8998 6.15717 12.8771 6.10771 12.873 6.05508C12.876 6.02219 12.8854 5.99021 12.9007 5.96098C12.916 5.93175 12.937 5.90584 12.9624 5.88476C12.9878 5.86368 13.0172 5.84784 13.0487 5.83815C13.0803 5.82846 13.1135 5.82513 13.1463 5.82833C13.1959 5.84507 13.2379 5.87884 13.2648 5.92365C13.2918 5.96845 13.302 6.02137 13.2937 6.073C13.2853 6.12463 13.2589 6.17161 13.2191 6.20559C13.1794 6.23957 13.1288 6.25834 13.0765 6.25857Z" fill="black"/>
<path d="M13.4775 10.1136C13.4783 10.1433 13.4732 10.173 13.4625 10.2008C13.4518 10.2286 13.4358 10.254 13.4152 10.2756C13.3947 10.2972 13.3701 10.3146 13.3429 10.3267C13.3157 10.3388 13.2864 10.3454 13.2566 10.3461C13.2026 10.3417 13.1523 10.3171 13.1156 10.2773C13.079 10.2374 13.0587 10.1852 13.0589 10.131C13.0573 10.101 13.0619 10.071 13.0723 10.0429C13.0827 10.0147 13.0987 9.98897 13.1194 9.9672C13.14 9.94544 13.1649 9.92812 13.1925 9.9163C13.2201 9.90447 13.2498 9.8984 13.2798 9.89844C13.3338 9.90283 13.3842 9.92742 13.4208 9.96729C13.4574 10.0072 13.4777 10.0594 13.4775 10.1136Z" fill="black"/>
<path d="M3.48322 10.3755C3.45161 10.3807 3.41924 10.3789 3.38838 10.3703C3.35751 10.3618 3.32888 10.3466 3.30446 10.3258C3.28004 10.3051 3.26043 10.2793 3.24698 10.2502C3.23353 10.2211 3.22656 10.1895 3.22656 10.1575C3.22656 10.1254 3.23353 10.0938 3.24698 10.0647C3.26043 10.0356 3.28004 10.0098 3.30446 9.98908C3.32888 9.96834 3.35751 9.95315 3.38838 9.94458C3.41924 9.93601 3.45161 9.93425 3.48322 9.93943C3.54185 9.94945 3.59441 9.98155 3.6301 10.0291C3.66578 10.0767 3.68188 10.1362 3.67509 10.1953C3.66758 10.2423 3.64466 10.2855 3.60994 10.3181C3.57522 10.3508 3.53064 10.3709 3.48322 10.3755Z" fill="black"/>
<path d="M11.7456 7.86831C11.7307 7.76455 11.7386 7.65877 11.7687 7.55835C11.7988 7.45794 11.8505 7.3653 11.9201 7.2869C11.9642 7.24562 12.0224 7.22266 12.0829 7.22266C12.1433 7.22266 12.2015 7.24562 12.2457 7.2869C12.2797 7.32768 12.2984 7.37912 12.2984 7.43225C12.2984 7.48539 12.2797 7.53683 12.2457 7.57761C12.1157 7.72715 11.9399 7.82939 11.7456 7.86831Z" fill="white"/>
<path d="M7.12962 8.00432C7.10585 7.76152 7.17435 7.51867 7.32149 7.32408C7.67034 6.9229 8.07732 7.96363 7.63545 8.54504C7.38545 8.86481 7.12962 8.44038 7.12962 8.00432Z" fill="white"/>
</svg>
