<svg width="16" height="16" viewBox="0 0 16 16" fill="none" xmlns="http://www.w3.org/2000/svg">
<path d="M7.21782 4.63684C7.24643 3.98451 7.17776 3.39513 7.91592 3.32075C8.2282 3.29505 8.54207 3.29505 8.85435 3.32075C9.18624 3.32075 9.31212 3.48097 9.34646 3.80713C9.35503 3.92905 9.35503 4.05142 9.34646 4.17335C9.31953 4.29895 9.33566 4.42996 9.39223 4.54528C9.68503 4.57851 9.98064 4.57851 10.2734 4.54528C10.3822 3.76707 10.3192 3.26925 10.4623 2.55398C10.6053 1.83871 11.0917 2.03899 12.7511 2.09049C13.2375 2.09049 14.3762 1.83299 14.3648 3.02319C14.3648 3.42947 14.3648 3.72702 14.2847 5.04311C14.6056 5.32041 14.81 5.70874 14.8569 6.13032C14.9845 6.60353 15.0271 7.09563 14.9828 7.58374C14.7482 10.2503 14.7539 11.017 14.7195 11.4576C14.6223 12.5219 13.7239 12.6021 12.9571 12.7623C12.7966 12.7917 12.6339 12.807 12.4707 12.8081C11.7629 12.8376 11.054 12.8242 10.3478 12.768C9.54101 12.6764 9.38651 12.768 7.29221 12.5162C6.96759 12.5013 6.65998 12.3667 6.42862 12.1385C6.19725 11.9103 6.05849 11.6046 6.03906 11.2802C5.999 11.0456 6.00473 10.9655 5.93606 10.2216C5.71441 10.2042 5.49471 10.274 5.32379 10.4162C5.04906 10.6243 4.84846 10.9152 4.75158 11.2459C4.70886 11.5827 4.58148 11.9031 4.38135 12.1773C4.18121 12.4515 3.91486 12.6704 3.60715 12.8138C3.50934 12.8447 3.42011 12.8981 3.34659 12.9696C3.27307 13.0411 3.2173 13.1288 3.18371 13.2258C3.14938 13.323 3.09788 13.4203 3.0521 13.5176C2.98429 13.644 2.88923 13.7537 2.77379 13.8387C2.65836 13.9238 2.52545 13.9822 2.38469 14.0096C2.24392 14.0369 2.09883 14.0327 1.95992 13.9971C1.821 13.9615 1.69175 13.8954 1.58151 13.8037L1.3984 13.6435C1.21204 13.4803 1.08879 13.257 1.0501 13.0123C1.01142 12.7677 1.05975 12.5172 1.18668 12.3045C1.43094 11.826 1.80856 11.4285 2.27389 11.1601C2.70305 10.9083 2.8461 10.9369 3.09216 10.2102C3.22876 9.82051 3.48514 9.48402 3.82459 9.24888C4.83741 8.49356 5.18074 8.81972 5.91317 8.28184C5.96281 8.24613 6.00288 8.19872 6.02983 8.14383C6.05678 8.08893 6.06977 8.02824 6.06767 7.96712C6.06767 7.42352 6.17067 6.38781 6.22789 5.84993C6.24814 5.71562 6.2807 5.58345 6.32517 5.4551C6.52544 4.92867 6.84016 4.8085 7.21782 4.63684ZM10.3078 5.11178C7.92164 5.11178 7.83581 5.07172 7.38948 5.18044C7.22 5.21277 7.06653 5.30173 6.95424 5.43273C6.84196 5.56373 6.77752 5.729 6.77149 5.90143C6.74288 6.21043 6.72572 6.52515 6.70855 6.83986C6.50255 11.286 6.32517 11.8696 7.58976 11.9898C8.07614 12.0413 8.56252 12.11 9.05463 12.1386C10.4108 12.2187 12.4593 12.4247 13.6323 12.0585C13.7887 12.0288 13.9304 11.947 14.0344 11.8265C14.1383 11.7059 14.1983 11.5537 14.2046 11.3947C14.4048 8.40773 14.3934 8.42489 14.462 7.81263C14.5173 7.19429 14.4552 6.57108 14.2789 5.97582C14.0729 5.14611 13.2718 5.24911 10.3078 5.1175V5.11178ZM10.8399 4.57962L13.0258 4.68262C13.2661 4.68262 13.495 4.78561 13.7468 4.77989C13.7926 4.57962 13.7811 4.90578 13.8498 2.97742C13.8498 2.83436 13.804 2.67987 13.6609 2.65698C13.5179 2.63409 11.7154 2.58259 11.4236 2.57687C11.2848 2.55338 11.1422 2.5819 11.023 2.65698C10.9046 3.291 10.8453 3.93463 10.8457 4.57962H10.8399ZM2.62294 11.6179C2.81665 11.8982 3.05431 12.1456 3.32676 12.3503C3.47681 12.3154 3.6162 12.2447 3.73304 12.1443C3.50833 11.8833 3.26549 11.6386 3.00632 11.4119L2.62294 11.6179ZM5.22079 9.20311C5.29467 9.39491 5.4033 9.57144 5.54123 9.72382L6.06195 9.59793L6.02761 8.917L5.22079 9.20311ZM2.71449 12.8996C2.87471 12.7394 2.89188 12.6936 2.81177 12.6021L2.18234 11.9326L1.96489 12.1901C2.17978 12.461 2.43219 12.6999 2.71449 12.8996ZM1.72456 12.6879C1.42129 12.7852 1.81612 13.426 2.15945 13.489C2.26646 13.4842 2.37233 13.465 2.47416 13.4318L1.72456 12.6879ZM4.2137 11.4119C3.96764 11.183 3.79026 10.9312 3.52132 10.7252L3.38398 11.0742L4.07064 11.6922L4.2137 11.4119ZM3.97909 9.88976C3.87933 9.96521 3.79892 10.0633 3.74448 10.1759C3.92647 10.4201 4.13573 10.6428 4.36819 10.8396L4.53413 10.5135L3.97909 9.88976ZM7.98459 3.89296C7.87014 3.84146 7.77859 3.89296 7.74426 3.97307C7.67262 4.15521 7.65864 4.35494 7.7042 4.54528L8.0132 4.49951C8.03036 4.30495 8.07614 4.09324 8.03036 3.89296H7.98459ZM4.85458 10.09C4.96902 10.0443 5.03768 10.0042 5.00907 9.9241C4.9421 9.73574 4.84761 9.55834 4.72869 9.39766C4.66323 9.40311 4.60018 9.4248 4.54522 9.46077C4.49027 9.49674 4.44516 9.54585 4.41397 9.60366L4.85458 10.09ZM8.5568 3.83574C8.51367 4.03755 8.51367 4.2462 8.5568 4.44801C8.5568 4.53956 8.64836 4.56817 8.76852 4.50523C8.76852 4.33929 8.76852 4.15046 8.76852 3.96735C8.76852 3.78424 8.72274 3.81285 8.5568 3.83574Z" fill="#231C17"/>
<path d="M10.3077 5.118C13.2603 5.25533 14.0729 5.15233 14.3132 5.98204C14.4897 6.58314 14.5499 7.21237 14.4906 7.83602C14.4219 8.46545 14.4276 8.51695 14.2331 11.4181C14.2268 11.5771 14.1668 11.7293 14.0629 11.8499C13.959 11.9704 13.8173 12.0522 13.6609 12.0818C12.4649 12.4481 10.405 12.2421 9.08317 12.162C8.59106 12.162 8.10468 12.0647 7.6183 12.0132C6.33654 11.8701 6.53681 11.2464 6.73709 6.86325C6.73709 6.54853 6.77142 6.23382 6.80003 5.92482C6.80061 5.74923 6.86188 5.57924 6.97347 5.44366C7.08506 5.30809 7.2401 5.21527 7.4123 5.18094C7.85291 5.0665 7.98451 5.118 10.3077 5.118ZM12.9456 8.83739C12.9621 8.49924 12.9119 8.16115 12.7978 7.84241C12.6836 7.52368 12.5079 7.23054 12.2804 6.97975C12.053 6.72895 11.7784 6.5254 11.4723 6.38072C11.1663 6.23605 10.8347 6.15307 10.4965 6.13654C10.1584 6.12001 9.82029 6.17024 9.50156 6.28437C9.18282 6.3985 8.88969 6.5743 8.63889 6.80171C8.38809 7.02913 8.18454 7.30372 8.03987 7.6098C7.89519 7.91589 7.81222 8.24747 7.79568 8.58562C7.7819 8.92401 7.83516 9.26179 7.95239 9.57952C8.06962 9.89725 8.24852 10.1887 8.47878 10.437C8.70905 10.6854 8.98614 10.8857 9.29412 11.0266C9.60211 11.1675 9.9349 11.2461 10.2734 11.2579C10.6083 11.2748 10.9433 11.2254 11.2591 11.1125C11.5749 10.9996 11.8653 10.8254 12.1136 10.6C12.3619 10.3746 12.5632 10.1023 12.706 9.79883C12.8488 9.49537 12.9302 9.16669 12.9456 8.83167V8.83739ZM13.4034 6.90331C13.515 6.92172 13.6295 6.90885 13.7343 6.86612C13.839 6.8234 13.9299 6.75249 13.9968 6.66126C14.0637 6.57004 14.104 6.46206 14.1132 6.34932C14.1225 6.23658 14.1003 6.12347 14.0492 6.02255C13.9981 5.92164 13.92 5.83685 13.8237 5.77761C13.7273 5.71837 13.6164 5.68698 13.5033 5.68693C13.3902 5.68689 13.2792 5.71818 13.1828 5.77734C13.0864 5.83651 13.0083 5.92122 12.9571 6.0221C12.8934 6.08493 12.8501 6.16544 12.8327 6.25319C12.8154 6.34094 12.8248 6.43187 12.8598 6.5142C12.9072 6.62136 12.9828 6.71363 13.0785 6.78116C13.1742 6.84869 13.2865 6.88893 13.4034 6.89759V6.90331ZM12.259 6.33109C12.3324 6.33317 12.404 6.30802 12.46 6.26048C12.5159 6.21295 12.5524 6.14638 12.5622 6.0736C12.5638 6.00568 12.5391 5.93977 12.4933 5.88964C12.4474 5.83952 12.384 5.80907 12.3162 5.80466C12.2418 5.80113 12.1688 5.82562 12.1116 5.87329C12.0544 5.92096 12.0171 5.98835 12.0072 6.06215C12.0069 6.13272 12.0333 6.20077 12.081 6.25274C12.1288 6.30471 12.1943 6.33678 12.2647 6.34254L12.259 6.33109Z" fill="#FAFAF9"/>
<path d="M10.8457 4.57913C10.8472 3.93396 10.9085 3.29033 11.0288 2.65649C11.1479 2.58141 11.2905 2.55289 11.4294 2.57638C11.6869 2.57638 13.5065 2.62788 13.6667 2.65649C13.8269 2.6851 13.8613 2.83387 13.8555 2.97693C13.7869 4.90529 13.7983 4.5734 13.7526 4.7794C13.5008 4.7794 13.2719 4.69929 13.0316 4.68212L10.8457 4.57913ZM12.1732 4.44752C12.5555 4.46979 12.939 4.45253 13.3177 4.39602C13.392 4.38387 13.4603 4.34759 13.512 4.29278C13.5637 4.23798 13.596 4.16768 13.6038 4.09274C13.6439 3.86369 13.6439 3.62942 13.6038 3.40037C13.5929 3.2973 13.5473 3.201 13.4745 3.1272C13.4018 3.0534 13.3061 3.00647 13.2032 2.99409C12.6662 2.90641 12.1209 2.88145 11.5781 2.91971C11.5095 2.91971 11.4465 2.94832 11.3779 2.95976C11.3156 2.96671 11.258 2.99611 11.2159 3.04246C11.1738 3.0888 11.15 3.14891 11.149 3.21153C11.0403 4.54479 11.0231 4.39602 12.1675 4.44752H12.1732Z" fill="#F0EFEF"/>
<path d="M2.62305 11.6181L3.00643 11.4121C3.2656 11.6389 3.50844 11.8836 3.73314 12.1445C3.6163 12.245 3.47692 12.3156 3.32687 12.3505C3.05442 12.1458 2.81676 11.8985 2.62305 11.6181Z" fill="#E5E4E3"/>
<path d="M5.2207 9.20115L6.02752 8.91504L6.06186 9.59597L5.54114 9.72186C5.40321 9.56948 5.29458 9.39295 5.2207 9.20115Z" fill="#F0EFEF"/>
<path d="M2.71444 12.8997C2.43214 12.7 2.17973 12.461 1.96484 12.1901L2.18229 11.9326L2.83461 12.6021C2.89183 12.6937 2.87466 12.7394 2.71444 12.8997Z" fill="#E5E4E3"/>
<path d="M1.72351 12.6875L2.47311 13.4314C2.37127 13.4646 2.2654 13.4838 2.15839 13.4886C1.81506 13.4257 1.42024 12.7848 1.72351 12.6875Z" fill="#E5E4E3"/>
<path d="M4.21307 11.4115L4.07002 11.6919L3.40625 11.0854L3.54358 10.7363C3.78963 10.9423 3.97846 11.1941 4.21307 11.4115Z" fill="#E5E4E3"/>
<path d="M3.97971 9.88867L4.55192 10.5009L4.38598 10.8271C4.16218 10.6326 3.96067 10.4138 3.78516 10.1748C3.82806 10.0662 3.89451 9.96849 3.97971 9.88867Z" fill="#F0EFEF"/>
<path d="M8.02929 3.89245C8.07507 4.09273 8.02929 4.30444 8.05791 4.52189L7.74891 4.56766C7.70335 4.37732 7.71733 4.17759 7.78896 3.99545C7.8233 3.86956 7.91485 3.84095 8.02929 3.89245Z" fill="#E5E4E3"/>
<path d="M4.85467 10.0908L4.41406 9.60443C4.44525 9.54663 4.49036 9.49752 4.54531 9.46155C4.60027 9.42558 4.66333 9.40389 4.72878 9.39844C4.84771 9.55912 4.94219 9.73652 5.00916 9.92487C5.03778 10.005 4.96911 10.045 4.85467 10.0908Z" fill="#E5E4E3"/>
<path d="M8.55678 3.83594C8.71128 3.83594 8.79711 3.83594 8.79711 3.96755C8.79711 4.09916 8.79711 4.33949 8.79711 4.50543C8.67695 4.56837 8.60828 4.53976 8.58539 4.44821C8.53279 4.24842 8.52304 4.03976 8.55678 3.83594Z" fill="#E5E4E3"/>
<path d="M12.9463 8.82979C12.9309 9.16481 12.8495 9.49349 12.7067 9.79695C12.5639 10.1004 12.3626 10.3727 12.1143 10.5981C11.866 10.8236 11.5756 10.9977 11.2598 11.1106C10.944 11.2235 10.609 11.2729 10.2741 11.256C9.93593 11.2383 9.60457 11.1542 9.29892 11.0085C8.99327 10.8628 8.71931 10.6583 8.49269 10.4067C8.03501 9.89859 7.79793 9.22947 7.83359 8.54654C7.85125 8.2084 7.93534 7.87704 8.08106 7.57138C8.22678 7.26573 8.43127 6.99178 8.68286 6.76516C9.19098 6.30747 9.8601 6.07039 10.543 6.10605C10.8815 6.12188 11.2133 6.20555 11.5188 6.35209C11.8242 6.49863 12.0972 6.70506 12.3213 6.95911C12.5455 7.21316 12.7163 7.50967 12.8237 7.83102C12.9311 8.15237 12.9728 8.49201 12.9463 8.82979ZM10.5316 6.67827C10.1334 6.65107 9.73616 6.74242 9.38988 6.94079C9.04361 7.13916 8.76385 7.43566 8.58592 7.79286C8.40798 8.15007 8.33985 8.55198 8.3901 8.94787C8.44036 9.34376 8.60676 9.7159 8.86831 10.0173C9.12985 10.3187 9.47482 10.5359 9.85968 10.6415C10.2445 10.747 10.652 10.7362 11.0308 10.6104C11.4095 10.4846 11.7424 10.2494 11.9876 9.93453C12.2328 9.61967 12.3793 9.23924 12.4084 8.84123C12.4279 8.57584 12.3947 8.30921 12.3108 8.05667C12.2269 7.80413 12.094 7.57065 11.9196 7.36966C11.7452 7.16867 11.5328 7.00412 11.2946 6.88547C11.0564 6.76681 10.7971 6.6964 10.5316 6.67827Z" fill="#241D18"/>
<path d="M13.4033 6.89606C13.2859 6.88689 13.1731 6.84579 13.0773 6.77721C12.9815 6.70864 12.9063 6.61519 12.8597 6.50696C12.8248 6.42463 12.8153 6.33369 12.8327 6.24595C12.85 6.1582 12.8933 6.07769 12.957 6.01485C13.0082 5.91398 13.0863 5.82926 13.1828 5.7701C13.2792 5.71093 13.3901 5.67964 13.5032 5.67969C13.6164 5.67973 13.7273 5.71112 13.8236 5.77036C13.92 5.82961 13.9981 5.91439 14.0492 6.01531C14.1003 6.11622 14.1225 6.22933 14.1132 6.34207C14.1039 6.45482 14.0636 6.56279 13.9967 6.65402C13.9298 6.74524 13.839 6.81615 13.7342 6.85888C13.6295 6.9016 13.5149 6.91447 13.4033 6.89606Z" fill="#241D18"/>
<path d="M12.2654 6.3422C12.1981 6.33533 12.1355 6.30432 12.0892 6.25488C12.0429 6.20545 12.0161 6.14094 12.0137 6.07326C12.0236 5.99946 12.0609 5.93207 12.1181 5.8844C12.1753 5.83672 12.2483 5.81223 12.3227 5.81576C12.3905 5.82018 12.4539 5.85063 12.4998 5.90075C12.5456 5.95088 12.5703 6.01679 12.5687 6.08471C12.5589 6.15749 12.5224 6.22405 12.4664 6.27159C12.4105 6.31913 12.3389 6.34428 12.2654 6.3422Z" fill="#332D28"/>
<path d="M11.5154 4.41794C11.2235 4.41794 11.1034 4.29778 11.0976 4.02312C11.0919 3.74845 11.0976 3.47951 11.132 3.21057C11.133 3.14795 11.1568 3.08784 11.1989 3.04149C11.241 2.99515 11.2986 2.96575 11.3609 2.9588C11.4295 2.9588 11.4925 2.92447 11.5611 2.91874C12.1039 2.88049 12.6492 2.90545 13.1862 2.99313C13.2891 3.00551 13.3848 3.05244 13.4575 3.12624C13.5303 3.20004 13.5759 3.29634 13.5868 3.3994C13.6268 3.62846 13.6268 3.86273 13.5868 4.09178C13.5467 4.34928 13.3235 4.42367 13.0603 4.42939C12.5456 4.45831 12.0296 4.45449 11.5154 4.41794ZM11.6012 3.84573C12.0882 3.92498 12.5848 3.92498 13.0718 3.84573V3.54246C12.6031 3.4292 12.1162 3.41362 11.6412 3.49668L11.6012 3.84573Z" fill="#251E19"/>
<path d="M10.5315 6.6801C10.9301 6.70828 11.3113 6.85403 11.627 7.09892C11.9428 7.3438 12.1788 7.67682 12.3052 8.05584C12.4316 8.43487 12.4428 8.84288 12.3373 9.22826C12.2318 9.61364 12.0144 9.95908 11.7126 10.2209C11.4107 10.4827 11.038 10.6491 10.6416 10.6991C10.2452 10.749 9.84287 10.6803 9.48551 10.5016C9.12816 10.3228 8.83184 10.0421 8.63404 9.69497C8.43623 9.34781 8.34583 8.94979 8.37426 8.55124C8.3909 8.28597 8.46017 8.02666 8.57804 7.78843C8.69591 7.5502 8.86002 7.33781 9.06081 7.16365C9.2616 6.98949 9.49505 6.85704 9.74755 6.77402C10 6.69101 10.2665 6.65908 10.5315 6.6801ZM8.81487 8.60274C8.80329 8.81486 8.83463 9.02713 8.90701 9.22686C8.97938 9.42658 9.09131 9.60965 9.23608 9.76511C9.38086 9.92057 9.55551 10.0452 9.74958 10.1316C9.94366 10.218 10.1532 10.2644 10.3656 10.2679C10.5771 10.2771 10.7884 10.2441 10.9871 10.1708C11.1858 10.0976 11.3679 9.98554 11.5229 9.84123C11.6778 9.69691 11.8025 9.52321 11.8897 9.33023C11.9769 9.13726 12.0248 8.92886 12.0307 8.71719C12.0382 8.50603 12.0041 8.29546 11.9302 8.09751C11.8563 7.89955 11.7442 7.71808 11.6002 7.56345C11.4562 7.40883 11.2832 7.28408 11.091 7.19634C10.8988 7.10859 10.6912 7.05956 10.48 7.05204C10.0536 7.03687 9.63855 7.19172 9.32628 7.48253C9.014 7.77334 8.83004 8.1763 8.81487 8.60274Z" fill="#F0EFEF"/>
<path d="M11.6016 3.86322V3.50272C12.0765 3.41966 12.5634 3.43524 13.0321 3.5485V3.85177C12.5589 3.93159 12.076 3.93545 11.6016 3.86322Z" fill="#FF0303"/>
<path d="M8.81485 8.60245C8.82635 8.28473 8.93179 7.97755 9.11784 7.71974C9.30388 7.46193 9.56218 7.26506 9.86009 7.15401C10.158 7.04296 10.4821 7.02272 10.7915 7.09584C11.1009 7.16897 11.3817 7.33218 11.5984 7.56484C11.8151 7.7975 11.9579 8.08918 12.0089 8.403C12.0598 8.71682 12.0166 9.0387 11.8846 9.32796C11.7527 9.61722 11.5379 9.86087 11.2676 10.0281C10.9972 10.1954 10.6833 10.2787 10.3655 10.2676C10.1531 10.2641 9.94363 10.2177 9.74956 10.1313C9.55549 10.0449 9.38083 9.92028 9.23606 9.76482C9.09128 9.60936 8.97936 9.42629 8.90698 9.22657C8.83461 9.02684 8.80327 8.81457 8.81485 8.60245ZM10.377 9.69538C10.5812 9.69738 10.7815 9.63929 10.9529 9.52835C11.1244 9.41741 11.2594 9.25851 11.3413 9.07142C11.4231 8.88433 11.4482 8.6773 11.4133 8.47609C11.3784 8.27488 11.2851 8.08836 11.1451 7.93975C11.005 7.79113 10.8243 7.68697 10.6256 7.64023C10.4268 7.59348 10.2186 7.60621 10.027 7.67683C9.83539 7.74745 9.66877 7.87285 9.54787 8.03743C9.42696 8.202 9.35711 8.39849 9.347 8.60245C9.34166 8.74215 9.36418 8.88151 9.41326 9.0124C9.46234 9.1433 9.537 9.26311 9.63288 9.36484C9.72875 9.46658 9.84393 9.5482 9.97169 9.60495C10.0994 9.66171 10.2372 9.69245 10.377 9.69538Z" fill="#251E19"/>
<path d="M10.3766 9.6958C10.1726 9.68222 9.97719 9.60894 9.8146 9.48507C9.65202 9.36121 9.52948 9.19224 9.46225 8.99922C9.39502 8.8062 9.38607 8.59766 9.43652 8.39959C9.48698 8.20153 9.5946 8.02268 9.74598 7.88535C9.89736 7.74802 10.0858 7.65826 10.2878 7.62727C10.4899 7.59629 10.6965 7.62543 10.8821 7.71108C11.0677 7.79673 11.224 7.93509 11.3315 8.10893C11.439 8.28277 11.493 8.4844 11.4867 8.6887C11.4801 8.82777 11.4461 8.96417 11.3867 9.0901C11.3273 9.21602 11.2437 9.32899 11.1405 9.42254C11.0374 9.51609 10.9169 9.58838 10.7858 9.63527C10.6547 9.68216 10.5156 9.70272 10.3766 9.6958Z" fill="#FF0303"/>
</svg>
