<svg width="16" height="16" viewBox="0 0 16 16" fill="none" xmlns="http://www.w3.org/2000/svg">
<path d="M9.32482 10.1565C8.39311 10.6849 7.30666 10.8729 6.25156 10.6883C6.15706 10.6624 6.05772 10.6596 5.9619 10.6801C5.86607 10.7005 5.77657 10.7437 5.70091 10.806C4.54315 11.6531 4.11957 12.3591 3.79013 12.5756C3.7556 12.5979 3.71585 12.6107 3.67483 12.6128C3.63381 12.6149 3.59294 12.6063 3.5563 12.5877C3.51965 12.5692 3.4885 12.5413 3.46595 12.507C3.44339 12.4727 3.43022 12.433 3.42773 12.392C3.5682 11.4032 3.78855 10.4274 4.08663 9.47409C4.21841 9.13053 3.95485 9.1823 3.74306 8.31162C3.33831 6.65027 4.27959 4.93244 5.78092 3.9441C9.12245 1.71328 13.1135 4.41474 11.711 7.66214C11.1903 8.71866 10.3572 9.58948 9.32482 10.1565ZM4.61845 9.28584C4.33748 10.0422 4.12331 10.8217 3.97838 11.6155C3.97576 11.6247 3.97576 11.6345 3.97838 11.6437C3.97838 11.6437 3.97838 11.6437 4.02074 11.672C4.30312 11.4037 4.57609 11.1166 4.882 10.8672C5.1681 10.5807 5.4836 10.3251 5.82328 10.1047L6.01624 10.18C6.55099 10.3342 7.11607 10.3504 7.65877 10.2271C8.33771 10.0952 8.98172 9.8232 9.54975 9.42858C10.1178 9.03396 10.5974 8.52533 10.9579 7.93511C11.1254 7.66604 11.2493 7.37218 11.325 7.06443C11.4677 6.59407 11.4639 6.09146 11.3143 5.62327C11.1647 5.15509 10.8763 4.74345 10.4873 4.44297C8.52474 2.80986 5.07026 4.08058 4.25606 6.70674C4.12099 7.1373 4.08469 7.59276 4.14988 8.03927C4.21506 8.48578 4.38005 8.91186 4.63257 9.28584H4.61845Z" fill="black"/>
<path d="M4.63297 9.28654C4.38232 8.91162 4.21992 8.48477 4.15797 8.03806C4.09601 7.59135 4.13613 7.13642 4.27529 6.70744C5.08949 4.08128 8.54868 2.81056 10.5065 4.44367C10.8938 4.74533 11.1804 5.15749 11.3283 5.6256C11.4762 6.09371 11.4785 6.59569 11.3349 7.06512C11.2562 7.37344 11.1291 7.66732 10.9583 7.9358C10.6014 8.52241 10.1269 9.02885 9.56485 9.42328C9.00276 9.81772 8.36516 10.0916 7.69211 10.2278C7.14942 10.3511 6.58433 10.3349 6.04959 10.1807L5.85663 10.1054C5.51695 10.3258 5.20144 10.5814 4.91535 10.8679C4.60944 11.1173 4.33647 11.4044 4.05409 11.6727C4.03055 11.6727 4.01643 11.6727 4.01173 11.6444C4.00911 11.6352 4.00911 11.6254 4.01173 11.6162C4.15053 10.823 4.35841 10.0435 4.63297 9.28654ZM7.4568 6.46271C7.37045 6.43953 7.28227 6.42379 7.19324 6.41565C7.073 6.39919 6.95108 6.39919 6.83085 6.41565C6.71175 6.43001 6.59943 6.47882 6.50765 6.55607C6.41587 6.63333 6.34863 6.73568 6.31416 6.85058C6.27969 6.96549 6.27949 7.08795 6.31358 7.20297C6.34768 7.31799 6.41459 7.42056 6.50611 7.49811C6.81774 7.85346 7.21686 8.12117 7.66388 8.27466C7.79746 8.32704 7.94441 8.33471 8.08272 8.29653C8.22102 8.25835 8.34323 8.17637 8.43102 8.06288C8.77975 7.66698 8.96778 7.15494 8.95813 6.62743C8.95001 6.46759 8.92155 6.30944 8.87342 6.15679C8.8522 6.04326 8.80065 5.93758 8.72425 5.85096C8.64784 5.76434 8.54942 5.70001 8.43942 5.66479C8.32941 5.62957 8.21193 5.62477 8.09942 5.65091C7.98692 5.67704 7.88358 5.73313 7.80036 5.81323C7.70787 5.92769 7.6289 6.05245 7.56504 6.18503C7.51974 6.27874 7.47891 6.37455 7.44268 6.47212L7.4568 6.46271Z" fill="white"/>
<path d="M7.44208 6.4717C7.52056 6.22509 7.64161 5.99412 7.79976 5.78927C7.88298 5.70917 7.98632 5.65308 8.09883 5.62695C8.21133 5.60082 8.32881 5.60561 8.43882 5.64083C8.54882 5.67605 8.64724 5.74038 8.72365 5.827C8.80005 5.91362 8.8516 6.0193 8.87282 6.13284C8.92095 6.28548 8.94941 6.44363 8.95753 6.60347C8.97314 7.13904 8.78473 7.66054 8.43042 8.06245C8.34387 8.17758 8.22222 8.26142 8.08383 8.30132C7.94545 8.34123 7.79783 8.33502 7.66328 8.28365C7.21064 8.13103 6.80636 7.86151 6.49139 7.50239C6.39987 7.42484 6.33296 7.32227 6.29886 7.20725C6.26477 7.09223 6.26497 6.96977 6.29944 6.85486C6.33391 6.73996 6.40116 6.63761 6.49293 6.56035C6.58471 6.4831 6.69703 6.43429 6.81613 6.41993C6.93637 6.40347 7.05828 6.40347 7.17852 6.41993C7.26769 6.42961 7.35587 6.44693 7.44208 6.4717Z" fill="#FF0303"/>
</svg>
