<svg width="16" height="16" viewBox="0 0 16 16" fill="none" xmlns="http://www.w3.org/2000/svg">
<path d="M6.45442 5.10007C6.17009 4.97959 5.93396 4.91694 5.85685 4.61815C5.82907 4.52176 5.80813 4.42352 5.7942 4.32418C5.76528 3.91455 5.73637 3.50492 5.72191 3.09048C5.71382 2.95088 5.74639 2.81193 5.81567 2.69047C5.88496 2.569 5.98798 2.47024 6.11226 2.40616C6.27683 2.31176 6.45358 2.24042 6.63755 2.19411C7.43837 1.99649 8.27523 1.99649 9.07605 2.19411C9.42368 2.24571 9.74062 2.42217 9.9676 2.69049C10.0375 2.77583 10.081 2.87964 10.0929 2.98927C10.1387 3.42018 10.1387 3.85472 10.0929 4.28563C10.0928 4.41421 10.0554 4.54 9.98525 4.64777C9.91511 4.75554 9.81524 4.84067 9.69772 4.89284C9.65691 4.91203 9.62096 4.9402 9.59259 4.97526C9.56421 5.01031 9.54414 5.05133 9.53387 5.09525C9.42257 5.36306 9.36054 5.64875 9.35074 5.9386C9.32583 6.42853 9.43762 6.91574 9.67363 7.3458C9.83266 7.62531 9.98205 7.91446 10.1555 8.18915C10.5702 8.86253 10.8364 9.61666 10.9362 10.4011C11.1001 11.6011 11.0037 12.7047 9.97241 13.3601C9.48086 13.7016 8.90982 13.911 8.31406 13.9684C7.71829 14.0258 7.11778 13.9292 6.57008 13.6878C6.16351 13.5271 5.80739 13.2604 5.53874 12.9155C5.27009 12.5705 5.09871 12.16 5.04241 11.7264C4.92416 11.1238 4.96569 10.5008 5.16289 9.91923C5.33584 9.3214 5.59737 8.75286 5.93877 8.23252C6.56045 7.3217 6.56045 6.25185 6.45442 5.10007ZM6.93634 5.15308C6.93634 5.25428 6.93634 5.30729 6.93634 5.36512C6.93634 5.68801 6.93634 6.00607 6.93634 6.32895C6.94949 7.09144 6.7292 7.83973 6.30503 8.47348C6.00384 8.94651 5.76569 9.45683 5.59661 9.99152C5.44089 10.4682 5.39154 10.9732 5.45204 11.471C5.47817 11.9102 5.63877 12.3308 5.91205 12.6756C6.18534 13.0205 6.55808 13.2729 6.97971 13.3987C7.41785 13.5502 7.88446 13.6011 8.34496 13.5477C8.80546 13.4943 9.24804 13.338 9.63989 13.0902C9.88752 12.9496 10.0988 12.7531 10.257 12.5163C10.4151 12.2795 10.5157 12.009 10.5507 11.7264C10.5989 11.3843 10.5989 11.0372 10.5507 10.6951C10.382 9.10961 9.89049 8.72408 9.24472 7.45664C8.91364 6.80572 8.83801 6.05451 9.03268 5.35066C9.03268 5.28802 9.08569 5.22537 9.03268 5.1579C8.69534 5.12416 8.35318 5.18681 8.01101 5.18681C7.66885 5.18681 7.29778 5.15308 6.9267 5.13862L6.93634 5.15308ZM6.25202 2.88325C6.29041 2.93204 6.33786 2.97295 6.39178 3.00373C6.53359 3.06809 6.68022 3.12126 6.83032 3.16276C7.42792 3.28952 8.04367 3.30586 8.64714 3.21096C9.33628 3.11457 9.43749 2.92663 9.50978 2.85916C9.40306 2.73403 9.25686 2.64904 9.09533 2.6182C8.24784 2.37913 7.34819 2.39927 6.51225 2.67603C6.45475 2.68308 6.39994 2.70441 6.3528 2.73808C6.30566 2.77175 6.2677 2.81669 6.24238 2.8688L6.25202 2.88325ZM7.86644 3.72661C7.83511 4.00202 7.83511 4.28009 7.86644 4.5555C7.8791 4.61844 7.89849 4.67983 7.92427 4.73863C8.05208 4.77558 8.18893 4.76532 8.3098 4.70972C8.3533 4.37719 8.33863 4.03964 8.26643 3.71215C8.13249 3.67448 7.99075 3.67448 7.8568 3.71215L7.86644 3.72661ZM6.19901 3.43746C6.18503 3.47951 6.17692 3.5233 6.17491 3.56757C6.17491 3.83263 6.21829 4.09286 6.25202 4.35792C6.25153 4.40255 6.26192 4.44663 6.2823 4.48634C6.30268 4.52605 6.33243 4.5602 6.36897 4.58583C6.40552 4.61146 6.44776 4.62779 6.49204 4.63343C6.53631 4.63906 6.5813 4.63382 6.62309 4.61815C6.65683 4.50249 6.66647 4.71935 6.58454 3.58203C6.47194 3.49027 6.33415 3.43482 6.18937 3.423L6.19901 3.43746ZM7.4279 4.71454C7.4773 4.38062 7.4773 4.04125 7.4279 3.70733C7.29363 3.65191 7.14289 3.65191 7.00863 3.70733C7.10019 4.74345 7.11465 4.62779 7.16766 4.70972C7.25083 4.72569 7.33656 4.7224 7.41826 4.70008L7.4279 4.71454ZM8.79654 4.71454C9.10496 4.71454 9.12424 4.6808 9.11942 4.4302C9.1146 4.17961 9.11942 4.01094 9.08569 3.80371C9.07482 3.73669 9.05871 3.67063 9.0375 3.60613L8.71943 3.66878C8.6992 4.00761 8.72187 4.34765 8.7869 4.6808L8.79654 4.71454ZM9.66881 3.37963C9.54351 3.40854 9.47122 3.45191 9.47604 3.54348C9.47604 3.83745 9.47604 4.13142 9.54351 4.42539C9.57724 4.42539 9.61098 4.42539 9.6158 4.42539C9.64445 4.36637 9.6624 4.30273 9.66881 4.23744C9.71749 3.94196 9.71423 3.64025 9.65917 3.34589L9.66881 3.37963Z" fill="black"/>
<path d="M6.92708 5.13699C7.29815 5.13699 7.64032 5.17073 7.98248 5.17073C8.32464 5.17073 8.6668 5.10808 9.00414 5.14181C9.06679 5.20928 9.02823 5.27193 9.00414 5.33458C8.80947 6.03843 8.8851 6.78964 9.21618 7.44055C9.86195 8.71281 10.3535 9.09353 10.5222 10.679C10.5704 11.0211 10.5704 11.3683 10.5222 11.7103C10.4872 11.9929 10.3866 12.2634 10.2284 12.5002C10.0703 12.737 9.85898 12.9336 9.61135 13.0742C9.21951 13.3219 8.77693 13.4782 8.31642 13.5316C7.85592 13.585 7.38931 13.5341 6.95117 13.3826C6.52954 13.2568 6.1568 13.0044 5.88352 12.6595C5.61023 12.3147 5.44963 11.8941 5.4235 11.4549C5.363 10.9571 5.41235 10.4521 5.56807 9.97543C5.7474 9.4443 5.99527 8.93884 6.30541 8.47185C6.72448 7.83644 6.93968 7.08829 6.92226 6.32732C6.92226 6.00444 6.92226 5.68638 6.92226 5.36349C6.91262 5.2912 6.92226 5.23819 6.92708 5.13699ZM7.94874 9.62845C7.7405 9.44092 7.48871 9.3084 7.21623 9.24292C6.69576 9.15136 6.30541 9.63327 6.62829 10.3851C6.8594 10.9281 7.16076 11.4385 7.52466 11.9031C7.61436 11.9744 7.72821 12.0083 7.84232 11.9975C7.95643 11.9867 8.06193 11.9321 8.13669 11.8453C8.47452 11.5227 8.78707 11.1747 9.07161 10.8043C9.24263 10.6234 9.3487 10.3908 9.37312 10.1431C9.39755 9.89534 9.33895 9.6465 9.20654 9.43569C9.13048 9.3218 9.01815 9.23698 8.8878 9.19499C8.75744 9.153 8.61672 9.1563 8.48849 9.20437C8.27069 9.28941 8.0829 9.43696 7.94874 9.62845Z" fill="white"/>
<path d="M6.24219 2.86818C6.26474 2.8146 6.30038 2.76755 6.34585 2.73135C6.39132 2.69514 6.44516 2.67093 6.50242 2.66095C7.33836 2.3842 8.23801 2.36406 9.08549 2.60312C9.24703 2.63396 9.39322 2.71896 9.49994 2.84408C9.42284 2.91637 9.32645 3.0995 8.63731 3.19588C8.03383 3.29078 7.41809 3.27445 6.82049 3.14769C6.67039 3.10619 6.52376 3.05302 6.38194 2.98866C6.32803 2.95787 6.28058 2.91696 6.24219 2.86818Z" fill="white"/>
<path d="M7.85635 3.71343C7.98727 3.67755 8.12543 3.67755 8.25634 3.71343C8.32854 4.04093 8.34322 4.37848 8.29972 4.711C8.17884 4.76661 8.042 4.77687 7.91418 4.73992C7.8884 4.68112 7.86902 4.61973 7.85635 4.55679C7.82392 4.27661 7.82392 3.99362 7.85635 3.71343Z" fill="white"/>
<path d="M6.19011 3.42188C6.32998 3.4314 6.464 3.48166 6.57564 3.56645C6.65757 4.70377 6.64793 4.48691 6.6142 4.60257C6.56714 4.62185 6.51541 4.62665 6.46561 4.61634C6.41581 4.60604 6.37023 4.58111 6.33469 4.54474C6.22866 4.42908 6.22866 4.32306 6.16602 3.55199C6.16803 3.50772 6.17613 3.46393 6.19011 3.42188Z" fill="white"/>
<path d="M7.41901 4.7002C7.32737 4.72409 7.23114 4.72409 7.1395 4.7002C7.08649 4.61346 7.07203 4.7243 6.98047 3.69782C7.11473 3.64239 7.26547 3.64239 7.39974 3.69782C7.45507 4.02921 7.46156 4.36693 7.41901 4.7002Z" fill="white"/>
<path d="M8.78592 4.68093C8.71643 4.34347 8.69051 3.9985 8.70881 3.65445L9.02687 3.5918C9.04809 3.6563 9.0642 3.72236 9.07507 3.78938C9.07507 3.99661 9.10398 4.20865 9.1088 4.41587C9.11362 4.6231 9.09434 4.66165 8.78592 4.68093Z" fill="white"/>
<path d="M9.65926 3.34668C9.7051 3.62431 9.7051 3.90758 9.65926 4.18521C9.65285 4.25051 9.6349 4.31414 9.60625 4.37316C9.60625 4.37316 9.5677 4.37316 9.53396 4.37316C9.49059 4.07919 9.48095 3.78522 9.46649 3.49125C9.45204 3.41897 9.53396 3.37559 9.65926 3.34668Z" fill="white"/>
<path d="M7.9472 9.63043C8.08136 9.43893 8.26915 9.29139 8.48695 9.20634C8.61383 9.16236 8.75172 9.16168 8.87903 9.20441C9.00634 9.24713 9.11589 9.33086 9.19055 9.44248C9.32657 9.65471 9.38722 9.90653 9.36275 10.1574C9.33827 10.4083 9.23009 10.6436 9.05561 10.8256C8.77493 11.1888 8.46724 11.5303 8.13515 11.8472C8.05741 11.9341 7.94858 11.9869 7.83223 11.9941C7.71587 12.0013 7.60136 11.9624 7.51348 11.8858C7.15309 11.4328 6.85487 10.9336 6.62675 10.4015C6.30387 9.65934 6.68458 9.16297 7.21469 9.25935C7.48577 9.32062 7.73744 9.44812 7.9472 9.63043Z" fill="#FF0303"/>
</svg>
