<svg width="16" height="16" viewBox="0 0 16 16" fill="none" xmlns="http://www.w3.org/2000/svg">
<path d="M8.52452 11.0108C8.56292 11.5644 8.66212 11.9708 8.26852 12.6108C8.20072 12.725 8.10059 12.8166 7.98078 12.8739C7.86097 12.9313 7.72685 12.9518 7.59536 12.933C7.46387 12.9141 7.34092 12.8568 7.24202 12.7681C7.14312 12.6794 7.07273 12.5634 7.03972 12.4348C6.95017 12.1507 6.97544 11.8428 7.11012 11.5772C7.46212 10.8572 7.99332 10.7644 8.07012 10.662C7.99477 10.4372 7.8811 10.2272 7.73412 10.0412C7.66372 10.0956 7.61252 10.1436 7.55492 10.1852C7.07172 10.5596 6.39972 10.8028 5.90372 10.4284C5.48132 10.1084 5.70212 9.60276 6.00932 9.38516C6.2184 9.22207 6.47441 9.13059 6.7395 9.12425C7.00459 9.11791 7.26468 9.19705 7.48132 9.34996C7.55492 9.39796 7.62212 9.45556 7.69252 9.50356C7.97609 9.15984 8.14405 8.73545 8.17252 8.29076C8.12132 8.23316 8.05412 8.25876 7.99652 8.25876C7.80293 8.26916 7.60902 8.24533 7.42372 8.18836C7.28706 8.14373 7.16269 8.06785 7.06048 7.96675C6.95827 7.86565 6.88104 7.74212 6.83492 7.60596C6.77673 7.45723 6.76516 7.29432 6.80174 7.13886C6.83832 6.9834 6.92132 6.84274 7.03972 6.73556C7.10183 6.6709 7.17636 6.61946 7.25885 6.58432C7.34133 6.54918 7.43006 6.53107 7.51972 6.53107C7.60937 6.53107 7.69811 6.54918 7.78059 6.58432C7.86307 6.61946 7.93761 6.6709 7.99972 6.73556C8.2309 6.94853 8.39259 7.22618 8.46372 7.53236C8.47688 7.5865 8.4929 7.63991 8.51172 7.69236C8.73011 7.48052 8.87289 7.20283 8.91812 6.90196C8.95173 6.66957 8.95173 6.43355 8.91812 6.20116C8.91223 6.15948 8.89818 6.11936 8.87676 6.08312C8.85534 6.04688 8.82699 6.01522 8.79332 5.98996C8.05092 5.26996 7.34692 5.28916 6.75492 4.84116C6.36744 4.55102 6.1099 4.11987 6.03812 3.64116C5.98216 3.40362 5.99859 3.15478 6.08527 2.92666C6.17196 2.69854 6.32494 2.50159 6.52452 2.36116C6.72941 2.19662 6.98956 2.11686 7.25147 2.13829C7.51337 2.15971 7.7571 2.2807 7.93252 2.47636C7.98052 2.53076 8.02532 2.58836 8.08292 2.65236C8.10852 2.57556 8.13092 2.51156 8.15652 2.44756C8.27861 2.13843 8.51782 1.89002 8.82212 1.75636C9.07674 1.67217 9.35434 1.69224 9.59421 1.81217C9.83408 1.93211 10.0167 2.14215 10.1021 2.39636C10.3073 2.99122 10.296 3.63943 10.0701 4.22676C9.98052 4.45716 9.86852 4.67796 9.75012 4.89876C9.51753 5.25421 9.33955 5.64253 9.22212 6.05076C9.17732 6.21716 9.33092 6.57876 9.22212 7.08436C9.14274 7.48208 8.92084 7.83712 8.59812 8.08276L8.52772 8.14036C8.49672 8.72451 8.2966 9.28706 7.95172 9.75956C8.14337 10.0201 8.29442 10.3082 8.39972 10.614C8.64538 10.6221 8.88685 10.6798 9.10958 10.7838C9.33232 10.8877 9.5317 11.0357 9.69572 11.2188C10.0777 11.7037 10.3851 12.243 10.6077 12.8188C10.6279 12.865 10.6429 12.9133 10.6525 12.9628C10.6586 12.9964 10.6545 13.0311 10.6408 13.0624C10.6271 13.0937 10.6045 13.1203 10.5757 13.1388C10.2909 13.3084 10.2973 12.5788 9.56132 11.59C9.35059 11.2932 9.03271 11.0901 8.67492 11.0236C8.6252 11.0154 8.57491 11.0111 8.52452 11.0108ZM8.95972 5.67636C8.98212 5.65716 9.00132 5.64756 9.00452 5.63476C9.1323 5.32044 9.28645 5.01749 9.46532 4.72916C9.66467 4.43042 9.80073 4.09403 9.86512 3.7407C9.92951 3.38738 9.92087 3.02461 9.83972 2.67476C9.80709 2.50143 9.71382 2.34538 9.57661 2.23456C9.43941 2.12375 9.26723 2.06539 9.09092 2.06996C8.92657 2.09514 8.77385 2.16993 8.65318 2.28431C8.53251 2.39869 8.44966 2.5472 8.41572 2.70996C8.33709 2.94024 8.31406 3.18587 8.34852 3.42676C8.38692 3.60276 8.09252 3.77236 8.01252 3.50356C8.01252 3.45556 7.97732 3.27316 7.94212 3.18356C7.90579 3.03444 7.83164 2.89721 7.72683 2.7851C7.62201 2.673 7.49006 2.58981 7.34372 2.54356C7.22079 2.51671 7.09327 2.51923 6.9715 2.55092C6.84973 2.58262 6.73716 2.64259 6.64292 2.72596C6.5216 2.81514 6.42745 2.93626 6.37094 3.07582C6.31444 3.21539 6.29781 3.3679 6.32292 3.51636C6.3494 3.80656 6.46069 4.08256 6.64292 4.30996C6.75883 4.45639 6.90372 4.57731 7.06852 4.66516C7.80452 5.03636 8.33252 5.15476 8.85732 5.62516C8.91172 5.64116 8.95972 5.65716 8.95972 5.67636ZM8.17892 11.0652C8.16081 11.0637 8.14262 11.0637 8.12452 11.0652C7.94754 11.1339 7.78755 11.2401 7.65553 11.3766C7.52351 11.513 7.42259 11.6764 7.35972 11.8556C7.30964 11.9944 7.30404 12.1454 7.34372 12.2876C7.35754 12.3646 7.3964 12.4348 7.45426 12.4875C7.51213 12.5402 7.58576 12.5722 7.66372 12.5788C7.74831 12.5882 7.83365 12.5695 7.90653 12.5255C7.97942 12.4815 8.03579 12.4148 8.06692 12.3356C8.27114 11.9437 8.31143 11.4867 8.17892 11.0652ZM8.17892 7.86516C8.19429 7.75669 8.17991 7.64609 8.13732 7.54516C8.0746 7.31773 7.93987 7.11676 7.75332 6.97236C7.70895 6.93532 7.65679 6.90878 7.60074 6.89471C7.54468 6.88063 7.48618 6.8794 7.42958 6.89109C7.37298 6.90278 7.31975 6.92709 7.27385 6.96222C7.22796 6.99734 7.19058 7.04238 7.16452 7.09396C7.1345 7.13607 7.11432 7.18439 7.10545 7.23534C7.09659 7.28629 7.09928 7.33858 7.11332 7.38836C7.12686 7.46579 7.15743 7.53925 7.2028 7.60344C7.24818 7.66763 7.30724 7.72095 7.37572 7.75956C7.49561 7.83023 7.6283 7.87651 7.76614 7.89573C7.90398 7.91496 8.04426 7.90674 8.17892 7.87156V7.86516ZM7.45572 9.78516C7.36447 9.68118 7.25076 9.59933 7.1232 9.54579C6.99564 9.49225 6.85757 9.46844 6.71944 9.47614C6.58132 9.48385 6.44675 9.52288 6.32594 9.59028C6.20513 9.65768 6.10123 9.75167 6.02212 9.86516C5.9994 9.90165 5.99139 9.94542 5.99971 9.98759C6.00802 10.0298 6.03205 10.0672 6.06692 10.0924C6.14254 10.1603 6.2343 10.2077 6.33345 10.2301C6.4326 10.2525 6.53583 10.2492 6.63332 10.2204C6.94268 10.1645 7.22872 10.0187 7.45572 9.80116V9.78516Z" fill="#241C16"/>
<path d="M8.9596 5.67723C8.58825 5.35643 8.16228 5.10497 7.702 4.93483C7.494 4.84523 7.286 4.74923 7.0812 4.64683C6.9164 4.55898 6.77151 4.43806 6.6556 4.29163C6.47336 4.06423 6.36207 3.78824 6.3356 3.49803C6.31049 3.34957 6.32712 3.19706 6.38362 3.0575C6.44012 2.91794 6.53428 2.79681 6.6556 2.70763C6.75018 2.62377 6.8633 2.56352 6.98567 2.53181C7.10804 2.50011 7.23618 2.49785 7.3596 2.52523C7.50594 2.57148 7.63789 2.65467 7.7427 2.76678C7.84752 2.87888 7.92167 3.01612 7.958 3.16523C7.9932 3.26443 8.0156 3.45003 8.0284 3.48523C8.1084 3.75403 8.4028 3.58123 8.3644 3.40843C8.32994 3.16754 8.35297 2.92192 8.4316 2.69163C8.4684 2.53182 8.55251 2.3868 8.67295 2.27549C8.79339 2.16418 8.94458 2.09175 9.1068 2.06763C9.28311 2.06307 9.45528 2.12142 9.59249 2.23224C9.72969 2.34306 9.82297 2.49911 9.8556 2.67243C9.96086 3.08732 9.95202 3.52295 9.83 3.93323C9.5996 4.66283 9.2796 4.96683 9.0172 5.63563C9.014 5.64843 8.9948 5.65803 8.9596 5.67723ZM9.6764 3.49483C9.69826 3.34114 9.67141 3.18446 9.5996 3.04683C9.478 2.87723 9.254 2.95723 9.318 3.21003C9.39173 3.36985 9.40203 3.55171 9.3468 3.71883C9.26166 4.10014 9.08108 4.45359 8.822 4.74603C8.80683 4.77665 8.80146 4.8112 8.80661 4.84497C8.81177 4.87875 8.82719 4.91013 8.8508 4.93483C8.9212 5.01483 9.0044 5.01483 9.0972 4.91883C9.45314 4.52683 9.66233 4.02364 9.6892 3.49483H9.6764ZM6.4988 3.47883C6.49163 3.6107 6.52274 3.74184 6.5884 3.85643C6.7068 4.05803 6.9468 3.96523 6.8796 3.71243C6.86288 3.67293 6.84898 3.6323 6.838 3.59083C6.80857 3.44579 6.83485 3.29498 6.9116 3.16843C6.93936 3.11531 6.98284 3.07206 7.03611 3.04457C7.08937 3.01708 7.14981 3.00669 7.2092 3.01483C7.2419 3.00492 7.27102 2.98569 7.29298 2.95951C7.31495 2.93332 7.32881 2.9013 7.33288 2.86737C7.33696 2.83344 7.33106 2.79905 7.31591 2.76841C7.30077 2.73777 7.27703 2.7122 7.2476 2.69483C7.17249 2.66056 7.08851 2.65078 7.00754 2.66686C6.92657 2.68294 6.85271 2.72407 6.7964 2.78443C6.70013 2.8716 6.62458 2.9792 6.5753 3.09936C6.52602 3.21951 6.50426 3.34917 6.5116 3.47883H6.4988Z" fill="#DA0100"/>
<path d="M9.68901 3.49397C9.65949 4.024 9.44685 4.52733 9.08741 4.91797C8.99461 5.01397 8.91141 5.01397 8.84101 4.93397C8.8174 4.90927 8.80198 4.8779 8.79682 4.84412C8.79167 4.81034 8.79704 4.77579 8.81221 4.74517C9.07049 4.45218 9.25095 4.09895 9.33701 3.71797C9.39348 3.54777 9.38319 3.36247 9.30821 3.19957C9.24421 2.94997 9.46821 2.87957 9.58981 3.03637C9.67137 3.17421 9.70617 3.33473 9.68901 3.49397Z" fill="#27110C"/>
<path d="M6.51133 3.47799C6.50351 3.3478 6.52504 3.21752 6.57433 3.09677C6.62363 2.97603 6.69943 2.8679 6.79613 2.78039C6.85245 2.72002 6.92631 2.67889 7.00728 2.66281C7.08825 2.64673 7.17223 2.65652 7.24733 2.69079C7.27677 2.70816 7.30051 2.73373 7.31565 2.76437C7.3308 2.79501 7.33669 2.82939 7.33262 2.86333C7.32855 2.89726 7.31468 2.92928 7.29272 2.95546C7.27076 2.98165 7.24164 3.00087 7.20893 3.01079C7.14955 3.00265 7.08911 3.01304 7.03584 3.04053C6.98258 3.06801 6.9391 3.11127 6.91133 3.16439C6.83896 3.29263 6.81727 3.44334 6.85053 3.58679C6.86151 3.62825 6.87542 3.66889 6.89213 3.70839C6.95933 3.96119 6.71933 4.05399 6.60093 3.85239C6.53588 3.73872 6.50479 3.60879 6.51133 3.47799Z" fill="#27110C"/>
</svg>
