<svg width="16" height="16" viewBox="0 0 16 16" fill="none" xmlns="http://www.w3.org/2000/svg">
<path d="M10.4204 11.2064C10.212 11.3934 9.98118 11.5538 9.73329 11.684C9.59615 11.7622 9.4416 11.8048 9.28376 11.8078C9.12592 11.8109 8.96983 11.7744 8.82974 11.7016C8.68965 11.6289 8.57003 11.5221 8.4818 11.3912C8.39358 11.2603 8.33957 11.1094 8.32471 10.9522C8.30753 10.8148 8.28692 10.6808 8.27661 10.5434C8.27704 9.98815 8.39409 9.43921 8.62017 8.9321C8.57551 8.90805 8.52054 8.9321 8.469 8.91492C8.36207 8.89814 8.26008 8.85828 8.17011 8.79811C7.95178 9.12952 7.62316 9.37294 7.24251 9.48522C7.05012 9.51958 6.85429 9.55737 6.65847 9.57798C6.23153 9.59826 5.80492 9.53164 5.40449 9.38216C5.00646 9.2679 4.61628 9.12789 4.23641 8.96302C4.18733 9.00107 4.1484 9.05063 4.12303 9.10731C3.96353 9.36659 3.73026 9.57234 3.4531 9.69823C3.33973 9.72915 3.36034 9.74632 3.00304 10.5296C2.93955 10.6545 2.88335 10.783 2.8347 10.9144C2.86219 10.9419 2.8828 10.9144 2.90341 10.9144C2.93395 10.9059 2.96491 10.899 2.99617 10.8938C3.19544 10.8938 3.20918 11.1515 3.07519 11.2923C2.91014 11.5304 2.70427 11.7375 2.4671 11.9038C2.43301 11.9269 2.39605 11.9454 2.35716 11.9588C2.34092 11.9646 2.32361 11.9667 2.30646 11.965C2.28931 11.9633 2.27276 11.9578 2.25798 11.9489C2.24321 11.94 2.23057 11.928 2.22099 11.9137C2.21141 11.8994 2.20512 11.8831 2.20256 11.8661C2.17508 11.8042 2.17508 11.2202 2.17508 11.1515C2.17628 11.0742 2.18433 10.9971 2.19913 10.9213C2.23692 10.7186 2.47397 10.6018 2.59421 10.7632C2.62513 10.8045 2.59421 10.7632 2.65262 10.8285C2.83768 10.478 3.00396 10.1179 3.15077 9.74976C3.01209 9.69499 2.8926 9.60059 2.80722 9.47835C2.53237 9.10044 2.82783 8.66069 3.24697 8.48891C3.28476 8.48891 3.33629 8.48891 3.37065 8.42364C3.16108 8.29996 3.33629 8.42364 2.55986 7.95297C2.34916 7.81746 2.16931 7.63916 2.032 7.42964C1.89468 7.22011 1.80297 6.98405 1.76281 6.73678C1.73531 6.53617 1.73531 6.33274 1.76281 6.13213C1.82122 5.41066 2.3606 4.9022 2.44992 4.61018C2.47397 4.50711 2.3606 4.51398 2.29876 4.49337C2.02391 4.40748 2.1579 4.02957 2.46366 3.90245C2.53546 3.88693 2.60984 3.88781 2.68125 3.90505C2.75266 3.92228 2.81926 3.95543 2.87607 4.002C2.93288 4.04857 2.97844 4.10737 3.00935 4.17401C3.04026 4.24065 3.05572 4.31341 3.05458 4.38687C3.05534 4.49243 3.0367 4.59723 2.99961 4.69607C2.58047 5.60305 2.02048 6.32108 2.51863 7.12844C2.64015 7.3292 2.79196 7.50998 2.96869 7.66438C3.20195 7.86823 3.45786 8.0446 3.73138 8.19002C3.73138 8.19002 3.7623 8.16254 3.76917 8.14192C3.92637 7.85016 4.06409 7.54832 4.18144 7.23837C4.08052 7.21745 3.98492 7.1762 3.90045 7.11714C3.81599 7.05807 3.74444 6.98243 3.69015 6.89482C3.62965 6.81771 3.58574 6.72893 3.56118 6.63405C3.53661 6.53917 3.53192 6.44023 3.54741 6.34345C3.56289 6.24667 3.59821 6.15414 3.65116 6.07166C3.7041 5.98918 3.77352 5.91853 3.85506 5.86415C3.9739 5.78349 4.11503 5.7421 4.25862 5.7458C4.4022 5.7495 4.54101 5.7981 4.65554 5.88477L4.74487 5.96722C4.78609 5.96722 4.78953 5.92256 4.79984 5.89507C5.09186 5.20796 5.07125 5.23201 5.09186 5.20796C5.10051 5.18655 5.11732 5.16945 5.13858 5.16043C5.15985 5.15141 5.18382 5.15121 5.20523 5.15986C5.22664 5.16852 5.24374 5.18533 5.25276 5.20659C5.26178 5.22785 5.26199 5.25183 5.25333 5.27324C5.25333 5.32134 5.0472 5.77483 4.90977 6.12869C5.01284 6.24893 5.53504 6.28673 5.84424 6.32108H5.91639C5.93357 6.17679 5.91639 5.55495 5.91639 5.54808C5.91666 5.4707 5.89877 5.39433 5.86416 5.32512C5.82956 5.2559 5.7792 5.19577 5.71713 5.14956C5.61284 5.17578 5.50408 5.17891 5.39846 5.15873C5.29283 5.13856 5.19289 5.09556 5.1056 5.03275C5.01628 5.11177 4.83763 5.26293 4.738 5.33164C4.58615 5.44533 4.39847 5.5006 4.20924 5.48735C4.02001 5.47411 3.84186 5.39323 3.70733 5.2595C3.63373 5.19314 3.57488 5.11206 3.5346 5.02151C3.49432 4.93096 3.4735 4.83296 3.4735 4.73386C3.4735 4.63475 3.49432 4.53675 3.5346 4.44621C3.57488 4.35566 3.63373 4.27458 3.70733 4.20822C3.77011 4.16001 3.83549 4.11529 3.90316 4.07423C3.88598 4.04675 3.87224 4.01926 3.85163 3.99178C3.70878 3.75347 3.66209 3.46968 3.72107 3.19817C3.75415 3.04074 3.8276 2.89462 3.93421 2.77416C4.04082 2.6537 4.17693 2.56303 4.32917 2.51106C4.29656 2.33395 4.30768 2.15156 4.36156 1.97973C4.41545 1.8079 4.51047 1.65183 4.63837 1.52505C4.71997 1.44209 4.81678 1.37561 4.92352 1.32923C5.04794 1.27866 5.18549 1.27021 5.31517 1.30518C5.46481 1.34158 5.60298 1.4148 5.71713 1.51818L5.7721 1.41855C5.81888 1.32222 5.89489 1.24313 5.98928 1.19254C6.08367 1.14195 6.19162 1.12246 6.29774 1.13684C6.44579 1.15046 6.58543 1.21174 6.69569 1.31147C6.80596 1.41121 6.8809 1.54401 6.90926 1.68996C7.06566 1.70106 7.21355 1.76531 7.3284 1.87204C7.45331 1.96941 7.54624 2.10192 7.59522 2.25254C7.6442 2.40315 7.64699 2.56497 7.60324 2.71719C7.58607 2.76529 7.57232 2.80995 7.55171 2.86492L7.62386 2.90958C7.9468 3.09166 8.10827 3.91276 7.7338 4.37312C7.63307 4.49072 7.49865 4.57455 7.34872 4.61326C7.19879 4.65197 7.04059 4.6437 6.89552 4.58956C6.80276 4.55521 6.82337 4.55864 6.79933 4.56895C6.92091 4.72082 7.09267 4.82436 7.28374 4.86097C7.45208 4.88846 7.56545 4.92968 7.87465 5.01214C7.95615 4.54747 8.18076 4.11988 8.5171 3.78908C9.36568 2.91989 9.97721 2.88897 11.6572 1.59377C11.6572 1.59377 12.3718 1.04408 12.4268 1.01659C12.5367 0.961624 12.6088 1.05095 12.626 1.17119C12.7394 1.96137 12.6569 2.05069 12.5401 2.80651C12.5592 2.80043 12.5777 2.79237 12.5951 2.78246C12.8047 2.62787 12.9764 2.43891 13.1207 2.65879C13.146 2.69627 13.1668 2.73664 13.1826 2.77903C13.454 3.62417 13.5433 4.35251 13.107 5.09459C12.6707 5.83667 12.0282 6.21801 11.1865 6.565C11.2071 6.58562 11.214 6.6028 11.2277 6.60967C11.6538 6.87764 11.7122 7.37923 11.5713 7.86708C11.4064 8.42707 10.977 8.97332 11.2587 8.71566C11.9458 8.10413 12.9764 7.86708 13.4849 8.5748C13.6432 8.77476 13.7494 9.01084 13.7941 9.26191C13.841 9.54476 13.7952 9.83518 13.6636 10.0899C13.6326 10.1399 13.5899 10.1817 13.5393 10.2116C13.4887 10.2416 13.4315 10.2588 13.3728 10.2618C13.314 10.2649 13.2554 10.2536 13.2019 10.2291C13.1485 10.2045 13.1017 10.1674 13.0658 10.1208C13.0225 10.0619 12.9857 9.99855 12.9558 9.93184C12.8768 9.77724 12.7634 9.24473 12.2447 9.38559C11.9411 9.49203 11.6798 9.69315 11.4992 9.95933C11.5157 9.98143 11.5341 10.0021 11.5541 10.0212C12.1382 10.5537 12.1141 11.2305 12.1382 11.9107C12.1382 12.3848 12.3168 12.2818 12.7669 12.3299C12.8359 12.3343 12.9024 12.3574 12.9593 12.3968C13.0162 12.4361 13.0613 12.4902 13.0898 12.5532C13.1586 12.6898 13.1962 12.84 13.1998 12.9929C13.2421 13.5341 13.1488 14.0773 12.9283 14.5733C12.9084 14.6229 12.8771 14.6672 12.837 14.7026C12.797 14.738 12.7491 14.7636 12.6974 14.7773C12.6457 14.791 12.5915 14.7924 12.5392 14.7814C12.4868 14.7704 12.4377 14.7474 12.3958 14.7141C11.9733 14.3534 11.6125 12.8761 10.4204 11.2064ZM3.18513 8.11444C3.20574 8.11444 3.20574 8.11444 3.18513 8.11444C3.24353 8.0045 2.75225 7.87738 2.35029 7.17653C1.76625 6.14587 2.69385 5.15986 2.86219 4.44871C2.87054 4.40573 2.87007 4.36151 2.86081 4.31872C2.85154 4.27593 2.83368 4.23548 2.80829 4.19981C2.78291 4.16414 2.75053 4.13401 2.71314 4.11124C2.67575 4.08847 2.63412 4.07354 2.59078 4.06736C2.47397 4.06736 2.40526 4.13264 2.34685 4.21852C2.34685 4.21852 2.34685 4.21852 2.32624 4.30785L2.44992 4.3422C2.60796 4.39717 2.6801 4.55521 2.5736 4.76478C2.30563 5.29042 2.02048 5.55152 1.96207 6.05654C1.93119 6.26613 1.93119 6.4791 1.96207 6.68868C2.03607 7.09851 2.26024 7.46601 2.59078 7.71935C2.70415 7.83616 3.01335 8.00794 3.16795 8.12131L3.18513 8.11444ZM5.17431 9.0867C5.19492 9.0867 5.17431 9.10388 5.22584 9.0867C5.22584 9.11418 5.22584 9.12792 5.25676 9.13823L5.65872 9.27222C6.14412 9.41927 6.65988 9.43468 7.15319 9.31688C7.79907 9.20351 8.03612 8.71222 8.27661 8.17971C8.46557 7.76058 8.57207 7.44451 8.68544 7.26242C8.72142 7.19166 8.77229 7.12954 8.83456 7.08031C8.89683 7.03109 8.96902 6.99594 9.04618 6.97727C9.12519 6.94635 9.12176 6.83298 9.01526 6.77801C8.96467 6.75661 8.90903 6.75009 8.85486 6.75922C8.8007 6.76835 8.75027 6.79275 8.70949 6.82954C8.51023 7.04598 8.45526 7.14218 8.12545 8.04916C7.98558 8.4053 7.74233 8.71144 7.42702 8.92818C7.11171 9.14492 6.73875 9.26234 6.35614 9.26535C5.86829 9.2413 5.34265 9.097 5.15713 9.09357L5.17431 9.0867ZM7.73036 8.37897C7.9199 8.11445 8.05961 7.81757 8.14263 7.50291C8.2275 7.20173 8.37896 6.92347 8.58581 6.68868C8.64809 6.62338 8.72856 6.57831 8.81678 6.55932C8.905 6.54032 8.9969 6.54829 9.08053 6.58218C9.33133 6.65776 9.3966 7.06316 9.08053 7.13531C8.76446 7.20745 8.70262 7.78119 8.26631 8.60229C8.26393 8.61593 8.26393 8.62987 8.26631 8.64351C8.33702 8.69968 8.42159 8.73571 8.51109 8.7478C8.60058 8.75989 8.69168 8.7476 8.77477 8.71222L8.88814 8.52327C9.08105 8.20115 9.32335 7.91133 9.60617 7.66438C9.62246 7.65597 9.64075 7.65221 9.65904 7.65352C9.67732 7.65483 9.69489 7.66117 9.70981 7.67182C9.72473 7.68248 9.73642 7.69704 9.74359 7.71392C9.75076 7.73079 9.75314 7.74931 9.75046 7.76745C9.75046 7.81554 9.72641 7.86021 9.67832 7.87395C9.50654 7.91861 8.74728 8.79468 8.52397 9.82191C8.44891 10.1741 8.44891 10.5382 8.52397 10.8904C8.53073 11.0017 8.56118 11.1102 8.61327 11.2088C8.66536 11.3074 8.7379 11.3937 8.82604 11.462C8.91418 11.5303 9.01588 11.579 9.12435 11.6048C9.23281 11.6307 9.34555 11.6331 9.45501 11.6118C9.7484 11.503 10.0154 11.3332 10.2383 11.1137C11.3927 9.95933 11.5919 9.34093 12.2756 9.20007C12.4486 9.17117 12.6261 9.20951 12.7717 9.30723C12.9173 9.40496 13.0201 9.55468 13.0589 9.72571C13.0885 9.83219 13.1374 9.93234 13.2032 10.0212C13.3063 10.1448 13.5124 10.1345 13.5845 9.81503C13.6394 9.59732 13.6366 9.36908 13.5763 9.1528C13.5161 8.93652 13.4005 8.73967 13.241 8.58167C12.8974 8.20033 12.121 8.22094 11.4339 8.79811C11.0016 9.17946 10.669 9.66064 10.4651 10.1998C10.4307 10.272 10.3963 10.3579 10.3139 10.3235C10.2948 10.3158 10.2791 10.3015 10.2696 10.2833C10.2602 10.265 10.2576 10.2439 10.2624 10.2239C10.4254 9.80519 10.6112 9.39575 10.8189 8.99737C11.0387 8.63729 11.225 8.25779 11.3755 7.86364C11.5335 7.38267 11.4717 6.8742 10.9666 6.69212C10.8533 6.65089 10.8327 6.69212 10.4032 6.77457C9.97377 6.85703 10.1318 6.80893 10.0116 6.88451C10.1318 7.14218 10.094 7.05972 10.1627 7.20058C10.2314 7.34144 10.0494 7.47886 10.0047 7.338C9.99692 7.29696 9.98542 7.25671 9.97034 7.21776C9.41721 6.0428 8.78507 5.46906 7.44865 5.08428C7.42818 5.08082 7.40727 5.08082 7.38681 5.08428C7.4246 5.29042 7.85748 5.66489 7.55515 7.31395C7.51385 7.55839 7.42389 7.79204 7.29061 8.00106C7.39118 8.16758 7.538 8.30127 7.71318 8.38585L7.73036 8.37897ZM4.6899 3.19817C4.60084 3.18946 4.5138 3.16625 4.43223 3.12946C4.33947 3.08479 4.37726 2.95768 4.49064 2.98516H4.51812C4.62076 3.01764 4.72924 3.02739 4.83602 3.01374C4.94281 3.0001 5.04535 2.96338 5.13652 2.90614C5.36094 2.75509 5.56428 2.57487 5.74118 2.3702C5.75461 2.36197 5.77005 2.3576 5.78581 2.35756C5.80156 2.35751 5.81703 2.36181 5.83051 2.36997C5.84399 2.37812 5.85496 2.38983 5.86223 2.40381C5.8695 2.41779 5.87279 2.4335 5.87173 2.44922C5.84665 2.51884 5.82599 2.58999 5.80989 2.66222C5.79258 2.7558 5.79675 2.85208 5.82207 2.94381C5.84738 3.03554 5.8932 3.12033 5.95605 3.19178C6.0189 3.26324 6.09715 3.31949 6.18491 3.3563C6.27266 3.39311 6.36762 3.40953 6.46264 3.4043C6.66963 3.36153 6.86664 3.27993 7.04325 3.16381C7.06344 3.15872 7.08474 3.16033 7.10395 3.16838C7.12315 3.17643 7.13923 3.1905 7.14975 3.20847C7.19098 3.2978 7.08104 3.33559 6.97797 3.4043C6.83939 3.49545 6.68203 3.55417 6.51761 3.57608C6.50184 3.58086 6.48681 3.58779 6.47295 3.59669C6.51949 3.75684 6.57571 3.91402 6.64129 4.06736C6.67481 4.15014 6.72463 4.22533 6.78777 4.28848C6.85092 4.35163 6.92612 4.40144 7.00889 4.43496C7.08472 4.45602 7.16402 4.46154 7.24203 4.45118C7.32003 4.44083 7.39515 4.41481 7.46285 4.3747C7.53055 4.33459 7.58946 4.28122 7.63601 4.21777C7.68258 4.15433 7.71583 4.08214 7.7338 4.00552C7.7746 3.8663 7.7868 3.72026 7.76968 3.5762C7.75256 3.43214 7.70646 3.29303 7.63416 3.16725C7.58263 3.0951 7.53453 3.03326 7.42116 3.07449C7.30779 3.11571 7.28717 3.02639 7.31466 2.94737C7.34214 2.86835 7.36963 2.84774 7.45552 2.60382C7.46953 2.51288 7.46224 2.41994 7.43422 2.3323C7.4062 2.24466 7.35821 2.16473 7.29405 2.09879C7.24963 2.02802 7.18597 1.97138 7.11052 1.93548C7.03508 1.89958 6.95097 1.88592 6.86804 1.89609C6.83797 1.89519 6.80908 1.88419 6.78602 1.86487C6.76297 1.84555 6.74708 1.81904 6.74092 1.78959C6.74183 1.73049 6.73109 1.67178 6.70931 1.61683C6.68753 1.56188 6.65513 1.51176 6.61398 1.46933C6.57282 1.42689 6.52371 1.39299 6.46945 1.36954C6.41519 1.34609 6.35684 1.33356 6.29774 1.33266C6.2518 1.3233 6.20444 1.32343 6.15856 1.33305C6.11268 1.34267 6.06926 1.36158 6.03096 1.38862C5.99267 1.41565 5.96031 1.45023 5.93588 1.49024C5.91145 1.53025 5.89546 1.57483 5.88891 1.62125C5.89059 1.65329 5.89059 1.6854 5.88891 1.71744C5.88864 1.73805 5.8822 1.75809 5.87042 1.775C5.85865 1.79191 5.84208 1.80489 5.82285 1.81229C5.80362 1.81969 5.78261 1.82115 5.76254 1.81649C5.74247 1.81183 5.72426 1.80127 5.71026 1.78616C5.67247 1.74836 5.59345 1.6556 5.54879 1.61438C5.45399 1.52517 5.33014 1.47325 5.20007 1.4682C5.07 1.46315 4.94249 1.50531 4.84106 1.58689C4.71623 1.6787 4.61845 1.80245 4.55799 1.94513C4.49754 2.08781 4.47664 2.24414 4.49751 2.39768C4.49751 2.51449 4.53186 2.59695 4.43567 2.65879C4.40131 2.68283 4.23297 2.76185 4.16082 2.81339C4.07226 2.88736 4.00065 2.97954 3.95088 3.08366C3.90111 3.18777 3.87434 3.30138 3.87238 3.41676C3.87042 3.53215 3.89333 3.6466 3.93955 3.75234C3.98576 3.85808 4.0542 3.95263 4.14021 4.02957C4.2261 4.09828 4.20892 4.17043 4.10242 4.21165L4.03027 4.22883C3.96076 4.26355 3.89413 4.30376 3.83101 4.34908C3.48746 4.62392 3.75199 5.1049 3.98218 5.2217C4.34634 5.40379 4.61088 5.24232 4.92352 4.97091C4.93541 4.95719 4.94578 4.94221 4.95444 4.92625C4.82989 4.81456 4.73639 4.67253 4.68303 4.51398C4.53876 4.11316 4.53876 3.67457 4.68303 3.27375C4.67959 3.26001 4.68303 3.23252 4.6899 3.19817ZM7.49331 6.37949C7.4973 6.04056 7.44267 5.70349 7.33184 5.38318C7.29855 5.2899 7.24667 5.20436 7.17935 5.13172C7.11203 5.05909 7.03066 5.00087 6.94018 4.9606C6.59663 4.79226 6.19123 5.18391 6.12939 5.5687C6.083 5.82658 6.083 6.09068 6.12939 6.34857C6.12939 6.39666 6.12939 6.55126 6.12939 6.6612C6.12939 6.88795 6.12939 7.11126 6.12939 7.34831C6.12939 7.4926 6.12939 7.4926 6.26682 7.50635C6.40424 7.52009 6.46264 7.54757 6.43172 7.6369C6.42547 7.65442 6.41268 7.66886 6.39604 7.67718C6.37939 7.6855 6.36017 7.68707 6.3424 7.68156C6.25721 7.6661 6.16992 7.6661 6.08473 7.68156C5.64236 7.70255 5.21134 7.82856 4.82732 8.04916C4.32917 8.33775 4.18487 8.49922 3.86537 8.5748C3.71077 8.61259 3.80696 8.53357 3.42218 8.63664C3.27048 8.67735 3.13495 8.7637 3.03396 8.884C2.98956 8.92349 2.9549 8.97272 2.93271 9.02784C2.91052 9.08296 2.90139 9.14248 2.90605 9.20172C2.91071 9.26096 2.92903 9.31831 2.95956 9.36929C2.9901 9.42026 3.03203 9.46347 3.08206 9.49553C3.1472 9.54598 3.22648 9.57481 3.30881 9.57798C3.37408 9.57798 3.41188 9.54706 3.49433 9.49553C4.05432 9.15197 4.03027 8.75001 4.30512 8.70535C4.76548 8.62633 5.12621 8.72597 5.67934 8.60916C6.11849 8.51096 6.5386 8.34152 6.92301 8.10757C7.3284 7.81898 7.40398 7.36549 7.49331 6.38292V6.37949ZM8.55146 5.31103C8.80856 4.89213 9.14182 4.52507 9.53402 4.22883C10.7055 3.35277 11.7774 3.19817 12.3443 2.33928C12.5539 2.02321 12.5023 1.80333 12.4749 1.39794C12.4749 1.34984 12.4749 1.30174 12.4508 1.2399C12.1073 1.44947 11.3033 2.14345 10.6471 2.54885C9.6474 3.16725 9.24544 3.32185 8.64765 3.92307C8.31838 4.23201 8.1111 4.64901 8.06361 5.09803L8.55146 5.31103ZM10.5372 11.0724C11.0896 11.8634 11.5669 12.7041 11.963 13.5838C12.334 14.3981 12.3718 14.4221 12.5161 14.5733C12.5369 14.5919 12.5638 14.6021 12.5917 14.6021C12.6195 14.6021 12.6465 14.5919 12.6672 14.5733C12.8253 14.4908 12.918 14.106 12.9524 13.9377C12.9868 13.7694 13.0074 13.5289 13.0245 13.3227C13.0473 13.0899 13.0167 12.8549 12.9352 12.6356C12.8562 12.4398 12.6363 12.4982 12.4027 12.4776C12.2903 12.4794 12.1817 12.4368 12.1006 12.3589C12.0196 12.281 11.9725 12.1743 11.9698 12.0619C11.9647 12.0036 11.9647 11.945 11.9698 11.8867C11.932 11.1446 11.9698 11.0243 11.8255 10.7048C11.7459 10.5015 11.6173 10.3209 11.4511 10.1792C11.4263 10.1617 11.3998 10.1468 11.372 10.1345L10.5372 11.0724ZM12.9421 2.74811C12.8193 2.8263 12.7043 2.91603 12.5985 3.01608C12.5832 3.03296 12.5715 3.05285 12.5642 3.07449C12.3298 3.59224 11.9549 4.03384 11.482 4.34908C10.2452 5.24232 9.58556 5.32134 9.31415 5.88133C9.6577 6.28329 9.62335 6.27985 9.69206 6.33482L9.76077 6.25924C10.1043 5.82636 10.4719 5.91569 11.0216 5.6271C11.3239 5.46563 11.6331 5.31103 11.9252 5.13238C12.4953 4.78439 12.933 4.25602 13.1688 3.63105C13.1823 3.5874 13.1823 3.5407 13.1688 3.49706C13.1323 3.27989 13.0818 3.06529 13.0177 2.85461C13.0039 2.82026 12.9971 2.77559 12.9455 2.75155L12.9421 2.74811ZM12.3821 2.61756L12.3512 2.59695C12.3512 2.61412 12.334 2.6313 12.3237 2.64504C11.7328 3.33215 10.6712 3.58982 9.63365 4.36282C9.27248 4.64059 8.96609 4.9831 8.7301 5.37287C8.7301 5.37287 8.7301 5.39005 8.7301 5.40035C9.22139 5.77826 9.16986 5.74391 9.20421 5.74391C9.3301 5.52254 9.51273 5.33872 9.73329 5.2114C10.764 4.58269 11.8633 4.13951 12.358 3.06762C12.2996 2.98516 12.3271 2.91645 12.3855 2.62099L12.3821 2.61756ZM5.61063 2.7859C5.42544 2.96228 5.20864 3.10214 4.97161 3.19817C4.94022 3.20393 4.91117 3.21869 4.888 3.24064C4.86482 3.2626 4.84852 3.29081 4.84106 3.32185C4.71263 3.71287 4.72233 4.13613 4.86855 4.52085C4.94577 4.69881 5.08845 4.84027 5.26707 4.91594C5.34897 4.96713 5.44361 4.99427 5.5402 4.99427C5.63678 4.99427 5.73142 4.96713 5.81332 4.91594C5.99319 4.81462 6.13985 4.66336 6.23557 4.48045C6.3313 4.29754 6.37198 4.09082 6.35271 3.88528C6.33387 3.79612 6.32693 3.70485 6.33209 3.61387C6.13436 3.5812 5.95418 3.48068 5.82252 3.32958C5.69085 3.17848 5.61593 2.98624 5.61063 2.7859ZM9.93598 6.7196C10.7296 6.26268 10.7021 6.55813 11.0044 6.43789C11.463 6.28882 11.8937 6.06476 12.279 5.77483C12.5455 5.57537 12.7677 5.32276 12.9315 5.03299C13.0953 4.74321 13.1972 4.42259 13.2307 4.09141C13.2385 4.07658 13.2426 4.06007 13.2426 4.04331C13.2426 4.02655 13.2385 4.01004 13.2307 3.99521C13.2088 4.02453 13.1892 4.05555 13.1723 4.08797C12.6947 4.98465 12.0454 5.31446 11.2415 5.7336C10.5887 6.07716 10.3654 5.99127 10.0356 6.25581C9.94867 6.32267 9.87522 6.40545 9.81917 6.49973C9.85096 6.5766 9.89008 6.65023 9.93598 6.7196ZM4.34291 7.06316C4.49751 7.04255 4.79984 7.06316 4.8445 6.7196C4.85953 6.62739 4.84635 6.53279 4.80671 6.4482C4.74418 6.30082 4.65575 6.16585 4.54561 6.04967C4.34291 5.81605 3.64549 5.98783 3.73825 6.49973C3.80009 6.84672 3.98561 7.0769 4.34291 7.0769V7.06316ZM7.5792 8.51983C7.42059 8.40945 7.28129 8.27364 7.16693 8.11787C7.08058 8.18553 6.98991 8.2475 6.89552 8.30339C6.50673 8.5206 6.08749 8.67811 5.65185 8.77063C5.23959 8.84621 5.08155 8.81185 4.96474 8.84277C5.24198 8.91783 5.52451 8.97181 5.80989 9.00424C6.11304 9.06072 6.42402 9.06072 6.72718 9.00424C7.05063 8.93279 7.34651 8.76933 7.5792 8.53358V8.51983ZM3.91003 8.35149C4.20205 8.25873 4.82732 7.66438 5.67934 7.53383C5.67934 7.53383 5.69652 7.53383 5.70682 7.50978C5.71713 7.48573 5.68621 7.48573 5.67247 7.4823C5.39191 7.35671 5.09801 7.26335 4.7964 7.20402C4.69677 7.18684 4.69333 7.20402 4.38414 7.26242C3.84132 8.44425 3.89285 8.32057 3.91003 8.35149ZM4.90634 7.04598C5.0879 7.08542 5.26688 7.1359 5.44228 7.19715C5.94731 7.39297 5.80645 7.34831 5.91639 7.36892C5.93959 7.10145 5.93959 6.83248 5.91639 6.565C5.91186 6.54295 5.90612 6.52116 5.89921 6.49973C5.59269 6.4831 5.28749 6.44753 4.98536 6.39323C5.02819 6.49959 5.04493 6.61467 5.03418 6.72884C5.02342 6.843 4.98547 6.95293 4.92352 7.04942L4.90634 7.04598ZM6.04351 5.23201C6.18383 4.98442 6.41577 4.80183 6.68939 4.72355C6.60622 4.62836 6.53683 4.52197 6.48326 4.40748C6.35501 4.65419 6.17445 4.86993 5.95418 5.03962C5.9394 5.05021 5.92757 5.0644 5.91983 5.08085L6.04351 5.23201Z" fill="black"/>
<path d="M7.71258 8.38572C7.54084 8.30191 7.39662 8.1708 7.29688 8.00781C7.43016 7.79879 7.52011 7.56513 7.56141 7.3207C7.62248 7.02067 7.65925 6.71621 7.67135 6.41028C7.69601 5.9508 7.60132 5.49276 7.39651 5.08072C7.41697 5.07726 7.43788 5.07726 7.45835 5.08072C8.83257 5.47581 9.44066 6.06672 9.98004 7.2142C9.99512 7.25315 10.0066 7.2934 10.0144 7.33444C10.0195 7.3523 10.0297 7.3683 10.0437 7.38049C10.0578 7.39268 10.075 7.40055 10.0934 7.40315C10.1139 7.40039 10.1332 7.39227 10.1495 7.37959C10.1658 7.36692 10.1785 7.35015 10.1862 7.331C10.2102 7.24512 10.1862 7.2142 10.0213 6.88095C10.193 6.77101 9.98004 6.88095 10.8149 6.67825C10.8678 6.66443 10.9234 6.66443 10.9763 6.67825C11.6635 6.91874 11.5157 7.68487 11.1825 8.31701C10.8989 8.8185 10.6442 9.33583 10.4198 9.86644C10.3511 10.0279 10.2824 10.1722 10.2721 10.21C10.2678 10.229 10.2701 10.2489 10.2786 10.2664C10.2871 10.2839 10.3013 10.298 10.3189 10.3064C10.3364 10.3148 10.3563 10.3169 10.3753 10.3125C10.3942 10.3081 10.4112 10.2974 10.4232 10.2821C10.5778 10.0588 10.9179 8.87013 12.0517 8.4132C12.2455 8.32199 12.4613 8.28808 12.6737 8.31547C12.8862 8.34286 13.0864 8.43041 13.2507 8.5678C13.4102 8.7258 13.5258 8.92265 13.586 9.13893C13.6463 9.35521 13.6491 9.58345 13.5942 9.80116C13.5802 9.86862 13.5534 9.93276 13.5152 9.99012C13.5 10.0159 13.4787 10.0376 13.4531 10.0532C13.4276 10.0688 13.3985 10.0778 13.3686 10.0795C13.3387 10.0812 13.3089 10.0755 13.2817 10.0629C13.2546 10.0503 13.2309 10.0312 13.2129 10.0073C13.0755 9.84239 13.0926 9.63969 12.8899 9.40264C12.5842 9.05909 12.1135 9.15872 11.77 9.43356C11.3793 9.80965 11.0154 10.2126 10.6809 10.6394C10.4059 10.9971 10.0611 11.2952 9.6674 11.5155C9.52812 11.6093 9.3593 11.6489 9.19282 11.6268C9.02634 11.6046 8.87374 11.5223 8.76385 11.3953C8.52337 11.1616 8.49932 10.8559 8.47183 10.4024C8.50883 9.50148 8.87563 8.6456 9.5025 7.9975C9.54541 7.93778 9.60525 7.89231 9.67427 7.86695C9.69257 7.85829 9.70846 7.84526 9.72055 7.82903C9.73264 7.81279 9.74056 7.79383 9.74361 7.77382C9.74666 7.75381 9.74476 7.73335 9.73806 7.71425C9.73136 7.69515 9.72008 7.67798 9.70519 7.66425C9.63648 7.61272 9.57121 7.66425 9.50593 7.73296C9.21164 8.01793 8.96049 8.34431 8.76042 8.70179C8.67733 8.73717 8.58623 8.74946 8.49674 8.73737C8.40724 8.72527 8.32268 8.68924 8.25196 8.63308C8.24958 8.61944 8.24958 8.60549 8.25196 8.59185C8.66079 7.79824 8.7295 7.21763 9.06275 7.13174C9.396 7.04585 9.29636 6.6542 9.06275 6.57862C8.97911 6.54473 8.88722 6.53676 8.799 6.55575C8.71078 6.57474 8.63031 6.61982 8.56803 6.68512C8.2657 6.99776 8.24852 7.22107 7.91184 8.05934C7.86525 8.17907 7.79779 8.28957 7.71258 8.38572Z" fill="white"/>
<path d="M4.69009 3.19786C4.53782 3.62561 4.53782 4.0928 4.69009 4.52055C4.744 4.67883 4.83742 4.82073 4.9615 4.93282C4.95284 4.94878 4.94247 4.96376 4.93058 4.97748C4.82561 5.07541 4.71043 5.1618 4.58702 5.23515C4.502 5.27993 4.40757 5.30393 4.31148 5.30518C4.21539 5.30642 4.12037 5.28487 4.03421 5.2423C3.94806 5.19972 3.87322 5.13733 3.81584 5.06025C3.75845 4.98316 3.72016 4.89358 3.70408 4.79883C3.68241 4.71862 3.68486 4.63379 3.71114 4.55497C3.73741 4.47614 3.78634 4.40681 3.85181 4.35564C3.90809 4.30886 3.96781 4.26636 4.03046 4.22853L4.10948 4.20105C4.21598 4.15982 4.23316 4.08767 4.14727 4.01896C4.01911 3.89636 3.93187 3.73722 3.89744 3.56323C3.86301 3.38925 3.88307 3.20887 3.95488 3.0467C4.13696 2.67223 4.52862 2.73407 4.51831 2.51076C4.47765 2.34009 4.48679 2.16135 4.54464 1.99572C4.60249 1.83009 4.70662 1.68453 4.84469 1.57629C4.94611 1.4947 5.07362 1.45254 5.20369 1.45759C5.33376 1.46265 5.45762 1.51456 5.55241 1.60377C5.67953 1.71371 5.71732 1.84082 5.82725 1.80303C5.93719 1.76524 5.89253 1.68279 5.90284 1.61064C5.93719 1.3839 6.14676 1.23617 6.45596 1.36328C6.86479 1.52819 6.61399 1.86831 6.86135 1.88892C6.94428 1.87875 7.02839 1.89241 7.10384 1.92831C7.17929 1.9642 7.24294 2.02085 7.28736 2.09162C7.36086 2.17929 7.41579 2.28098 7.44883 2.39051C7.48662 2.52793 7.44883 2.59321 7.36982 2.79934C7.3492 2.84744 7.32515 2.8921 7.30798 2.93676C7.2908 2.98143 7.3389 3.09136 7.41448 3.06388C7.49006 3.03639 7.57595 3.08449 7.62748 3.15664C7.93325 3.58952 7.77177 4.5927 7.00221 4.42436C6.94532 4.40667 6.89269 4.37743 6.84761 4.33847C6.64669 4.13749 6.51544 3.87741 6.47314 3.59639C6.70663 3.55343 6.92742 3.45831 7.11902 3.31811C7.13952 3.30809 7.1552 3.29033 7.16261 3.26875C7.17002 3.24716 7.16855 3.22352 7.15853 3.20302C7.14851 3.18252 7.13075 3.16684 7.10917 3.15943C7.08758 3.15202 7.06394 3.15349 7.04344 3.16351C6.8854 3.20817 6.83043 3.35246 6.46283 3.404C6.36781 3.40922 6.27285 3.39281 6.18509 3.356C6.09734 3.31919 6.01909 3.26294 5.95624 3.19148C5.89338 3.12003 5.84757 3.03524 5.82225 2.94351C5.79694 2.85178 5.79277 2.75549 5.81008 2.66192C5.83069 2.51763 5.92345 2.42143 5.83069 2.36646C5.73793 2.31149 5.67952 2.55885 5.14358 2.90584C5.0524 2.96308 4.94987 2.9998 4.84308 3.01344C4.7363 3.02709 4.62782 3.01733 4.52518 2.98486H4.4977C4.47789 2.97887 4.45665 2.97967 4.43735 2.98714C4.41805 2.99461 4.4018 3.00832 4.39119 3.02609C4.33966 3.14633 4.58015 3.19786 4.69009 3.19786Z" fill="white"/>
<path d="M7.49335 6.38238C7.40402 7.37182 7.33531 7.81844 6.899 8.10015C6.5146 8.33411 6.09448 8.50354 5.65533 8.60174C5.12282 8.71512 4.7346 8.62236 4.28111 8.69794C4.00627 8.7426 4.03031 9.15143 3.47032 9.48812C3.39474 9.53621 3.35351 9.57744 3.2848 9.57057C3.20247 9.5674 3.12319 9.53857 3.05805 9.48812C3.00802 9.45606 2.96609 9.41285 2.93556 9.36187C2.90502 9.3109 2.8867 9.25354 2.88204 9.1943C2.87738 9.13507 2.88651 9.07555 2.9087 9.02043C2.93089 8.96531 2.96555 8.91607 3.00996 8.87659C3.11095 8.75629 3.24647 8.66994 3.39817 8.62923C3.54257 8.58938 3.69157 8.56859 3.84136 8.56739C4.4151 8.4334 4.84798 7.76003 5.97827 7.68102C6.09213 7.66367 6.20796 7.66367 6.32183 7.68102C6.3396 7.68653 6.35882 7.68496 6.37546 7.67664C6.39211 7.66832 6.4049 7.65388 6.41115 7.63635C6.44207 7.54703 6.339 7.51268 6.24624 7.5058C6.15348 7.49893 6.10539 7.5058 6.10882 7.34777C6.10882 7.12446 6.10882 6.90115 6.10882 6.66066C6.10882 6.54729 6.12944 6.39956 6.10882 6.34802C6.06243 6.09014 6.06243 5.82604 6.10882 5.56815C6.17066 5.18337 6.56919 4.79172 6.91961 4.96006C7.01361 4.99878 7.09851 5.05665 7.1689 5.13C7.23929 5.20335 7.29363 5.29056 7.32844 5.38607C7.44045 5.70618 7.49624 6.04325 7.49335 6.38238Z" fill="white"/>
<path d="M8.55131 5.31436L8.06346 5.08761C8.0589 5.00709 8.07058 4.92647 8.09782 4.85056C8.40702 3.72027 9.58541 3.19463 10.647 2.53844C11.3341 2.1193 12.1002 1.4528 12.4507 1.22949C12.4507 1.29133 12.4713 1.33943 12.4747 1.38753C12.5022 1.78949 12.5537 2.0128 12.3442 2.32887C11.7945 3.19806 10.6917 3.35266 9.53388 4.22873C9.14146 4.5261 8.8082 4.89432 8.55131 5.31436Z" fill="#FF0303"/>
<path d="M10.5371 11.0751L11.3651 10.1338C11.3928 10.146 11.4193 10.161 11.4441 10.1785C11.7383 10.4549 11.9112 10.8365 11.9251 11.24C11.9251 11.3568 11.9526 11.9546 11.9697 12.0749C11.9724 12.1873 12.0195 12.294 12.1005 12.3719C12.1816 12.4498 12.2902 12.4924 12.4026 12.4906C12.6191 12.5078 12.8561 12.4528 12.9351 12.6486C13.0166 12.8679 13.0472 13.1029 13.0244 13.3357C13.0004 13.6277 12.9317 14.4488 12.6809 14.5863C12.6601 14.6049 12.6332 14.6151 12.6053 14.6151C12.5774 14.6151 12.5505 14.6049 12.5297 14.5863C12.1862 14.2427 12.169 13.8339 11.2311 12.1401C10.915 11.5905 10.5543 11.161 10.5371 11.0751Z" fill="white"/>
<path d="M12.9453 2.75195C12.9968 2.776 13.0037 2.82066 13.0174 2.85846C13.0814 3.06801 13.1319 3.28145 13.1686 3.49747C13.1821 3.54111 13.1821 3.58781 13.1686 3.63145C13.1342 3.7036 13.1033 3.78262 13.069 3.8582C12.6155 4.85107 11.9215 5.16371 11.0317 5.63094C10.7768 5.74712 10.5139 5.84472 10.2449 5.92297C10.0291 6.00874 9.8412 6.15262 9.70213 6.33867C9.62998 6.28026 9.68152 6.29057 9.32422 5.88517C9.59219 5.33205 10.269 5.23586 11.4921 4.35292C11.9785 4.01838 12.3645 3.55751 12.6086 3.01993C12.7122 2.92022 12.8249 2.8305 12.9453 2.75195Z" fill="#FF0303"/>
<path d="M12.3858 2.62073C12.3343 2.8887 12.2965 2.96428 12.3858 3.06735C12.1372 3.58134 11.746 4.01304 11.259 4.31102C10.3073 4.93629 10.3176 4.87101 9.76106 5.21113C9.53546 5.3365 9.34791 5.52048 9.21825 5.74364C9.18389 5.74364 9.21825 5.778 8.74414 5.40009C8.74414 5.40009 8.74414 5.37947 8.74414 5.3726C8.98012 4.98283 9.28651 4.64033 9.64769 4.36255C10.6784 3.58955 11.7468 3.33189 12.3377 2.64478C12.3377 2.64478 12.3549 2.61386 12.3652 2.59668L12.3858 2.62073Z" fill="#FF0303"/>
<path d="M5.60928 2.78516C5.61585 2.98331 5.6905 3.17315 5.82065 3.3227C5.95081 3.47226 6.12853 3.5724 6.32388 3.60625C6.31892 3.69723 6.32585 3.78847 6.34449 3.87766C6.36377 4.0832 6.32308 4.28992 6.22736 4.47283C6.13164 4.65574 5.98498 4.807 5.80511 4.90833C5.69174 4.97043 5.56112 4.99364 5.43329 4.97441C5.30546 4.95517 5.18746 4.89454 5.09739 4.80182C4.99377 4.72469 4.91399 4.61991 4.86721 4.4995C4.72099 4.11477 4.71129 3.69151 4.83972 3.30049C4.84718 3.26945 4.86348 3.24124 4.88665 3.21929C4.90983 3.19733 4.93888 3.18258 4.97027 3.17681C5.20685 3.08933 5.42396 2.95626 5.60928 2.78516ZM5.06303 4.04257C5.06271 4.1267 5.08401 4.20951 5.12487 4.28306C5.15644 4.33642 5.20382 4.37864 5.26045 4.40388C5.31708 4.42911 5.38016 4.43611 5.44094 4.42391C5.54744 4.39643 5.55432 4.23152 5.39972 4.24183C5.30696 4.24183 5.2726 4.20404 5.25199 4.11815C5.24171 3.99106 5.2593 3.86326 5.30352 3.74367C5.30263 3.73121 5.29866 3.71916 5.29197 3.7086C5.28528 3.69804 5.27608 3.68931 5.26519 3.68318C5.25429 3.67706 5.24205 3.67373 5.22955 3.67349C5.21706 3.67325 5.2047 3.67612 5.19358 3.68183C5.10769 3.74024 5.0699 3.93607 5.06303 4.04257Z" fill="white"/>
<path d="M9.93672 6.71951C9.88487 6.65085 9.83998 6.57719 9.80273 6.49963C9.85878 6.40535 9.93223 6.32257 10.0192 6.25571C10.3627 5.99117 10.5757 6.07706 11.2251 5.7335C12.0358 5.3075 12.6783 4.98799 13.1558 4.08788C13.1728 4.05545 13.1923 4.02443 13.2142 3.99512C13.2221 4.00994 13.2261 4.02645 13.2261 4.04321C13.2261 4.05998 13.2221 4.07649 13.2142 4.09131C13.1822 4.42287 13.0809 4.74402 12.917 5.03399C12.7531 5.32397 12.5301 5.57632 12.2626 5.77473C11.8777 6.06526 11.4469 6.28937 10.988 6.43779C10.7063 6.5546 10.7269 6.26602 9.93672 6.71951Z" fill="#FF0303"/>
<path d="M5.20835 9.09331C5.58359 9.17707 5.96507 9.22992 6.34895 9.25135C6.73156 9.24835 7.10451 9.13092 7.41983 8.91418C7.73514 8.69744 7.97838 8.3913 8.11826 8.03517C8.43089 7.17284 8.48929 7.04573 8.7023 6.81555C8.74308 6.77875 8.79351 6.75435 8.84767 6.74522C8.90183 6.7361 8.95748 6.74261 9.00806 6.76401C9.11456 6.81898 9.118 6.93235 9.03898 6.96327C8.95811 6.98303 8.88275 7.02079 8.8185 7.07373C8.75426 7.12668 8.70279 7.19344 8.66794 7.26904C8.55457 7.45112 8.4515 7.76719 8.25911 8.18633C8.02206 8.7051 7.78844 9.21699 7.13569 9.3235C6.64243 9.4418 6.12654 9.42638 5.64122 9.27883L5.23927 9.14485C5.18773 9.12767 5.21522 9.09331 5.20835 9.09331Z" fill="white"/>
<path d="M4.34357 7.07664C4.00002 7.07664 3.80076 6.84646 3.73892 6.49947C3.64616 5.98757 4.34357 5.81236 4.54627 6.04941C4.65557 6.16625 4.7439 6.30107 4.80737 6.44794C4.84702 6.53253 4.86019 6.62713 4.84516 6.71934C4.8005 7.05603 4.51191 7.05603 4.34357 7.07664Z" fill="white"/>
<path d="M3.16715 8.12134C3.01256 7.99423 2.69992 7.83619 2.56593 7.73656C2.23614 7.48255 2.01216 7.11537 1.93723 6.7059C1.90634 6.49631 1.90634 6.28334 1.93723 6.07376C1.99563 5.57216 2.28078 5.31106 2.54876 4.78199C2.65526 4.57242 2.58311 4.41438 2.42508 4.35942L2.3014 4.32506C2.3014 4.23574 2.3014 4.24604 2.32201 4.23574C2.38041 4.14985 2.44912 4.07083 2.56593 4.08457C2.60927 4.09075 2.6509 4.10568 2.6883 4.12845C2.72569 4.15122 2.75806 4.18135 2.78345 4.21702C2.80883 4.25269 2.8267 4.29315 2.83596 4.33593C2.84523 4.37872 2.8457 4.42294 2.83734 4.46592C2.67931 5.19082 1.7414 6.18369 2.32544 7.19374C2.7274 7.89803 3.21869 8.02171 3.16028 8.13165L3.16715 8.12134Z" fill="white"/>
<path d="M4.92383 7.04924C4.9884 6.95482 5.02982 6.84653 5.04474 6.73312C5.05966 6.61971 5.04766 6.50439 5.00972 6.39648C5.31185 6.45079 5.61705 6.48636 5.92357 6.50299C5.94419 6.582 5.94075 6.44458 5.94419 7.25537C5.94715 7.29425 5.94715 7.3333 5.94419 7.37218C5.63403 7.2537 5.31746 7.15277 4.99597 7.06985L4.92383 7.04924Z" fill="white"/>
<path d="M6.04407 5.23566L5.92383 5.08106C5.93157 5.06462 5.9434 5.05042 5.95818 5.03984C6.17682 4.87077 6.35616 4.65626 6.48382 4.41113C6.53823 4.52516 6.60754 4.63144 6.68996 4.7272C6.41634 4.80548 6.1844 4.98807 6.04407 5.23566Z" fill="white"/>
<path d="M5.20974 9.09375C5.16164 9.11093 5.17882 9.09375 5.1582 9.09375H5.20974Z" fill="white"/>
<path d="M5.06445 4.0439C5.06445 3.93739 5.10912 3.74157 5.195 3.68316C5.20612 3.67745 5.21848 3.67458 5.23098 3.67482C5.24347 3.67505 5.25571 3.67838 5.26661 3.68451C5.2775 3.69064 5.2867 3.69937 5.29339 3.70993C5.30008 3.72048 5.30405 3.73254 5.30494 3.745C5.26536 3.86562 5.25247 3.99339 5.26715 4.11948C5.28776 4.20537 5.32212 4.25003 5.41488 4.24316C5.57291 4.24316 5.56261 4.39776 5.45611 4.42524C5.39532 4.43744 5.33224 4.43044 5.27561 4.4052C5.21898 4.37997 5.1716 4.33774 5.14003 4.28438C5.09435 4.21216 5.0683 4.12927 5.06445 4.0439Z" fill="black"/>
</svg>
