<svg width="16" height="16" viewBox="0 0 16 16" fill="none" xmlns="http://www.w3.org/2000/svg">
<path d="M13.2939 8.74667C13.394 8.93429 13.6108 9.21365 13.2939 9.3971C12.6685 9.74734 11.2551 9.77235 10.5421 9.75151C10.0228 9.72134 9.50828 9.63466 9.00773 9.493C8.72382 9.92 8.3969 10.3168 8.03208 10.6771C7.72354 10.9732 7.56093 11.0649 7.3191 10.8689C7.07727 10.673 6.57694 10.0684 5.99321 9.41378C5.88796 9.42541 5.78353 9.44351 5.6805 9.46798C5.10095 9.62225 4.63397 9.62642 3.30391 9.65144C2.90781 9.65144 2.61595 9.53053 2.80774 9.18446C2.8411 9.11775 2.8828 9.05521 2.91615 9.001C2.88696 8.93012 2.83276 8.93429 2.7869 8.92595C2.51922 8.89968 2.25508 8.84517 1.99887 8.76334C1.95093 8.75316 1.90664 8.73017 1.87073 8.69682C1.83482 8.66347 1.80863 8.621 1.79494 8.57394C1.78125 8.52688 1.78057 8.47699 1.79299 8.42958C1.80541 8.38217 1.83045 8.33901 1.86545 8.3047C1.95156 8.1957 2.0479 8.09518 2.15314 8.0045C2.15314 7.92528 2.09477 7.92111 2.05307 7.90027C1.93751 7.85564 1.82474 7.80413 1.71535 7.746C1.44433 7.58756 1.41514 7.37908 1.63196 7.1581C1.75673 7.04541 1.88756 6.93963 2.02389 6.84122L1.91131 6.73282C1.83257 6.67817 1.75989 6.61527 1.6945 6.54519C1.66926 6.51898 1.65026 6.48741 1.63892 6.45283C1.62758 6.41826 1.62418 6.38157 1.62899 6.3455C1.6338 6.30943 1.64669 6.27491 1.66669 6.24451C1.6867 6.21411 1.71331 6.18862 1.74453 6.16994C1.82523 6.11808 1.914 6.08003 2.00721 6.05736C3.09544 5.77801 4.60478 5.67377 5.46786 6.40343C5.48898 6.42121 5.51294 6.4353 5.53874 6.44512C6.33094 6.00316 7.03141 6.21163 7.51507 6.99549C7.60263 6.96631 7.62764 6.87875 7.68185 6.81621C7.78769 6.68607 7.92118 6.58114 8.07263 6.50902C8.22408 6.4369 8.38969 6.39941 8.55743 6.39926C8.82053 6.40194 9.07654 6.48486 9.29126 6.63692C9.32336 6.61533 9.354 6.59166 9.38299 6.56604C9.7475 6.20562 10.2028 5.9506 10.7005 5.82804C11.6844 5.53641 12.7354 5.56414 13.7025 5.90726C13.7418 5.92012 13.7765 5.94414 13.8024 5.9764C13.8282 6.00865 13.8441 6.04774 13.8481 6.08888C13.852 6.13002 13.844 6.17142 13.8248 6.20803C13.8056 6.24465 13.7762 6.27487 13.7401 6.29502C13.663 6.35178 13.5822 6.40332 13.4982 6.44929L13.3648 6.54102C13.4107 6.59522 13.444 6.63692 13.4816 6.67444C13.5983 6.79119 13.7234 6.89543 13.8318 7.02051C13.8677 7.05364 13.8942 7.09559 13.9088 7.14217C13.9234 7.18876 13.9255 7.23835 13.915 7.28601C13.9044 7.33367 13.8816 7.37774 13.8487 7.41382C13.8158 7.44991 13.774 7.47674 13.7276 7.49166C13.6397 7.52907 13.5491 7.55974 13.4566 7.58339L13.3398 7.63342C13.3398 7.71681 13.3857 7.72932 13.419 7.7585C13.5608 7.8544 13.7109 7.94613 13.836 8.05454C14.082 8.25467 14.0486 8.45064 13.7568 8.56738C13.6483 8.60907 13.5358 8.64243 13.4315 8.68413C13.3843 8.70184 13.3383 8.72274 13.2939 8.74667ZM13.1814 6.14075C12.0776 5.85024 10.9041 5.99973 9.90834 6.5577C9.79775 6.63282 9.6932 6.71647 9.59563 6.80787C9.56503 6.83285 9.54353 6.86724 9.53449 6.90569C9.52544 6.94414 9.52934 6.98451 9.5456 7.02051C9.60429 7.18248 9.63666 7.35281 9.64149 7.52501C9.64816 7.55767 9.66089 7.58878 9.67902 7.61674C10.5129 7.42912 10.5629 7.32071 10.9048 7.38325C10.9452 7.39193 10.981 7.41491 11.0058 7.44795C11.0305 7.48098 11.0424 7.52185 11.0394 7.56301C11.0363 7.60416 11.0185 7.64283 10.9892 7.67186C10.9598 7.7009 10.921 7.71834 10.8798 7.72098H10.8215C9.75824 7.94196 9.48305 7.97115 9.57061 8.27135C9.97013 8.30682 10.3645 8.38653 10.7464 8.50901C10.7752 8.52683 10.7973 8.55363 10.8094 8.58528C10.8214 8.61692 10.8228 8.65166 10.8131 8.68413C10.7631 8.84256 10.6422 8.82589 10.4754 8.7967C10.134 8.71533 9.78693 8.65958 9.43719 8.62992C9.32367 8.76876 9.2553 8.93897 9.24123 9.11775C9.42601 9.19245 9.61924 9.24426 9.81661 9.27202C10.6632 9.40754 11.5259 9.40754 12.3725 9.27202C12.5434 9.247 12.7102 9.20114 12.877 9.15944C12.9313 9.13558 12.983 9.10624 13.0313 9.07189C12.9771 9.00517 12.9312 8.95514 12.8937 8.90094C12.681 8.61324 12.9979 8.48399 13.2564 8.32555C13.3106 8.2922 13.3898 8.30053 13.4149 8.21715C13.3315 8.09623 13.0605 7.99616 12.9145 7.88359C12.869 7.86004 12.8309 7.82445 12.8043 7.7807C12.7777 7.73695 12.7636 7.68672 12.7636 7.6355C12.7636 7.58429 12.7777 7.53406 12.8043 7.49031C12.8309 7.44656 12.869 7.41097 12.9145 7.38742C13.0104 7.32488 13.0229 7.33739 13.419 7.14559C13.3356 7.0622 13.2689 6.99549 13.198 6.93295C13.1272 6.87041 13.0438 6.81621 12.9771 6.74949C12.9483 6.72294 12.9253 6.69071 12.9095 6.65483C12.8938 6.61895 12.8857 6.5802 12.8857 6.54102C12.8857 6.50185 12.8938 6.46309 12.9095 6.42721C12.9253 6.39133 12.9483 6.3591 12.9771 6.33255L13.1814 6.14075ZM7.55676 10.5729C8.37863 9.88366 8.96223 8.95282 9.22455 7.91277C9.26409 7.71459 9.26409 7.51055 9.22455 7.31237C9.193 7.18272 9.12571 7.06453 9.03033 6.97123C8.93494 6.87792 8.81528 6.81326 8.68497 6.78459C8.55465 6.75592 8.41891 6.7644 8.29317 6.80905C8.16744 6.85371 8.05675 6.93275 7.97371 7.03719C7.71103 7.35407 7.7569 7.63342 7.64849 7.87108C7.63551 7.89454 7.61648 7.9141 7.59338 7.92771C7.57029 7.94133 7.54396 7.94851 7.51715 7.94851C7.49034 7.94851 7.46402 7.94133 7.44092 7.92771C7.41782 7.9141 7.39879 7.89454 7.38581 7.87108C7.35957 7.80975 7.34135 7.74528 7.33161 7.67929C7.13565 6.77034 6.45602 6.42845 5.90566 6.69946C5.71838 6.79819 5.5676 6.95423 5.47533 7.14477C5.38306 7.33531 5.35415 7.55036 5.39281 7.7585C5.43973 7.97553 5.5321 8.18016 5.66383 8.35891C6.17869 9.10178 6.75619 9.79924 7.38998 10.4436C7.43168 10.4687 7.49005 10.5103 7.55676 10.5729ZM4.9842 7.47081C5.02518 7.20616 5.11875 6.95239 5.25939 6.72448C5.23613 6.69004 5.2096 6.65792 5.18017 6.62858C5.1291 6.58592 5.07311 6.54953 5.01339 6.52017C4.53807 6.33255 4.11696 6.10323 2.51171 6.31587C2.42569 6.3275 2.34067 6.34562 2.25738 6.37007C2.22402 6.37007 2.199 6.4076 2.14897 6.44095L2.35327 6.57855C2.58676 6.73282 2.77022 6.8037 2.72436 6.99549C2.67015 7.30403 2.04056 7.0497 1.91965 7.41244C1.95269 7.43723 1.98754 7.45953 2.02389 7.47915C2.49503 7.6501 2.58676 7.6501 2.79107 7.72098C2.83755 7.73564 2.87789 7.76526 2.90579 7.80523C2.93369 7.8452 2.94759 7.89327 2.94534 7.94196C2.94534 8.25884 2.40331 8.1421 2.26571 8.40894C2.3908 8.48399 2.26571 8.44647 2.73269 8.52569C2.90364 8.5507 3.07459 8.57155 3.24554 8.60907C3.2894 8.61233 3.3315 8.6277 3.36714 8.65347C3.40279 8.67923 3.43058 8.71438 3.44744 8.755C3.46429 8.79563 3.46955 8.84013 3.46261 8.88356C3.45567 8.927 3.43682 8.96765 3.40815 9.001C3.35708 9.0793 3.30139 9.15449 3.24137 9.22615C3.29355 9.23904 3.34646 9.24878 3.39981 9.25534C4.09851 9.28338 4.7981 9.23021 5.48454 9.0969C5.5389 9.07853 5.59185 9.05624 5.64298 9.03019C5.56179 8.87959 5.46236 8.73955 5.34695 8.61324C4.65482 8.64243 4.45468 8.71331 4.2754 8.68413C4.24538 8.67698 4.21819 8.661 4.19735 8.63825C4.17651 8.6155 4.16297 8.58702 4.15848 8.55649C4.15399 8.52596 4.15876 8.49479 4.17217 8.467C4.18558 8.43921 4.20701 8.41608 4.2337 8.4006C4.29724 8.37759 4.36287 8.36083 4.42967 8.35057C5.15098 8.23799 4.90081 8.30053 5.11346 8.21715L4.99671 7.87942C4.36295 7.67512 4.0294 7.83355 4.00855 7.60006C4.0032 7.56165 4.01213 7.5226 4.03365 7.49032C4.05516 7.45805 4.08777 7.43478 4.1253 7.42495C4.41229 7.39773 4.70174 7.41319 4.9842 7.47081Z" fill="black"/>
<path d="M7.50651 4.25587C7.86977 4.25488 8.22621 4.35445 8.53637 4.54356C8.95331 4.86044 8.74901 5.37745 8.11942 5.52338C7.86924 5.596 7.60674 5.61607 7.34843 5.58235C7.09011 5.54862 6.84157 5.46183 6.61841 5.32742C6.2515 5.06891 6.2515 4.58942 7.03536 4.34759C7.19044 4.30766 7.34777 4.27703 7.50651 4.25587ZM6.76852 4.93549C6.81029 4.99499 6.86353 5.04556 6.9251 5.08422C6.98667 5.12288 7.05534 5.14886 7.12709 5.16064C7.43368 5.24812 7.75863 5.24812 8.06522 5.16064C8.12668 5.15084 8.18517 5.1274 8.2364 5.09205C8.28762 5.0567 8.33028 5.01033 8.36125 4.95634C8.33018 4.89667 8.28513 4.84541 8.22995 4.80693C8.17477 4.76845 8.1111 4.74389 8.04437 4.73535C7.71422 4.62505 7.35717 4.62505 7.02702 4.73535C6.92278 4.78122 6.82689 4.81041 6.76852 4.93549Z" fill="black"/>
<path d="M13.1823 6.14104L12.978 6.32033C12.9492 6.34688 12.9262 6.37911 12.9105 6.41499C12.8948 6.45087 12.8867 6.48962 12.8867 6.5288C12.8867 6.56798 12.8948 6.60673 12.9105 6.64261C12.9262 6.67849 12.9492 6.71072 12.978 6.73727C13.0447 6.80398 13.1281 6.85402 13.199 6.92073C13.2699 6.98744 13.3366 7.04998 13.42 7.13337C13.003 7.32517 13.003 7.31266 12.9155 7.3752C12.87 7.39874 12.8319 7.43434 12.8053 7.47809C12.7786 7.52184 12.7646 7.57207 12.7646 7.62328C12.7646 7.6745 12.7786 7.72472 12.8053 7.76848C12.8319 7.81223 12.87 7.84782 12.9155 7.87137C13.0656 7.98394 13.3324 8.08401 13.4158 8.20492C13.3908 8.28831 13.3116 8.27997 13.2574 8.31333C12.9989 8.48845 12.682 8.60102 12.8946 8.88872C12.9322 8.94292 12.978 8.99295 13.0322 9.05966C12.9839 9.09402 12.9322 9.12336 12.878 9.14722C12.7112 9.18892 12.5444 9.23478 12.3735 9.2598C11.5269 9.39532 10.6641 9.39532 9.81757 9.2598C9.6202 9.23204 9.42697 9.18023 9.24219 9.10553C9.25626 8.92675 9.32464 8.75654 9.43815 8.6177C9.78811 8.64554 10.1353 8.70131 10.4763 8.78448C10.6431 8.81367 10.764 8.83034 10.8141 8.6719C10.8237 8.63944 10.8224 8.6047 10.8104 8.57305C10.7983 8.54141 10.7762 8.51461 10.7474 8.49679C10.5014 8.36753 10.3304 8.40923 9.57157 8.25913C9.49235 7.95893 9.7592 7.93391 10.8224 7.70876H10.8808C10.922 7.70612 10.9608 7.68868 10.9901 7.65964C11.0195 7.63061 11.0373 7.59194 11.0403 7.55079C11.0434 7.50963 11.0315 7.46876 11.0067 7.43572C10.982 7.40269 10.9461 7.37971 10.9058 7.37103C10.5639 7.30849 10.5347 7.41273 9.67998 7.60452C9.66185 7.57656 9.64913 7.54544 9.64246 7.51279C9.63763 7.34058 9.60525 7.17026 9.54656 7.00829C9.53031 6.97228 9.5264 6.93192 9.53545 6.89347C9.5445 6.85501 9.56599 6.82063 9.59659 6.79565C9.69416 6.70424 9.79871 6.6206 9.9093 6.54548C10.9073 5.99341 12.08 5.8485 13.1823 6.14104Z" fill="white"/>
<path d="M7.55564 10.5729C7.48893 10.5104 7.43056 10.4687 7.38886 10.4228C6.75404 9.77933 6.17647 9.08178 5.66271 8.33807C5.53098 8.15932 5.43861 7.95469 5.39169 7.73767C5.35303 7.52952 5.38194 7.31447 5.47421 7.12393C5.56648 6.93339 5.71727 6.77735 5.90454 6.67862C6.0835 6.59196 6.28637 6.56787 6.48066 6.61021C6.67494 6.65254 6.8494 6.75885 6.97609 6.91211C7.18572 7.18839 7.32844 7.5095 7.39303 7.85024C7.40601 7.8737 7.42504 7.89326 7.44814 7.90687C7.47124 7.92049 7.49756 7.92767 7.52437 7.92767C7.55118 7.92767 7.57751 7.92049 7.6006 7.90687C7.6237 7.89326 7.64273 7.8737 7.65571 7.85024C7.69464 7.76404 7.7213 7.67282 7.73493 7.57923C7.95174 6.47015 9.10668 6.59106 9.24011 7.30821C9.27964 7.50639 9.27964 7.71043 9.24011 7.90861C8.97409 8.95232 8.38442 9.88499 7.55564 10.5729ZM7.45558 9.32206C7.61456 9.33057 7.77248 9.29148 7.90914 9.20978C8.04579 9.12808 8.15499 9.00749 8.22276 8.86342C8.23862 8.82516 8.24074 8.78258 8.22877 8.74293C8.2168 8.70328 8.19147 8.669 8.15708 8.64591C8.12269 8.62282 8.08137 8.61235 8.04014 8.61628C7.99891 8.62021 7.9603 8.63829 7.93089 8.66745C7.8892 8.70498 7.86001 8.75918 7.81832 8.79671C7.77738 8.84025 7.72796 8.87495 7.67311 8.89867C7.61825 8.92239 7.55912 8.93463 7.49936 8.93463C7.43959 8.93463 7.38046 8.92239 7.3256 8.89867C7.27075 8.87495 7.22133 8.84025 7.18039 8.79671C7.13453 8.75918 7.10117 8.71332 7.05531 8.67996C7.03008 8.6574 6.99742 8.64493 6.96358 8.64493C6.92973 8.64493 6.89708 8.6574 6.87185 8.67996C6.82937 8.71743 6.80257 8.76954 6.7968 8.8259C6.83326 8.97084 6.91883 9.09867 7.03895 9.18762C7.15906 9.27657 7.3063 9.32113 7.45558 9.31372V9.32206ZM6.57165 7.8419C6.56778 7.79877 6.54694 7.75895 6.5137 7.73119C6.48047 7.70344 6.43757 7.69002 6.39445 7.69389C6.35132 7.69776 6.3115 7.7186 6.28374 7.75183C6.25598 7.78506 6.24256 7.82796 6.24643 7.87109C6.24744 7.89212 6.25275 7.91272 6.26203 7.93163C6.2713 7.95053 6.28435 7.96733 6.30036 7.981C6.31638 7.99468 6.33502 8.00492 6.35515 8.01112C6.37527 8.01731 6.39645 8.01932 6.41738 8.01702C6.4612 8.01087 6.5012 7.98873 6.52968 7.95486C6.55816 7.92099 6.57311 7.87779 6.57165 7.83356V7.8419ZM8.65638 7.80855C8.65362 7.76874 8.63515 7.73166 8.60505 7.70546C8.57494 7.67927 8.53567 7.6661 8.49586 7.66887C8.45605 7.67163 8.41897 7.6901 8.39277 7.7202C8.36658 7.75031 8.35342 7.78958 8.35618 7.82939C8.36005 7.87141 8.38045 7.91018 8.4129 7.93715C8.44535 7.96413 8.48719 7.97711 8.52921 7.97324C8.57123 7.96937 8.61 7.94896 8.63697 7.91651C8.66395 7.88406 8.67693 7.84223 8.67306 7.80021L8.65638 7.80855Z" fill="#FF0303"/>
<path d="M4.98448 7.4702C4.71046 7.41258 4.42926 7.39711 4.15058 7.42434C4.11578 7.43248 4.08476 7.45216 4.06255 7.48016C4.04034 7.50817 4.02825 7.54286 4.02825 7.57861C4.02825 7.61435 4.04034 7.64904 4.06255 7.67705C4.08476 7.70506 4.11578 7.72473 4.15058 7.73288C4.4397 7.75244 4.72609 7.80134 5.00532 7.87881L5.12207 8.21653C5.07748 8.24092 5.02979 8.25915 4.98031 8.27074C4.73139 8.29505 4.48468 8.33826 4.24231 8.39999C4.21562 8.41547 4.19419 8.4386 4.18078 8.46639C4.16737 8.49418 4.1626 8.52535 4.16709 8.55588C4.17158 8.58641 4.18512 8.61489 4.20596 8.63764C4.2268 8.66039 4.25399 8.67637 4.28401 8.68351C4.46329 8.7127 4.63007 8.64182 5.35556 8.61263C5.47097 8.73894 5.5704 8.87898 5.65159 9.02958C5.60046 9.05563 5.54751 9.07792 5.49315 9.09629C4.93742 9.20878 4.37151 9.26327 3.80452 9.2589C3.61636 9.27981 3.42601 9.26853 3.24164 9.22554C3.30166 9.15388 3.35735 9.07869 3.40842 9.00039C3.43709 8.96704 3.45594 8.92639 3.46288 8.88295C3.46982 8.83952 3.46457 8.79502 3.44771 8.75439C3.43086 8.71377 3.40306 8.67862 3.36741 8.65285C3.33177 8.62709 3.28967 8.61172 3.24581 8.60846C3.03734 8.5626 2.58287 8.5084 2.36189 8.4667C2.32743 8.45166 2.29518 8.43202 2.26599 8.40833C2.40775 8.14148 2.93727 8.25406 2.94561 7.94135C2.94561 7.70786 2.73297 7.70786 2.40358 7.60779C1.94494 7.46186 2.01582 7.47437 1.91992 7.41183C2.04084 7.04075 2.67043 7.29508 2.72463 6.99488C2.73441 6.9471 2.72926 6.89746 2.70987 6.85271C2.69047 6.80795 2.65778 6.77025 2.61622 6.74471C2.49948 6.65716 2.54534 6.70302 2.14924 6.432C2.19928 6.39865 2.22429 6.36946 2.25765 6.36112C2.34094 6.33667 2.42596 6.31855 2.51199 6.30692C4.10055 6.09011 4.52167 6.30692 5.01366 6.51122C5.07338 6.54058 5.12937 6.57697 5.18044 6.61963C5.20987 6.64897 5.2364 6.68109 5.25966 6.71553C5.11798 6.94595 5.02437 7.20266 4.98448 7.4702Z" fill="white"/>
<path d="M7.45565 9.31393C7.3082 9.32123 7.16266 9.27814 7.04294 9.19176C6.92321 9.10538 6.83644 8.98084 6.79688 8.83862C6.79687 8.76773 6.90111 8.58428 7.05538 8.68852C7.10125 8.72187 7.1346 8.76773 7.18047 8.80526C7.2214 8.8488 7.27082 8.8835 7.32568 8.90722C7.38053 8.93094 7.43966 8.94318 7.49943 8.94318C7.55919 8.94318 7.61833 8.93094 7.67318 8.90722C7.72804 8.8835 7.77746 8.8488 7.81839 8.80526C7.86009 8.76773 7.88927 8.71353 7.93097 8.67601C7.96038 8.64684 7.99898 8.62876 8.04021 8.62483C8.08145 8.6209 8.12277 8.63137 8.15715 8.65446C8.19154 8.67755 8.21687 8.71183 8.22885 8.75148C8.24082 8.79114 8.23869 8.83371 8.22283 8.87197C8.15261 9.01293 8.04236 9.13005 7.9059 9.20867C7.76944 9.28728 7.61282 9.3239 7.45565 9.31393Z" fill="black"/>
<path d="M6.57197 7.83324C6.57139 7.87604 6.55552 7.91722 6.52722 7.94934C6.49893 7.98145 6.46008 8.00239 6.4177 8.00836C6.39677 8.01066 6.37559 8.00865 6.35546 8.00246C6.33534 7.99626 6.31669 7.98601 6.30068 7.97234C6.28466 7.95867 6.27162 7.94187 6.26234 7.92296C6.25307 7.90406 6.24776 7.88346 6.24675 7.86243C6.24288 7.8193 6.2563 7.7764 6.28406 7.74317C6.31181 7.70994 6.35164 7.68909 6.39476 7.68522C6.43789 7.68135 6.48079 7.69477 6.51402 7.72253C6.54725 7.75029 6.56809 7.79011 6.57197 7.83324Z" fill="black"/>
<path d="M8.67361 7.79922C8.67637 7.83903 8.66321 7.8783 8.63702 7.90841C8.61082 7.93851 8.57374 7.95698 8.53393 7.95974C8.49412 7.96251 8.45485 7.94934 8.42474 7.92315C8.39464 7.89695 8.37617 7.85988 8.37341 7.82007C8.37064 7.78026 8.38381 7.74098 8.41 7.71088C8.4362 7.68077 8.47328 7.66231 8.51309 7.65954C8.5529 7.65678 8.59217 7.66994 8.62228 7.69613C8.65238 7.72233 8.67085 7.75941 8.67361 7.79922Z" fill="black"/>
</svg>
