<svg width="16" height="16" viewBox="0 0 16 16" fill="none" xmlns="http://www.w3.org/2000/svg">
<path d="M7.91912 3.97209C8.04346 3.76824 8.1902 3.57894 8.35662 3.40772C8.75475 3.06647 9.33225 3.32897 9.37162 3.97647C9.3715 4.71025 9.12671 5.42305 8.676 6.00209C8.55117 6.17137 8.48788 6.3782 8.49662 6.58835C8.49662 7.5246 8.49662 8.51772 8.56225 9.34897C9.66475 9.34897 9.87475 9.17835 9.99725 9.64648C10.2248 10.4865 9.85287 10.4034 9.1835 10.4646C9.03347 10.4555 8.88344 10.4825 8.746 10.5434V10.7577C8.83294 10.8176 8.93861 10.844 9.0435 10.8321C9.29287 10.8321 9.54662 10.8321 9.796 10.8321C10.2073 10.8321 10.3035 11.0509 10.2029 11.3746C10.1022 11.6984 10.1154 11.8121 9.65162 11.8471C8.59725 11.9215 8.36537 12.0177 7.7835 11.9346C7.73501 11.9324 7.68746 11.9205 7.64365 11.8996C7.59984 11.8787 7.56067 11.8492 7.52845 11.8129C7.49623 11.7766 7.47161 11.7342 7.45605 11.6882C7.44049 11.6423 7.43431 11.5936 7.43787 11.5452C7.43787 11.3615 7.28474 7.31022 7.28474 7.19647C7.28474 6.93397 7.26287 6.67147 7.28474 6.40897C7.2978 6.22742 7.24499 6.04725 7.13599 5.90147C6.71126 5.34884 6.40181 4.71655 6.22599 4.04209C6.09474 3.30272 6.54537 2.77334 7.14474 3.09709C7.42014 3.23103 7.64328 3.45263 7.77912 3.72709C7.80975 3.81459 7.84912 3.86709 7.91912 3.97209ZM8.22537 10.189C9.2885 10.0927 9.47662 10.189 9.6385 10.049C9.67053 10.0288 9.69591 9.99972 9.71148 9.96524C9.72706 9.93077 9.73212 9.89247 9.72606 9.85513C9.71999 9.81779 9.70305 9.78306 9.67737 9.75529C9.65168 9.72752 9.61838 9.70793 9.58162 9.69898C9.50214 9.68519 9.42167 9.67787 9.341 9.6771C8.50975 9.69898 8.361 9.75585 8.17725 9.65085C8.151 9.4496 8.17725 9.94835 8.12912 6.83772C8.12587 6.78907 8.11855 6.74078 8.10725 6.69335L7.70475 6.74147C7.6785 7.17897 7.84912 11.4096 7.8535 11.4971C7.85602 11.5274 7.86728 11.5564 7.88592 11.5805C7.90455 11.6045 7.92976 11.6227 7.9585 11.6327C8.0134 11.6593 8.07271 11.6757 8.1335 11.6809C8.63569 11.7066 9.13906 11.6639 9.62975 11.554C9.90537 11.4927 9.89225 11.2259 9.71287 11.1909C9.31037 11.1121 9.096 11.2127 8.40037 11.1471C8.33475 11.1471 8.26912 11.1209 8.20787 11.1077C8.1517 10.8039 8.15318 10.4922 8.21225 10.189H8.22537Z" fill="black"/>
<path d="M8.21276 10.1884C8.15514 10.492 8.15514 10.8037 8.21276 11.1072C8.27401 11.1072 8.33964 11.1378 8.40526 11.1466C8.73747 11.1662 9.07055 11.1662 9.40276 11.1466C9.50284 11.1437 9.60286 11.154 9.70026 11.1772C9.87964 11.2122 9.89714 11.4791 9.61714 11.5403C9.12645 11.6503 8.62308 11.693 8.12089 11.6672C8.0601 11.662 8.00079 11.6457 7.94589 11.6191C7.91715 11.609 7.89194 11.5909 7.87331 11.5668C7.85467 11.5427 7.84341 11.5138 7.84089 11.4834C7.84089 11.3916 7.66589 7.17406 7.69214 6.72781L8.09464 6.67969C8.10594 6.72712 8.11326 6.77541 8.11651 6.82406C8.15589 9.93469 8.13839 9.44907 8.16464 9.63719C8.34839 9.74219 8.49714 9.68532 9.32839 9.66344C9.40906 9.66422 9.48953 9.67153 9.56901 9.68532C9.60577 9.69427 9.63907 9.71386 9.66476 9.74163C9.69044 9.7694 9.70738 9.80413 9.71345 9.84147C9.71951 9.87881 9.71445 9.91711 9.69887 9.95159C9.6833 9.98606 9.65792 10.0152 9.62589 10.0353C9.46401 10.1709 9.27589 10.0922 8.21276 10.1884Z" fill="#FF0303"/>
</svg>
