<svg width="16" height="16" viewBox="0 0 16 16" fill="none" xmlns="http://www.w3.org/2000/svg">
<path d="M3.21928 7.07402C3.22848 6.89833 3.28459 6.7283 3.38177 6.58163C3.67449 6.10558 4.03064 5.67157 4.44041 5.29156C5.04462 4.75634 5.71881 4.30577 6.44446 3.95225C6.75973 3.77479 7.10543 3.65788 7.46371 3.60757C8.51743 3.51894 9.2511 3.98672 9.99461 4.44464C10.8479 4.91789 11.6614 5.45966 12.427 6.06462C12.5452 6.16802 12.6979 6.15325 12.7372 6.43884C12.9913 7.65078 13.061 8.89412 12.9441 10.1269C12.9296 10.8646 12.8489 11.5996 12.7028 12.3229C12.669 12.4805 12.585 12.6229 12.4633 12.7286C12.3417 12.8342 12.189 12.8975 12.0282 12.9089C12.0282 12.9089 9.44313 13.1502 8.33032 13.2289C7.08534 13.327 5.83527 13.3434 4.58813 13.2782C4.3558 13.2608 4.12526 13.2245 3.89878 13.1699C3.13065 13.0024 3.19958 12.3722 3.19958 9.53107C3.1208 9.52122 3.17004 9.7231 3.21928 7.07402ZM3.74614 6.73427C3.99726 6.95093 3.91355 6.87214 6.46415 8.35425L6.63649 8.27547C6.77038 8.21041 6.91941 8.18292 7.0677 8.19593C7.21599 8.20894 7.35796 8.26195 7.47848 8.34932C7.58189 8.41333 7.57204 8.43303 7.85763 8.64968C7.98458 8.52767 8.11947 8.41417 8.26139 8.30993C8.62576 8.06374 8.9212 8.25577 9.24618 8.37887C10.3836 7.6452 10.9696 7.12819 11.8066 6.65549C11.9145 6.59092 12.0152 6.51499 12.107 6.42899C11.9593 6.21234 11.9494 6.21726 9.32988 4.56774C8.88515 4.27965 8.37936 4.09925 7.8527 4.04088C6.96639 3.90301 5.42028 4.98628 4.7457 5.57222C4.37436 5.92505 4.03949 6.31436 3.74614 6.73427ZM8.59129 10.2697C8.23677 10.5356 8.24169 10.5454 8.0989 10.6242C7.70991 10.8852 7.65574 10.7621 7.21259 10.3484C6.2278 11.0132 5.37596 11.8256 4.41087 12.4657C4.31731 12.5297 4.23361 12.6036 4.14498 12.6725C4.05635 12.7415 4.14498 12.7415 4.14498 12.7464C4.2644 12.8094 4.39943 12.8368 4.53397 12.8252C6.16822 12.9215 7.8078 12.872 9.43329 12.6775C12.2498 12.4313 11.8953 12.4756 11.9839 12.4214C11.9839 12.3919 11.9839 12.3574 11.9839 12.3476C10.812 11.6927 9.73365 10.9344 8.59129 10.2697ZM12.299 12.057C12.4566 11.6631 12.3876 11.4317 12.5206 10.0333C12.6118 9.03889 12.5671 8.03667 12.3876 7.05433C12.369 6.99524 12.346 6.93764 12.3187 6.88199C11.3183 7.46936 10.3547 8.11724 9.43329 8.82202C9.3545 9.0436 9.29541 9.22579 9.22156 9.40305C9.1477 9.58031 8.98028 9.7231 8.91135 9.93483L12.299 12.057ZM3.64766 7.21189C3.60827 7.50733 3.61319 6.97062 3.64766 10.0825C3.64766 10.7079 3.64766 11.0378 3.69197 12.0866C3.68543 12.2054 3.72217 12.3226 3.79538 12.4165C4.91311 11.604 6.25735 10.4715 6.94177 10.0087C6.79898 9.79696 6.66111 9.62955 6.55771 9.44244C6.4543 9.25533 6.38044 9.02883 6.26719 8.76786L3.64766 7.21189Z" fill="black"/>
<path d="M3.74609 6.73469C4.05184 6.3129 4.39997 5.92352 4.78504 5.57265C5.45962 4.9867 7.00574 3.90343 7.89205 4.0413C8.41839 4.10108 8.92386 4.28136 9.36923 4.56816C12.0675 6.26692 12.0035 6.21768 12.1463 6.42941C12.0549 6.51577 11.9541 6.59173 11.846 6.65591C11.004 7.14831 10.4279 7.6407 9.28552 8.37929C8.94577 8.25619 8.64541 8.06416 8.30074 8.31035C8.15881 8.41459 8.02393 8.52809 7.89697 8.65011L7.75418 8.54178C7.62458 8.39059 7.45096 8.28368 7.25762 8.23601C7.06428 8.18834 6.86087 8.20228 6.67584 8.27589L6.5035 8.35467C3.87412 6.84794 4.01691 6.9415 3.74609 6.73469ZM6.73492 5.25751C6.73152 5.21294 6.71227 5.17105 6.68066 5.13944C6.64905 5.10782 6.60716 5.08858 6.56259 5.08518C6.49961 5.08095 6.43741 5.10107 6.38884 5.14139C6.34028 5.18171 6.30905 5.23915 6.30162 5.30183C6.30761 5.35248 6.33017 5.39973 6.36579 5.43624C6.40141 5.47275 6.44809 5.49647 6.49857 5.50371C6.56219 5.49663 6.62112 5.46683 6.66454 5.4198C6.70795 5.37276 6.73295 5.31165 6.73492 5.24767V5.25751ZM8.01515 4.76512C8.01427 4.70863 7.99275 4.65441 7.95465 4.61269C7.91656 4.57097 7.86452 4.54462 7.80834 4.53862C7.76311 4.54057 7.72003 4.55844 7.68669 4.58907C7.65336 4.61971 7.63192 4.66113 7.62616 4.70603C7.59661 4.97192 8.00038 4.98177 8.01515 4.7602V4.76512ZM11.2059 6.37525C11.21 6.32323 11.1939 6.2716 11.1609 6.23121C11.1278 6.19081 11.0804 6.16479 11.0286 6.15859C10.7873 6.15859 10.7578 6.54266 11.0286 6.55743C11.0757 6.55275 11.1195 6.53126 11.1521 6.4969C11.1846 6.46254 11.2037 6.41761 11.2059 6.37032V6.37525ZM4.86383 6.67561C4.86383 6.61945 4.84152 6.5656 4.80181 6.52589C4.76211 6.48618 4.70825 6.46388 4.6521 6.46388C4.60804 6.4674 4.56676 6.48683 4.53596 6.51854C4.50515 6.55025 4.48693 6.59207 4.48468 6.63622C4.48127 6.66352 4.48347 6.69123 4.49116 6.71764C4.49884 6.74406 4.51184 6.76863 4.52936 6.78984C4.54688 6.81105 4.56856 6.82846 4.59305 6.84099C4.61754 6.85352 4.64434 6.86092 4.67179 6.86272C4.72233 6.86147 4.77045 6.84084 4.8062 6.80509C4.84195 6.76934 4.86258 6.72122 4.86383 6.67068V6.67561ZM10.162 5.6465C10.1359 5.64217 10.1092 5.64357 10.0837 5.65061C10.0582 5.65764 10.0345 5.67015 10.0143 5.68725C9.99416 5.70435 9.97794 5.72564 9.96683 5.74964C9.95571 5.77364 9.94995 5.79978 9.94995 5.82623C9.94995 5.85268 9.95571 5.87881 9.96683 5.90281C9.97794 5.92681 9.99416 5.9481 10.0143 5.96521C10.0345 5.98231 10.0582 5.99481 10.0837 6.00185C10.1092 6.00889 10.1359 6.01029 10.162 6.00595C10.1859 6.00595 10.2096 6.00124 10.2317 5.99208C10.2538 5.98293 10.2739 5.96951 10.2908 5.95259C10.3077 5.93567 10.3211 5.91559 10.3303 5.89349C10.3395 5.87138 10.3442 5.84769 10.3442 5.82377C10.3442 5.79984 10.3395 5.77615 10.3303 5.75405C10.3211 5.73194 10.3077 5.71186 10.2908 5.69494C10.2739 5.67802 10.2538 5.6646 10.2317 5.65545C10.2096 5.64629 10.1859 5.64158 10.162 5.64158V5.6465ZM5.49409 5.78437C5.44301 5.78424 5.39378 5.80347 5.35632 5.83819C5.31886 5.87291 5.29595 5.92054 5.29221 5.97148C5.29346 6.02202 5.31409 6.07014 5.34984 6.10589C5.38558 6.14164 5.43371 6.16227 5.48424 6.16352C5.53558 6.15739 5.58276 6.13225 5.61648 6.09306C5.6502 6.05387 5.66802 6.00347 5.66643 5.95179C5.66644 5.92938 5.66195 5.9072 5.65323 5.88656C5.64451 5.86592 5.63174 5.84725 5.61567 5.83163C5.59959 5.81602 5.58055 5.80379 5.55967 5.79568C5.53879 5.78756 5.51649 5.78372 5.49409 5.78437ZM9.13288 5.02609C9.08838 5.02726 9.04595 5.04513 9.01402 5.07614C8.98209 5.10716 8.963 5.14906 8.96054 5.1935C8.96102 5.22116 8.96731 5.24841 8.97902 5.27347C8.99072 5.29853 9.00757 5.32085 9.02848 5.33897C9.04938 5.35708 9.07387 5.37059 9.10034 5.37862C9.12681 5.38664 9.15468 5.389 9.18212 5.38554C9.22633 5.37523 9.26511 5.3488 9.29085 5.3114C9.31659 5.27401 9.32744 5.22835 9.32128 5.18338C9.31512 5.1384 9.29239 5.09734 9.25754 5.06825C9.22269 5.03916 9.17823 5.02412 9.13288 5.02609Z" fill="white"/>
<path d="M8.59186 10.2705C9.73422 10.9352 10.8126 11.6886 11.9401 12.3583C11.9401 12.3583 11.9401 12.4026 11.9401 12.4321C11.8367 12.4863 12.211 12.4321 9.38954 12.6882C7.77692 12.879 6.15046 12.9252 4.52962 12.826C4.39508 12.8376 4.26005 12.8103 4.14062 12.7472C4.14062 12.7472 4.14062 12.6882 4.14062 12.6734C4.14062 12.6586 4.31296 12.5306 4.40652 12.4666C5.39131 11.8068 6.2333 11.014 7.20824 10.3493C7.65139 10.7629 7.70063 10.886 8.09455 10.625C8.24226 10.5462 8.25704 10.5167 8.59186 10.2705ZM10.3251 12.1859C10.3178 12.1409 10.2947 12.0999 10.26 12.0703C10.2253 12.0408 10.1811 12.0245 10.1355 12.0245C10.0899 12.0245 10.0458 12.0408 10.011 12.0703C9.9763 12.0999 9.95323 12.1409 9.94595 12.1859C9.9416 12.2109 9.94281 12.2365 9.9495 12.261C9.95619 12.2854 9.9682 12.3081 9.98466 12.3274C10.0011 12.3467 10.0216 12.3621 10.0447 12.3725C10.0678 12.383 10.0929 12.3882 10.1183 12.3878C10.1456 12.3899 10.173 12.3862 10.1987 12.3769C10.2245 12.3676 10.2479 12.3529 10.2675 12.3338C10.2871 12.3147 10.3023 12.2916 10.3123 12.2661C10.3222 12.2406 10.3266 12.2132 10.3251 12.1859ZM9.37477 12.1859C9.36858 12.1354 9.34308 12.0892 9.30361 12.0571C9.26414 12.025 9.21376 12.0094 9.16304 12.0136C9.11833 12.0229 9.07841 12.0478 9.05044 12.0839C9.02246 12.12 9.00827 12.1649 9.0104 12.2105C9.01211 12.2359 9.01912 12.2606 9.03096 12.2831C9.04281 12.3056 9.05923 12.3254 9.07917 12.3412C9.09911 12.3569 9.12213 12.3683 9.14676 12.3747C9.17138 12.381 9.19705 12.3821 9.22213 12.378C9.26597 12.3688 9.30523 12.3446 9.33311 12.3095C9.36098 12.2744 9.37572 12.2307 9.37477 12.1859ZM6.57797 12.3189C6.5718 12.268 6.54648 12.2213 6.50716 12.1884C6.46783 12.1555 6.41745 12.1387 6.36624 12.1416C6.32283 12.1516 6.2841 12.1761 6.25638 12.211C6.22865 12.2458 6.21357 12.2891 6.2136 12.3336C6.2136 12.382 6.2328 12.4283 6.26696 12.4625C6.30113 12.4966 6.34747 12.5158 6.39579 12.5158C6.44411 12.5158 6.49045 12.4966 6.52461 12.4625C6.55878 12.4283 6.57797 12.382 6.57797 12.3336V12.3189ZM8.47369 12.2105C8.46673 12.1692 8.44535 12.1317 8.41335 12.1046C8.38135 12.0776 8.3408 12.0627 8.29889 12.0627C8.25698 12.0627 8.21643 12.0776 8.18443 12.1046C8.15243 12.1317 8.13105 12.1692 8.12409 12.2105C8.12383 12.2354 8.12896 12.26 8.13912 12.2827C8.14928 12.3054 8.16422 12.3256 8.18293 12.342C8.20164 12.3584 8.22368 12.3705 8.24752 12.3776C8.27136 12.3846 8.29644 12.3864 8.32105 12.3829C8.36048 12.3776 8.39698 12.3591 8.42467 12.3305C8.45236 12.302 8.46962 12.2649 8.47369 12.2253V12.2105ZM7.56276 12.2598C7.55754 12.2154 7.53489 12.1749 7.4998 12.1472C7.46471 12.1195 7.42005 12.1068 7.37565 12.1121C7.33125 12.1173 7.29074 12.1399 7.26304 12.175C7.23534 12.2101 7.22271 12.2548 7.22793 12.2992C7.22955 12.3212 7.23548 12.3426 7.24539 12.3623C7.25529 12.382 7.26898 12.3995 7.28567 12.4139C7.30236 12.4283 7.32172 12.4393 7.34265 12.4462C7.36358 12.4532 7.38567 12.4559 7.40766 12.4543C7.42964 12.4527 7.45109 12.4467 7.47079 12.4368C7.49048 12.4269 7.50803 12.4132 7.52243 12.3965C7.53683 12.3798 7.54781 12.3605 7.55473 12.3396C7.56165 12.3186 7.56438 12.2965 7.56276 12.2745V12.2598ZM5.59319 12.5207C5.60961 12.5202 5.62574 12.5162 5.64055 12.5091C5.65535 12.5019 5.6685 12.4918 5.67916 12.4793C5.68981 12.4668 5.69775 12.4522 5.70244 12.4364C5.70714 12.4207 5.7085 12.4041 5.70644 12.3878C5.70155 12.3546 5.68386 12.3247 5.65716 12.3045C5.63046 12.2842 5.59689 12.2752 5.56364 12.2795C5.52969 12.2821 5.49816 12.2981 5.476 12.3239C5.45384 12.3498 5.44286 12.3834 5.44547 12.4173C5.44808 12.4513 5.46407 12.4828 5.48993 12.505C5.51578 12.5271 5.54938 12.5381 5.58334 12.5355L5.59319 12.5207Z" fill="white"/>
<path d="M12.2995 12.0569L8.94141 9.93468C9.01034 9.72295 9.17775 9.59 9.25161 9.40289C9.32547 9.21578 9.38456 9.04344 9.46334 8.82187C10.3808 8.11871 11.3394 7.47089 12.334 6.88184C12.3612 6.93748 12.3843 6.99509 12.4029 7.05417C12.5824 8.03652 12.6271 9.03873 12.5359 10.0332C12.3882 11.4414 12.4571 11.663 12.2995 12.0569ZM11.8515 10.0381C11.8001 10.043 11.7524 10.0669 11.7178 10.1052C11.6832 10.1435 11.6641 10.1933 11.6643 10.2449C11.665 10.2705 11.6707 10.2958 11.6813 10.3192C11.6918 10.3426 11.707 10.3636 11.7258 10.3811C11.7446 10.3985 11.7667 10.412 11.7908 10.4207C11.815 10.4295 11.8406 10.4333 11.8662 10.432C11.9185 10.432 11.9686 10.4112 12.0055 10.3743C12.0424 10.3374 12.0632 10.2873 12.0632 10.235C12.0632 10.1828 12.0424 10.1327 12.0055 10.0958C11.9686 10.0588 11.9185 10.0381 11.8662 10.0381H11.8515ZM11.8515 8.22115C11.8009 8.22807 11.7544 8.25261 11.7202 8.29044C11.686 8.32827 11.6662 8.37697 11.6643 8.42795C11.6643 8.45618 11.67 8.48412 11.6809 8.51013C11.6919 8.53615 11.7079 8.55971 11.7281 8.57944C11.7483 8.59916 11.7722 8.61465 11.7985 8.625C11.8247 8.63535 11.8528 8.64034 11.881 8.63968C12.1272 8.60521 12.1075 8.21622 11.8662 8.24577L11.8515 8.22115ZM11.9549 7.44809C11.9042 7.44741 11.855 7.46493 11.8161 7.49745C11.7773 7.52998 11.7514 7.57536 11.7431 7.62535C11.7417 7.67597 11.7599 7.72518 11.7938 7.76278C11.8277 7.80037 11.8748 7.82345 11.9253 7.82723C11.9757 7.82883 12.0248 7.81153 12.0631 7.77873C12.1014 7.74593 12.126 7.7 12.1321 7.64997C12.1351 7.60211 12.1201 7.55485 12.0901 7.51749C12.06 7.48013 12.017 7.45537 11.9696 7.44809H11.9549ZM12.073 9.23055C12.0681 9.18789 12.0469 9.14877 12.0139 9.12128C11.9809 9.09379 11.9386 9.08002 11.8958 9.08284C11.8394 9.08504 11.7857 9.10777 11.7449 9.14677C11.7041 9.18576 11.679 9.23832 11.6742 9.29456C11.6767 9.34463 11.6988 9.39172 11.7356 9.42576C11.7724 9.4598 11.821 9.4781 11.8711 9.47675C11.9013 9.47575 11.9308 9.46834 11.9579 9.455C11.9849 9.44166 12.0088 9.4227 12.0279 9.39939C12.047 9.37608 12.0609 9.34897 12.0687 9.31985C12.0765 9.29073 12.078 9.26029 12.073 9.23055ZM11.7382 11.146C11.7395 11.1712 11.7457 11.1959 11.7565 11.2187C11.7674 11.2416 11.7826 11.262 11.8013 11.2789C11.8201 11.2959 11.842 11.3089 11.8658 11.3174C11.8896 11.3258 11.9149 11.3295 11.9401 11.3282C11.9901 11.3208 12.0356 11.295 12.0675 11.2558C12.0994 11.2166 12.1154 11.1669 12.1124 11.1164C12.0976 10.9047 11.7382 10.9342 11.7382 11.1657V11.146Z" fill="white"/>
<path d="M3.6481 7.21191L6.25779 8.76788C6.37104 9.02885 6.4449 9.26027 6.5483 9.44246C6.65171 9.62464 6.78958 9.79698 6.93237 10.0087C6.26271 10.4617 4.87909 11.6238 3.78598 12.4165C3.71277 12.3227 3.67603 12.2055 3.68257 12.0866C3.63826 11.0723 3.64318 10.767 3.63826 10.0826C3.61364 6.97064 3.60871 7.50735 3.6481 7.21191ZM4.1405 11.3874C4.08696 11.3913 4.03716 11.4164 4.00207 11.457C3.96698 11.4976 3.94947 11.5505 3.95339 11.6041C3.95731 11.6576 3.98233 11.7074 4.02296 11.7425C4.06359 11.7776 4.1165 11.7951 4.17004 11.7912C4.19543 11.7927 4.22085 11.7887 4.24456 11.7795C4.26828 11.7703 4.28974 11.7561 4.30749 11.7379C4.32524 11.7197 4.33886 11.6979 4.34743 11.6739C4.356 11.65 4.35932 11.6245 4.35715 11.5991C4.35722 11.57 4.3513 11.5413 4.33975 11.5146C4.32819 11.4879 4.31126 11.4638 4.29001 11.444C4.26876 11.4241 4.24364 11.4088 4.21622 11.3991C4.1888 11.3894 4.15967 11.3854 4.13065 11.3874H4.1405ZM4.27344 8.51183C4.27685 8.45576 4.25975 8.40036 4.22532 8.35596C4.1909 8.31157 4.14149 8.28121 4.08633 8.27056C4.06108 8.26702 4.03535 8.26897 4.01092 8.27627C3.98648 8.28358 3.96391 8.29607 3.94475 8.3129C3.92558 8.32973 3.91028 8.35049 3.89987 8.37378C3.88946 8.39706 3.88421 8.42232 3.88445 8.44782C3.88244 8.47579 3.88614 8.50387 3.89532 8.53036C3.9045 8.55685 3.91897 8.5812 3.93786 8.60192C3.95674 8.62265 3.97964 8.63932 4.00516 8.65092C4.03069 8.66252 4.0583 8.6688 4.08633 8.6694C4.12954 8.66766 4.1708 8.65101 4.20312 8.62229C4.23543 8.59356 4.2568 8.55453 4.2636 8.51183H4.27344ZM4.1405 9.32428C4.08912 9.32557 4.04028 9.34688 4.0044 9.38368C3.96852 9.42048 3.94845 9.46985 3.94846 9.52124C3.94759 9.54604 3.95208 9.57073 3.96163 9.59364C3.97118 9.61654 3.98557 9.63711 4.0038 9.65394C4.02204 9.67077 4.04369 9.68347 4.06728 9.69116C4.09087 9.69885 4.11585 9.70135 4.1405 9.6985C4.1906 9.69351 4.23674 9.66903 4.26897 9.63035C4.30121 9.59167 4.31696 9.54188 4.31284 9.4917C4.31222 9.46863 4.30697 9.44592 4.2974 9.42492C4.28784 9.40392 4.27416 9.38505 4.25717 9.36944C4.24018 9.35382 4.22022 9.34178 4.19849 9.33403C4.17676 9.32627 4.15369 9.32296 4.13065 9.32428H4.1405ZM4.17989 10.767C4.22457 10.7649 4.26701 10.7468 4.29953 10.7161C4.33205 10.6854 4.35249 10.6441 4.35715 10.5996C4.3567 10.5745 4.35092 10.5498 4.34021 10.5271C4.3295 10.5044 4.31409 10.4843 4.29501 10.468C4.27592 10.4517 4.2536 10.4396 4.22951 10.4326C4.20542 10.4256 4.18012 10.4238 4.15527 10.4272C4.11089 10.4322 4.07 10.4537 4.04079 10.4875C4.01158 10.5212 3.99619 10.5648 3.9977 10.6094C4.00141 10.6525 4.02119 10.6927 4.05312 10.7219C4.08505 10.751 4.12678 10.7672 4.17004 10.767H4.17989Z" fill="white"/>
<path d="M6.73409 5.24711C6.72984 5.30936 6.70383 5.36812 6.66062 5.41313C6.61742 5.45814 6.55976 5.48652 6.49774 5.49331C6.44725 5.48606 6.40057 5.46234 6.36495 5.42584C6.32933 5.38933 6.30678 5.34208 6.30078 5.29143C6.30821 5.22874 6.33944 5.17131 6.38801 5.13099C6.43657 5.09067 6.49877 5.07055 6.56175 5.07477C6.60633 5.07817 6.64821 5.09742 6.67983 5.12903C6.71144 5.16065 6.73069 5.20253 6.73409 5.24711Z" fill="black"/>
<path d="M8.01549 4.7597C8.01549 4.98128 7.59695 4.97143 7.62649 4.70062C7.63226 4.65571 7.6537 4.61429 7.68703 4.58366C7.72036 4.55303 7.76345 4.53516 7.80868 4.5332C7.86486 4.53921 7.9169 4.56555 7.95499 4.60728C7.99309 4.649 8.0146 4.70321 8.01549 4.7597Z" fill="black"/>
<path d="M11.2057 6.36967C11.2019 6.42017 11.1788 6.46727 11.1413 6.50119C11.1037 6.53512 11.0544 6.55326 11.0038 6.55186C10.7576 6.55186 10.7872 6.13332 11.0038 6.15302C11.0316 6.15294 11.0591 6.15861 11.0847 6.16967C11.1102 6.18072 11.1331 6.19693 11.1521 6.21727C11.171 6.23761 11.1856 6.26165 11.1948 6.28787C11.204 6.3141 11.2077 6.34194 11.2057 6.36967Z" fill="black"/>
<path d="M4.86508 6.67071C4.86261 6.72038 4.84143 6.76728 4.80581 6.80199C4.77019 6.83669 4.72276 6.85664 4.67304 6.85782C4.64559 6.85602 4.6188 6.84863 4.5943 6.8361C4.56981 6.82357 4.54814 6.80616 4.53061 6.78495C4.51309 6.76374 4.50009 6.73917 4.49241 6.71275C4.48472 6.68633 4.48252 6.65862 4.48594 6.63132C4.48818 6.58717 4.50641 6.54535 4.53721 6.51364C4.56801 6.48194 4.60929 6.46251 4.65335 6.45898C4.68115 6.45898 4.70869 6.46446 4.73437 6.4751C4.76006 6.48574 4.7834 6.50134 4.80306 6.521C4.82272 6.54066 4.83832 6.564 4.84896 6.58969C4.8596 6.61538 4.86508 6.64291 4.86508 6.67071Z" fill="black"/>
<path d="M10.1613 5.64113C10.1873 5.6368 10.2141 5.6382 10.2396 5.64524C10.2651 5.65227 10.2887 5.66478 10.3089 5.68188C10.3291 5.69898 10.3453 5.72027 10.3564 5.74427C10.3675 5.76827 10.3733 5.79441 10.3733 5.82086C10.3733 5.84731 10.3675 5.87344 10.3564 5.89744C10.3453 5.92144 10.3291 5.94273 10.3089 5.95984C10.2887 5.97694 10.2651 5.98944 10.2396 5.99648C10.2141 6.00351 10.1873 6.00492 10.1613 6.00058C10.1352 6.00492 10.1084 6.00351 10.0829 5.99648C10.0574 5.98944 10.0338 5.97694 10.0136 5.95984C9.99343 5.94273 9.97722 5.92144 9.9661 5.89744C9.95498 5.87344 9.94922 5.84731 9.94922 5.82086C9.94922 5.79441 9.95498 5.76827 9.9661 5.74427C9.97722 5.72027 9.99343 5.69898 10.0136 5.68188C10.0338 5.66478 10.0574 5.65227 10.0829 5.64524C10.1084 5.6382 10.1352 5.6368 10.1613 5.64113Z" fill="black"/>
<path d="M5.49485 5.78425C5.51725 5.78359 5.53955 5.78744 5.56043 5.79555C5.58131 5.80367 5.60035 5.8159 5.61643 5.83151C5.6325 5.84712 5.64527 5.8658 5.65399 5.88644C5.66271 5.90708 5.6672 5.92926 5.66719 5.95167C5.66878 6.00334 5.65096 6.05374 5.61724 6.09294C5.58352 6.13213 5.53634 6.15727 5.485 6.1634C5.43446 6.16215 5.38634 6.14151 5.3506 6.10577C5.31485 6.07002 5.29422 6.0219 5.29297 5.97136C5.29671 5.92042 5.31961 5.87279 5.35708 5.83807C5.39454 5.80335 5.44377 5.78412 5.49485 5.78425Z" fill="black"/>
<path d="M9.11765 5.04509C9.163 5.04313 9.20746 5.05816 9.24231 5.08726C9.27716 5.11635 9.29989 5.15741 9.30605 5.20238C9.31221 5.24736 9.30136 5.29301 9.27562 5.33041C9.24988 5.3678 9.2111 5.39424 9.16689 5.40454C9.13945 5.408 9.11158 5.40564 9.08511 5.39762C9.05864 5.3896 9.03415 5.37609 9.01325 5.35797C8.99234 5.33985 8.97549 5.31754 8.96379 5.29247C8.95208 5.26741 8.94579 5.24016 8.94531 5.21251C8.94777 5.16806 8.96686 5.12617 8.99879 5.09515C9.03072 5.06413 9.07315 5.04626 9.11765 5.04509Z" fill="black"/>
<path d="M10.3251 12.1847C10.3232 12.2099 10.3163 12.2345 10.3049 12.2571C10.2935 12.2797 10.2777 12.2998 10.2585 12.3163C10.2393 12.3328 10.217 12.3453 10.1929 12.3531C10.1689 12.361 10.1435 12.3639 10.1183 12.3619C10.0929 12.3623 10.0678 12.3571 10.0447 12.3466C10.0216 12.3362 10.0011 12.3208 9.98462 12.3015C9.96816 12.2822 9.95616 12.2596 9.94947 12.2351C9.94278 12.2106 9.94157 12.185 9.94591 12.16C9.97053 11.9089 10.3349 11.9582 10.3251 12.1847Z" fill="black"/>
<path d="M9.37435 12.1847C9.3753 12.2295 9.36056 12.2732 9.33268 12.3083C9.30481 12.3434 9.26555 12.3676 9.2217 12.3768C9.19663 12.3809 9.17095 12.3798 9.14633 12.3735C9.12171 12.3672 9.09869 12.3557 9.07875 12.34C9.05881 12.3242 9.04238 12.3044 9.03054 12.2819C9.0187 12.2594 9.01169 12.2347 9.00998 12.2093C9.00784 12.1637 9.02204 12.1188 9.05001 12.0827C9.07799 12.0467 9.11791 12.0217 9.16262 12.0124C9.21334 12.0082 9.26371 12.0238 9.30318 12.0559C9.34266 12.0881 9.36816 12.1342 9.37435 12.1847Z" fill="black"/>
<path d="M6.57726 12.3329C6.57726 12.3812 6.55807 12.4276 6.5239 12.4617C6.48973 12.4959 6.4434 12.5151 6.39508 12.5151C6.34676 12.5151 6.30042 12.4959 6.26625 12.4617C6.23209 12.4276 6.21289 12.3812 6.21289 12.3329C6.21286 12.2884 6.22794 12.2451 6.25567 12.2102C6.28339 12.1753 6.32212 12.1509 6.36553 12.1409C6.39205 12.1396 6.41857 12.1435 6.44357 12.1524C6.46858 12.1613 6.49157 12.1751 6.51124 12.193C6.5309 12.2108 6.54686 12.2323 6.55819 12.2564C6.56952 12.2804 6.576 12.3064 6.57726 12.3329Z" fill="black"/>
<path d="M8.47265 12.2244C8.4743 12.2683 8.45959 12.3112 8.43139 12.3448C8.40319 12.3785 8.3635 12.4005 8.32001 12.4066C8.29541 12.4101 8.27032 12.4083 8.24648 12.4012C8.22264 12.3942 8.20061 12.3821 8.1819 12.3657C8.16319 12.3493 8.14824 12.3291 8.13808 12.3064C8.12793 12.2837 8.1228 12.2591 8.12306 12.2342C8.12876 12.1926 8.14904 12.1544 8.18029 12.1264C8.21153 12.0983 8.25172 12.0823 8.29368 12.0811C8.33565 12.0799 8.37667 12.0937 8.40944 12.1199C8.44222 12.1462 8.46462 12.1832 8.47265 12.2244Z" fill="black"/>
<path d="M7.56255 12.2729C7.56777 12.3173 7.55514 12.362 7.52744 12.397C7.49973 12.4321 7.45923 12.4548 7.41483 12.46C7.37043 12.4652 7.32577 12.4526 7.29068 12.4249C7.25559 12.3972 7.23294 12.3567 7.22772 12.3123C7.22513 12.2903 7.2269 12.268 7.23292 12.2467C7.23895 12.2254 7.24911 12.2055 7.26282 12.1881C7.29053 12.1531 7.33103 12.1304 7.37543 12.1252C7.41984 12.12 7.46449 12.1326 7.49958 12.1603C7.53467 12.188 7.55732 12.2285 7.56255 12.2729Z" fill="black"/>
<path d="M5.58332 12.5353C5.55408 12.5342 5.52619 12.5227 5.50464 12.5029C5.4831 12.4831 5.46931 12.4563 5.46576 12.4272C5.4622 12.3982 5.46911 12.3688 5.48523 12.3444C5.50136 12.32 5.52566 12.3021 5.55377 12.294C5.58702 12.2898 5.62059 12.2987 5.64729 12.319C5.67399 12.3393 5.69168 12.3692 5.69657 12.4023C5.69863 12.4186 5.69727 12.4352 5.69257 12.4509C5.68788 12.4667 5.67995 12.4813 5.66929 12.4938C5.65863 12.5063 5.64548 12.5165 5.63068 12.5236C5.61587 12.5307 5.59974 12.5347 5.58332 12.5353Z" fill="black"/>
<path d="M11.8503 10.0391C11.9026 10.0391 11.9527 10.0598 11.9896 10.0967C12.0265 10.1337 12.0473 10.1838 12.0473 10.236C12.0473 10.2883 12.0265 10.3384 11.9896 10.3753C11.9527 10.4122 11.9026 10.433 11.8503 10.433C11.8247 10.4343 11.7991 10.4305 11.7749 10.4217C11.7508 10.413 11.7287 10.3995 11.7099 10.382C11.6911 10.3646 11.6759 10.3436 11.6654 10.3202C11.6548 10.2968 11.6491 10.2715 11.6484 10.2459C11.6484 10.1919 11.6695 10.14 11.7073 10.1013C11.745 10.0627 11.7963 10.0403 11.8503 10.0391Z" fill="black"/>
<path d="M11.8944 8.64026C11.8662 8.64092 11.8381 8.63592 11.8118 8.62558C11.7856 8.61523 11.7617 8.59974 11.7415 8.58001C11.7213 8.56029 11.7053 8.53672 11.6943 8.51071C11.6834 8.4847 11.6777 8.45676 11.6777 8.42853C11.6796 8.37755 11.6994 8.32885 11.7336 8.29102C11.7678 8.25319 11.8143 8.22865 11.8648 8.22173C12.1061 8.2168 12.1258 8.60579 11.8944 8.64026Z" fill="black"/>
<path d="M11.9696 7.44826C12.0197 7.45205 12.0663 7.47531 12.0994 7.51304C12.1326 7.55078 12.1496 7.6 12.1469 7.65014C12.1408 7.70017 12.1161 7.7461 12.0779 7.7789C12.0396 7.81171 11.9905 7.82901 11.9401 7.8274C11.8896 7.82363 11.8425 7.80054 11.8085 7.76295C11.7746 7.72536 11.7565 7.67614 11.7579 7.62552C11.7661 7.57553 11.792 7.53015 11.8309 7.49763C11.8697 7.4651 11.919 7.44759 11.9696 7.44826Z" fill="black"/>
<path d="M12.0726 9.23109C12.0767 9.28648 12.0589 9.34127 12.0229 9.38364C11.987 9.42602 11.9359 9.45257 11.8806 9.45759C11.8304 9.45894 11.7818 9.44064 11.745 9.40659C11.7082 9.37255 11.6861 9.32547 11.6836 9.2754C11.6923 9.22431 11.7179 9.17761 11.7563 9.14279C11.7947 9.10797 11.8436 9.08704 11.8953 9.08337C11.9382 9.08055 11.9805 9.09432 12.0135 9.12181C12.0465 9.1493 12.0676 9.18843 12.0726 9.23109Z" fill="black"/>
<path d="M12.1125 11.1361C12.1155 11.1865 12.0995 11.2363 12.0675 11.2755C12.0356 11.3147 11.9902 11.3405 11.9402 11.3478C11.9149 11.3491 11.8897 11.3455 11.8659 11.337C11.8421 11.3286 11.8202 11.3155 11.8014 11.2986C11.7827 11.2817 11.7674 11.2612 11.7566 11.2384C11.7458 11.2156 11.7395 11.1908 11.7383 11.1656C11.7383 10.9342 12.0977 10.9046 12.1125 11.1361Z" fill="black"/>
<path d="M4.12906 11.3878C4.15727 11.3871 4.18533 11.3921 4.21159 11.4024C4.23785 11.4128 4.26178 11.4283 4.28196 11.448C4.30215 11.4677 4.31819 11.4913 4.32913 11.5173C4.34008 11.5433 4.34572 11.5713 4.34571 11.5995C4.34787 11.6248 4.34456 11.6503 4.33599 11.6743C4.32742 11.6982 4.3138 11.7201 4.29605 11.7383C4.2783 11.7565 4.25684 11.7707 4.23312 11.7799C4.2094 11.789 4.18399 11.793 4.1586 11.7915C4.13209 11.7935 4.10545 11.7902 4.08022 11.7818C4.05498 11.7734 4.03164 11.7602 4.01152 11.7428C3.9914 11.7255 3.9749 11.7043 3.96297 11.6805C3.95103 11.6568 3.94389 11.6309 3.94195 11.6044C3.94001 11.5779 3.94331 11.5513 3.95166 11.526C3.96001 11.5008 3.97326 11.4774 3.99063 11.4573C4.00801 11.4372 4.02917 11.4207 4.05292 11.4088C4.07667 11.3968 4.10254 11.3897 4.12906 11.3878Z" fill="black"/>
<path d="M4.26257 8.51155C4.25548 8.55589 4.23268 8.59621 4.19833 8.62514C4.16398 8.65407 4.12037 8.66968 4.07546 8.66911C4.04743 8.66852 4.01981 8.66223 3.99429 8.65063C3.96876 8.63903 3.94587 8.62236 3.92698 8.60164C3.9081 8.58091 3.89363 8.55656 3.88445 8.53007C3.87527 8.50358 3.87157 8.4755 3.87358 8.44754C3.87333 8.42203 3.87859 8.39678 3.889 8.37349C3.8994 8.35021 3.91471 8.32944 3.93387 8.31262C3.95304 8.29579 3.97561 8.28329 4.00004 8.27599C4.02448 8.26868 4.0502 8.26673 4.07546 8.27027C4.13062 8.28093 4.18002 8.31128 4.21445 8.35568C4.24888 8.40007 4.26598 8.45547 4.26257 8.51155Z" fill="black"/>
<path d="M4.12964 9.3252C4.17451 9.32518 4.21761 9.34266 4.24979 9.37392C4.28197 9.40518 4.3007 9.44776 4.30198 9.49261C4.3061 9.54279 4.29035 9.59258 4.25811 9.63126C4.22588 9.66995 4.17974 9.69442 4.12964 9.69941C4.10499 9.70227 4.08002 9.69976 4.05642 9.69207C4.03283 9.68438 4.01118 9.67168 3.99294 9.65485C3.97471 9.63802 3.96033 9.61745 3.95078 9.59455C3.94123 9.57165 3.93673 9.54695 3.93761 9.52215C3.93759 9.47076 3.95766 9.42139 3.99354 9.38459C4.02942 9.3478 4.07826 9.32648 4.12964 9.3252Z" fill="black"/>
<path d="M4.16862 10.7663C4.12369 10.769 4.07947 10.7541 4.04543 10.7246C4.01138 10.6952 3.99021 10.6536 3.98643 10.6087C3.98492 10.5641 4.0003 10.5205 4.02952 10.4867C4.05873 10.453 4.09961 10.4315 4.144 10.4265C4.16884 10.423 4.19415 10.4249 4.21824 10.4319C4.24233 10.4389 4.26465 10.451 4.28373 10.4672C4.30282 10.4835 4.31822 10.5037 4.32894 10.5264C4.33965 10.5491 4.34542 10.5738 4.34588 10.5989C4.34122 10.6434 4.32078 10.6847 4.28826 10.7154C4.25574 10.7461 4.21329 10.7642 4.16862 10.7663Z" fill="black"/>
</svg>
