<svg width="16" height="16" viewBox="0 0 16 16" fill="none" xmlns="http://www.w3.org/2000/svg">
<path d="M9.2251 5.87834C9.30613 6.5536 9.42093 7.09381 9.44794 7.66103C9.47495 8.22825 9.41417 8.80222 9.39392 9.39644H9.73155C10.2128 9.39116 10.6782 9.56764 11.035 9.8906C11.3918 10.2136 11.6136 10.6593 11.656 11.1386C11.6857 11.441 11.6549 11.7464 11.5653 12.0367C11.4758 12.3271 11.3293 12.5968 11.1345 12.83C10.9396 13.0632 10.7003 13.2552 10.4304 13.3949C10.1606 13.5347 9.86562 13.6193 9.56273 13.6438C9.29942 13.6597 9.03567 13.6209 8.78809 13.5299C8.54051 13.4389 8.31445 13.2976 8.12416 13.1149C7.93386 12.9322 7.78345 12.7121 7.68239 12.4684C7.58133 12.2248 7.53181 11.9628 7.53695 11.6991C7.52701 11.3391 7.60553 10.9822 7.76565 10.6596C7.92576 10.337 8.16257 10.0586 8.45531 9.84887C8.54854 9.78423 8.62649 9.69995 8.68365 9.60195C8.74081 9.50396 8.77581 9.39463 8.78618 9.28165C8.94261 8.08279 8.85067 6.86457 8.51608 5.70278C8.50796 5.65855 8.48945 5.61689 8.46206 5.58123C8.46206 5.58123 8.41479 5.54747 8.36752 5.5137C8.0434 6.67515 8.25948 6.40505 6.86169 9.42345C6.815 9.51069 6.79057 9.60811 6.79057 9.70706C6.79057 9.80601 6.815 9.90343 6.86169 9.99067C6.97708 10.2638 7.03426 10.558 7.02961 10.8545C7.02496 11.151 6.95857 11.4432 6.83468 11.7126C6.71079 11.982 6.53211 12.2226 6.31005 12.4191C6.08798 12.6156 5.82741 12.7636 5.54494 12.8538C5.2568 12.9769 4.94146 13.0225 4.63024 12.9861C4.31903 12.9496 4.02276 12.8324 3.77086 12.646C3.51896 12.4597 3.3202 12.2106 3.19431 11.9237C3.06842 11.6367 3.01978 11.3219 3.05323 11.0103C3.11294 10.4298 3.40003 9.89653 3.85175 9.52706C4.30347 9.15758 4.88308 8.98196 5.46391 9.03856C5.72278 9.08474 5.97783 9.1502 6.22695 9.23438C6.8239 8.202 7.2782 7.0935 7.57747 5.93912C7.43566 5.89185 7.35463 6.00664 7.2601 6.06742C6.86415 6.35553 6.39734 6.53059 5.90958 6.57386C5.80177 6.58397 5.69326 6.58397 5.58545 6.57386C5.3221 6.5401 5.17355 6.33077 5.33561 5.96613C5.55368 5.3494 5.83425 4.75659 6.17293 4.19695C6.47994 3.71522 6.96573 3.37517 7.52345 3.25159C9.0968 2.92071 10.4743 2.41427 11.6493 3.52169C12.4636 4.2716 12.949 5.31268 12.9998 6.41855C12.9998 6.6819 12.8715 6.85072 12.6149 6.83046C10.5486 6.64139 10.3055 6.47932 9.2251 5.87834ZM9.58974 13.0496C10.0258 12.9921 10.4226 12.768 10.6971 12.4244C10.9715 12.0807 11.1022 11.6441 11.0618 11.2061C11.0405 11.0249 10.9826 10.8498 10.8918 10.6915C10.8009 10.5332 10.6789 10.395 10.5331 10.2852C10.3873 10.1754 10.2208 10.0962 10.0435 10.0526C9.86631 10.0089 9.68207 10.0016 9.50196 10.0312C9.09337 10.1107 8.72764 10.3361 8.47295 10.6653C8.21826 10.9945 8.09199 11.4052 8.11768 11.8206C8.13294 11.9982 8.18321 12.1711 8.2656 12.3292C8.34799 12.4873 8.46087 12.6275 8.59772 12.7417C8.73457 12.856 8.89269 12.942 9.06295 12.9948C9.23321 13.0477 9.41225 13.0663 9.58974 13.0496ZM6.44303 10.7537C6.43616 10.4932 6.34288 10.2424 6.17785 10.0407C6.01283 9.83897 5.78543 9.69786 5.53143 9.63954C5.30153 9.59846 5.06546 9.60777 4.83951 9.66682C4.61356 9.72587 4.40311 9.83325 4.22271 9.98155C4.0423 10.1299 3.89623 10.3156 3.79458 10.5258C3.69294 10.7361 3.63813 10.9659 3.63396 11.1994C3.63254 11.472 3.72936 11.736 3.90668 11.9431C4.08401 12.1502 4.32998 12.2865 4.59958 12.3271C4.84569 12.3685 5.09828 12.3476 5.33421 12.2662C5.57015 12.1848 5.7819 12.0455 5.95009 11.8611C6.10937 11.7248 6.23625 11.5546 6.32152 11.363C6.40679 11.1715 6.4483 10.9633 6.44303 10.7537ZM12.203 5.60149C12.203 5.54071 12.203 5.5137 12.203 5.48669C12.0087 4.84165 11.6282 4.26843 11.1091 3.83906C10.8582 3.65597 10.5719 3.52718 10.2684 3.46091C9.96497 3.39464 9.65104 3.39234 9.34665 3.45416C9.29263 3.45416 9.25211 3.50143 9.15758 3.5487C9.55598 3.77154 9.92062 3.9471 10.2582 4.16319C10.5959 4.37927 10.9335 4.62911 11.2374 4.83844C11.54 5.11621 11.8628 5.37125 12.203 5.60149ZM8.79293 4.06865C8.79367 4.33169 8.8842 4.58659 9.04953 4.79118C9.34725 5.17867 9.72806 5.49447 10.164 5.71533C10.5998 5.9362 11.0797 6.05651 11.5682 6.06742C11.5682 6.06742 11.602 6.0269 11.6223 6.00664C10.8178 5.17843 9.85585 4.51951 8.79293 4.06865ZM7.77329 3.79855C7.64748 3.78784 7.5209 3.80669 7.40366 3.85359C7.28642 3.90048 7.18176 3.97413 7.09804 4.06865C6.63936 4.5367 6.30106 5.10903 6.11216 5.73654C6.11216 5.7703 6.11216 5.81757 6.11216 5.89185C6.1751 5.89627 6.23828 5.89627 6.30123 5.89185C6.86001 5.6847 7.34592 5.31851 7.69902 4.83844C7.76043 4.74998 7.79979 4.64811 7.81381 4.54133C7.8452 4.29332 7.83148 4.04167 7.77329 3.79855Z" fill="black"/>
<path d="M9.59057 13.0489C9.41308 13.0656 9.23404 13.047 9.06378 12.9942C8.89352 12.9413 8.7354 12.8553 8.59855 12.741C8.4617 12.6268 8.34883 12.4866 8.26643 12.3285C8.18404 12.1704 8.13377 11.9976 8.11851 11.8199C8.09282 11.4045 8.21909 10.9939 8.47378 10.6646C8.72847 10.3354 9.0942 10.11 9.50279 10.0305C9.6829 10.001 9.86714 10.0082 10.0444 10.0519C10.2216 10.0955 10.3881 10.1747 10.5339 10.2845C10.6797 10.3943 10.8017 10.5325 10.8926 10.6908C10.9835 10.8491 11.0413 11.0242 11.0626 11.2055C11.1031 11.6434 10.9723 12.08 10.6979 12.4237C10.4235 12.7674 10.0266 12.9914 9.59057 13.0489ZM9.32722 12.7315C9.6716 12.7315 9.82691 12.3196 9.42176 12.1576C9.33397 12.1576 9.23944 12.1103 9.15841 12.0698C9.09353 12.0417 9.03601 11.999 8.99034 11.9451C8.94466 11.8911 8.91205 11.8274 8.89506 11.7587C8.87807 11.6901 8.87715 11.6185 8.89238 11.5495C8.9076 11.4804 8.93856 11.4159 8.98284 11.3608C9.05226 11.2808 9.11762 11.1974 9.17866 11.1109C9.19849 11.0688 9.2071 11.0223 9.20366 10.9759C9.20022 10.9295 9.18485 10.8847 9.15904 10.846C9.13322 10.8073 9.09784 10.7759 9.05632 10.7549C9.0148 10.7338 8.96856 10.7239 8.92206 10.726C8.79679 10.767 8.68139 10.8335 8.58317 10.9214C8.48495 11.0093 8.40604 11.1166 8.35145 11.2366C8.29687 11.3566 8.26778 11.4866 8.26604 11.6184C8.2643 11.7502 8.28994 11.8809 8.34134 12.0023C8.41632 12.2069 8.54969 12.3851 8.72492 12.5147C8.90016 12.6444 9.10957 12.7197 9.32722 12.7315Z" fill="#FF0303"/>
<path d="M6.44296 10.7536C6.45072 10.9616 6.41237 11.1688 6.33065 11.3602C6.24893 11.5517 6.12586 11.7227 5.97028 11.861C5.80209 12.0454 5.59033 12.1847 5.35439 12.2661C5.11846 12.3475 4.86587 12.3684 4.61976 12.3269C4.3477 12.2894 4.09852 12.1543 3.91846 11.947C3.7384 11.7396 3.63968 11.4739 3.64063 11.1993C3.64481 10.9658 3.69961 10.736 3.80126 10.5257C3.90291 10.3154 4.04898 10.1297 4.22938 9.98144C4.40979 9.83313 4.62023 9.72575 4.84618 9.6667C5.07214 9.60765 5.30821 9.59834 5.53811 9.63942C5.79086 9.69903 6.01673 9.8407 6.18044 10.0423C6.34415 10.2439 6.43646 10.494 6.44296 10.7536ZM3.92424 11.5842C3.9938 11.7402 4.10245 11.8756 4.23967 11.9773C4.37689 12.0791 4.53804 12.1437 4.70754 12.1649C4.77918 12.1882 4.85713 12.182 4.92424 12.1478C4.99136 12.1137 5.04215 12.0542 5.06543 11.9826C5.08871 11.9109 5.08258 11.833 5.04839 11.7659C5.0142 11.6987 4.95474 11.648 4.88311 11.6247C4.81558 11.5842 4.28888 11.4491 4.4577 10.9494C4.53394 10.7447 4.6735 10.5697 4.8561 10.4497C4.88656 10.426 4.91199 10.3965 4.9309 10.3628C4.94981 10.3291 4.96182 10.2921 4.96622 10.2537C4.97062 10.2153 4.96733 10.1765 4.95654 10.1394C4.94574 10.1024 4.92767 10.0678 4.90337 10.0378C4.85322 9.97736 4.78161 9.93866 4.70356 9.92985C4.6255 9.92104 4.54707 9.94279 4.48471 9.99055C4.21522 10.1443 4.0102 10.3901 3.90726 10.6828C3.80432 10.9755 3.81035 11.2955 3.92424 11.5842Z" fill="#FF0303"/>
<path d="M12.202 5.60208C11.872 5.37944 11.5583 5.13346 11.2634 4.86605C10.9393 4.62971 10.6219 4.37986 10.2843 4.19079C9.94664 4.00172 9.60901 3.79914 9.18359 3.5763C9.27813 3.52904 9.31864 3.48852 9.37267 3.48177C9.67707 3.42036 9.99091 3.42287 10.2943 3.48912C10.5977 3.55538 10.884 3.68394 11.1351 3.86667C11.6542 4.29603 12.0348 4.86926 12.229 5.5143C12.229 5.5143 12.2155 5.54131 12.202 5.60208Z" fill="white"/>
<path d="M8.79297 4.06836C9.85588 4.51922 10.8179 5.17814 11.6223 6.00635C11.6223 6.00635 11.6223 6.06713 11.5683 6.06713C11.0798 6.05622 10.5999 5.93591 10.164 5.71504C9.7281 5.49418 9.34728 5.17838 9.04957 4.79089C8.88424 4.5863 8.79371 4.3314 8.79297 4.06836Z" fill="white"/>
<path d="M7.77263 3.79923C7.83291 4.03503 7.8512 4.27961 7.82665 4.52175C7.81263 4.62853 7.77327 4.7304 7.71186 4.81887C7.35876 5.29893 6.87285 5.66513 6.31407 5.87227C6.25113 5.87669 6.18795 5.87669 6.125 5.87227C6.125 5.79799 6.125 5.75073 6.125 5.71696C6.31163 5.08846 6.65023 4.51561 7.11088 4.04907C7.19512 3.96011 7.29843 3.8914 7.41305 3.84813C7.52767 3.80485 7.65062 3.78813 7.77263 3.79923Z" fill="white"/>
<path d="M9.32689 12.7324C9.10924 12.7206 8.89983 12.6452 8.72459 12.5156C8.54936 12.3859 8.41599 12.2077 8.34101 12.0031C8.28961 11.8817 8.26397 11.751 8.26571 11.6192C8.26745 11.4874 8.29653 11.3574 8.35112 11.2374C8.40571 11.1175 8.48462 11.0101 8.58284 10.9222C8.68106 10.8344 8.79646 10.7678 8.92173 10.7268C8.96822 10.7247 9.01447 10.7347 9.05599 10.7557C9.09751 10.7767 9.13289 10.8081 9.15871 10.8468C9.18452 10.8856 9.19989 10.9303 9.20333 10.9767C9.20677 11.0231 9.19816 11.0696 9.17833 11.1117C9.11728 11.1982 9.05193 11.2816 8.98251 11.3616C8.93823 11.4167 8.90727 11.4813 8.89205 11.5503C8.87682 11.6193 8.87774 11.6909 8.89473 11.7596C8.91172 11.8282 8.94433 11.892 8.99 11.9459C9.03568 11.9999 9.0932 12.0425 9.15807 12.0706C9.2391 12.1111 9.33364 12.1246 9.42142 12.1584C9.81983 12.3137 9.67802 12.7256 9.32689 12.7324Z" fill="black"/>
<path d="M4.45044 10.0187C4.51281 9.97092 4.59124 9.94916 4.6693 9.95797C4.74735 9.96679 4.81896 10.0055 4.8691 10.0659C4.89341 10.0959 4.91148 10.1305 4.92227 10.1676C4.93307 10.2046 4.93636 10.2435 4.93196 10.2818C4.92756 10.3202 4.91555 10.3573 4.89664 10.3909C4.87773 10.4246 4.8523 10.4541 4.82184 10.4779C4.74598 10.5313 4.67584 10.5924 4.61251 10.6602C4.35591 10.9978 4.27488 11.3354 4.61251 11.5245C4.67328 11.565 4.75431 11.5853 4.82184 11.6258C4.85731 11.6373 4.89016 11.6557 4.91852 11.6799C4.94688 11.7042 4.97019 11.7337 4.98712 11.767C5.00405 11.8002 5.01427 11.8365 5.01719 11.8736C5.02011 11.9108 5.01568 11.9482 5.00416 11.9837C4.99263 12.0192 4.97423 12.052 4.95 12.0804C4.92578 12.1087 4.89621 12.132 4.86297 12.149C4.82974 12.1659 4.7935 12.1761 4.75632 12.179C4.71913 12.182 4.68174 12.1775 4.64627 12.166C4.48767 12.1353 4.33897 12.0664 4.21305 11.9652C4.08714 11.864 3.98783 11.7336 3.92374 11.5853C3.81421 11.3038 3.80693 10.9928 3.90318 10.7065C3.99943 10.4202 4.19311 10.1768 4.45044 10.0187Z" fill="black"/>
</svg>
