<svg width="16" height="16" viewBox="0 0 16 16" fill="none" xmlns="http://www.w3.org/2000/svg">
<path d="M3.7363 6.07106C5.11766 5.68829 5.04084 5.7043 5.15414 5.6864C5.57898 5.61927 5.77383 6.17876 5.34462 6.31626C5.02035 6.41975 4.17573 6.62288 3.8444 6.7062C3.95624 7.04657 3.76698 6.68166 4.62929 8.21949C4.65913 8.26393 4.68644 8.31001 4.71109 8.35752C4.74425 8.42205 4.75484 8.49582 4.7412 8.56708C4.72755 8.63833 4.69045 8.70297 4.6358 8.75068C4.57187 8.80078 4.49269 8.82743 4.41147 8.82617C4.33026 8.82492 4.25193 8.79583 4.18958 8.74378C3.88763 8.43732 3.63293 7.67052 3.32231 7.23576C3.30432 7.20764 3.25711 7.21509 3.22282 7.18181C3.0909 7.32707 2.99198 7.49918 2.93289 7.6863C2.8194 7.90921 2.69258 8.12507 2.55312 8.33272C2.50155 8.38859 2.43302 8.42593 2.35811 8.43898C2.2832 8.45203 2.20609 8.44005 2.13866 8.40491C2.07124 8.36976 2.01725 8.3134 1.98505 8.24452C1.95285 8.17564 1.94421 8.09808 1.96048 8.02381C1.9947 7.86612 2.04356 7.71197 2.10642 7.56336C2.10642 7.56336 3.38996 5.14069 3.48813 5.01486C3.5296 4.95473 3.5906 4.91081 3.66078 4.89055C3.73096 4.87029 3.80599 4.87494 3.87312 4.90371C3.94609 4.94219 4.00194 5.00666 4.02963 5.08437C4.05732 5.16207 4.05483 5.24733 4.02264 5.32328C3.98518 5.44145 3.91106 5.548 3.86138 5.66229C3.8117 5.77659 3.80346 5.85917 3.7363 6.07106Z" fill="black"/>
<path d="M12.4342 8.63883C12.2494 8.38741 12.158 8.33604 12.0048 8.39509C11.9622 8.41057 11.9232 8.43433 11.8899 8.46502C11.8566 8.49571 11.8297 8.5327 11.8108 8.57385C11.792 8.61501 11.7814 8.6595 11.7799 8.70475C11.7783 8.75 11.7858 8.79511 11.8018 8.83746C11.9422 9.2306 12.1231 9.60805 12.3417 9.96369C12.672 10.6334 12.3637 11.6343 11.4964 11.5836C11.1087 11.569 10.7426 11.4014 10.4783 11.1174C10.3749 11.0149 10.302 10.8857 10.2676 10.7442C10.2333 10.6027 10.239 10.4544 10.2839 10.3159C10.3024 10.2367 10.3485 10.1667 10.4139 10.1184C10.4793 10.0701 10.5598 10.0467 10.641 10.0524C10.7146 10.0585 10.7838 10.0897 10.837 10.1409C10.8903 10.1921 10.9242 10.26 10.9331 10.3333C10.969 10.4748 10.8698 10.7169 11.3058 10.8551C11.5951 10.9468 11.7933 10.8167 11.7606 10.5239C11.7004 9.83665 11.0091 9.44268 11.0881 8.5709C11.1142 8.32711 11.232 8.10237 11.4177 7.94222C11.6033 7.78207 11.8429 7.6985 12.0879 7.70846C12.3254 7.7147 12.5537 7.80187 12.735 7.95554C12.9162 8.10921 13.0396 8.32017 13.0846 8.55349C13.1773 9.15235 12.5395 9.53762 12.2894 9.26554C12.1214 9.05984 12.2864 8.87895 12.4342 8.63883Z" fill="black"/>
<path d="M9.96069 7.01753C10.6208 7.41061 10.3748 8.14427 10.0151 8.13338C9.87714 8.13002 9.78689 8.06106 9.73648 7.85226C9.73648 7.85226 9.74681 7.81966 9.75069 7.80744C9.67503 7.53683 9.49812 7.45834 9.27979 7.59541C9.21682 7.62909 9.16897 7.68541 9.14588 7.75299C9.1228 7.82057 9.1262 7.89439 9.15541 7.95956C9.24637 8.16775 9.54217 8.60679 9.70469 8.90044C10.0719 9.59527 9.83527 10.5965 8.92245 10.5762C8.66471 10.5795 8.41195 10.5051 8.19715 10.3626C7.98234 10.2201 7.81546 10.0162 7.71826 9.7775C7.68963 9.70849 7.68566 9.63172 7.70703 9.56012C7.7284 9.48853 7.77379 9.42648 7.83556 9.38445C7.89733 9.34242 7.97171 9.32296 8.04615 9.32936C8.12059 9.33575 8.19055 9.36761 8.24424 9.41957C8.3814 9.55273 8.45348 9.76391 8.71447 9.86008C9.07712 9.97502 9.33588 9.73867 9.02525 9.12005C8.91372 8.89188 8.64098 8.54984 8.52606 8.27576C8.41327 8.09821 8.3699 7.88532 8.40424 7.6778C8.43858 7.47028 8.54821 7.2827 8.71218 7.15094C8.87612 6.99356 9.08767 6.89507 9.31364 6.87092C9.53961 6.84678 9.7672 6.89834 9.96069 7.01753Z" fill="black"/>
<path d="M7.17646 6.74885L6.32291 8.90423C6.43931 8.96476 6.55065 9.03454 6.65586 9.1129C6.70944 9.14961 6.74794 9.20445 6.76427 9.26731C6.7806 9.33017 6.77367 9.39681 6.74475 9.45496C6.67833 9.53575 6.59077 9.59649 6.49184 9.6304C6.42167 9.64969 6.34738 9.64797 6.27817 9.62545C5.98071 9.53117 5.68733 9.43818 5.38987 9.3439C5.32777 9.32737 5.27277 9.29101 5.23323 9.24035C5.19369 9.18969 5.17178 9.12751 5.17083 9.06325C5.16987 8.999 5.18993 8.93619 5.22795 8.88438C5.26597 8.83257 5.31988 8.7946 5.38146 8.77624C5.46078 8.76191 5.53491 8.72688 5.59633 8.6747C5.65776 8.62251 5.7043 8.55501 5.73125 8.47905C6.66758 6.34542 6.47354 6.84444 6.54407 6.49461C6.43507 6.41981 6.3305 6.33876 6.23089 6.25185C6.18925 6.21587 6.16184 6.16619 6.1536 6.11178C6.14536 6.05737 6.15682 6.00181 6.18594 5.9551C6.24326 5.89005 6.31334 5.83748 6.39184 5.80064C6.42702 5.79001 6.46448 5.78946 6.49996 5.79904C6.84331 5.8496 7.17628 5.95513 7.48606 6.11159C7.84326 6.31448 7.71549 6.63272 7.41745 6.68174C7.34083 6.71127 7.27216 6.72986 7.17646 6.74885Z" fill="black"/>
</svg>
