<svg width="16" height="16" viewBox="0 0 16 16" fill="none" xmlns="http://www.w3.org/2000/svg">
<path d="M9.64999 3.33604C9.82918 2.98251 10.0713 2.77426 10.4636 2.85175C10.6259 2.87807 10.772 2.96547 10.8719 3.09603C10.9719 3.22659 11.0181 3.39043 11.0012 3.55397C11.0932 3.55397 11.1658 3.55397 11.2336 3.59756C11.3301 3.62557 11.4185 3.6759 11.4919 3.74447C11.5652 3.81305 11.6214 3.89794 11.6558 3.99227C11.6903 4.08659 11.702 4.18771 11.6901 4.28741C11.6781 4.38711 11.6429 4.4826 11.5872 4.56614C11.3962 4.80991 11.1414 4.99598 10.851 5.10371C10.9963 5.34101 10.7881 5.02622 11.7034 6.39192C11.9041 6.6162 12.01 6.9096 11.9988 7.21038C11.9698 13.419 12.0376 12.741 11.9455 13.4093C11.9213 13.5837 11.7615 13.5837 11.592 13.5837H5.03469C4.89909 13.5837 4.7199 13.5837 4.69084 13.4384C4.54555 12.7894 4.57461 14.344 4.6521 7.21522C4.6521 7.10383 4.6521 6.9876 4.6521 6.87137C4.6521 6.65828 4.72959 6.60501 4.83613 6.45973C8.37631 1.6168 8.17775 1.88801 8.25039 1.81536C8.27302 1.7862 8.30203 1.7626 8.33518 1.74636C8.36834 1.73012 8.40477 1.72168 8.44168 1.72168C8.4786 1.72168 8.51503 1.73012 8.54819 1.74636C8.58134 1.7626 8.61035 1.7862 8.63298 1.81536C8.70078 1.91707 9.3013 2.82269 9.64999 3.33604ZM11.2385 6.54206C10.9815 6.08249 10.6866 5.64511 10.3571 5.23447C10.0962 5.25096 9.83421 5.23469 9.57735 5.18604C9.11727 5.04559 9.27225 4.64363 9.35942 4.31915C9.39816 4.16902 9.43691 4.01889 9.48049 3.86392L8.43926 2.36746C8.43926 2.36746 8.38599 2.36746 8.36662 2.36746C5.15576 6.76967 5.37369 6.43551 5.39791 6.49363C5.92509 6.5321 6.45437 6.5321 6.98154 6.49363C6.92827 6.12072 6.77814 5.68001 7.26728 5.45724C7.91138 5.16182 8.23586 5.66064 8.47801 5.94153C8.61245 5.80416 8.76191 5.68232 8.92355 5.57831C9.01671 5.52594 9.12127 5.4972 9.22811 5.49461C9.33494 5.49201 9.44078 5.51565 9.53636 5.56344C9.63194 5.61123 9.71435 5.68172 9.77638 5.76874C9.8384 5.85576 9.87815 5.95666 9.89214 6.06261C9.898 6.22459 9.88827 6.38677 9.86308 6.5469C10.3206 6.59026 10.7813 6.58864 11.2385 6.54206ZM11.5678 7.38957H11.5C11.4419 7.43315 11.3838 7.47674 11.3305 7.52517C8.38599 10.0919 8.57971 9.91757 8.57487 9.94663C8.57002 9.97569 8.57487 9.94663 8.57487 9.9999L11.4806 12.7749C11.4806 12.7749 11.5194 12.7749 11.5629 12.7749L11.5678 7.38957ZM5.49961 13.1187H10.9576C11.0157 13.1187 11.0883 13.1526 11.1174 13.0703C10.8607 12.7797 8.33272 10.3776 8.15353 10.2469C7.9356 10.4503 5.6788 12.8718 5.49961 13.1187ZM5.03953 12.8863C5.52383 12.4504 7.71283 10.0725 7.85327 9.85946C7.82954 9.8271 7.80189 9.79782 7.77094 9.77228C5.00079 7.11836 5.16061 7.26849 5.14608 7.26849L5.0928 7.29271C5.07828 9.14755 5.02985 10.983 5.03953 12.8863ZM9.68874 7.00698C9.42211 7.51524 9.01093 7.93316 8.50706 8.20802C8.44086 8.24145 8.36572 8.2529 8.29256 8.24071C8.21941 8.22852 8.15204 8.19331 8.10026 8.14022C7.76958 7.77519 7.47896 7.3758 7.23338 6.94886C6.65707 6.94886 6.09045 6.9198 5.51898 6.94886C5.51898 7.03119 5.56257 7.0554 5.59647 7.0893C6.69097 8.17412 8.01793 9.43812 8.2746 9.61247L11.1222 7.11836C11.1222 7.11836 11.1222 7.08446 11.1222 7.06509C10.6475 6.99847 10.1673 6.979 9.68874 7.00698ZM8.45379 6.72609C8.30359 6.40577 8.09874 6.11406 7.84843 5.86405C7.80313 5.82873 7.74991 5.80498 7.69338 5.79486C7.63684 5.78473 7.57869 5.78853 7.52395 5.80593C7.47643 5.81314 7.43345 5.83819 7.40376 5.87598C7.37406 5.91377 7.35989 5.96146 7.36413 6.00933C7.36591 6.17989 7.41268 6.34695 7.49974 6.49363C7.71979 6.89557 7.96907 7.28081 8.24555 7.64624C8.28993 7.69543 8.33681 7.7423 8.38599 7.78669C8.46125 7.75039 8.53264 7.70658 8.59908 7.65593C9.01092 7.3303 9.30925 6.8828 9.45143 6.3774C9.47067 6.2766 9.47067 6.17308 9.45143 6.07229C9.44765 6.03809 9.43525 6.00541 9.4154 5.97731C9.39555 5.94921 9.3689 5.9266 9.33793 5.9116C9.30697 5.8966 9.27271 5.88971 9.23835 5.89155C9.20399 5.8934 9.17067 5.90393 9.14149 5.92216C8.97198 6.01418 8.92356 6.07713 8.65719 6.4452C8.61361 6.52268 8.58939 6.62923 8.45379 6.72609ZM10.0665 4.89062C10.2905 4.89091 10.5118 4.84155 10.7144 4.74608C10.9171 4.65062 11.0961 4.51143 11.2385 4.33853C11.2583 4.31042 11.2704 4.27753 11.2733 4.24324C11.2762 4.20895 11.27 4.1745 11.2552 4.14342C11.2404 4.11235 11.2176 4.08578 11.1891 4.06645C11.1606 4.04711 11.1275 4.03571 11.0932 4.03342C10.9587 4.03375 10.825 4.05332 10.6961 4.09154C10.6599 4.09501 10.6235 4.0894 10.5901 4.07523C10.5567 4.06106 10.5274 4.03877 10.5048 4.01039C10.4822 3.98201 10.467 3.94843 10.4607 3.91271C10.4543 3.87698 10.457 3.84023 10.4684 3.8058C10.5023 3.71379 10.5508 3.6363 10.5798 3.54429C10.5909 3.51478 10.5945 3.48303 10.5905 3.45178C10.5865 3.42054 10.5749 3.39075 10.5568 3.36499C10.5387 3.33923 10.5145 3.31827 10.4865 3.30395C10.4584 3.28962 10.4273 3.28235 10.3958 3.28277C10.1149 3.24403 10.0713 3.50554 9.76138 4.44023C9.64515 4.7308 9.64515 4.87125 10.0665 4.8664V4.89062Z" fill="#241C16"/>
<path d="M8.4536 6.72583C8.5892 6.65319 8.61341 6.54664 8.67153 6.45947C8.9282 6.08656 8.98147 6.02361 9.15582 5.93643C9.185 5.9182 9.21832 5.90767 9.25268 5.90583C9.28704 5.90398 9.3213 5.91088 9.35227 5.92588C9.38323 5.94087 9.40989 5.96348 9.42974 5.99159C9.44959 6.01969 9.46198 6.05237 9.46577 6.08656C9.48152 6.48549 9.34075 6.87479 9.07349 7.17138C8.92067 7.3412 8.75902 7.50285 8.5892 7.65567C8.52276 7.70633 8.45136 7.75014 8.37611 7.78643C8.32692 7.74205 8.28005 7.69517 8.23566 7.64599C7.95919 7.28055 7.70991 6.89531 7.48985 6.49337C7.4028 6.34669 7.35602 6.17963 7.35425 6.00908C7.35001 5.9612 7.36418 5.91351 7.39388 5.87572C7.42357 5.83793 7.46655 5.81288 7.51407 5.80568C7.56881 5.78828 7.62696 5.78447 7.68349 5.7946C7.74003 5.80473 7.79325 5.82847 7.83854 5.86379C8.09142 6.11379 8.29946 6.40538 8.4536 6.72583Z" fill="#DA0100"/>
<path d="M10.0665 4.86601C9.6452 4.86601 9.6452 4.73041 9.74206 4.43984C10.0568 3.47125 10.1053 3.24364 10.3765 3.28238C10.408 3.28196 10.4391 3.28923 10.4672 3.30356C10.4952 3.31788 10.5194 3.33884 10.5375 3.3646C10.5556 3.39036 10.5672 3.42015 10.5712 3.4514C10.5752 3.48264 10.5715 3.51439 10.5605 3.5439C10.5315 3.63591 10.483 3.7134 10.4491 3.80542C10.4377 3.83985 10.435 3.87659 10.4413 3.91232C10.4477 3.94804 10.4628 3.98162 10.4855 4.01C10.5081 4.03838 10.5374 4.06067 10.5708 4.07484C10.6042 4.08901 10.6406 4.09462 10.6767 4.09115C10.8062 4.05527 10.9396 4.03574 11.0739 4.03303C11.1082 4.03532 11.1413 4.04672 11.1698 4.06606C11.1983 4.08539 11.2211 4.11196 11.2359 4.14303C11.2507 4.17411 11.2569 4.20856 11.254 4.24285C11.251 4.27714 11.239 4.31003 11.2192 4.33814C11.0769 4.50461 10.9002 4.63809 10.7011 4.72925C10.502 4.82042 10.2855 4.86709 10.0665 4.86601Z" fill="#DA0100"/>
<path d="M10.7535 9.67918C10.7794 9.6804 10.8048 9.6868 10.8282 9.698C10.8515 9.70921 10.8724 9.72498 10.8896 9.7444C10.9067 9.76382 10.9198 9.78648 10.9281 9.81105C10.9363 9.83562 10.9395 9.86159 10.9376 9.88743C10.9351 9.93454 10.9146 9.97889 10.8804 10.0113C10.8461 10.0438 10.8007 10.0618 10.7535 10.0618C10.7259 10.0662 10.6976 10.0645 10.6706 10.057C10.6436 10.0494 10.6186 10.036 10.5973 10.0179C10.576 9.99967 10.5589 9.97707 10.5471 9.95163C10.5354 9.92618 10.5293 9.8985 10.5293 9.87047C10.5293 9.84245 10.5354 9.81476 10.5471 9.78932C10.5589 9.76388 10.576 9.74128 10.5973 9.7231C10.6186 9.70491 10.6436 9.69157 10.6706 9.68398C10.6976 9.6764 10.7259 9.67476 10.7535 9.67918Z" fill="#332D28"/>
<path d="M8.15266 12.4554C8.14722 12.5165 8.12047 12.5738 8.07709 12.6172C8.03371 12.6606 7.97646 12.6873 7.91536 12.6927C7.88951 12.6934 7.8638 12.6889 7.83974 12.6794C7.81567 12.67 7.79374 12.6558 7.77524 12.6377C7.75673 12.6197 7.74203 12.5981 7.73199 12.5743C7.72196 12.5505 7.71679 12.5249 7.7168 12.499C7.72027 12.4372 7.74639 12.3789 7.79016 12.3351C7.83393 12.2913 7.89229 12.2652 7.9541 12.2617C8.00557 12.2629 8.05468 12.2835 8.09153 12.3195C8.12838 12.3554 8.15022 12.404 8.15266 12.4554Z" fill="#332D28"/>
<path d="M5.86816 9.40022C5.89647 9.39941 5.92459 9.40515 5.95032 9.41699C5.97606 9.42882 5.99871 9.44644 6.01652 9.46847C6.03433 9.4905 6.04681 9.51634 6.053 9.54398C6.05919 9.57162 6.05891 9.60032 6.05219 9.62784C6.03229 9.69768 6.00296 9.76448 5.96502 9.8264C5.94891 9.84943 5.92809 9.86878 5.90394 9.88317C5.87979 9.89756 5.85286 9.90666 5.82494 9.90986C5.79701 9.91307 5.76872 9.9103 5.74194 9.90176C5.71517 9.89322 5.69051 9.87908 5.6696 9.8603C5.62648 9.82412 5.59619 9.77501 5.58322 9.72025C5.57024 9.66549 5.57528 9.608 5.59758 9.55633C5.61988 9.50466 5.65825 9.46156 5.707 9.43344C5.75574 9.40531 5.81226 9.39366 5.86816 9.40022Z" fill="#332D28"/>
</svg>
