<svg width="16" height="16" viewBox="0 0 16 16" fill="none" xmlns="http://www.w3.org/2000/svg">
<path d="M4.80052 4.82754C4.59325 4.58564 4.43048 4.30893 4.31975 4.01024C4.27294 3.92051 4.25564 3.81829 4.27031 3.71816C4.28499 3.61802 4.33089 3.52507 4.40148 3.45255C4.47993 3.36505 4.58232 3.30248 4.69597 3.27257C4.80962 3.24266 4.92954 3.24673 5.0409 3.28428C5.13225 3.31793 5.13225 3.32274 5.56494 3.52466C5.69955 3.23139 5.76686 3.01505 6.07455 2.89005C6.49762 2.72178 6.68512 3.01024 6.82455 3.16409C7.40687 2.95721 8.02508 2.87053 8.64185 2.90928C8.64185 2.8564 8.74761 2.3564 8.76685 2.30351C8.79883 2.17286 8.87773 2.05853 8.98855 1.98229C9.09937 1.90605 9.23435 1.87322 9.3678 1.89005C9.51348 1.89745 9.65207 1.95517 9.75991 2.05337C9.86776 2.15158 9.93818 2.28417 9.95915 2.42851C9.95915 2.51024 9.95915 2.59678 9.95915 2.70255C10.1813 2.67515 10.4068 2.69984 10.6178 2.77467C10.685 2.79512 10.7469 2.83004 10.7991 2.87698C10.8513 2.92391 10.8926 2.98172 10.9201 3.04633C10.9476 3.11095 10.9606 3.1808 10.9582 3.25098C10.9558 3.32116 10.9381 3.38996 10.9063 3.45255C10.863 3.56312 10.8005 3.66889 10.7428 3.78428C10.9159 3.97178 11.1659 4.26504 11.3005 4.43812C11.55 4.78087 11.728 5.17034 11.8238 5.58332C11.9196 5.99631 11.9313 6.42435 11.8582 6.84196C11.835 6.98078 11.8482 7.12325 11.8966 7.25541C11.9932 7.51637 12.0229 7.79733 11.9832 8.07272C11.8658 9.33098 11.5979 10.5706 11.1851 11.765C11.0938 12.0341 10.9341 12.2749 10.7217 12.4637C10.5094 12.6525 10.2515 12.7828 9.97357 12.8419C8.92821 13.1074 7.83825 13.1467 6.77647 12.9573C6.6661 12.9423 6.55687 12.9198 6.44955 12.89C5.26205 12.5919 5.21878 11.7121 4.24283 7.85157C4.19745 7.75621 4.17759 7.65071 4.18517 7.54538C4.19275 7.44005 4.22753 7.33848 4.2861 7.25061C4.38225 7.13042 4.11783 6.35638 4.76686 4.93812C4.78277 4.90285 4.79408 4.86569 4.80052 4.82754ZM10.9207 7.71214C11.0409 7.59195 11.1659 7.51984 11.2236 7.40445C11.3227 7.2218 11.3894 7.02335 11.4207 6.81792C11.502 6.40315 11.4884 5.97537 11.381 5.56658C11.2736 5.1578 11.0752 4.7786 10.8005 4.45735C10.6795 4.30287 10.5292 4.17379 10.3582 4.07754C9.99429 4.3128 9.59498 4.48811 9.1755 4.59677C8.47839 4.74581 8.60338 4.11601 8.60819 3.60159C8.60819 3.52947 8.60819 3.45255 8.60819 3.38524C8.04123 3.29013 7.4587 3.37767 6.94474 3.63524C6.80051 4.53908 6.84858 5.07754 6.23801 5.55831C6.18082 5.61235 6.10734 5.64591 6.02904 5.65374C5.95075 5.66157 5.87207 5.64323 5.80532 5.60158C5.64667 5.50061 5.49763 5.39004 5.32455 5.28427L5.13705 5.1785C4.80482 5.87258 4.66217 6.64222 4.72359 7.40926L5.1034 7.65445C5.14864 7.69601 5.20783 7.71907 5.26926 7.71907C5.33069 7.71907 5.38989 7.69601 5.43513 7.65445L5.65147 7.50061C6.13224 7.13522 6.20436 7.01984 6.53608 7.23619C6.65147 7.31792 6.75724 7.41888 6.86781 7.51022C6.97839 7.60157 7.01204 7.67849 7.14666 7.69772C7.50243 7.41407 7.55531 7.36118 7.78127 7.1833C7.87705 7.09546 8.00228 7.04673 8.13223 7.04673C8.26219 7.04673 8.38742 7.09546 8.48319 7.1833L9.21396 7.75061C9.25584 7.72436 9.29598 7.69546 9.33415 7.66407C9.81492 7.1833 10.0697 6.76023 10.5361 7.3083C10.6515 7.43811 10.7765 7.5583 10.9207 7.70253V7.71214ZM8.84858 12.5871C8.9255 12.0102 8.79088 11.3227 8.94954 8.11599C8.71823 7.8502 8.43524 7.63428 8.11781 7.48138C7.82199 7.67389 7.54795 7.89796 7.3005 8.14964C7.39168 9.64266 7.59903 11.1263 7.92069 12.5871C8.22864 12.628 8.54063 12.628 8.84858 12.5871ZM7.43031 12.5439C7.43031 12.4237 7.43031 12.491 7.40627 12.2794C7.13591 10.9908 6.97508 9.6817 6.92551 8.36599C6.93235 8.28406 6.91672 8.20182 6.88029 8.12811C6.84386 8.05441 6.78802 7.99204 6.71878 7.94772C6.62743 7.89003 6.56012 7.79387 6.47359 7.72657C6.4062 7.67259 6.33556 7.62281 6.26205 7.57753C6.01385 7.74371 5.77621 7.92515 5.55051 8.1208C6.19955 10.3612 5.51205 7.83714 6.68993 12.1496C6.71878 12.2602 6.76205 12.4958 6.91108 12.5294C7.08059 12.5736 7.25746 12.5818 7.43031 12.5535V12.5439ZM9.88223 12.3804C10.1563 10.4573 10.2043 9.80829 10.4255 8.82272C10.5601 8.21695 10.6082 8.09676 10.5457 7.95253C10.4214 7.78002 10.2666 7.63174 10.089 7.51503C9.81492 7.71695 9.60819 7.9958 9.3678 8.21695C9.27427 9.58023 9.2518 10.9475 9.3005 12.3131C9.30413 12.3681 9.31217 12.4228 9.32454 12.4765C9.51333 12.5032 9.70578 12.473 9.87742 12.39L9.88223 12.3804ZM10.9688 8.17849C10.6995 9.48618 10.5265 10.765 10.3774 12.0246C10.3774 12.0246 10.3774 12.0487 10.3774 12.0583H10.4255C11.0601 11.7169 11.4639 8.57753 11.5457 7.94291C11.5497 7.86604 11.5497 7.78902 11.5457 7.71214C11.3197 7.88522 11.1995 8.11118 10.9688 8.1881V8.17849ZM6.29089 12.3179C6.23801 12.0583 6.34859 12.4477 5.60821 9.74098C5.18994 8.22657 5.18032 8.19772 5.1034 8.14003C4.99036 8.04007 4.85773 7.96475 4.71398 7.91887C4.7102 7.98613 4.7102 8.05354 4.71398 8.1208C5.16109 9.51502 5.26686 10.6064 5.67551 11.6016C5.89667 12.1064 6.03128 12.265 6.29089 12.3275V12.3179Z" fill="black"/>
<path d="M10.92 7.70239C10.7758 7.55816 10.6508 7.43797 10.5354 7.30336C9.97768 6.64951 9.70846 7.38989 9.21326 7.74566C8.68442 7.33701 8.68923 7.3322 8.4825 7.17836C8.38673 7.09052 8.26149 7.04178 8.13154 7.04178C8.00158 7.04178 7.87635 7.09052 7.78058 7.17836L7.14597 7.69278C7.01135 7.69278 6.94885 7.57739 6.86712 7.50528C6.2277 6.96201 6.29501 7.02451 5.65078 7.50528L5.43444 7.65912C5.38919 7.70068 5.33 7.72374 5.26857 7.72374C5.20714 7.72374 5.14795 7.70068 5.10271 7.65912L4.7229 7.41393C4.66148 6.64689 4.80412 5.87725 5.13636 5.18317L5.32386 5.28894C5.48251 5.39471 5.63155 5.50529 5.80463 5.60625C5.87138 5.6479 5.95006 5.66624 6.02835 5.65842C6.10664 5.65059 6.18013 5.61702 6.23732 5.56298C6.8527 5.08221 6.80462 4.52452 6.94404 3.63991C7.45801 3.38234 8.04053 3.2948 8.6075 3.38991C8.6075 3.45722 8.6075 3.53414 8.6075 3.60626C8.6075 4.08702 8.47769 4.75048 9.1748 4.60144C9.59457 4.49129 9.9939 4.31435 10.3575 4.07741C10.532 4.17877 10.6841 4.31453 10.8046 4.47644C11.0756 4.79591 11.2716 5.17206 11.3781 5.57725C11.4846 5.98243 11.4989 6.40634 11.42 6.81778C11.3855 7.01328 11.3189 7.20173 11.2229 7.37547C11.1652 7.51009 11.0402 7.5822 10.92 7.70239ZM7.29981 6.7072C7.24555 6.70758 7.19315 6.72706 7.15183 6.76223C7.1105 6.7974 7.08289 6.84601 7.07385 6.89951C7.07321 6.9239 7.07746 6.94818 7.08635 6.9709C7.09525 6.99363 7.1086 7.01434 7.12563 7.03181C7.14266 7.04929 7.16302 7.06318 7.1855 7.07266C7.20799 7.08214 7.23214 7.08702 7.25654 7.08701C7.31691 7.08575 7.37438 7.06089 7.41662 7.01774C7.45886 6.9746 7.48252 6.91662 7.4825 6.85624C7.47456 6.81382 7.45186 6.77559 7.41842 6.74831C7.38498 6.72103 7.34296 6.70647 7.29981 6.7072ZM10.2421 5.85625C10.1873 5.85625 10.1347 5.87803 10.0959 5.9168C10.0572 5.95557 10.0354 6.00815 10.0354 6.06298C10.0347 6.08484 10.0385 6.10662 10.0464 6.12701C10.0543 6.1474 10.0663 6.16599 10.0815 6.18168C10.0968 6.19737 10.115 6.20985 10.1352 6.21836C10.1553 6.22687 10.177 6.23125 10.1988 6.23125C10.2288 6.23326 10.2589 6.22899 10.2872 6.21872C10.3155 6.20845 10.3413 6.19239 10.363 6.17158C10.3847 6.15077 10.4019 6.12566 10.4133 6.09786C10.4248 6.07005 10.4303 6.04016 10.4296 6.01009C10.4216 5.96639 10.3984 5.92694 10.3641 5.89877C10.3297 5.8706 10.2865 5.85553 10.2421 5.85625ZM5.64117 6.68797C5.63996 6.66354 5.63385 6.6396 5.62321 6.61756C5.61258 6.59553 5.59762 6.57586 5.57924 6.55972C5.56085 6.54358 5.53941 6.53129 5.51619 6.52359C5.49297 6.51589 5.46844 6.51294 5.44405 6.5149C5.39557 6.52268 5.35132 6.54709 5.31886 6.58393C5.28641 6.62077 5.26778 6.66775 5.26617 6.71682C5.26999 6.76655 5.29341 6.81272 5.33128 6.84518C5.36915 6.87764 5.41836 6.89372 5.46809 6.8899C5.51782 6.88607 5.56399 6.86265 5.59645 6.82478C5.6289 6.78691 5.64499 6.7377 5.64117 6.68797ZM7.47289 4.86106C7.24693 4.86106 7.2325 5.25048 7.47289 5.23125C7.52139 5.22884 7.56718 5.20816 7.60106 5.17338C7.63495 5.13861 7.65442 5.09229 7.65558 5.04375C7.65128 4.99675 7.63065 4.95274 7.59728 4.91936C7.5639 4.88599 7.51989 4.86536 7.47289 4.86106ZM9.39596 5.38029C9.3948 5.33047 9.37482 5.28294 9.34003 5.24726C9.30524 5.21158 9.25823 5.1904 9.20846 5.18798C9.18368 5.18601 9.15876 5.18912 9.13523 5.19711C9.1117 5.20511 9.09004 5.21782 9.07159 5.23447C9.05314 5.25112 9.03828 5.27136 9.02792 5.29395C9.01756 5.31655 9.01192 5.34102 9.01134 5.36586C9.01005 5.39025 9.01366 5.41465 9.02196 5.43762C9.03026 5.46059 9.04308 5.48166 9.05966 5.49959C9.07625 5.51752 9.09626 5.53194 9.11851 5.542C9.14077 5.55206 9.16481 5.55756 9.18923 5.55817C9.21651 5.56221 9.24432 5.56062 9.27097 5.55349C9.29761 5.54637 9.32251 5.53386 9.34413 5.51674C9.36575 5.49962 9.38364 5.47826 9.39668 5.45396C9.40973 5.42967 9.41767 5.40296 9.41999 5.37548L9.39596 5.38029ZM8.17962 5.95721C8.17962 5.90875 8.16037 5.86229 8.12611 5.82803C8.09184 5.79376 8.04538 5.77452 7.99692 5.77452C7.94847 5.77452 7.902 5.79376 7.86774 5.82803C7.83348 5.86229 7.81423 5.90875 7.81423 5.95721C7.81423 5.98278 7.81927 6.0081 7.82905 6.03172C7.83884 6.05534 7.85318 6.07681 7.87126 6.09489C7.88934 6.11297 7.91081 6.12731 7.93443 6.1371C7.95805 6.14688 7.98337 6.15192 8.00894 6.15192C8.03451 6.15192 8.05983 6.14688 8.08346 6.1371C8.10708 6.12731 8.12854 6.11297 8.14662 6.09489C8.16471 6.07681 8.17905 6.05534 8.18883 6.03172C8.19862 6.0081 8.20365 5.98278 8.20365 5.95721H8.17962ZM11.0642 6.79855C11.0564 6.75439 11.0333 6.71436 10.9991 6.68539C10.9649 6.65642 10.9216 6.64033 10.8767 6.6399C10.8523 6.64111 10.8283 6.64721 10.8063 6.65785C10.7843 6.66849 10.7646 6.68344 10.7485 6.70183C10.7323 6.72021 10.72 6.74165 10.7123 6.76487C10.7046 6.78809 10.7017 6.81263 10.7036 6.83701C10.7093 6.88086 10.7302 6.9213 10.7628 6.95121C10.7953 6.98112 10.8374 6.99856 10.8815 7.00047C10.9308 6.99851 10.9777 6.97903 11.0138 6.94553C11.05 6.91203 11.073 6.86673 11.0786 6.81778L11.0642 6.79855ZM10.4056 4.73125C10.3618 4.73202 10.3198 4.74846 10.2872 4.77757C10.2545 4.80669 10.2334 4.84654 10.2277 4.8899C10.2238 4.92565 10.2308 4.96174 10.2479 4.99341C10.2649 5.02507 10.2911 5.05083 10.3231 5.06729C10.3551 5.08375 10.3913 5.09013 10.427 5.0856C10.4626 5.08106 10.4961 5.06582 10.5229 5.04189C10.5498 5.01795 10.5687 4.98645 10.5773 4.95152C10.5859 4.9166 10.5836 4.8799 10.5709 4.84626C10.5582 4.81263 10.5356 4.78363 10.5061 4.7631C10.4766 4.74257 10.4415 4.73146 10.4056 4.73125ZM6.74693 6.03413C6.73992 5.99137 6.71795 5.95249 6.68492 5.92443C6.6519 5.89638 6.60997 5.88098 6.56664 5.88098C6.52331 5.88098 6.48139 5.89638 6.44836 5.92443C6.41534 5.95249 6.39336 5.99137 6.38635 6.03413C6.39234 6.08426 6.41688 6.13032 6.45515 6.16325C6.49341 6.19617 6.54263 6.21357 6.59308 6.21201C6.63743 6.20653 6.67848 6.18578 6.70919 6.15331C6.73989 6.12085 6.75834 6.07871 6.76135 6.03413H6.74693ZM7.58827 4.11106C7.62929 4.11071 7.66877 4.09538 7.69929 4.06797C7.7298 4.04055 7.74925 4.00293 7.75397 3.96218C7.7587 3.92143 7.74837 3.88036 7.72494 3.84669C7.70151 3.81301 7.66658 3.78906 7.62673 3.77933C7.60227 3.77015 7.576 3.76679 7.55001 3.76953C7.52402 3.77226 7.49902 3.78101 7.477 3.79509C7.45498 3.80916 7.43654 3.82817 7.42315 3.85061C7.40975 3.87304 7.40176 3.89829 7.39982 3.92435C7.39787 3.95041 7.40202 3.97657 7.41194 4.00074C7.42186 4.02492 7.43727 4.04646 7.45696 4.06364C7.47665 4.08083 7.50007 4.09319 7.52536 4.09975C7.55066 4.10631 7.57714 4.10689 7.60269 4.10145L7.58827 4.11106ZM9.39596 6.78413C9.38916 6.74378 9.36829 6.70714 9.33704 6.68072C9.3058 6.65429 9.2662 6.6398 9.22528 6.6398C9.18437 6.6398 9.14477 6.65429 9.11352 6.68072C9.08228 6.70714 9.06141 6.74378 9.05461 6.78413C9.05461 6.82939 9.07259 6.8728 9.1046 6.90481C9.13661 6.93682 9.18002 6.9548 9.22528 6.9548C9.27055 6.9548 9.31396 6.93682 9.34597 6.90481C9.37797 6.8728 9.39596 6.82939 9.39596 6.78413Z" fill="#FF0303"/>
<path d="M8.84885 12.5881C8.54091 12.6289 8.22892 12.6289 7.92097 12.5881C7.59906 11.1257 7.3917 9.64044 7.30078 8.14581C7.54822 7.89412 7.82226 7.67005 8.11809 7.47754C8.43552 7.63045 8.71851 7.84637 8.94981 8.11215C8.81039 10.8814 8.88731 10.1073 8.87289 11.6843C8.88654 11.9857 8.87851 12.2878 8.84885 12.5881Z" fill="white"/>
<path d="M7.43088 12.5526C7.26435 12.5868 7.09261 12.5868 6.92608 12.5526C6.89553 12.5424 6.86739 12.5261 6.84341 12.5046C6.81943 12.4831 6.80011 12.4569 6.78665 12.4276C6.72896 12.3171 6.5655 11.6248 6.05108 9.77861C5.90685 9.26419 5.78185 8.88919 5.57031 8.144C5.79163 7.95213 6.02443 7.77391 6.26742 7.61035C6.34093 7.65564 6.41158 7.70541 6.47896 7.75939C6.5655 7.8267 6.63281 7.92285 6.72415 7.98054C6.7934 8.02486 6.84924 8.08723 6.88567 8.16093C6.9221 8.23464 6.93773 8.31688 6.93088 8.39881C6.9883 9.76948 7.15875 11.1331 7.4405 12.4757C7.43977 12.5016 7.43655 12.5274 7.43088 12.5526Z" fill="white"/>
<path d="M9.8782 12.3898C9.70616 12.477 9.51185 12.5106 9.32051 12.4859C9.30815 12.4322 9.30012 12.3775 9.29648 12.3225C9.24779 10.9568 9.27025 9.58962 9.36378 8.22633C9.62821 8.02441 9.8109 7.74557 10.0849 7.52441C10.2626 7.64113 10.4174 7.78941 10.5417 7.96191C10.6522 8.23114 10.4119 8.27922 10.0369 11.26C9.99359 11.6254 9.9359 12.0052 9.8782 12.3898Z" fill="white"/>
<path d="M10.9693 8.18855C11.2001 8.11163 11.3203 7.88567 11.5511 7.75586C11.555 7.83273 11.555 7.90976 11.5511 7.98663C11.4693 8.63566 11.0703 11.7607 10.4309 12.102H10.3828C10.3828 12.102 10.3828 12.102 10.3828 12.0683C10.527 10.7751 10.7001 9.49624 10.9693 8.18855Z" fill="white"/>
<path d="M6.29114 12.3277C6.00749 12.2604 5.8921 12.0729 5.70461 11.6114C5.29595 10.621 5.18538 9.52486 4.74307 8.13063C4.73929 8.06338 4.73929 7.99597 4.74307 7.92871C4.88683 7.97459 5.01945 8.0499 5.13249 8.14986C5.20941 8.20756 5.21903 8.24121 5.6373 9.75082C6.34883 12.4623 6.23826 12.0681 6.29114 12.3277Z" fill="white"/>
<path d="M7.30024 6.70706C7.34339 6.70632 7.38541 6.72088 7.41885 6.74816C7.45229 6.77544 7.47499 6.81368 7.48293 6.8561C7.48295 6.91648 7.4593 6.97445 7.41705 7.0176C7.37481 7.06074 7.31734 7.08561 7.25697 7.08686C7.23257 7.08687 7.20842 7.08199 7.18593 7.07251C7.16345 7.06303 7.14309 7.04914 7.12606 7.03167C7.10903 7.01419 7.09568 6.99348 7.08678 6.97076C7.07789 6.94803 7.07364 6.92376 7.07428 6.89936C7.08332 6.84586 7.11093 6.79725 7.15226 6.76208C7.19358 6.72691 7.24598 6.70743 7.30024 6.70706Z" fill="black"/>
<path d="M10.242 5.85549C10.2864 5.85477 10.3296 5.86984 10.3639 5.89802C10.3983 5.92619 10.4215 5.96564 10.4295 6.00934C10.4302 6.03941 10.4247 6.0693 10.4132 6.0971C10.4017 6.12491 10.3846 6.15002 10.3629 6.17083C10.3412 6.19164 10.3153 6.2077 10.2871 6.21797C10.2588 6.22824 10.2287 6.23251 10.1987 6.23049C10.1768 6.2305 10.1552 6.22612 10.135 6.21761C10.1149 6.20909 10.0966 6.19662 10.0814 6.18093C10.0661 6.16524 10.0542 6.14664 10.0463 6.12625C10.0383 6.10586 10.0346 6.08409 10.0352 6.06222C10.0352 6.0074 10.057 5.95481 10.0958 5.91604C10.1345 5.87727 10.1871 5.85549 10.242 5.85549Z" fill="black"/>
<path d="M5.64258 6.68831C5.64447 6.71293 5.6415 6.73769 5.63382 6.76116C5.62615 6.78464 5.61393 6.80637 5.59786 6.82512C5.58179 6.84387 5.56218 6.85927 5.54016 6.87044C5.51813 6.88162 5.49412 6.88834 5.4695 6.89023C5.44488 6.89213 5.42012 6.88915 5.39665 6.88148C5.37318 6.87381 5.35144 6.86159 5.33269 6.84552C5.29483 6.81306 5.2714 6.76689 5.26758 6.71716C5.26919 6.66809 5.28782 6.62111 5.32027 6.58426C5.35273 6.54742 5.39699 6.52302 5.44546 6.51524C5.46985 6.51328 5.49438 6.51623 5.5176 6.52393C5.54083 6.53163 5.56226 6.54392 5.58065 6.56006C5.59903 6.5762 5.61399 6.59587 5.62462 6.6179C5.63526 6.63993 5.64137 6.66388 5.64258 6.68831Z" fill="black"/>
<path d="M7.47431 4.86133C7.52386 4.86228 7.57133 4.88143 7.60768 4.91512C7.64403 4.94881 7.66672 4.99468 7.67143 5.04402C7.67027 5.09256 7.6508 5.13888 7.61691 5.17365C7.58302 5.20843 7.53723 5.2291 7.48874 5.23152C7.24354 5.25075 7.25316 4.86614 7.47431 4.86133Z" fill="black"/>
<path d="M9.42003 5.3755C9.41404 5.42562 9.3895 5.47169 9.35123 5.50461C9.31296 5.53754 9.26375 5.55494 9.2133 5.55338C9.18888 5.55277 9.16484 5.54728 9.14258 5.53721C9.12033 5.52715 9.10032 5.51273 9.08373 5.4948C9.06715 5.47687 9.05433 5.4558 9.04603 5.43283C9.03773 5.40986 9.03412 5.38546 9.03541 5.36107C9.03599 5.33623 9.04163 5.31176 9.05199 5.28917C9.06235 5.26657 9.07721 5.24633 9.09566 5.22968C9.11411 5.21303 9.13576 5.20032 9.1593 5.19232C9.18283 5.18433 9.20775 5.18122 9.23253 5.18319C9.2823 5.18561 9.32931 5.20679 9.3641 5.24247C9.39889 5.27815 9.41887 5.32568 9.42003 5.3755Z" fill="black"/>
<path d="M8.20523 5.95808C8.20523 6.00653 8.18598 6.053 8.15172 6.08726C8.11746 6.12153 8.07099 6.14077 8.02253 6.14077C7.97408 6.14077 7.92761 6.12153 7.89335 6.08726C7.85909 6.053 7.83984 6.00653 7.83984 5.95808C7.83984 5.90963 7.85909 5.86316 7.89335 5.8289C7.92761 5.79464 7.97408 5.77539 8.02253 5.77539C8.07099 5.77539 8.11746 5.79464 8.15172 5.8289C8.18598 5.86316 8.20523 5.90963 8.20523 5.95808Z" fill="black"/>
<path d="M11.0799 6.81881C11.0791 6.86889 11.0601 6.91696 11.0265 6.9541C10.9929 6.99124 10.947 7.01491 10.8972 7.02073C10.8531 7.01882 10.811 7.00138 10.7784 6.97147C10.7459 6.94156 10.725 6.90111 10.7193 6.85727C10.7174 6.83288 10.7203 6.80835 10.728 6.78513C10.7357 6.76191 10.748 6.74047 10.7642 6.72208C10.7803 6.7037 10.8 6.68875 10.822 6.67811C10.844 6.66747 10.868 6.66137 10.8924 6.66016C10.9373 6.66059 10.9806 6.67668 11.0148 6.70565C11.049 6.73462 11.0721 6.77465 11.0799 6.81881Z" fill="black"/>
<path d="M10.4211 4.73242C10.4571 4.73263 10.4921 4.74374 10.5216 4.76427C10.5512 4.7848 10.5738 4.8138 10.5865 4.84743C10.5992 4.88107 10.6014 4.91777 10.5928 4.95269C10.5843 4.98762 10.5653 5.01912 10.5385 5.04306C10.5116 5.06699 10.4782 5.08223 10.4425 5.08677C10.4068 5.0913 10.3706 5.08492 10.3387 5.06846C10.3067 5.052 10.2805 5.02624 10.2634 4.99458C10.2464 4.96291 10.2393 4.92682 10.2432 4.89108C10.249 4.84772 10.2701 4.80786 10.3027 4.77874C10.3354 4.74963 10.3774 4.73319 10.4211 4.73242Z" fill="black"/>
<path d="M6.76292 6.03514C6.76271 6.07931 6.7473 6.12205 6.71928 6.1562C6.69126 6.19034 6.65235 6.2138 6.60907 6.22264C6.55862 6.2242 6.5094 6.2068 6.47114 6.17387C6.43287 6.14095 6.40833 6.09488 6.40234 6.04475C6.40935 6.00199 6.43133 5.96311 6.46435 5.93506C6.49738 5.907 6.5393 5.8916 6.58263 5.8916C6.62596 5.8916 6.66788 5.907 6.70091 5.93506C6.73393 5.96311 6.75591 6.00199 6.76292 6.04475V6.03514Z" fill="black"/>
<path d="M7.60331 4.10216C7.57946 4.10236 7.55583 4.09749 7.534 4.08787C7.51217 4.07825 7.49264 4.0641 7.4767 4.04636C7.46075 4.02861 7.44876 4.00768 7.44153 3.98495C7.43429 3.96222 7.43197 3.93821 7.43471 3.91451C7.43746 3.89082 7.44522 3.86798 7.45746 3.84751C7.46971 3.82703 7.48617 3.8094 7.50575 3.79578C7.52533 3.78215 7.54758 3.77284 7.57104 3.76847C7.59449 3.7641 7.6186 3.76477 7.64177 3.77043C7.68162 3.78016 7.71655 3.80411 7.73998 3.83778C7.76341 3.87145 7.77374 3.91252 7.76901 3.95327C7.76429 3.99402 7.74484 4.03164 7.71432 4.05906C7.68381 4.08648 7.64433 4.1018 7.60331 4.10216Z" fill="black"/>
<path d="M9.39648 6.78398C9.40066 6.80879 9.39938 6.83421 9.39273 6.85848C9.38608 6.88275 9.37421 6.90527 9.35797 6.92448C9.34172 6.9437 9.32148 6.95913 9.29865 6.96972C9.27583 6.98031 9.25097 6.9858 9.22581 6.9858C9.20065 6.9858 9.17579 6.98031 9.15297 6.96972C9.13014 6.95913 9.1099 6.9437 9.09365 6.92448C9.07741 6.90527 9.06554 6.88275 9.05889 6.85848C9.05224 6.83421 9.05096 6.80879 9.05514 6.78398C9.06193 6.74363 9.08281 6.70699 9.11405 6.68057C9.1453 6.65415 9.18489 6.63965 9.22581 6.63965C9.26673 6.63965 9.30633 6.65415 9.33757 6.68057C9.36881 6.70699 9.38969 6.74363 9.39648 6.78398Z" fill="black"/>
</svg>
