<svg width="16" height="16" viewBox="0 0 16 16" fill="none" xmlns="http://www.w3.org/2000/svg">
<path d="M8.38371 10.5332C8.38371 10.8059 8.38371 11.301 8.38371 11.5737C8.36993 11.7979 8.30537 12.016 8.1949 12.2115C8.16805 12.2667 8.12939 12.3154 8.08165 12.3541C8.03391 12.3928 7.97826 12.4205 7.91863 12.4353C7.859 12.4501 7.79684 12.4517 7.73656 12.4398C7.67627 12.4279 7.61932 12.403 7.56974 12.3667C7.42708 12.2744 7.52359 12.3206 7.07045 12.0269C6.71801 12.0982 6.41592 12.4842 6.23131 12.6436C6.0467 12.8031 5.70684 12.7192 5.71943 12.2241C5.68319 10.9355 5.97176 9.65859 6.55857 8.51085C6.47885 8.45212 6.4369 8.51085 6.39074 8.53183C5.90851 8.86986 5.40697 9.17947 4.88868 9.45909C4.0831 9.87866 3.39081 9.49265 3.35305 8.82134C3.35305 8.63253 3.35305 8.44372 3.35305 8.23813C3.2062 8.15002 2.79502 7.98639 3.02998 7.56262C3.16753 7.35921 3.31746 7.16444 3.47892 6.97942C3.47892 6.84935 3.34885 6.8074 3.28592 6.73187C2.86635 6.23258 3.31529 5.91791 3.94045 5.36827C3.7681 5.19944 3.62616 5.00214 3.52088 4.78506C3.49948 4.72455 3.49224 4.65993 3.49974 4.59618C3.50723 4.53243 3.52925 4.47125 3.56411 4.41734C3.59896 4.36344 3.64572 4.31825 3.70078 4.28526C3.75584 4.25227 3.81774 4.23235 3.88171 4.22703C4.17723 4.21516 4.47323 4.22638 4.767 4.2606C4.98864 4.2926 5.20747 4.3417 5.42153 4.40745C5.90044 4.55459 6.33375 4.8218 6.68025 5.18366C7.19951 5.04924 7.73405 4.98296 8.27042 4.98646C8.99628 4.09277 9.65501 3.35013 10.9389 2.9893C11.0524 2.95791 11.1694 2.94099 11.2871 2.93895C11.3395 2.93613 11.3917 2.94591 11.4394 2.96748C11.4872 2.98904 11.5291 3.02176 11.5616 3.06287C11.594 3.10399 11.6162 3.1523 11.6261 3.20375C11.636 3.2552 11.6335 3.30828 11.6186 3.35852C11.5976 3.44663 11.5934 3.42146 11.4717 3.77809C11.5431 3.93753 11.6648 3.90816 12.2731 4.13473C12.3732 4.16977 12.469 4.21623 12.5584 4.27319C12.6012 4.30274 12.6372 4.34109 12.6639 4.38566C12.6907 4.43023 12.7076 4.48 12.7135 4.53164C12.7195 4.58328 12.7144 4.6356 12.6985 4.68509C12.6826 4.73459 12.6563 4.78011 12.6214 4.81863C12.5333 4.93191 12.5123 4.91513 12.2312 5.2382C12.4926 5.44571 12.7254 5.68696 12.9235 5.95567C12.9604 6.00605 12.9848 6.06446 12.9947 6.12611C13.0046 6.18776 12.9997 6.25088 12.9804 6.31028C12.9612 6.36968 12.9281 6.42366 12.8839 6.46777C12.8397 6.51189 12.7857 6.54489 12.7263 6.56405C12.6298 6.606 12.5207 6.61439 12.42 6.65215C12.2563 6.7109 12.0759 6.74026 11.971 6.93327L12.0801 7.18081C12.3067 7.69689 11.9039 7.95283 11.3333 7.96122C11.0774 7.96122 10.8172 7.96122 10.5571 7.94024C10.1627 7.90667 9.76829 7.91506 9.3655 7.88989C9.39487 8.171 9.75151 7.94024 10.8466 9.29965C11.2069 9.75678 11.4399 10.301 11.5221 10.8772C11.606 11.3723 11.3375 11.6325 11.027 11.5779C10.855 11.5444 10.2508 11.3094 9.90675 11.2297C9.80284 11.2837 9.72334 11.3752 9.68438 11.4856C9.62144 11.5863 9.57529 11.6954 9.50816 11.7919C9.29417 12.1024 9.02565 12.0856 8.85782 11.7541C8.72775 11.4982 8.61867 11.0493 8.43825 10.5374L8.38371 10.5332ZM10.9431 3.52635C10.9012 3.52203 10.8591 3.52203 10.8172 3.52635C9.98367 3.85515 9.25549 4.4049 8.71097 5.11652L8.68999 5.1459C8.65223 5.30533 8.61447 5.10394 8.89558 6.13608C8.97184 6.13057 9.04757 6.11935 9.12215 6.10252C10.0158 5.78784 9.93192 5.78784 10.0788 5.73749C10.1241 5.72525 10.1721 5.72713 10.2163 5.74287C10.2605 5.75862 10.2989 5.78748 10.3263 5.8256C10.354 5.86412 10.3689 5.91034 10.3689 5.95776C10.3689 6.00519 10.354 6.05141 10.3263 6.08993C10.1207 6.28293 10.0662 6.3123 8.95432 6.65215C8.94695 6.85168 8.96102 7.05142 8.99628 7.24795C9.04137 7.27201 9.08929 7.29033 9.13893 7.30249C9.87329 7.39945 10.6136 7.44431 11.3543 7.43675C11.4357 7.42251 11.5148 7.3971 11.5892 7.36123C11.5557 7.25634 11.5221 7.16823 11.5011 7.07592C11.3794 6.55565 11.7361 6.40461 12.1305 6.19902C12.2178 6.1587 12.3075 6.12367 12.399 6.09413C12.2605 5.91021 12.0917 5.75128 11.8997 5.62421C11.5599 5.37246 11.5473 5.11653 11.8661 4.8438C11.9417 4.78087 12.055 4.73471 12.0424 4.57947C11.1864 4.31095 10.8466 4.27738 10.9431 3.52635ZM3.51249 7.72206C3.99499 8.02835 3.79779 8.46051 3.83556 8.79616C3.8374 8.84669 3.85035 8.89619 3.8735 8.94114C3.89665 8.98609 3.92941 9.02538 3.96947 9.05623C4.00953 9.08707 4.0559 9.10871 4.10527 9.1196C4.15464 9.13049 4.20581 9.13036 4.25513 9.11923C4.72924 9.03951 5.28727 8.63673 6.45368 7.86052C6.55018 7.79758 6.63829 7.72206 6.7306 7.65493C6.71541 7.5084 6.67271 7.36605 6.60472 7.23536C6.17576 7.33147 5.73907 7.38904 5.29986 7.40738C5.02294 7.40738 4.93064 7.04236 5.26629 6.98781C5.26629 6.98781 5.52643 6.95005 6.31102 6.79061C6.40491 6.76648 6.49737 6.73706 6.58794 6.7025C6.60494 6.37546 6.60494 6.04775 6.58794 5.72071C6.4327 5.60323 6.28585 5.50253 6.16837 5.38925C5.6269 4.93221 4.93845 4.68633 4.22995 4.69695C4.21668 4.69244 4.20255 4.69102 4.18864 4.69278C4.17473 4.69455 4.1614 4.69946 4.14968 4.70714C4.13795 4.71483 4.12812 4.72508 4.12095 4.73713C4.11378 4.74918 4.10944 4.7627 4.10828 4.77667C4.33065 5.02842 4.6705 5.30533 4.32226 5.64518C4.19639 5.77106 4.05373 5.87595 3.90269 5.99343C3.75164 6.11091 3.67612 6.16126 3.62997 6.29972C3.62908 6.31229 3.62908 6.32491 3.62997 6.33748C3.86493 6.61439 4.12086 6.82418 3.81038 7.26053C3.75584 7.41158 3.65094 7.53745 3.52507 7.70108L3.51249 7.72206ZM9.18509 11.2381C9.42844 10.9402 9.5585 10.6968 9.92353 10.7388C10.2252 10.7895 10.5206 10.8725 10.8046 10.9863C10.8592 10.9863 10.9137 11.0409 10.985 10.9863C10.9929 10.9124 10.9929 10.8379 10.985 10.764C10.4983 8.9598 9.11376 8.59896 8.39629 7.82695C8.31238 7.73465 8.21168 7.74304 8.11098 7.82695L9.18509 11.2381ZM6.24809 11.8758C6.38801 11.827 6.51856 11.7546 6.63409 11.6618C6.75866 11.5768 6.90699 11.5334 7.05776 11.5379C7.20854 11.5424 7.354 11.5946 7.47324 11.687C7.56554 11.7541 7.66204 11.8171 7.76274 11.8842C7.86005 11.7465 7.90199 11.5773 7.88022 11.4101C7.89504 10.8205 7.85713 10.2307 7.76694 9.64789C7.68302 9.06049 7.63687 8.51505 7.56554 7.91087C7.43128 7.83954 7.38093 7.91087 7.33058 8.00317C7.0753 8.49349 6.85108 8.99937 6.65927 9.51783C6.36207 10.2601 6.22068 11.0556 6.24389 11.8548L6.24809 11.8758ZM7.22989 7.35284C7.63617 7.34444 8.03904 7.27659 8.42566 7.15144C8.44961 6.59342 8.36408 6.0361 8.17392 5.51092C7.80918 5.44884 7.43436 5.48952 7.09143 5.6284C7.04806 6.19975 7.09335 6.77436 7.22569 7.33186L7.22989 7.35284Z" fill="#241712"/>
<path d="M10.9429 3.52639C10.8296 4.28161 11.1779 4.31098 12.017 4.5837C12.017 4.73895 11.9163 4.7851 11.8408 4.84803C11.5219 5.12076 11.5345 5.37669 11.8744 5.62844C12.0663 5.75552 12.2352 5.91444 12.3737 6.09836C12.2821 6.1279 12.1925 6.16293 12.1051 6.20325C11.7066 6.41303 11.3541 6.55988 11.4758 7.08015C11.4968 7.17246 11.5303 7.26057 11.5639 7.36546C11.4894 7.40133 11.4104 7.42674 11.3289 7.44098C10.5882 7.44867 9.84794 7.4038 9.1136 7.30672C9.06396 7.29456 9.01604 7.27624 8.97095 7.25218C8.93568 7.05565 8.92162 6.85591 8.92899 6.65639C10.066 6.31234 10.1038 6.27877 10.301 6.09416C10.3287 6.05564 10.3435 6.00942 10.3435 5.962C10.3435 5.91457 10.3287 5.86835 10.301 5.82983C10.2736 5.79171 10.2352 5.76285 10.191 5.7471C10.1467 5.73136 10.0988 5.72948 10.0534 5.74172C9.90659 5.79207 9.99051 5.79207 9.09682 6.10675C9.02224 6.12358 8.94651 6.1348 8.87025 6.14031C8.58914 5.10817 8.6269 5.30117 8.66466 5.15013L8.68564 5.12076C9.23305 4.40576 9.96584 3.85436 10.8045 3.52639C10.8505 3.52115 10.8969 3.52115 10.9429 3.52639Z" fill="#DA0100"/>
<path d="M3.52539 7.70107C3.89881 7.21437 4.23027 6.96682 3.8107 6.51368C3.64287 6.32068 3.67644 6.36264 3.66385 6.31649C3.71 6.17803 3.83587 6.10251 3.93657 6.0102C4.03727 5.91789 4.21349 5.78783 4.35614 5.66196C4.70439 5.3221 4.35614 5.03679 4.14216 4.79344C4.1416 4.78132 4.14343 4.7692 4.14755 4.75779C4.15168 4.74637 4.15802 4.73588 4.1662 4.72692C4.17438 4.71795 4.18426 4.71069 4.19525 4.70555C4.20624 4.70041 4.21814 4.69748 4.23027 4.69694C4.92005 4.68239 5.59293 4.91115 6.13093 5.34308C6.26519 5.45637 6.41204 5.55706 6.5505 5.67454C6.5675 6.00159 6.5675 6.32929 6.5505 6.65634C6.14359 6.79892 5.72096 6.89189 5.29179 6.93326H5.22046C4.88061 7.00458 4.97711 7.35283 5.25402 7.35283C5.71199 7.35132 6.16871 7.30495 6.61763 7.21437C6.68561 7.34506 6.72832 7.48741 6.7435 7.63394C6.65119 7.70107 6.56309 7.77659 6.46658 7.83953C5.20787 8.67867 4.71697 9.01433 4.26803 9.09824C4.21871 9.10937 4.16755 9.1095 4.11818 9.09861C4.0688 9.08772 4.02244 9.06608 3.98238 9.03524C3.94232 9.00439 3.90955 8.9651 3.8864 8.92015C3.86326 8.8752 3.8503 8.8257 3.84846 8.77517C3.8107 8.43532 4.0079 8.00736 3.52539 7.70107Z" fill="#DA0100"/>
<path d="M9.19635 11.2173L8.10547 7.8146C8.20617 7.72229 8.30686 7.7139 8.39078 7.8146C9.11664 8.58661 10.4886 8.93905 10.9795 10.7516C10.9874 10.8255 10.9874 10.9001 10.9795 10.974C10.8872 11.0579 10.8914 10.9991 10.1949 10.7936C9.61173 10.5922 9.49844 10.8439 9.19635 11.2173Z" fill="#DA0100"/>
<path d="M6.2441 11.8543C6.22373 11.0576 6.36651 10.2651 6.66367 9.52565C6.85548 9.00719 7.07969 8.50131 7.33498 8.01099C7.38533 7.91869 7.43568 7.84736 7.56994 7.91869C7.64127 8.51448 7.68742 9.06831 7.77134 9.65571C7.85962 10.2359 7.89613 10.8228 7.88042 11.4095C7.89123 11.5685 7.84512 11.7262 7.75036 11.8543C7.64966 11.7871 7.55316 11.7242 7.46085 11.6571C7.34161 11.5647 7.19615 11.5125 7.04538 11.5079C6.8946 11.5034 6.74627 11.5468 6.62171 11.6319C6.50932 11.7268 6.38164 11.802 6.2441 11.8543Z" fill="#DA0100"/>
<path d="M7.22593 7.33162C7.09641 6.77368 7.05395 6.19907 7.10006 5.62816C7.44299 5.48928 7.81782 5.4486 8.18256 5.51068C8.37272 6.03585 8.45824 6.59317 8.4343 7.1512C8.04258 7.27045 7.6354 7.33124 7.22593 7.33162Z" fill="#DA0100"/>
</svg>
