<svg width="16" height="16" viewBox="0 0 16 16" fill="none" xmlns="http://www.w3.org/2000/svg">
<path d="M8.79937 14.5535C8.79937 14.5913 8.79937 14.6291 8.79937 14.6669C8.79892 14.6959 8.78954 14.7241 8.7725 14.7475C8.75546 14.771 8.73159 14.7887 8.70415 14.798C8.67671 14.8074 8.64705 14.8081 8.6192 14.8C8.59135 14.792 8.56667 14.7755 8.54855 14.7528C8.49953 14.6938 8.47171 14.62 8.46952 14.5432C8.44547 13.7221 8.4386 14.1412 8.44547 13.4094C8.41373 13.3907 8.37754 13.3808 8.34068 13.3808C8.30381 13.3808 8.26763 13.3907 8.23588 13.4094C8.20941 13.7098 8.19908 14.0115 8.20496 14.313C8.20952 14.3513 8.19868 14.3898 8.17484 14.4201C8.151 14.4504 8.1161 14.47 8.07783 14.4745C8.03956 14.4791 8.00104 14.4682 7.97076 14.4444C7.94047 14.4206 7.9209 14.3857 7.91635 14.3474C7.88512 14.0462 7.89553 13.7421 7.94727 13.4438L7.83388 13.4231C7.77204 13.4231 7.71019 13.4231 7.65178 13.4231C7.61549 13.4207 7.5801 13.4108 7.54788 13.3939C7.51566 13.377 7.48732 13.3536 7.46467 13.3251C7.44203 13.2967 7.42558 13.2638 7.41639 13.2286C7.40719 13.1934 7.40545 13.1567 7.41127 13.1208C7.47655 12.6398 7.35973 13.3407 7.57619 12.011C7.55358 11.9919 7.52945 11.9747 7.50404 11.9595C7.45905 11.9378 7.42404 11.8998 7.40616 11.8531C7.38827 11.8065 7.38887 11.7548 7.40784 11.7086C7.44249 11.6283 7.45625 11.5405 7.44784 11.4534C7.43942 11.3662 7.40912 11.2827 7.35973 11.2104C7.23604 11.0558 7.13984 10.8668 7.01615 10.7225C6.09189 9.46501 5.52497 7.66805 5.42533 7.41379C5.2508 7.57775 5.03829 7.69581 4.80688 7.75738C4.76629 7.76867 4.72348 7.76941 4.68253 7.75953C4.64157 7.74965 4.60381 7.72947 4.57284 7.70091C4.54187 7.67234 4.51871 7.63634 4.50555 7.59632C4.49239 7.55629 4.48967 7.51357 4.49765 7.4722C4.54515 7.01596 4.76967 6.59654 5.12298 6.304C5.1069 6.10317 5.15763 5.90266 5.26728 5.73365C4.77252 5.51719 4.41175 5.44847 4.20903 4.81283C4.19246 4.77972 4.18375 4.74322 4.1836 4.70619C4.18344 4.66916 4.19183 4.6326 4.20813 4.59935C4.22442 4.56609 4.24817 4.53705 4.27753 4.51449C4.30689 4.49192 4.34107 4.47644 4.37739 4.46924C4.76016 4.28331 5.19227 4.22433 5.61087 4.30089C5.74487 4.03976 5.76892 3.90232 6.24307 3.9195C6.21193 3.70992 6.21193 3.49689 6.24307 3.2873C6.24836 3.25341 6.26054 3.22097 6.27886 3.19198C6.29719 3.16298 6.32126 3.13806 6.3496 3.11873C6.37794 3.09941 6.40994 3.08611 6.44362 3.07964C6.4773 3.07318 6.51195 3.07369 6.54543 3.08115C6.85865 3.10564 7.1509 3.24809 7.36317 3.47971C7.38235 3.50189 7.40429 3.52152 7.42845 3.53812L7.73768 3.3354C7.73768 3.29417 7.7205 3.25294 7.71019 3.20828C7.68644 3.13329 7.68445 3.05309 7.70445 2.97702C7.72445 2.90094 7.76563 2.8321 7.8232 2.77849C7.88076 2.72488 7.95236 2.6887 8.02967 2.67416C8.10697 2.65962 8.18682 2.6673 8.25993 2.69633C8.4386 2.74787 8.47983 2.84751 8.5726 2.99525C8.66648 2.95494 8.76881 2.93825 8.87063 2.94664C8.97246 2.95502 9.07067 2.98823 9.1567 3.04335C9.24631 3.10328 9.30914 3.19568 9.33193 3.30105C9.33193 3.34571 9.35254 3.38694 9.36285 3.43848L9.53808 3.32853C9.60332 3.28797 9.67825 3.26564 9.75506 3.26389C9.83187 3.26214 9.90774 3.28102 9.97476 3.31857C10.0418 3.35612 10.0975 3.41096 10.1361 3.47737C10.1748 3.54379 10.1949 3.61935 10.1943 3.69617C10.1877 3.85526 10.1635 4.01312 10.1222 4.16689C10.105 4.19094 10.0878 4.22186 10.1222 4.23904C10.1565 4.25622 10.1565 4.21842 10.1737 4.20812C10.4544 3.97033 10.8092 3.83789 11.177 3.83361C11.5 3.8714 11.4553 4.28714 11.2629 4.5414C11.0705 4.79565 10.8781 4.86093 10.4589 5.06365C10.5998 5.1358 10.8953 5.24232 10.8643 5.56185C10.8643 5.70616 10.909 5.69929 11.2079 6.26964C11.2882 6.4419 11.3382 6.62671 11.3557 6.81595C11.3625 6.86841 11.3625 6.92154 11.3557 6.974C11.3316 7.25918 11.1804 7.34851 10.9193 7.23512L10.7647 7.16641C10.7469 7.20616 10.733 7.2476 10.7235 7.2901C10.7028 7.39318 10.6822 7.49969 10.6719 7.60276C10.6254 8.01097 10.5542 8.41599 10.4589 8.81563C10.3352 9.5028 9.95039 10.6538 9.51403 11.1417C9.47602 11.1738 9.45217 11.2195 9.44767 11.2691C9.44317 11.3186 9.45837 11.3679 9.48998 11.4063C9.52307 11.457 9.5529 11.5098 9.57931 11.5643C9.73736 11.877 9.64459 11.9285 9.47623 12.0591C9.56412 12.3657 9.62392 12.6797 9.6549 12.9971C9.67551 13.3613 9.42126 13.3407 9.15326 13.3682C9.13619 13.4486 9.13619 13.5317 9.15326 13.6121C9.17919 13.8312 9.17919 14.0527 9.15326 14.2718C9.14657 14.2978 9.1322 14.3213 9.11202 14.339C9.09184 14.3568 9.06678 14.3681 9.04009 14.3714C9.01341 14.3748 8.98634 14.37 8.9624 14.3578C8.93847 14.3455 8.91877 14.3263 8.90588 14.3027C8.82685 14.1412 8.85778 14.0485 8.84747 13.43C8.84747 13.4094 8.81311 13.3922 8.79593 13.3716C8.77875 13.351 8.75814 13.406 8.76157 13.4197C8.76157 13.7289 8.77531 14.1309 8.79937 14.5535ZM9.23229 3.69617C9.20026 3.70628 9.17079 3.72318 9.14589 3.74571C9.12099 3.76824 9.10124 3.79588 9.08798 3.82673L9.22885 3.97791C9.22885 3.87827 9.2907 3.78207 9.22885 3.6893H9.25634V3.66868L9.23229 3.69617ZM10.263 7.58215C10.0227 8.21985 9.73086 8.83691 9.39034 9.42721C9.22541 9.69521 9.04675 9.9529 8.88183 10.2175C8.68888 10.5456 8.45826 10.85 8.19465 11.1245C8.15686 11.1589 8.17404 11.1761 8.19465 11.2036H8.38362C9.36972 9.9048 8.86465 10.671 10.1565 8.63353C10.1848 8.59732 10.2068 8.55669 10.2218 8.51327C10.3048 8.22817 10.3521 7.93387 10.3627 7.63712L10.4108 7.34851H10.3833L10.263 7.58215ZM9.70644 7.08738C9.46928 7.90398 9.14321 8.69208 8.73408 9.43752C8.42209 9.98545 8.02683 10.4816 7.56245 10.9081C7.59674 10.9995 7.65632 11.0794 7.73424 11.1383C7.77725 11.1101 7.81752 11.0778 7.8545 11.0421C8.20596 10.6624 8.51474 10.2453 8.77531 9.79829C9.36028 8.9339 9.82278 7.9927 10.1497 7.00148C10.1546 6.97884 10.1546 6.95541 10.1497 6.93277C9.66521 7.08395 9.76141 7.05302 9.70644 7.08738ZM9.10859 7.25918C8.88679 7.88943 8.6073 8.49787 8.27368 9.07675C7.9963 9.57654 7.65563 10.0385 7.26009 10.4511C7.28242 10.5282 7.33105 10.5951 7.39753 10.6401C7.49373 10.5439 7.57963 10.4614 7.66209 10.3721C8.42479 9.47142 8.98385 8.41659 9.301 7.27979C9.30591 7.25599 9.30591 7.23144 9.301 7.20764L9.10859 7.25918ZM7.07799 10.214C7.10427 10.196 7.12951 10.1765 7.15358 10.1556C7.22573 10.0697 7.29789 9.98039 7.36661 9.89106C7.92484 9.1412 8.37477 8.31653 8.70316 7.44128C8.71318 7.39959 8.71894 7.357 8.72034 7.31415C8.6341 7.30094 8.5459 7.31664 8.46952 7.35882C8.32917 7.73867 8.15795 8.10639 7.95758 8.4583C7.8064 8.71942 7.46625 9.23824 7.29445 9.46844C7.1742 9.62306 7.04363 9.76737 6.9165 9.91854C6.94458 10.025 7.00029 10.1222 7.07799 10.2003V10.214ZM7.76517 7.40005C7.52556 8.00899 7.21167 8.586 6.83061 9.11798C6.74926 9.2171 6.67465 9.32155 6.60728 9.43065L6.72066 9.62993C7.30276 8.97371 7.75826 8.21533 8.06409 7.39317C8.01599 7.36225 8.08127 7.35882 7.77547 7.3863L7.76517 7.40005ZM7.24635 6.43457C7.05386 6.54237 6.89528 6.70175 6.78845 6.89478C6.68161 7.08781 6.63077 7.30682 6.64163 7.52717C7.02601 7.42016 7.36724 7.19548 7.61742 6.88467C7.34943 6.73692 7.32881 6.76441 7.25666 6.42082L7.24635 6.43457ZM8.60352 12.0694L8.25993 12.5951C8.15342 12.7634 7.99881 12.8975 7.87855 13.0967C8.02204 13.1037 8.16587 13.0968 8.30804 13.0761C8.35766 13.0615 8.40265 13.0343 8.4386 12.9971C8.65773 12.7557 8.84586 12.4879 8.99865 12.2C9.00979 12.1574 9.01442 12.1134 9.01239 12.0694H8.60352ZM4.53888 4.76473C4.56945 4.92164 4.65771 5.06139 4.78626 5.15642C4.89911 5.25704 5.03878 5.3227 5.18826 5.34539C5.17019 5.23473 5.18773 5.12119 5.23837 5.02115C5.28901 4.92111 5.37012 4.83974 5.47 4.78878L5.57308 4.73724C5.60056 4.73724 5.6521 4.73724 5.64867 4.66852C5.60803 4.62972 5.55898 4.60085 5.50533 4.58416C5.45169 4.56747 5.39491 4.56342 5.33944 4.57232C5.06223 4.58102 4.78976 4.6465 4.53888 4.76473ZM6.53512 3.41443C6.51794 3.65838 6.51451 3.95043 6.73097 4.05694C7.31507 4.35242 7.1845 4.29058 7.28758 4.30776C7.30482 4.19835 7.29835 4.08652 7.26861 3.97983C7.23887 3.87315 7.18655 3.7741 7.1152 3.68939C7.04385 3.60468 6.95513 3.53629 6.85505 3.48885C6.75497 3.44141 6.64587 3.41603 6.53512 3.41443ZM11.0464 6.91559C11.0112 6.53637 10.8614 6.17685 10.6169 5.88482C10.562 5.88482 10.5104 5.90544 10.4589 5.92262C10.4074 5.9398 10.3386 5.92262 10.294 5.9879C10.3204 6.06717 10.3388 6.1489 10.3489 6.23185C10.35 6.28863 10.3624 6.34464 10.3854 6.39656C10.4084 6.44848 10.4416 6.49528 10.4829 6.53421C10.5906 6.63957 10.7051 6.74265 10.8265 6.84343C10.8542 6.87298 10.8888 6.89509 10.9272 6.9077C10.9657 6.92031 11.0067 6.92302 11.0464 6.91559ZM7.7205 11.6811C8.14311 11.7155 8.54168 11.7361 8.94367 11.7567C9.05845 11.7584 9.17322 11.7527 9.28726 11.7396C9.28726 11.6674 9.32162 11.7396 9.16357 11.4544C9.0708 11.4544 8.98147 11.4544 8.89213 11.4544C8.58233 11.4944 8.2696 11.507 7.95758 11.4922C7.89229 11.4922 7.82358 11.4922 7.75486 11.4922L7.7205 11.6811ZM8.64475 4.58263C8.56573 4.78534 8.46265 4.94683 8.23932 4.98462C8.53137 5.24919 8.46952 5.13237 8.60696 5.61683C8.67321 5.61339 8.73575 5.58518 8.78219 5.5378C8.75731 5.5048 8.73436 5.47038 8.71347 5.43473C8.66666 5.3664 8.64009 5.28624 8.63683 5.20349C8.63356 5.12073 8.65373 5.03873 8.69502 4.96693C8.7363 4.89513 8.79702 4.83645 8.87019 4.79764C8.94336 4.75882 9.026 4.74146 9.10859 4.74755L9.24603 4.76473L9.41095 4.42114L9.34567 4.25622C9.18762 4.59637 9.04675 4.66852 8.64475 4.58263ZM5.6899 7.0702C5.68676 7.10678 5.68676 7.14357 5.6899 7.18015C5.77177 7.48068 5.88701 7.7711 6.03348 8.04599C6.13478 7.95325 6.21184 7.83714 6.25795 7.70778C6.30407 7.57842 6.31783 7.43974 6.29805 7.30384L5.6899 7.0702ZM8.83372 11.1211C8.89276 11.1466 8.95863 11.1517 9.02088 11.1355C9.08313 11.1193 9.13818 11.0828 9.17731 11.0318C9.25977 10.9218 9.35254 10.8187 9.42813 10.7088C9.58874 10.4403 9.72115 10.1559 9.82326 9.86013C9.82326 9.84295 9.82326 9.8189 9.82326 9.80172H9.79921C9.49685 10.2003 9.22198 10.6229 8.90244 11.0077C8.87749 11.0442 8.85455 11.0821 8.83372 11.1211ZM5.84451 6.76785C5.88928 6.53781 5.86905 6.29985 5.7861 6.08067C5.74831 5.96729 5.66585 5.902 5.59369 5.91918C5.55062 5.93406 5.51357 5.96256 5.48815 6.00038C5.46273 6.0382 5.45033 6.08327 5.45282 6.12877C5.4432 6.28038 5.47655 6.43162 5.54903 6.56513C5.58023 6.61866 5.62292 6.6646 5.67402 6.69965C5.72511 6.73471 5.78334 6.75799 5.84451 6.76785ZM10.3112 4.77504C10.4893 4.7234 10.6593 4.64707 10.8162 4.54827C10.9312 4.48632 11.0228 4.38863 11.0774 4.26996C11.0812 4.23342 11.0812 4.19656 11.0774 4.16001C10.8282 4.18266 10.5902 4.27427 10.3902 4.42458C10.3609 4.4413 10.3352 4.46368 10.3146 4.49043C10.294 4.51718 10.279 4.54775 10.2704 4.58037C10.2617 4.61299 10.2597 4.647 10.2643 4.68042C10.269 4.71384 10.2802 4.74601 10.2974 4.77504H10.3112ZM7.32881 7.58215C7.21543 7.66117 7.1845 7.79517 7.11235 7.90512C7.0402 8.01507 6.97491 8.1422 6.89589 8.24871C6.81686 8.35522 6.72066 8.47891 6.63133 8.5923C6.53592 8.69773 6.45185 8.81289 6.38051 8.93588L6.4664 9.0905C6.49146 9.08069 6.51468 9.06676 6.53512 9.04927C6.74307 8.74966 6.9324 8.43755 7.10204 8.11471C7.20276 7.94897 7.27913 7.76962 7.32881 7.58215ZM6.22933 6.8022C6.57292 6.52046 6.7344 6.40021 6.7344 6.16657C6.73719 6.14565 6.73443 6.12437 6.7264 6.10486C6.71836 6.08535 6.70533 6.0683 6.68862 6.05542C6.67191 6.04254 6.6521 6.03428 6.63119 6.03148C6.61028 6.02867 6.589 6.03142 6.56948 6.03944C6.50461 6.05734 6.44544 6.09166 6.39769 6.13908C6.31415 6.22528 6.25465 6.33186 6.22512 6.4482C6.19558 6.56454 6.19703 6.6866 6.22933 6.8022ZM9.04675 6.91559C9.28277 6.87961 9.51354 6.815 9.73392 6.72318L9.43157 6.41395L9.08798 6.51359L9.04675 6.91559ZM5.22262 6.572C5.01396 6.77944 4.89125 7.05797 4.87903 7.35194C4.87903 7.35194 4.90995 7.35194 4.92026 7.35194C5.06146 7.27894 5.18926 7.18252 5.29821 7.06677C5.31855 7.04954 5.3347 7.02789 5.34542 7.00348C5.35613 6.97907 5.36114 6.95253 5.36005 6.9259C5.36284 6.8809 5.36858 6.83614 5.37723 6.7919L5.22262 6.572ZM7.5006 5.43816C7.50995 5.38295 7.52491 5.32884 7.54527 5.27667C7.58421 5.22457 7.62669 5.17521 7.6724 5.12893C7.6461 5.0444 7.58992 4.97233 7.51435 4.92621C7.46598 5.03057 7.39219 5.12111 7.29974 5.18955C7.2073 5.25798 7.09915 5.30212 6.98522 5.31791C6.98641 5.40847 7.00387 5.49808 7.03676 5.58247L7.5006 5.43816ZM8.76844 13.0452C8.95331 13.0468 9.13808 13.0364 9.32162 13.0143C9.33597 12.8159 9.2993 12.6172 9.21511 12.437L8.76844 13.0452ZM8.90588 5.82985L8.79593 5.88139C8.781 5.88604 8.7677 5.89484 8.75758 5.90676C8.74746 5.91868 8.74094 5.93324 8.73878 5.94872C8.73662 5.96421 8.73891 5.97999 8.74538 5.99423C8.75184 6.00847 8.76223 6.02057 8.77531 6.02913C9.00208 6.24903 9.29413 6.19749 9.35598 5.99134C9.36256 5.97752 9.36587 5.96236 9.36564 5.94706C9.36542 5.93175 9.36168 5.9167 9.3547 5.90308C9.34772 5.88945 9.3377 5.87762 9.32541 5.8685C9.31311 5.85937 9.29889 5.8532 9.28382 5.85047C9.14983 5.84703 9.01239 5.84703 8.90588 5.84016V5.82985ZM8.27024 5.69929C8.35614 5.26293 7.96788 5.19765 7.84763 5.38662C7.83919 5.40311 7.83478 5.42136 7.83478 5.43988C7.83478 5.4584 7.83919 5.47665 7.84763 5.49314C7.8949 5.57071 7.95144 5.64224 8.01599 5.70616C8.10532 5.79893 8.13281 5.79206 8.27024 5.7096V5.69929ZM9.69613 4.27683C9.8177 4.10531 9.88149 3.89952 9.87823 3.6893C9.87658 3.67024 9.87041 3.65185 9.86022 3.63566C9.85004 3.61946 9.83614 3.60593 9.81967 3.59619C9.80321 3.58645 9.78466 3.58077 9.76556 3.57963C9.74647 3.5785 9.72738 3.58194 9.70987 3.58966C9.66693 3.60642 9.62962 3.635 9.60226 3.67209C9.57489 3.70919 9.5586 3.75327 9.55526 3.79925C9.5382 3.9739 9.5886 4.14846 9.69613 4.28714V4.27683ZM9.69613 5.17703C9.7408 5.17703 9.69613 5.21483 9.9229 4.9056C9.94707 4.87169 9.96332 4.83278 9.97046 4.79175C9.9776 4.75072 9.97543 4.70861 9.96413 4.66852C9.95924 4.65016 9.95019 4.63317 9.93768 4.61887C9.92517 4.60457 9.90953 4.59334 9.89197 4.58606C9.8579 4.5742 9.82152 4.5705 9.78576 4.57528C9.75 4.58006 9.71587 4.59318 9.68611 4.61357C9.65635 4.63397 9.6318 4.66107 9.61444 4.6927C9.59709 4.72433 9.5874 4.75959 9.58618 4.79565C9.59983 4.93491 9.63701 5.07083 9.69613 5.19765V5.17703ZM6.13656 5.11175C6.06986 5.05844 5.99042 5.02343 5.90607 5.01018C5.82172 4.99692 5.73537 5.00588 5.65554 5.03616C5.61983 5.04888 5.58709 5.06875 5.55933 5.09457C5.53443 5.11571 5.51723 5.1445 5.51043 5.17645C5.50363 5.2084 5.50761 5.2417 5.52174 5.27115C5.53588 5.3006 5.55937 5.32453 5.58855 5.33921C5.61773 5.35388 5.65096 5.35847 5.68302 5.35226C5.85364 5.32206 6.01147 5.24195 6.13656 5.12206V5.11175ZM8.47296 6.34867C8.43372 6.49031 8.43372 6.63995 8.47296 6.78159C8.50732 6.89154 8.60009 6.91215 8.68598 6.83313C8.72033 6.7983 8.74622 6.75604 8.76166 6.70963C8.7771 6.66321 8.78168 6.61387 8.77504 6.5654C8.7684 6.51694 8.75072 6.47064 8.72337 6.43009C8.69601 6.38953 8.65971 6.3558 8.61726 6.33149C8.56781 6.33094 8.51875 6.34029 8.47296 6.35898V6.34867ZM6.53169 7.88451L6.16405 8.41019C6.16405 8.47891 6.1881 8.53389 6.25682 8.5545C6.45371 8.35772 6.61013 8.12427 6.71722 7.86733C6.67256 7.85702 6.72066 7.85015 6.53169 7.89481V7.88451ZM8.0744 4.96057C7.7686 4.70975 7.73081 4.5895 7.82358 4.11878H7.61742L7.58307 4.51047L7.92665 4.96057C7.95414 4.99837 8.01599 4.99493 8.0744 4.97088V4.96057ZM7.77547 12.681C7.95927 12.495 8.10412 12.2743 8.20152 12.0316C8.0879 12.0113 7.97156 12.0113 7.85794 12.0316L7.77547 12.681ZM9.89885 5.60308C10.0896 5.67972 10.3025 5.67972 10.4933 5.60308C10.5046 5.59598 10.514 5.5861 10.5205 5.57438C10.527 5.56266 10.5304 5.54948 10.5304 5.53608C10.5304 5.52268 10.527 5.50951 10.5205 5.49779C10.514 5.48607 10.5046 5.47619 10.4933 5.46908C10.4461 5.43676 10.3927 5.41451 10.3366 5.40374C10.2804 5.39297 10.2226 5.3939 10.1668 5.40648C10.111 5.41905 10.0584 5.44301 10.0123 5.47683C9.96623 5.51066 9.92759 5.55364 9.89885 5.60308ZM8.49357 3.57592C8.61367 3.6024 8.73883 3.59406 8.85434 3.55186C8.903 3.53386 8.94661 3.5044 8.98147 3.46597C8.99436 3.45422 9.00406 3.43939 9.00965 3.42288C9.01525 3.40636 9.01657 3.38869 9.01348 3.37153C9.01039 3.35436 9.003 3.33826 8.99199 3.32473C8.98098 3.3112 8.96672 3.30069 8.95054 3.29417C8.86117 3.26162 8.76261 3.26532 8.67593 3.30449C8.58925 3.34365 8.52134 3.41518 8.4867 3.50376C8.47983 3.52438 8.49014 3.54499 8.49357 3.57592ZM6.29805 4.65478C6.30588 4.58678 6.29786 4.51789 6.27461 4.45351C6.25136 4.38913 6.21352 4.33101 6.16405 4.28371C6.14704 4.27027 6.1286 4.25875 6.10907 4.24935C6.09205 4.24157 6.07341 4.238 6.05472 4.23893C6.03603 4.23986 6.01784 4.24527 6.00168 4.2547C5.98551 4.26413 5.97185 4.2773 5.96184 4.29311C5.95183 4.30892 5.94576 4.32691 5.94415 4.34555C5.93616 4.41112 5.94598 4.47763 5.97258 4.53809C5.99919 4.59856 6.04159 4.65073 6.09533 4.68914L6.29805 4.65478ZM8.23245 4.06037C8.14052 4.16745 8.08516 4.30105 8.0744 4.44176C8.07158 4.47583 8.07627 4.5101 8.08815 4.54216C8.10002 4.57422 8.11878 4.60328 8.14311 4.62729C8.1502 4.63593 8.15912 4.64288 8.16922 4.64765C8.17932 4.65243 8.19035 4.6549 8.20152 4.6549C8.21269 4.6549 8.22373 4.65243 8.23383 4.64765C8.24393 4.64288 8.25284 4.63593 8.25993 4.62729C8.32316 4.54542 8.35601 4.44415 8.35287 4.34076C8.34974 4.23736 8.31082 4.13826 8.24275 4.06037H8.23245ZM9.74767 5.90544C9.74767 5.99477 9.72705 6.05318 9.71674 6.11159C9.70834 6.16869 9.71768 6.22699 9.74349 6.2786C9.7693 6.33022 9.81033 6.37267 9.86105 6.40021C9.87178 6.40821 9.88411 6.41379 9.8972 6.41658C9.91029 6.41937 9.92382 6.41929 9.93688 6.41635C9.94994 6.41341 9.9622 6.40769 9.97284 6.39956C9.98347 6.39144 9.99222 6.38111 9.99849 6.36928C10.0219 6.3312 10.0327 6.28673 10.0294 6.24216C10.0167 6.16752 9.98507 6.09739 9.93755 6.03844C9.89003 5.9795 9.82821 5.93371 9.75798 5.90544H9.74767ZM9.36285 5.43816C9.36285 5.20452 9.27695 5.09457 9.09485 5.05334C9.00552 5.05334 8.94367 5.09457 8.96429 5.18391C8.97012 5.23545 8.99455 5.2831 9.03301 5.31791C9.12912 5.38884 9.24363 5.43059 9.36285 5.43816ZM6.68287 4.9056C6.74471 4.9915 6.81343 5.0396 6.90276 5.01555C6.98183 4.9909 7.05789 4.95748 7.12953 4.91591C7.14352 4.90914 7.15603 4.89968 7.16637 4.88808C7.1767 4.87647 7.18464 4.86294 7.18975 4.84827C7.19485 4.83359 7.19702 4.81805 7.19612 4.80254C7.19522 4.78703 7.19127 4.77184 7.1845 4.75786C7.17774 4.74387 7.16828 4.73135 7.15667 4.72102C7.14507 4.71069 7.13154 4.70274 7.11686 4.69764C7.10219 4.69253 7.08665 4.69037 7.07114 4.69127C7.05562 4.69217 7.04044 4.69612 7.02645 4.70288C6.8959 4.73862 6.77728 4.80861 6.68287 4.9056ZM7.61742 6.53421C7.70858 6.54435 7.80072 6.52765 7.88252 6.48614C7.96431 6.44463 8.0322 6.38013 8.07783 6.30057V6.27995C8.08236 6.26958 8.08426 6.25825 8.08335 6.24697C8.08245 6.23569 8.07878 6.22481 8.07266 6.21529C8.06654 6.20578 8.05817 6.19792 8.04828 6.19241C8.03839 6.18691 8.0273 6.18393 8.01599 6.18375C7.95022 6.18489 7.88548 6.20022 7.82618 6.22868C7.76688 6.25714 7.71443 6.29807 7.6724 6.34867C7.64566 6.37049 7.62611 6.39987 7.6163 6.43296C7.6065 6.46606 7.60689 6.50134 7.61742 6.53421ZM6.45953 5.23201C6.4183 5.49313 6.40456 5.50688 6.45953 5.60652C6.472 5.63414 6.49325 5.65686 6.51997 5.67115C6.54669 5.68544 6.57738 5.6905 6.60728 5.68554C6.66225 5.68554 6.72066 5.64431 6.71722 5.58934C6.71517 5.507 6.6989 5.42563 6.66912 5.34883C6.65312 5.3081 6.62347 5.27419 6.58525 5.25289C6.54702 5.23158 6.50259 5.2242 6.45953 5.23201ZM8.6207 3.97791C8.60837 4.05419 8.6257 4.1323 8.66915 4.1962C8.7126 4.26009 8.77887 4.30493 8.85434 4.3215C8.87138 4.32635 8.88934 4.327 8.90669 4.32341C8.92404 4.31982 8.94026 4.3121 8.95398 4.30089C8.9624 4.28563 8.96682 4.26849 8.96682 4.25107C8.96682 4.23364 8.9624 4.2165 8.95398 4.20125C8.92882 4.1338 8.88312 4.07596 8.82332 4.03588C8.76352 3.99581 8.69265 3.97553 8.6207 3.97791ZM5.872 5.64775L6.09877 5.99134L6.19841 5.87452L6.08159 5.54124L5.872 5.64775ZM7.09173 5.99134C7.26442 6.00212 7.43675 5.96527 7.58994 5.88482C7.46281 5.71303 7.28414 5.76113 7.10548 6.00164L7.09173 5.99134ZM8.01599 3.13612C8.0465 3.18559 8.08221 3.23166 8.1225 3.27356C8.13222 3.27792 8.14276 3.28017 8.15342 3.28017C8.16408 3.28017 8.17462 3.27792 8.18434 3.27356C8.21838 3.25043 8.24276 3.21564 8.25289 3.17576C8.26302 3.13587 8.25819 3.09366 8.23932 3.0571C8.19465 2.94371 7.95414 3.01243 8.01599 3.13612ZM7.69645 3.77863C7.87511 3.80956 7.87511 3.80956 8.01255 3.71335C8.00902 3.69859 8.00248 3.68473 7.99334 3.67262C7.98419 3.66052 7.97264 3.65044 7.9594 3.64302C7.94617 3.63559 7.93155 3.63099 7.91645 3.62949C7.90135 3.628 7.88611 3.62964 7.87168 3.63433C7.79265 3.6515 7.71706 3.68586 7.70332 3.7855L7.69645 3.77863ZM8.21183 7.02554C8.18434 6.9362 8.1706 6.86749 8.09845 6.81938L7.93009 7.0221C8.01599 7.07707 8.10875 7.04615 8.2187 7.03241L8.21183 7.02554ZM6.57292 4.33868L6.61415 4.52422C6.67943 4.52422 6.7344 4.49673 6.75158 4.41771L6.57292 4.33868Z" fill="#221812"/>
<path d="M9.70649 7.08723C9.76146 7.05287 9.66526 7.08723 10.1428 6.93262C10.1478 6.95526 10.1478 6.97869 10.1428 7.00133C9.74215 8.20075 9.15799 9.33083 8.41116 10.3513C8.24881 10.5982 8.06236 10.8284 7.85455 11.0385C7.81757 11.0743 7.7773 11.1065 7.73429 11.1347C7.65637 11.0758 7.59679 10.996 7.5625 10.9045C7.58956 10.8689 7.61944 10.8356 7.65183 10.8049C8.72726 9.85655 9.26669 8.43753 9.70649 7.08723Z" fill="#DA0100"/>
<path d="M7.07851 10.2003C6.99831 10.123 6.94019 10.0258 6.91016 9.91852C7.03728 9.76734 7.16785 9.62304 7.2881 9.46842C7.4599 9.23822 7.80005 8.7194 7.95123 8.45827C8.15243 8.1068 8.32368 7.73901 8.46317 7.35879C8.53955 7.31662 8.62775 7.30092 8.71399 7.31413C8.71259 7.35698 8.70683 7.39957 8.69681 7.44126C8.36765 8.31052 7.92021 9.13025 7.36713 9.87729C7.29841 9.96662 7.22626 10.056 7.1541 10.1419C7.13003 10.1627 7.10479 10.1822 7.07851 10.2003Z" fill="#DA0100"/>
<path d="M8.60246 12.0693H9.01133C9.0081 12.1069 9.00001 12.1438 8.98728 12.1793C8.8345 12.4673 8.64636 12.735 8.42724 12.9764C8.39129 13.0136 8.3463 13.0408 8.29667 13.0554C8.1546 13.077 8.01068 13.0839 7.86719 13.076C7.98744 12.8768 8.14206 12.7325 8.24857 12.5744L8.60246 12.0693Z" fill="#DA0100"/>
<path d="M5.68945 7.07031L6.2873 7.30395C6.30964 7.43816 6.29911 7.57579 6.25663 7.70504C6.21414 7.83429 6.14096 7.95132 6.04335 8.0461C5.89688 7.77121 5.78163 7.48079 5.69976 7.18026C5.69318 7.14397 5.68973 7.10719 5.68945 7.07031Z" fill="#DA0100"/>
<path d="M8.83398 11.1202C8.85793 11.0786 8.88432 11.0384 8.91301 10.9999C9.23255 10.6151 9.50742 10.1925 9.80977 9.79395H9.83383C9.83383 9.81112 9.83383 9.83518 9.83383 9.85236C9.73238 10.1456 9.60113 10.4277 9.44213 10.6941C9.36655 10.8041 9.27378 10.9072 9.19132 11.0171C9.15346 11.0737 9.09685 11.115 9.03147 11.1339C8.96608 11.1527 8.89614 11.1479 8.83398 11.1202Z" fill="#DA0100"/>
<path d="M5.84448 6.76768C5.78206 6.75631 5.72303 6.73093 5.67184 6.69343C5.62066 6.65594 5.57865 6.60731 5.549 6.55122C5.47652 6.41771 5.44317 6.26647 5.45279 6.11486C5.4503 6.06936 5.4627 6.02429 5.48812 5.98647C5.51354 5.94865 5.55059 5.92015 5.59366 5.90527C5.66582 5.90527 5.74828 5.95338 5.78607 6.06676C5.87163 6.29013 5.89189 6.53323 5.84448 6.76768Z" fill="#DA0100"/>
<path d="M7.32916 7.58203C7.27856 7.76593 7.20222 7.94176 7.10239 8.10428C6.93275 8.42713 6.74342 8.73923 6.53547 9.03884C6.51504 9.05633 6.49181 9.07027 6.46676 9.08007L6.38086 8.92546C6.45221 8.80246 6.53627 8.6873 6.63168 8.58187C6.72101 8.46849 6.81378 8.35854 6.89624 8.23828C6.9787 8.11803 7.03711 8.00464 7.1127 7.8947C7.18829 7.78475 7.21234 7.66106 7.32916 7.58203Z" fill="#DA0100"/>
<path d="M6.22847 6.80207C6.19617 6.68646 6.19472 6.56441 6.22426 6.44807C6.25379 6.33172 6.31329 6.22514 6.39683 6.13895C6.44458 6.09152 6.50375 6.05721 6.56862 6.03931C6.58814 6.03128 6.60942 6.02854 6.63033 6.03134C6.65124 6.03415 6.67105 6.0424 6.68776 6.05529C6.70447 6.06817 6.7175 6.08522 6.72554 6.10473C6.73357 6.12424 6.73633 6.14552 6.73354 6.16643C6.73354 6.41038 6.54113 6.54094 6.22847 6.80207Z" fill="#DA0100"/>
<path d="M8.90617 5.83984C9.01268 5.83984 9.15012 5.83984 9.28412 5.86046C9.29918 5.86319 9.31341 5.86936 9.3257 5.87849C9.33799 5.88761 9.34801 5.89945 9.35499 5.91307C9.36197 5.9267 9.36572 5.94174 9.36594 5.95705C9.36616 5.97236 9.36285 5.98751 9.35627 6.00133C9.29099 6.21435 9.01268 6.25558 8.77561 6.03912C8.76252 6.03057 8.75214 6.01846 8.74567 6.00422C8.7392 5.98999 8.73691 5.9742 8.73907 5.95872C8.74123 5.94323 8.74775 5.92868 8.75787 5.91675C8.76799 5.90483 8.78129 5.89603 8.79622 5.89138L8.90617 5.83984Z" fill="#DA0100"/>
<path d="M8.27046 5.70925C8.13302 5.79171 8.10553 5.79858 8.00933 5.70925C7.94478 5.64533 7.88824 5.57379 7.84097 5.49622C7.83253 5.47974 7.82812 5.46148 7.82812 5.44297C7.82812 5.42445 7.83253 5.40619 7.84097 5.38971C7.9681 5.1973 8.35979 5.27289 8.27046 5.70925Z" fill="#DA0100"/>
<path d="M9.69589 5.19753C9.63895 5.07715 9.60182 4.94837 9.58594 4.81615C9.58716 4.78009 9.59684 4.74483 9.6142 4.7132C9.63156 4.68157 9.65611 4.65447 9.68586 4.63407C9.71562 4.61367 9.74976 4.60056 9.78552 4.59578C9.82128 4.591 9.85766 4.59469 9.89173 4.60656C9.90928 4.61384 9.92492 4.62506 9.93744 4.63937C9.94995 4.65367 9.959 4.67066 9.96388 4.68902C9.97519 4.7291 9.97735 4.77121 9.97022 4.81225C9.96308 4.85328 9.94683 4.89218 9.92265 4.9261C9.69932 5.22502 9.73368 5.17004 9.69589 5.19753Z" fill="#DA0100"/>
<path d="M6.13718 5.12218C6.01341 5.24583 5.85545 5.3296 5.68365 5.36269C5.65158 5.3689 5.61836 5.36431 5.58917 5.34963C5.55999 5.33496 5.5365 5.31102 5.52236 5.28158C5.50823 5.25213 5.50425 5.21883 5.51105 5.18688C5.51785 5.15493 5.53505 5.12614 5.55996 5.105C5.58771 5.07918 5.62045 5.0593 5.65616 5.04659C5.73599 5.01631 5.82234 5.00735 5.90669 5.0206C5.99104 5.03386 6.07048 5.06887 6.13718 5.12218Z" fill="#DA0100"/>
<path d="M8.47422 6.35842C8.51637 6.34495 8.56059 6.33914 8.60478 6.34124C8.64723 6.36555 8.68353 6.39928 8.71089 6.43984C8.73824 6.48039 8.75592 6.52669 8.76256 6.57515C8.7692 6.62362 8.76462 6.67296 8.74918 6.71938C8.73374 6.76579 8.70785 6.80805 8.6735 6.84288C8.58761 6.9219 8.49484 6.90129 8.46048 6.79134C8.42572 6.64846 8.43047 6.49881 8.47422 6.35842Z" fill="#DA0100"/>
<path d="M9.89844 5.60324C9.92639 5.55072 9.96528 5.50481 10.0125 5.46861C10.0597 5.43242 10.1142 5.40677 10.1721 5.39342C10.2301 5.38007 10.2903 5.37931 10.3486 5.39121C10.4069 5.4031 10.4619 5.42737 10.51 5.46237C10.5214 5.46947 10.5308 5.47935 10.5372 5.49107C10.5437 5.50279 10.5471 5.51597 10.5471 5.52937C10.5471 5.54277 10.5437 5.55594 10.5372 5.56767C10.5308 5.57939 10.5214 5.58926 10.51 5.59637C10.315 5.67914 10.0952 5.68161 9.89844 5.60324Z" fill="#DA0100"/>
<path d="M8.49414 3.57522C8.49414 3.5443 8.49414 3.52368 8.49414 3.50307C8.52878 3.41448 8.59669 3.34296 8.68337 3.30379C8.77005 3.26463 8.86861 3.26093 8.95798 3.29348C8.97416 3.29999 8.98842 3.31051 8.99943 3.32404C9.01044 3.33756 9.01783 3.35366 9.02092 3.37083C9.02401 3.38799 9.02269 3.40566 9.01709 3.42218C9.0115 3.4387 9.0018 3.45352 8.98891 3.46527C8.95405 3.5037 8.91044 3.53316 8.86178 3.55117C8.74417 3.5947 8.61642 3.60306 8.49414 3.57522Z" fill="#DA0100"/>
<path d="M6.298 4.65427L6.09529 4.68863C6.04154 4.65023 5.99914 4.59805 5.97254 4.53759C5.94594 4.47713 5.93612 4.41062 5.94411 4.34505C5.94572 4.3264 5.95178 4.30842 5.96179 4.29261C5.97181 4.2768 5.98547 4.26362 6.00163 4.25419C6.0178 4.24477 6.03599 4.23936 6.05468 4.23843C6.07337 4.23749 6.09201 4.24107 6.10903 4.24884C6.12856 4.25824 6.14699 4.26977 6.164 4.2832C6.21348 4.33051 6.25132 4.38863 6.27457 4.45301C6.29782 4.51739 6.30584 4.58628 6.298 4.65427Z" fill="#DA0100"/>
<path d="M8.24283 4.06055C8.3124 4.13722 8.35318 4.23567 8.3582 4.33908C8.36321 4.44249 8.33215 4.54443 8.27032 4.62747C8.26323 4.6361 8.25431 4.64305 8.24421 4.64783C8.23411 4.6526 8.22308 4.65508 8.21191 4.65508C8.20074 4.65508 8.1897 4.6526 8.1796 4.64783C8.1695 4.64305 8.16059 4.6361 8.1535 4.62747C8.12917 4.60345 8.1104 4.57439 8.09853 4.54233C8.08665 4.51027 8.08196 4.476 8.08478 4.44193C8.09554 4.30122 8.15091 4.16762 8.24283 4.06055Z" fill="#DA0100"/>
<path d="M9.75853 5.90527C9.83158 5.93268 9.8961 5.97888 9.94557 6.03921C9.99504 6.09954 10.0277 6.17186 10.0403 6.24886C10.0436 6.29343 10.0327 6.33791 10.0094 6.37599C10.0031 6.38781 9.99434 6.39814 9.9837 6.40627C9.97307 6.41439 9.9608 6.42012 9.94775 6.42306C9.93469 6.42599 9.92115 6.42607 9.90806 6.42328C9.89498 6.4205 9.88264 6.41491 9.87192 6.40691C9.8212 6.37938 9.78016 6.33693 9.75435 6.28531C9.72855 6.23369 9.71921 6.17539 9.72761 6.1183C9.73448 6.05302 9.73448 5.99461 9.75853 5.90527Z" fill="#DA0100"/>
<path d="M9.36355 5.4377C9.23959 5.43278 9.11993 5.3909 9.01996 5.31744C8.98151 5.28263 8.95707 5.23498 8.95125 5.18344C8.93063 5.09411 8.99248 5.03913 9.08181 5.05288C9.27765 5.0838 9.36355 5.19719 9.36355 5.4377Z" fill="#DA0100"/>
<path d="M6.68359 4.90496C6.77801 4.80797 6.89663 4.73798 7.02718 4.70224C7.05543 4.68857 7.08795 4.68669 7.11759 4.697C7.14723 4.70731 7.17156 4.72897 7.18523 4.75722C7.1989 4.78547 7.20079 4.81799 7.19048 4.84763C7.18017 4.87727 7.15851 4.9016 7.13026 4.91527C7.05862 4.95684 6.98256 4.99026 6.90349 5.01491C6.81416 5.03896 6.74544 4.99086 6.68359 4.90496Z" fill="#DA0100"/>
<path d="M7.61831 6.53405C7.60739 6.50152 7.60646 6.46645 7.61564 6.43338C7.62483 6.40031 7.64371 6.37076 7.66985 6.34852C7.71188 6.29792 7.76433 6.25699 7.82363 6.22853C7.88293 6.20006 7.94767 6.18474 8.01344 6.18359C8.02475 6.18378 8.03584 6.18676 8.04573 6.19226C8.05562 6.19776 8.06399 6.20562 8.07011 6.21514C8.07623 6.22466 8.0799 6.23554 8.08081 6.24682C8.08171 6.2581 8.07981 6.26943 8.07528 6.2798V6.30041C8.02989 6.3794 7.96256 6.44352 7.88144 6.48499C7.80033 6.52646 7.70892 6.54351 7.61831 6.53405Z" fill="#DA0100"/>
<path d="M6.45926 5.23225C6.49962 5.22851 6.54011 5.23785 6.57475 5.25889C6.6094 5.27992 6.63637 5.31154 6.65167 5.34907C6.68144 5.42587 6.69772 5.50724 6.69977 5.58958C6.69977 5.64456 6.6448 5.67548 6.58982 5.68579C6.55993 5.69074 6.52924 5.68568 6.50252 5.67139C6.4758 5.6571 6.45455 5.63438 6.44208 5.60676C6.40428 5.51056 6.41803 5.50025 6.45926 5.23225Z" fill="#DA0100"/>
<path d="M8.62058 3.97772C8.69222 3.97182 8.7639 3.98854 8.82554 4.02553C8.88717 4.06251 8.93566 4.11789 8.96417 4.18387C8.97259 4.19913 8.97701 4.21627 8.97701 4.23369C8.97701 4.25112 8.97259 4.26826 8.96417 4.28351C8.95045 4.29472 8.93422 4.30245 8.91688 4.30604C8.89953 4.30963 8.88157 4.30897 8.86453 4.30413C8.79049 4.28992 8.72444 4.24858 8.67931 4.18819C8.63418 4.12781 8.61323 4.05275 8.62058 3.97772Z" fill="#DA0100"/>
<path d="M8.24616 3.06719C8.26503 3.10376 8.26986 3.14597 8.25973 3.18585C8.2496 3.22573 8.22521 3.26052 8.19118 3.28365C8.18146 3.28801 8.17092 3.29026 8.16026 3.29026C8.1496 3.29026 8.13906 3.28801 8.12934 3.28365C8.08604 3.23888 8.048 3.18931 8.01595 3.13591C7.95411 3.01222 8.19462 2.9435 8.24616 3.06719Z" fill="#DA0100"/>
<path d="M7.70312 3.78542C7.70312 3.68578 7.79246 3.65142 7.87835 3.64111C7.89279 3.63643 7.90803 3.63478 7.92313 3.63628C7.93822 3.63777 7.95285 3.64238 7.96608 3.6498C7.97931 3.65722 7.99086 3.6673 8.00001 3.67941C8.00916 3.69151 8.0157 3.70538 8.01923 3.72013C7.88179 3.82321 7.88179 3.82321 7.70312 3.78542Z" fill="#DA0100"/>
<path d="M9.2314 3.69647L9.24858 3.66211V3.68272C9.2211 3.69303 9.22453 3.6896 9.2314 3.69647Z" fill="#E3E2E1"/>
</svg>
