<svg width="16" height="16" viewBox="0 0 16 16" fill="none" xmlns="http://www.w3.org/2000/svg">
<path d="M10.8868 3.78613C11.1899 3.7257 11.502 3.7257 11.8052 3.78613C11.8475 3.79812 11.8862 3.8204 11.9178 3.85099C11.9495 3.88157 11.973 3.9195 11.9864 3.9614C11.9998 4.0033 12.0027 4.04787 11.9947 4.09114C11.9867 4.1344 11.9681 4.17501 11.9406 4.20935C11.8136 4.38286 11.7713 4.41672 10.3959 5.50015C10.8191 5.73715 11.3058 5.81333 11.7036 6.50316C11.8517 6.76132 11.5682 8.88586 11.5682 10.8453C11.5682 11.0189 11.547 11.1924 11.5428 11.3659C11.5358 11.5132 11.4757 11.6531 11.3735 11.7595C11.1111 12.0773 10.7815 12.3331 10.4086 12.5086C9.7841 12.7938 9.11586 12.9712 8.43216 13.0333C7.17615 13.1925 5.90028 13.0474 4.71211 12.6101C4.26206 12.4436 3.85138 12.1857 3.50595 11.8526C3.24356 11.6029 3.24779 11.5987 3.2351 11.2432C3.1039 7.05334 3.15469 7.43423 3.09121 7.16761C3.06176 7.05618 3.05827 6.93947 3.08102 6.82648C3.10376 6.71349 3.15213 6.60722 3.2224 6.51586C3.51442 6.09265 3.79374 6.04186 4.45818 5.66943C4.33122 5.55517 2.86267 4.54792 2.70185 4.33631C2.59181 4.19242 2.6426 3.95542 3.08697 3.9131C3.24608 3.90893 3.40459 3.89195 3.56097 3.86231C3.60329 3.78613 3.56097 3.73112 3.56097 3.67187C3.4721 3.34176 3.42554 3.24865 3.46363 3.08783C3.46672 3.06231 3.47493 3.03769 3.48779 3.01543C3.50065 2.99317 3.51787 2.97375 3.53844 2.95833C3.559 2.94291 3.58247 2.93181 3.60743 2.9257C3.6324 2.91959 3.65834 2.91859 3.6837 2.92278C4.06036 2.9524 4.38624 3.29521 5.54584 4.02737C5.567 3.97658 5.58393 3.93849 5.59663 3.9004C5.60262 3.70289 5.66634 3.51146 5.77991 3.34976C5.89348 3.18806 6.05193 3.06316 6.23568 2.99049C6.69698 2.80428 6.95091 3.13862 7.18791 3.39255C7.23446 3.44756 7.27255 3.51104 7.31911 3.57876C7.39529 3.54067 7.41221 3.46449 7.44184 3.40524C7.86505 2.65192 8.71148 2.49956 8.96964 3.20633C9.03261 3.40184 9.06404 3.60613 9.06275 3.81153C9.15162 3.84538 9.18548 3.77344 9.22357 3.73535C9.61581 3.33822 10.05 2.98488 10.5186 2.68155C10.7344 2.56728 10.908 2.68155 10.908 2.91008C10.9207 3.24865 10.8529 3.62531 10.8868 3.78613ZM8.80459 8.44148C8.8723 8.70811 9.05851 8.86469 9.47326 9.40641C9.68325 9.63375 9.82927 9.91265 9.89648 10.2147C9.9065 10.2498 9.90748 10.2868 9.89934 10.3223C9.8912 10.3578 9.8742 10.3907 9.84992 10.4179C9.83657 10.4362 9.81907 10.4512 9.79884 10.4615C9.77862 10.4718 9.75624 10.4772 9.73354 10.4772C9.71084 10.4772 9.68846 10.4718 9.66823 10.4615C9.64801 10.4512 9.6305 10.4362 9.61716 10.4179C9.54521 10.2909 9.61716 10.2105 9.38862 9.90157L8.59298 8.88585C8.57182 8.86046 8.55489 8.81814 8.50834 8.83507C8.43891 10.1181 8.44598 11.4041 8.5295 12.6863C8.55902 12.6899 8.58885 12.6899 8.61837 12.6863C9.44893 12.6032 10.2401 12.2912 10.9037 11.7849C11.2592 11.4632 11.1661 11.1881 11.1915 10.6041C11.3312 7.34536 11.4031 7.54427 11.2888 7.50618C10.5454 8.00666 9.69416 8.32425 8.80459 8.43302V8.44148ZM3.49749 7.77704C3.49749 7.92939 3.4721 7.49348 3.57367 10.6507C3.57367 11.2008 3.57367 11.404 3.73449 11.569C4.07122 11.8936 4.46993 12.1469 4.90679 12.3139C5.40421 12.4985 5.92343 12.618 6.45152 12.6694C6.50231 12.3012 6.35841 10.3417 6.38381 8.61077C6.38381 8.61077 6.38381 8.57691 6.34995 8.54728C5.9479 8.47957 5.67281 8.47111 5.27922 8.40339C4.65222 8.30444 4.04848 8.0922 3.49749 7.77704ZM8.12321 8.53036C7.973 8.50928 7.82058 8.50928 7.67037 8.53036C6.91705 8.56844 6.89166 8.53036 6.74354 8.58537C6.74354 8.65732 6.74354 8.7208 6.74354 8.78005C6.83241 12.8683 6.81548 12.6144 6.88743 12.7075C7.30993 12.7632 7.73867 12.7504 8.15707 12.6694C8.15707 11.823 8.12321 10.9765 8.11475 9.85501C8.11475 9.50798 8.14861 9.16094 8.1613 8.81391C8.174 8.72927 8.21632 8.62346 8.12321 8.53036ZM11.2 7.03218C10.9593 7.03958 10.7192 7.05936 10.4805 7.09143C9.33783 7.193 9.31667 7.17184 9.18971 7.25648C8.91529 7.41746 8.58921 7.46599 8.2798 7.39191C8.35677 7.62798 8.46192 7.85392 8.59298 8.06482C8.62535 8.06794 8.65795 8.06794 8.69032 8.06482C9.50077 7.9858 10.281 7.71605 10.9672 7.27764C11.0681 7.22162 11.1494 7.13593 11.2 7.03218ZM9.54098 3.98504C9.61716 4.0189 9.67641 4.04006 9.73142 4.06969C9.86385 4.13448 9.96939 4.24363 10.0297 4.37816C10.09 4.51269 10.1013 4.6641 10.0615 4.80608C10.0103 5.00673 9.91966 5.19519 9.7949 5.36049C9.82749 5.38964 9.86968 5.40575 9.9134 5.40575C9.95713 5.40575 9.99932 5.38964 10.0319 5.36049C11.5724 4.14586 11.5132 4.23474 11.4835 4.14163C11.4413 4.13724 11.3988 4.13724 11.3566 4.14163C11.1111 4.16703 10.7937 4.21781 10.709 4.21781C10.3916 4.21781 10.5525 3.68033 10.5398 3.34599C10.5398 3.29521 10.5609 3.24019 10.5059 3.19787C10.1444 3.40715 9.81861 3.6729 9.54098 3.98504ZM3.98419 7.57813C4.72642 7.96212 5.55248 8.15555 6.38804 8.141C6.47611 7.86808 6.50778 7.58011 6.48114 7.29457C6.34411 7.40011 6.18512 7.47354 6.01591 7.50943C5.84671 7.54532 5.67161 7.54276 5.50352 7.50195C5.38079 7.46386 5.33847 7.47655 4.08576 7.55273C4.05128 7.55851 4.01732 7.567 3.98419 7.57813ZM3.86569 3.38831C3.86569 3.5449 3.99688 3.81153 4.01381 3.99774C4.01381 4.34477 3.55674 4.17549 3.26049 4.25167C3.26049 4.35324 3.32397 4.37017 3.37053 4.40826C3.69578 4.69763 4.0571 4.94373 4.44549 5.14042C4.41082 5.03661 4.39892 4.92656 4.4106 4.81774C4.42229 4.70892 4.45728 4.6039 4.5132 4.50983C4.69095 4.22204 4.96181 4.20088 5.02106 4.1374C4.66636 3.84365 4.27861 3.59226 3.86569 3.38831ZM5.13533 7.09143L5.32154 6.60473C5.18188 6.45238 5.07184 6.52009 3.79374 6.53702C3.73472 6.53778 3.67704 6.55476 3.62702 6.58611C3.57701 6.61747 3.53659 6.66198 3.51019 6.71477C3.47903 6.7847 3.46293 6.8604 3.46293 6.93696C3.46293 7.01351 3.47903 7.08921 3.51019 7.15914C3.51019 7.18877 3.56097 7.20993 3.59483 7.22263C4.0663 7.21591 4.53694 7.18058 5.00413 7.11682C5.04662 7.11449 5.08898 7.11025 5.13109 7.10413L5.13533 7.09143ZM6.8578 5.92759C6.74304 5.76841 6.59054 5.64022 6.41399 5.55453C6.23745 5.46885 6.04239 5.42834 5.84632 5.43667C5.49082 5.43667 5.27922 5.60595 5.22843 5.93183C5.21283 5.9852 5.21762 6.04247 5.24186 6.09252C5.2661 6.14257 5.30807 6.18183 5.35963 6.20268C5.78284 6.39313 6.31609 6.14766 6.78163 5.98684C6.80872 5.96938 6.83421 5.94955 6.8578 5.92759ZM8.55066 5.25892C8.58446 5.26159 8.61843 5.26159 8.65223 5.25892C8.83222 5.22088 9.01818 5.22088 9.19817 5.25892C9.3336 5.29277 9.71026 5.04308 9.71026 4.64526C9.71253 4.60183 9.70415 4.55851 9.68583 4.51907C9.66752 4.47962 9.63984 4.44526 9.6052 4.41897C9.57056 4.39268 9.53002 4.37526 9.48711 4.36823C9.44419 4.3612 9.40021 4.36477 9.359 4.37863C9.18548 4.42519 9.01196 4.48867 8.85537 4.53945C8.7993 4.79535 8.70058 5.04 8.56335 5.26315L8.55066 5.25892ZM8.65646 3.98928C8.71055 3.79171 8.70465 3.58252 8.63953 3.38831C8.55066 3.10476 8.37714 3.04128 8.11475 3.1894C7.95311 3.2903 7.82326 3.4348 7.74015 3.60626C7.65704 3.77772 7.62405 3.96917 7.64498 4.15856L7.84389 4.01044C8.21632 3.74804 8.40677 3.8877 8.66916 3.98504L8.65646 3.98928ZM7.58996 5.50438C7.7778 5.43403 7.94956 5.32658 8.09498 5.18843C8.2404 5.05028 8.35651 4.88426 8.43639 4.70027C8.46188 4.6046 8.46188 4.50393 8.43639 4.40826C8.38137 4.05699 8.01318 4.21781 7.82696 4.52252C7.68719 4.83209 7.6068 5.16514 7.58996 5.50438ZM6.74354 8.16639C7.09865 8.18983 7.45492 8.18983 7.81003 8.16639C7.88703 8.15715 7.96337 8.14301 8.03857 8.12407C8.05305 8.00821 8.04199 7.89058 8.00617 7.77945C7.97034 7.66832 7.91062 7.56638 7.8312 7.48079C7.3318 7.904 7.08634 7.68816 6.80279 7.62045L6.74354 8.16639ZM6.94668 4.4802C6.90659 4.40209 6.83901 4.34158 6.75696 4.31032C6.67492 4.27907 6.58421 4.27928 6.50231 4.31092C6.07909 4.44211 6.37534 4.89495 6.70122 5.20813L6.94245 5.4282C6.98054 5.46629 7.01439 5.52131 7.07364 5.48745C7.20061 5.40704 7.13713 4.76376 6.94668 4.4802ZM5.9352 5.08117C5.9352 5.05154 5.9352 5.03038 5.9352 5.01768C5.87859 4.90312 5.79782 4.80217 5.69846 4.72181C5.5991 4.64144 5.4835 4.58356 5.35963 4.55215C4.99567 4.45904 4.67825 4.7426 4.77983 4.97536C4.84089 5.1615 4.96713 5.31931 5.13533 5.41974C5.23659 5.30926 5.36042 5.22186 5.49843 5.16344C5.63644 5.10503 5.7854 5.07697 5.9352 5.08117ZM7.74232 6.05033C7.85221 6.12052 7.98013 6.15728 8.11052 6.15613C8.9908 6.29579 9.66371 5.85565 9.32937 5.69906C9.16275 5.622 8.97559 5.60121 8.79612 5.63981C8.42163 5.695 8.06274 5.82761 7.74232 6.02916V6.05033ZM7.23023 6.21115C7.19612 6.22802 7.16355 6.24784 7.13289 6.2704C6.66313 6.76979 6.94668 7.60352 7.43761 7.36229C7.48118 7.34777 7.52097 7.32372 7.55407 7.29188C7.58718 7.26005 7.61277 7.22123 7.62899 7.17826C7.6452 7.13529 7.65163 7.08925 7.64781 7.04348C7.64399 6.99771 7.63001 6.95337 7.60689 6.91368C7.50955 6.70631 7.40375 6.49047 7.30218 6.30002C7.28039 6.26195 7.25637 6.22521 7.23023 6.18999V6.21115ZM7.11596 4.09508C7.05811 3.87148 6.94454 3.66618 6.78586 3.49835C6.58695 3.28251 6.42189 3.25712 6.16797 3.46872C6.07946 3.55443 6.01171 3.65923 5.9699 3.77512C5.92809 3.89101 5.91333 4.01493 5.92673 4.1374C5.92673 4.17972 5.92674 4.23051 6.01138 4.23474C6.14465 4.0785 6.33018 3.97603 6.5334 3.94645C6.73662 3.91686 6.94367 3.96216 7.11596 4.07392V4.09508ZM9.38862 6.5074C9.44364 6.69361 9.41825 6.60897 9.49442 6.85443C10.0996 6.79095 10.6964 6.73593 11.2931 6.66822C11.2254 6.45661 11.2254 6.45661 11.0561 6.44391C10.5355 6.41006 10.0192 6.44391 9.50289 6.46931C9.46434 6.47124 9.42607 6.47691 9.38862 6.48623V6.5074ZM8.94425 6.5074C8.16977 6.59204 8.09782 6.44815 7.92853 6.53279C7.93869 6.59752 7.95867 6.66031 7.98778 6.719C8.03634 6.80455 8.10202 6.87916 8.18072 6.93816C8.25942 6.99717 8.34945 7.03931 8.44517 7.06195C8.54089 7.08459 8.64026 7.08725 8.73705 7.06974C8.83385 7.05224 8.92599 7.01496 9.00773 6.96023C9.17278 6.79941 9.06275 6.69784 8.94425 6.482V6.5074ZM6.55309 6.5074C5.92673 6.64706 5.66434 6.63436 5.54161 6.98986C5.53359 7.01104 5.53067 7.03382 5.53311 7.05633C5.53555 7.07885 5.54327 7.10048 5.55564 7.11945C5.56801 7.13842 5.58469 7.1542 5.60432 7.16551C5.62394 7.17682 5.64596 7.18334 5.66857 7.18454C5.80857 7.19253 5.94849 7.1676 6.07711 7.11174C6.20573 7.05588 6.31947 6.97065 6.4092 6.86289C6.46681 6.82055 6.51101 6.76251 6.53653 6.69572C6.56204 6.62893 6.56779 6.55621 6.55309 6.48623V6.5074ZM9.72296 6.08418C9.82876 6.11381 9.67217 6.11804 10.4847 6.05879C10.5101 6.05879 10.4847 6.0207 10.4847 6.008C10.2735 5.87036 10.0165 5.82168 9.76951 5.87258L9.72296 6.08418ZM4.83061 5.92759C4.30583 6.1265 4.42856 6.07572 4.35238 6.13497C4.41163 6.17306 4.31006 6.16883 4.84331 6.15613L4.83061 5.92759Z" fill="black"/>
<path d="M8.12316 8.53103C8.20781 8.62413 8.17395 8.72994 8.16972 8.82728C8.16972 9.17431 8.12316 9.52135 8.12316 9.86838C8.12316 10.9433 8.16549 11.849 8.16549 12.6828C7.74708 12.7637 7.31835 12.7766 6.89584 12.7208C6.8239 12.6277 6.84083 12.8774 6.75195 8.79342C6.75195 8.73417 6.75195 8.67069 6.75195 8.59874C6.90431 8.53103 6.91701 8.59874 7.67879 8.54372C7.82564 8.51921 7.97516 8.51494 8.12316 8.53103Z" fill="#DA0100"/>
<path d="M9.54102 3.98575C9.81633 3.66305 10.1422 3.3872 10.5059 3.16895C10.561 3.21127 10.5356 3.26628 10.5398 3.31707C10.5398 3.65141 10.3917 4.19312 10.7091 4.18889C10.7683 4.18889 11.1746 4.12964 11.3566 4.11271C11.3988 4.10832 11.4414 4.10832 11.4836 4.11271C11.5132 4.21005 11.5597 4.11271 10.0319 5.33157C9.99936 5.36071 9.95717 5.37683 9.91344 5.37683C9.86972 5.37683 9.82753 5.36071 9.79494 5.33157C9.91885 5.16575 10.0094 4.97747 10.0616 4.77716C10.1013 4.63518 10.09 4.48377 10.0297 4.34924C9.96943 4.21471 9.86389 4.10556 9.73146 4.04077C9.67644 4.04077 9.61719 4.0196 9.54102 3.98575Z" fill="#DA0100"/>
<path d="M3.86637 3.38867C4.2793 3.59262 4.66704 3.84401 5.02174 4.13776C4.95826 4.20547 4.69163 4.2224 4.51388 4.51019C4.45796 4.60426 4.42297 4.70928 4.41128 4.8181C4.3996 4.92692 4.4115 5.03697 4.44617 5.14078C4.05778 4.94409 3.69646 4.69799 3.37121 4.40862C3.32465 4.37053 3.24848 4.3536 3.26117 4.25203C3.55742 4.17585 4.03565 4.34513 4.01449 3.9981C3.98487 3.81189 3.87906 3.55796 3.86637 3.38867Z" fill="#DA0100"/>
<path d="M5.13106 7.1039C4.64968 7.18418 4.16312 7.22944 3.6752 7.23933C3.64008 7.24375 3.60453 7.24375 3.5694 7.23933C3.53554 7.23933 3.49322 7.20547 3.48476 7.17584C3.4536 7.10591 3.4375 7.03021 3.4375 6.95366C3.4375 6.8771 3.4536 6.8014 3.48476 6.73147C3.51116 6.67868 3.55158 6.63416 3.6016 6.60281C3.65161 6.57146 3.70929 6.55448 3.76831 6.55372C5.03795 6.55372 5.15645 6.46908 5.29611 6.62143L5.13106 7.1039Z" fill="#DA0100"/>
<path d="M6.85713 5.92754C6.83353 5.9495 6.80804 5.96933 6.78095 5.98679C6.30272 6.15184 5.7737 6.41 5.35895 6.20263C5.3074 6.18178 5.26543 6.14252 5.24118 6.09247C5.21694 6.04242 5.21216 5.98515 5.22776 5.93177C5.27854 5.6059 5.49015 5.45777 5.84565 5.43661C6.04171 5.42829 6.23677 5.46879 6.41332 5.55448C6.58986 5.64017 6.74236 5.76836 6.85713 5.92754Z" fill="#DA0100"/>
<path d="M8.5625 5.26334C8.70374 5.04232 8.80675 4.7991 8.86721 4.54388C9.0238 4.49309 9.19732 4.42961 9.37084 4.38305C9.41205 4.36919 9.45604 4.36562 9.49895 4.37265C9.54186 4.37968 9.58241 4.3971 9.61704 4.42339C9.65168 4.44968 9.67936 4.48405 9.69768 4.52349C9.71599 4.56293 9.72437 4.60625 9.7221 4.64968C9.7221 5.0475 9.34545 5.2972 9.21002 5.26334C9.03002 5.22531 8.84407 5.22531 8.66407 5.26334C8.63027 5.26602 8.5963 5.26602 8.5625 5.26334Z" fill="#DA0100"/>
<path d="M8.66865 3.98568C8.42741 3.8968 8.24543 3.74021 7.84761 4.00684L7.6487 4.15496C7.62777 3.96557 7.66076 3.77412 7.74387 3.60266C7.82698 3.4312 7.95683 3.2867 8.11847 3.1858C8.38086 3.03768 8.54168 3.10116 8.64325 3.38471C8.71116 3.57808 8.72 3.78728 8.66865 3.98568Z" fill="#DA0100"/>
<path d="M7.58984 5.50395C7.64063 5.08074 7.73374 4.45862 8.1104 4.23431C8.48706 4.01001 8.50822 4.51363 8.43627 4.68292C8.35827 4.87004 8.24301 5.03933 8.09749 5.18048C7.95198 5.32163 7.77925 5.43169 7.58984 5.50395Z" fill="#DA0100"/>
<path d="M6.76172 8.18398L6.82097 7.62111C7.10452 7.68882 7.34999 7.91312 7.84938 7.48145C7.9288 7.56704 7.98852 7.66898 8.02435 7.78011C8.06017 7.89124 8.07123 8.00887 8.05675 8.12473C7.98155 8.14367 7.90522 8.15781 7.82822 8.16705C7.47348 8.19613 7.1172 8.20179 6.76172 8.18398Z" fill="#DA0100"/>
<path d="M7.07763 5.50413C7.01838 5.53798 6.98453 5.48297 6.94644 5.44488L6.70521 5.22481C6.37933 4.91163 6.07462 4.45879 6.50629 4.32759C6.58819 4.29596 6.67891 4.29574 6.76095 4.327C6.843 4.35826 6.91058 4.41877 6.95067 4.49688C7.13265 4.7635 7.20036 5.40679 7.07763 5.50413Z" fill="#DA0100"/>
<path d="M5.93614 5.08058C5.78672 5.07752 5.63839 5.10654 5.50114 5.16567C5.36388 5.22481 5.24091 5.31269 5.1405 5.42338C4.97231 5.32295 4.84606 5.16514 4.785 4.97901C4.68343 4.74201 4.99661 4.45845 5.3648 4.55579C5.48868 4.58721 5.60427 4.64509 5.70363 4.72545C5.80299 4.80582 5.88376 4.90676 5.94037 5.02133C5.94037 5.02133 5.94037 5.02979 5.93614 5.08058Z" fill="#DA0100"/>
<path d="M7.74219 6.02905C8.05984 5.81555 8.4189 5.67135 8.79599 5.60584C8.97546 5.56724 9.16262 5.58803 9.32924 5.66509C9.66358 5.82168 8.98644 6.26182 8.11038 6.12216C7.98126 6.12712 7.85343 6.09479 7.74219 6.02905Z" fill="#DA0100"/>
<path d="M7.23076 6.18945C7.25626 6.21782 7.28027 6.24748 7.30271 6.27833C7.40428 6.48147 7.51008 6.70154 7.60742 6.89199C7.63054 6.93167 7.64452 6.97601 7.64834 7.02178C7.65216 7.06755 7.64573 7.1136 7.62951 7.15657C7.6133 7.19954 7.58771 7.23835 7.5546 7.27019C7.52149 7.30202 7.48171 7.32607 7.43814 7.34059C6.95144 7.58183 6.66365 6.74809 7.13342 6.2487C7.16408 6.22615 7.19665 6.20632 7.23076 6.18945Z" fill="#DA0100"/>
<path d="M7.11653 4.07426C6.94666 3.96002 6.74114 3.91123 6.53804 3.93691C6.33495 3.96259 6.14804 4.061 6.01195 4.21392C5.93577 4.21392 5.93153 4.1589 5.9273 4.11658C5.91292 3.99405 5.92722 3.86985 5.96909 3.7538C6.01096 3.63775 6.07924 3.53302 6.16853 3.4479C6.42246 3.23629 6.59175 3.26169 6.78643 3.47752C6.94511 3.64535 7.05868 3.85065 7.11653 4.07426Z" fill="#DA0100"/>
<path d="M9.38867 6.48604C9.42538 6.46952 9.46366 6.45676 9.50294 6.44795C10.0193 6.44795 10.5356 6.3887 11.0561 6.42256C11.2254 6.42256 11.2254 6.42256 11.2931 6.64686C10.6964 6.71458 10.0997 6.76959 9.49448 6.83308C9.4183 6.58761 9.44369 6.67225 9.38867 6.48604Z" fill="#DA0100"/>
<path d="M8.94345 6.48188C9.06618 6.69349 9.17198 6.79929 9.00693 6.93472C8.92519 6.98945 8.83305 7.02673 8.73625 7.04423C8.63946 7.06173 8.54009 7.05908 8.44437 7.03644C8.34865 7.0138 8.25862 6.97166 8.17992 6.91265C8.10122 6.85364 8.03554 6.77903 7.98698 6.69349C7.95787 6.63479 7.93789 6.572 7.92773 6.50727C8.09702 6.42263 8.1732 6.56652 8.94345 6.48188Z" fill="#DA0100"/>
<path d="M6.55269 6.48633C6.56321 6.55306 6.55537 6.6214 6.53002 6.68402C6.50468 6.74665 6.46277 6.80119 6.4088 6.84183C6.29456 6.95868 6.15968 7.05338 6.01098 7.12115C5.76975 7.21426 5.46503 7.18463 5.54121 6.96879C5.67664 6.60906 5.92634 6.62599 6.55269 6.48633Z" fill="#DA0100"/>
<path d="M3.90752 8.61987C3.91673 8.58944 3.93549 8.56278 3.96102 8.54383C3.98655 8.52488 4.0175 8.51465 4.0493 8.51465C4.08109 8.51465 4.11204 8.52488 4.13758 8.54383C4.16311 8.56278 4.18186 8.58944 4.19107 8.61987C4.25552 9.06128 4.28665 9.50691 4.28418 9.953C4.28418 10.3424 4.00909 10.3085 3.96254 10.1477C3.89142 9.64168 3.87299 9.12967 3.90752 8.61987Z" fill="black"/>
<path d="M4.01758 11.1152C4.01758 11.0475 4.0472 10.8825 4.1911 10.8909C4.22373 10.8893 4.25585 10.8996 4.28151 10.9198C4.30718 10.9401 4.32467 10.9689 4.33076 11.001C4.35615 11.111 4.36885 11.2295 4.38577 11.3438C4.38776 11.3846 4.37526 11.4248 4.35048 11.4574C4.32571 11.4899 4.29024 11.5126 4.25035 11.5215C4.08106 11.5469 4.08106 11.3734 4.01758 11.1152Z" fill="black"/>
</svg>
