<svg width="16" height="16" viewBox="0 0 16 16" fill="none" xmlns="http://www.w3.org/2000/svg">
<path d="M9.08612 10.5416C9.1707 10.6356 9.28348 10.6215 9.37276 10.6544C9.46204 10.6873 9.6829 10.7813 9.84266 10.8471C9.87809 10.8652 9.90781 10.8929 9.92854 10.9269C9.94927 10.9608 9.9602 10.9999 9.96014 11.0397C9.97198 11.1914 9.94447 11.3435 9.88026 11.4814C9.94295 11.5238 9.99528 11.5797 10.0333 11.6451C10.0714 11.7105 10.0942 11.7836 10.1001 11.8591C10.106 11.9345 10.0947 12.0103 10.0673 12.0808C10.0398 12.1513 9.99673 12.2146 9.94134 12.2662C10.2468 12.6186 10.2562 12.6891 9.99773 13.0885L10.0776 13.3C10.1133 13.3916 10.1194 13.4921 10.0949 13.5874C10.0705 13.6826 10.0168 13.7678 9.94134 13.8309C9.84565 13.9235 9.73428 13.9983 9.61241 14.0518C9.44995 14.1276 9.27747 14.1799 9.10022 14.2069C8.74783 14.2656 8.38947 14.2798 8.03354 14.2492C7.58446 14.2583 7.14023 14.1549 6.74132 13.9484C6.68715 13.9217 6.63949 13.8834 6.6017 13.8363C6.56391 13.7892 6.53689 13.7344 6.52256 13.6757C6.50823 13.617 6.50692 13.5559 6.51874 13.4967C6.53055 13.4375 6.5552 13.3815 6.59095 13.3328C6.61914 13.2859 6.65203 13.2389 6.68963 13.1872C6.61914 13.0556 6.46407 12.971 6.44528 12.8019C6.44522 12.6402 6.50555 12.4843 6.61444 12.3649C6.51356 12.2752 6.4506 12.1505 6.43838 12.016C6.42616 11.8816 6.46559 11.7476 6.54866 11.6412L6.48757 11.519C6.25262 11.0068 6.68493 10.8706 7.03735 10.6826C7.41797 9.78039 6.86349 9.2729 6.27611 8.3331C5.62295 7.27582 5.16245 5.98359 5.50078 4.80414C5.57272 4.52715 5.70076 4.26787 5.87696 4.04236C6.05317 3.81685 6.27379 3.62991 6.52516 3.49312C7.0656 3.16736 7.69706 3.02557 8.32488 3.089C8.86472 3.15252 9.36584 3.40126 9.74285 3.79283C10.1199 4.18441 10.3494 4.69459 10.3924 5.23645C10.5618 6.2252 10.3965 7.2422 9.92255 8.12634C9.1707 10.0059 9.1989 9.77569 9.08612 10.5416ZM7.98185 7.72223C7.46866 7.37606 7.06965 6.88548 6.8353 6.31252C6.79128 6.17397 6.766 6.03016 6.76011 5.88491C6.76301 5.78713 6.79029 5.69162 6.83947 5.60705C6.88866 5.52248 6.95818 5.45153 7.04174 5.40065C7.12529 5.34977 7.22023 5.32057 7.31794 5.31569C7.41565 5.31081 7.51303 5.33042 7.60123 5.37272C7.69991 5.41971 7.7892 5.4808 7.89257 5.53719C7.94598 5.46175 8.00571 5.39101 8.07114 5.32573C8.16898 5.2355 8.27794 5.15813 8.39537 5.09548C8.49013 5.04384 8.59978 5.0264 8.70589 5.04608C8.812 5.06577 8.9081 5.12137 8.97804 5.20356C9.04919 5.2671 9.1067 5.34443 9.14709 5.43086C9.18747 5.51728 9.2099 5.611 9.213 5.70635C9.21389 5.88442 9.19816 6.06219 9.16601 6.23734C9.0199 6.77685 8.78486 7.28822 8.47055 7.75042C8.48498 8.52702 8.43469 9.30348 8.32018 10.0717C8.28368 10.2256 8.26632 10.3835 8.26849 10.5416H8.58333C8.6034 10.5016 8.61764 10.4589 8.62562 10.4148C8.67989 10.0356 8.78581 9.66563 8.94045 9.31519C9.1895 8.70432 9.43385 8.08875 9.69699 7.48728C9.92792 6.95129 10.0309 6.3689 9.99773 5.78623C9.94604 4.61148 9.43855 3.65288 8.245 3.53541C7.69453 3.49313 7.14564 3.63531 6.68493 3.93952C5.69813 4.541 5.74512 5.9225 6.15864 7.01737C6.47917 7.74256 6.87446 8.43235 7.33809 9.07554C7.59993 9.51679 7.67917 10.0428 7.55894 10.5416C7.6045 10.5565 7.65291 10.5603 7.70026 10.553C7.74761 10.5457 7.79256 10.5273 7.83149 10.4993C7.95784 9.58711 8.0144 8.66656 8.00065 7.74572L7.98185 7.72223ZM8.59743 5.4808C8.12752 5.74394 8.28729 6.02118 8.19801 6.24674C8.18702 6.28152 8.16723 6.31288 8.14054 6.33775C8.11385 6.36263 8.08119 6.38017 8.04571 6.38869C8.01024 6.3972 7.97317 6.39639 7.9381 6.38634C7.90303 6.37629 7.87116 6.35733 7.84558 6.33132C7.68112 6.15276 7.63883 5.88961 7.42737 5.77684C7.40794 5.7666 7.38626 5.76138 7.3643 5.76167C7.34234 5.76195 7.3208 5.76773 7.30165 5.77848C7.28249 5.78922 7.26634 5.80459 7.25464 5.82318C7.24295 5.84177 7.2361 5.863 7.23471 5.88491C7.22718 6.00803 7.25146 6.13101 7.3052 6.24204C7.45067 6.55741 7.6622 6.83784 7.92547 7.06437C7.99533 7.12406 8.06911 7.179 8.14632 7.22883H8.20271C8.4981 6.8336 8.68737 6.36932 8.75249 5.88021C8.76796 5.80922 8.7614 5.7352 8.73369 5.66803C8.70598 5.60086 8.65845 5.54374 8.59743 5.50429V5.4808ZM6.98096 13.549C7.01856 13.5819 7.03735 13.6101 7.06555 13.6195C7.13606 13.6529 7.21016 13.6781 7.2864 13.6947C7.86664 13.8237 8.46594 13.8429 9.05323 13.7511C9.2067 13.7216 9.35535 13.671 9.49494 13.6007C9.6453 13.5349 9.64061 13.455 9.51843 13.3094C8.82856 13.4671 8.11364 13.4815 7.41797 13.3516C7.33367 13.3233 7.24178 13.3279 7.16073 13.3645C7.07968 13.4011 7.01547 13.467 6.98096 13.549ZM9.45734 11.1525C9.36722 11.1208 9.27443 11.0972 9.1801 11.082C7.91137 11.0021 7.64822 10.9504 7.07025 11.1948C7.01856 11.1948 6.96687 11.2324 6.97157 11.317C7.07415 11.3727 7.18849 11.4033 7.3052 11.4063C7.87378 11.4814 9.03443 11.5754 9.45734 11.1525ZM9.41035 12.5246C8.83238 12.628 8.81358 12.6938 7.34749 12.5669C7.27187 12.5498 7.19286 12.5559 7.12076 12.5844C7.04866 12.6129 6.98684 12.6625 6.94337 12.7267C6.97378 12.7455 7.00515 12.7628 7.03735 12.7784C7.64519 12.9658 8.28621 13.0202 8.91696 12.9381C9.11498 12.9041 9.30987 12.8538 9.49964 12.7878C9.55429 12.7604 9.60489 12.7256 9.65 12.6844L9.41035 12.5246ZM9.57012 11.9137C9.28348 11.801 9.27878 11.801 9.14721 11.8292C8.28259 12.0406 7.47436 11.8292 7.01856 11.8856C6.98566 11.8856 6.95747 11.9278 6.92458 11.9513C6.89168 11.9748 6.96217 12.0077 6.98096 12.0124C7.0302 12.0374 7.08226 12.0563 7.13603 12.0688C7.70838 12.168 8.29093 12.1948 8.86997 12.1487C9.11285 12.1271 9.34678 12.0465 9.55132 11.9137H9.57012Z" fill="#241C16"/>
<path d="M9.28743 2.47884C9.25678 2.47731 9.22681 2.46928 9.19951 2.45527C9.17221 2.44127 9.14821 2.42161 9.12909 2.3976C9.10998 2.3736 9.09619 2.3458 9.08866 2.31606C9.08112 2.28631 9.08 2.2553 9.08537 2.22509C9.09716 2.15997 9.11771 2.09674 9.14646 2.03713C9.4566 1.36517 9.49419 1.28999 9.57407 1.21481C9.59992 1.18433 9.63482 1.16289 9.67369 1.15359C9.71256 1.1443 9.75338 1.14763 9.79022 1.16312C9.83221 1.17825 9.86817 1.20657 9.89274 1.24384C9.9173 1.28111 9.92914 1.32532 9.9265 1.36987C9.9265 1.51554 9.87011 1.56253 9.48949 2.30968C9.48074 2.35697 9.45578 2.39974 9.4189 2.43062C9.38202 2.4615 9.33553 2.47855 9.28743 2.47884Z" fill="#251E19"/>
<path d="M8.59314 1.47697C8.54615 1.85289 8.55555 1.99856 8.42867 2.13953C8.39852 2.1639 8.36199 2.17908 8.32345 2.18326C8.28491 2.18744 8.24598 2.18044 8.2113 2.1631C8.17663 2.14576 8.14767 2.11882 8.12789 2.08548C8.10811 2.05213 8.09834 2.01381 8.09974 1.97506C8.09974 1.68842 8.13264 1.40178 8.16083 1.11514C8.16083 1.06155 8.18212 1.01016 8.22001 0.972267C8.2579 0.934374 8.3093 0.913086 8.36289 0.913086C8.41648 0.913086 8.46787 0.934374 8.50576 0.972267C8.54366 1.01016 8.56494 1.06155 8.56494 1.11514C8.58374 1.23262 8.58374 1.35479 8.59314 1.47697Z" fill="#251E19"/>
<path d="M11.6944 5.53809C11.7778 5.56958 11.858 5.60891 11.934 5.65556C11.9588 5.67785 11.9775 5.70605 11.9884 5.73753C11.9993 5.769 12.0021 5.80273 11.9965 5.83557C11.9909 5.8684 11.977 5.89928 11.9562 5.92532C11.9354 5.95136 11.9084 5.97172 11.8776 5.98449C11.644 6.05578 11.4026 6.09838 11.1587 6.11137H11.0271C10.9829 6.10985 10.9405 6.09314 10.9071 6.06404C10.8737 6.03494 10.8514 5.99523 10.8439 5.9516C10.8372 5.90285 10.8469 5.85326 10.8716 5.8107C10.8963 5.76813 10.9345 5.73503 10.9801 5.71665L11.6944 5.53809Z" fill="#251E19"/>
<path d="M6.83594 1.32637C6.83594 1.13841 6.87353 1.05383 6.991 1.02563C7.10848 0.997438 7.21656 1.08672 7.25415 1.26528C7.31994 1.59891 7.4703 2.20508 7.12258 2.20508C7.08325 2.2031 7.04525 2.19017 7.01287 2.16775C6.98049 2.14534 6.95502 2.11433 6.93932 2.07821C6.87681 1.83226 6.84213 1.58006 6.83594 1.32637Z" fill="#251E19"/>
<path d="M10.9747 2.26164C10.9694 2.30786 10.9551 2.35257 10.9324 2.39321C10.7588 2.61161 10.5509 2.80045 10.3168 2.95239C10.1571 3.06517 9.93623 2.83492 10.0443 2.69395C10.2228 2.45202 10.4442 2.24495 10.6975 2.08307C10.7273 2.0685 10.7603 2.06186 10.7934 2.06381C10.8265 2.06575 10.8586 2.07621 10.8864 2.09416C10.9143 2.11212 10.9371 2.13697 10.9526 2.16631C10.968 2.19565 10.9757 2.22849 10.9747 2.26164Z" fill="#251E19"/>
<path d="M10.6332 3.7849C10.654 3.7461 10.6848 3.71363 10.7225 3.69092C10.9339 3.56874 11.1454 3.44657 11.3616 3.33379C11.4015 3.31413 11.4469 3.30853 11.4904 3.31791C11.5339 3.3273 11.5729 3.35111 11.6012 3.38548C11.6342 3.42319 11.6525 3.47162 11.6525 3.52175C11.6525 3.57189 11.6342 3.62032 11.6012 3.65802C11.5166 3.7614 11.479 3.7802 10.9198 4.05744C10.8813 4.07925 10.8367 4.08809 10.7928 4.08266C10.7488 4.07723 10.7077 4.05782 10.6756 4.0273C10.6435 3.99677 10.6221 3.95673 10.6144 3.91309C10.6068 3.86945 10.6134 3.82451 10.6332 3.7849Z" fill="#251E19"/>
<path d="M11.3709 7.17647C11.2487 7.17647 11.1265 7.17647 11.0044 7.17647C10.9545 7.1741 10.9073 7.15291 10.8724 7.11715C10.8376 7.0814 10.8175 7.03375 10.8164 6.98381C10.8165 6.93846 10.8311 6.89433 10.8582 6.85795C10.8853 6.82157 10.9234 6.79485 10.9668 6.78175C11.0324 6.77457 11.0985 6.77457 11.1641 6.78175C11.244 6.78175 11.634 6.78175 11.6951 6.78175C12.0194 6.82404 12.0241 7.17647 11.6951 7.20466H11.3944L11.3709 7.17647Z" fill="#241D18"/>
<path d="M11.1867 5.06377C11.1448 5.06519 11.1034 5.0544 11.0676 5.03271C11.0317 5.01102 11.0029 4.97936 10.9847 4.9416C10.9668 4.90633 10.9608 4.86623 10.9676 4.82727C10.9743 4.78831 10.9935 4.75259 11.0223 4.72544C11.0416 4.69886 11.0675 4.6778 11.0975 4.66435L11.6096 4.34952C11.6464 4.31447 11.6952 4.29492 11.7459 4.29492C11.7967 4.29492 11.8455 4.31447 11.8822 4.34952C11.9021 4.36919 11.9179 4.3926 11.9286 4.41841C11.9394 4.44422 11.945 4.47192 11.945 4.49989C11.945 4.52786 11.9394 4.55555 11.9286 4.58136C11.9179 4.60717 11.9021 4.63059 11.8822 4.65026C11.7976 4.75833 11.7318 4.80532 11.3277 5.00738C11.283 5.03148 11.2357 5.0504 11.1867 5.06377Z" fill="#251E19"/>
<path d="M4.40146 6.39657C4.28868 6.39657 4.2041 6.36838 4.16651 6.2697C4.15541 6.24395 4.14993 6.21613 4.15042 6.18809C4.15092 6.16005 4.15738 6.13244 4.16939 6.10709C4.18139 6.08175 4.19866 6.05926 4.22004 6.04111C4.24142 6.02296 4.26643 6.00958 4.29338 6.00186C4.53152 5.90489 4.7926 5.87878 5.04523 5.92667C5.08756 5.94144 5.12378 5.96987 5.14818 6.00748C5.17259 6.0451 5.18379 6.08976 5.18002 6.13444C5.17625 6.17912 5.15773 6.22127 5.12737 6.25427C5.09701 6.28726 5.05654 6.30922 5.01233 6.31669L4.40146 6.39657Z" fill="#251E19"/>
<path d="M4.57552 5.10075C4.14791 4.96918 4.06333 4.95508 4.03044 4.8799C3.93646 4.68254 4.03044 4.57446 4.15261 4.55566H4.24189C4.61781 4.64964 4.97024 4.69663 4.89976 4.95978C4.86686 5.12894 4.71179 5.10075 4.57552 5.10075Z" fill="#251E19"/>
<path d="M5.74609 2.112C5.74609 1.80656 6.05623 1.81596 6.12201 1.97103C6.1976 2.15541 6.26347 2.34363 6.31937 2.53491C6.33066 2.58401 6.32363 2.63553 6.29961 2.67981C6.27558 2.7241 6.23622 2.75808 6.18891 2.77539C6.1416 2.7927 6.08959 2.79214 6.04267 2.77382C5.99574 2.75549 5.95712 2.72067 5.93405 2.67588C5.83941 2.50014 5.77582 2.30937 5.74609 2.112Z" fill="#251E19"/>
<path d="M5.18161 3.96333C5.127 3.95383 5.0745 3.93473 5.02654 3.90694C4.90073 3.81647 4.77994 3.71921 4.66471 3.6156C4.64312 3.60017 4.62477 3.58064 4.61072 3.55813C4.59667 3.53561 4.58719 3.51054 4.58283 3.48436C4.57846 3.45818 4.5793 3.4314 4.58529 3.40554C4.59128 3.37968 4.6023 3.35526 4.61772 3.33366C4.63315 3.31206 4.65268 3.29371 4.6752 3.27966C4.69772 3.26561 4.72278 3.25614 4.74896 3.25177C4.77514 3.24741 4.80193 3.24825 4.82778 3.25423C4.85364 3.26022 4.87807 3.27124 4.89967 3.28667C5.06344 3.40109 5.22035 3.52504 5.36957 3.65789C5.39332 3.68147 5.40853 3.71229 5.41278 3.74549C5.41704 3.77868 5.4101 3.81235 5.39306 3.84115C5.37536 3.88133 5.34532 3.91483 5.3073 3.9368C5.26928 3.95876 5.22526 3.96805 5.18161 3.96333Z" fill="#251E19"/>
<path d="M8.00016 7.74594C8.01895 8.65847 7.96868 9.57111 7.8498 10.4761C7.81087 10.504 7.76592 10.5224 7.71857 10.5297C7.67123 10.5371 7.62282 10.5332 7.57725 10.5184C7.68652 10.0246 7.60065 9.50768 7.3376 9.07576C6.86167 8.43375 6.45379 7.74398 6.12056 7.01759C5.69765 5.91802 5.65066 4.54121 6.64685 3.93974C7.10757 3.63552 7.65645 3.49334 8.20692 3.53562C9.40047 3.6531 9.90796 4.607 9.95965 5.78645C9.99281 6.36912 9.88985 6.95151 9.65892 7.48749C9.40987 8.08897 9.17022 8.70454 8.93997 9.31541C8.79219 9.66528 8.69261 10.0336 8.64393 10.4103C8.63595 10.4544 8.62171 10.4971 8.60164 10.5372H8.2868C8.28463 10.379 8.30199 10.2212 8.33849 10.0672C8.44753 9.30013 8.49154 8.52517 8.47007 7.75064C8.78367 7.28525 9.01715 6.77064 9.16082 6.22816C9.19297 6.05301 9.2087 5.87524 9.20781 5.69717C9.20471 5.60182 9.18229 5.5081 9.1419 5.42167C9.10152 5.33525 9.04401 5.25792 8.97286 5.19437C8.90292 5.11219 8.80682 5.05658 8.70071 5.0369C8.5946 5.01722 8.48495 5.03466 8.39018 5.0863C8.27275 5.14894 8.1638 5.22632 8.06595 5.31655C8.00053 5.38183 7.94079 5.45257 7.88739 5.528C7.78401 5.47162 7.69473 5.41053 7.59605 5.36354C7.50533 5.32004 7.40496 5.30057 7.30456 5.307C7.20416 5.31343 7.10709 5.34554 7.02266 5.40026C6.93824 5.45497 6.86928 5.53045 6.82239 5.61947C6.77551 5.70849 6.75228 5.80805 6.75493 5.90862C6.82541 6.74975 7.3517 7.25254 8.00016 7.74594Z" fill="#F9F9F9"/>
<path d="M8.59783 5.50488C8.65973 5.54463 8.70784 5.60252 8.7356 5.67065C8.76336 5.73878 8.76939 5.81381 8.75289 5.8855C8.69089 6.38116 8.50147 6.85229 8.20311 7.25292H8.14672C8.06951 7.20308 7.99573 7.14814 7.92587 7.08845C7.6626 6.86193 7.45107 6.58149 7.3056 6.26612C7.08944 5.75393 7.39488 5.58477 7.66742 6.07816C7.71521 6.17763 7.77519 6.27076 7.84598 6.3554C7.87156 6.38142 7.90343 6.40037 7.9385 6.41042C7.97357 6.42048 8.01064 6.42128 8.04611 6.41277C8.08159 6.40426 8.11426 6.38671 8.14094 6.36184C8.16763 6.33696 8.18743 6.30561 8.19841 6.27082C8.28299 6.05467 8.14202 5.76803 8.59783 5.50488Z" fill="#EF0202"/>
<path d="M9.45843 11.1524C9.03552 11.58 7.86077 11.4579 7.30629 11.4062C7.18958 11.4032 7.07524 11.3726 6.97266 11.3169C6.97266 11.2323 7.01965 11.2135 7.07134 11.1947C7.65401 10.9504 7.92186 11.002 9.18119 11.0819C9.27552 11.0971 9.36831 11.1207 9.45843 11.1524Z" fill="#F0EFEF"/>
<path d="M9.41071 12.5244L9.65976 12.6842C9.61464 12.7254 9.56404 12.7602 9.50939 12.7876C9.31962 12.8536 9.12473 12.9039 8.92671 12.9379C8.29597 13.02 7.65494 12.9656 7.0471 12.7782C7.0149 12.7626 6.98353 12.7453 6.95312 12.7265C6.99659 12.6623 7.05842 12.6127 7.13051 12.5842C7.20261 12.5557 7.28163 12.5496 7.35724 12.5667C8.79514 12.6936 8.82803 12.6278 9.41071 12.5244Z" fill="#F0EFEF"/>
<path d="M9.55136 11.9137C9.34131 12.0494 9.10057 12.1302 8.85121 12.1487C8.27216 12.1948 7.68962 12.168 7.11727 12.0688C7.0635 12.0563 7.01144 12.0374 6.9622 12.0124C6.9622 12.0124 6.93401 11.9842 6.90582 11.9513C6.87762 11.9184 6.9669 11.8902 6.9998 11.8855C7.4697 11.8244 8.26853 12.0406 9.12845 11.8291C9.26002 11.8009 9.26472 11.8009 9.55136 11.9137Z" fill="#F0EFEF"/>
</svg>
