<svg width="16" height="16" viewBox="0 0 16 16" fill="none" xmlns="http://www.w3.org/2000/svg">
<path d="M7.53903 9.27953C7.81391 8.98948 7.97029 8.60707 7.97743 8.20753C7.58063 8.20753 7.19983 8.20753 6.89583 7.93873C6.76746 7.83125 6.6843 7.67933 6.66295 7.51327C6.6416 7.3472 6.68362 7.17919 6.78063 7.04273C6.88712 6.90294 7.04203 6.80803 7.21493 6.77665C7.38783 6.74527 7.56622 6.77968 7.71503 6.87313C8.00376 7.06735 8.20659 7.3653 8.28143 7.70513C8.33263 7.72753 8.35823 7.70513 8.38383 7.67313C8.52644 7.51309 8.62849 7.32113 8.68139 7.1134C8.7343 6.90568 8.73651 6.68828 8.68783 6.47953C8.68491 6.44238 8.6736 6.40638 8.65476 6.37423C8.63591 6.34208 8.61002 6.31462 8.57903 6.29393C8.17903 5.97393 8.07343 5.91633 7.24783 5.61873C7.03748 5.55027 6.8348 5.46019 6.64303 5.34993C6.44131 5.23242 6.26904 5.07048 6.13929 4.87641C6.00953 4.68234 5.92573 4.46124 5.89423 4.22993C5.86857 4.08735 5.87724 3.9407 5.91954 3.80214C5.96183 3.66357 6.03652 3.53708 6.13743 3.43313C6.26411 3.29231 6.42347 3.1848 6.60148 3.12007C6.77949 3.05534 6.97069 3.03537 7.15823 3.06193C7.42795 3.10775 7.6697 3.25556 7.83343 3.47473C7.85827 3.43839 7.8797 3.39982 7.89743 3.35953C7.9629 3.18107 8.07308 3.02241 8.21743 2.89873C8.33116 2.80104 8.46586 2.73086 8.61109 2.69364C8.75632 2.65642 8.90817 2.65316 9.05487 2.68411C9.20156 2.71506 9.33915 2.77938 9.45697 2.8721C9.57479 2.96481 9.66966 3.08342 9.73423 3.21873C9.8086 3.37931 9.85513 3.55136 9.87183 3.72753C9.95183 4.40593 9.75023 4.77713 9.44623 5.32753C9.23289 5.63053 9.06874 5.96532 8.95983 6.31953C8.90543 6.48913 9.04623 6.63953 8.98543 7.04273C8.96269 7.24544 8.89627 7.44081 8.79076 7.61538C8.68524 7.78995 8.54314 7.93957 8.37423 8.05393C8.3521 8.06741 8.33168 8.08353 8.31343 8.10193C8.27785 8.60337 8.09283 9.08265 7.78223 9.47793C7.81103 9.57713 7.89103 9.63473 7.93903 9.71473C8.04648 9.87084 8.13864 10.0369 8.21423 10.2107L8.48623 10.2523C8.70234 10.2743 8.91198 10.3387 9.10309 10.442C9.2942 10.5452 9.46302 10.6852 9.59983 10.8539C9.89731 11.212 10.1459 11.608 10.339 12.0315C10.3607 12.07 10.3779 12.1108 10.3902 12.1531C10.3982 12.1817 10.3961 12.2122 10.3845 12.2395C10.3729 12.2668 10.3523 12.2894 10.3262 12.3035C10.0702 12.4411 10.0638 11.8363 9.36623 11.0235C9.1399 10.7544 8.81949 10.5816 8.47023 10.5403C8.44058 10.5353 8.41029 10.5353 8.38063 10.5403C8.32943 10.6011 8.36143 10.6651 8.38063 10.7291C8.52463 11.4971 8.06063 12.4091 7.33743 12.1339C7.25052 12.1028 7.17202 12.052 7.10816 11.9853C7.04429 11.9187 6.9968 11.8381 6.96943 11.7499C6.92976 11.6378 6.9141 11.5187 6.92348 11.4001C6.93285 11.2816 6.96704 11.1664 7.02383 11.0619C7.16369 10.7678 7.39342 10.5258 7.67983 10.3707L7.86863 10.2843C7.90063 10.2043 7.86863 10.1563 7.83023 10.1051C7.75987 9.96389 7.66812 9.83436 7.55823 9.72113C7.23878 9.98763 6.85054 10.1585 6.43823 10.2139C6.21013 10.2407 5.98057 10.1776 5.79823 10.0379C5.46223 9.77873 5.62863 9.37233 5.94223 9.18353C6.14753 9.04941 6.3866 8.97613 6.6318 8.97216C6.87699 8.9682 7.1183 9.03371 7.32783 9.16113C7.40463 9.19953 7.47183 9.24113 7.53903 9.27953ZM8.01583 10.5755C7.99347 10.5738 7.971 10.5738 7.94863 10.5755C7.79539 10.6277 7.65399 10.7097 7.53261 10.8168C7.41122 10.9239 7.31226 11.054 7.24143 11.1995C7.11343 11.4459 7.16783 11.8939 7.57743 11.8811C7.64347 11.8789 7.70777 11.8595 7.76393 11.8247C7.82008 11.7898 7.86611 11.7409 7.89743 11.6827C7.9988 11.5194 8.06207 11.3354 8.08257 11.1442C8.10307 10.9531 8.08026 10.7598 8.01583 10.5787V10.5755ZM7.99983 7.87473C7.99417 7.7214 7.95057 7.57186 7.87295 7.43951C7.79532 7.30716 7.68609 7.19612 7.55503 7.11633C7.50978 7.08771 7.45929 7.06839 7.40649 7.05949C7.35369 7.05059 7.29965 7.0523 7.24752 7.06452C7.1954 7.07673 7.14622 7.0992 7.10287 7.13062C7.05952 7.16205 7.02286 7.20179 6.99503 7.24753C6.97069 7.2968 6.95642 7.35043 6.95308 7.40529C6.94974 7.46014 6.95738 7.51511 6.97556 7.56697C6.99374 7.61883 7.0221 7.66654 7.05896 7.7073C7.09582 7.74806 7.14045 7.78105 7.19023 7.80433C7.44088 7.93148 7.731 7.95671 7.99983 7.87473ZM7.32143 9.51633C6.63983 8.89553 5.58383 9.56753 6.02543 9.83633C6.16475 9.92291 6.33199 9.95269 6.49263 9.91953C6.76817 9.8778 7.02888 9.76779 7.25103 9.59953C7.27616 9.57411 7.29867 9.54624 7.31823 9.51633H7.32143Z" fill="black"/>
</svg>
