<svg width="16" height="16" viewBox="0 0 16 16" fill="none" xmlns="http://www.w3.org/2000/svg">
<path d="M7.92157 6.55702C7.9999 6.42603 8.08518 6.29933 8.17705 6.17745C8.33466 5.99175 8.5135 5.82516 8.7099 5.6811C8.88595 5.5746 9.08771 5.51813 9.29346 5.51776C9.49921 5.51739 9.70117 5.57313 9.8776 5.67899C10.054 5.78485 10.1983 5.93682 10.2948 6.11854C10.3913 6.30026 10.4364 6.50485 10.4252 6.71031C10.4501 7.07016 10.408 7.43149 10.3012 7.77601C9.92573 8.98718 9.28485 10.0994 8.42523 11.0315C7.95077 11.5425 7.6442 11.4914 7.30113 11.1848C6.95806 10.8782 5.50549 9.09719 5.33031 8.87821C5.10463 8.59752 4.89738 8.30249 4.70986 7.99499C4.48868 7.61063 4.39658 7.16548 4.44709 6.72491C4.59307 5.14825 6.5785 4.83438 7.6807 6.18475C7.74639 6.30884 7.82668 6.43293 7.92157 6.55702ZM7.77559 10.6957C7.82749 10.6611 7.87633 10.622 7.92157 10.579C8.72455 9.71562 9.32324 8.68286 9.67342 7.55703C9.80479 7.18633 9.80479 6.78174 9.67342 6.41103C9.64557 6.35191 9.60396 6.30032 9.55206 6.26059C9.50016 6.22087 9.4395 6.19417 9.37515 6.18273C9.31081 6.17129 9.24465 6.17544 9.18225 6.19485C9.11984 6.21425 9.06299 6.24834 9.01648 6.29424C8.87704 6.40648 8.75844 6.54237 8.66611 6.69571C8.4529 7.18927 8.28909 7.70273 8.17705 8.22857C8.16006 8.28806 8.12415 8.34039 8.07476 8.37764C8.02537 8.4149 7.96519 8.43505 7.90333 8.43505C7.84146 8.43505 7.78128 8.4149 7.73189 8.37764C7.6825 8.34039 7.64659 8.28806 7.6296 8.22857C7.52741 7.849 7.73179 7.81981 7.41062 7.03878C7.30645 6.78067 7.13756 6.55374 6.92022 6.37987C6.70287 6.206 6.44441 6.09103 6.16973 6.04607C6.05839 6.01935 5.94278 6.01549 5.8299 6.03473C5.71703 6.05397 5.60923 6.0959 5.51302 6.15799C5.41681 6.22008 5.3342 6.30105 5.27017 6.39598C5.20615 6.49091 5.16204 6.59784 5.14053 6.71031C5.1116 7.046 5.16268 7.38377 5.28956 7.6959C5.41645 8.00804 5.61552 8.28564 5.87046 8.50595C6.36681 9.11179 6.87047 9.70304 7.38142 10.3016C7.48525 10.4579 7.61926 10.5919 7.77559 10.6957Z" fill="#1C1318"/>
<path d="M4.29297 3.27066C4.29297 3.14657 4.29297 2.97138 4.51195 2.92029C4.56616 2.90252 4.62469 2.90289 4.67868 2.92132C4.73267 2.93976 4.77919 2.97527 4.81122 3.02248C4.85176 3.07448 4.88154 3.13403 4.89881 3.19766C5.13239 4.24877 5.13969 4.29256 5.0667 4.47505C5.04471 4.51881 5.01207 4.55633 4.97178 4.58417C4.9315 4.61201 4.88485 4.62927 4.83615 4.63435C4.78744 4.63944 4.73824 4.6322 4.69306 4.61329C4.64789 4.59438 4.6082 4.56441 4.57764 4.52614C4.48275 4.40205 4.51195 4.46045 4.29297 3.27066Z" fill="#201E22"/>
<path d="M12.4966 6.84856C12.6863 6.84856 12.9345 6.80476 12.9856 7.06024C13.004 7.11515 13.0032 7.17467 12.9833 7.22904C12.9634 7.28341 12.9256 7.32942 12.8761 7.35951C12.7955 7.41459 12.7029 7.44963 12.6061 7.4617C12.2525 7.50742 11.8968 7.53422 11.5404 7.54199C11.4752 7.53684 11.4135 7.5105 11.3648 7.467C11.316 7.42351 11.2828 7.36525 11.2703 7.30112C11.257 7.22777 11.2723 7.15214 11.313 7.08971C11.3538 7.02729 11.4168 6.98279 11.4893 6.96535C11.8226 6.90758 12.1589 6.86859 12.4966 6.84856Z" fill="#201E22"/>
<path d="M10.7746 4.89841C10.7316 4.89946 10.6887 4.89162 10.6488 4.87539C10.6089 4.85916 10.5727 4.83488 10.5426 4.80406C10.5124 4.77325 10.489 4.73655 10.4737 4.69627C10.4583 4.65599 10.4515 4.61299 10.4535 4.56994C10.4656 4.50491 10.4904 4.4429 10.5265 4.38745C10.7454 4.11008 10.9717 3.8327 11.198 3.56263C11.2664 3.49448 11.3523 3.44649 11.4462 3.42394C11.4941 3.41471 11.5437 3.41831 11.5898 3.43439C11.636 3.45046 11.677 3.47842 11.7089 3.51546C11.7407 3.5525 11.7622 3.59729 11.7712 3.64531C11.7802 3.69332 11.7764 3.74286 11.7601 3.78891C11.7486 3.835 11.726 3.87759 11.6944 3.913C10.7746 5.0371 10.9644 4.80352 10.7746 4.89841Z" fill="#201E22"/>
<path d="M10.8038 11.884C10.7988 11.9327 10.7818 11.9795 10.7545 12.0202C10.7271 12.0609 10.6902 12.0942 10.647 12.1173C10.6037 12.1403 10.5555 12.1524 10.5065 12.1525C10.4574 12.1525 10.4092 12.1405 10.3659 12.1176C10.1048 11.8666 9.86094 11.5984 9.63593 11.3146C9.28556 10.9278 9.67242 10.6358 9.85491 10.7526C10.2668 10.981 10.5963 11.3335 10.7965 11.7599C10.7965 11.7599 10.7965 11.8548 10.8038 11.884Z" fill="#201E22"/>
<path d="M9.04492 4.08239C9.11062 3.84881 9.19091 3.52034 9.3077 3.20647C9.42449 2.8926 9.56318 2.8999 9.71646 2.95829C9.86975 3.01669 9.95004 3.18457 9.87705 3.44005L9.63617 4.33057C9.6172 4.40214 9.57238 4.46413 9.51036 4.50458C9.44835 4.54503 9.37354 4.56105 9.3004 4.54955C9.23776 4.53395 9.18127 4.49984 9.1383 4.45167C9.09533 4.40349 9.06788 4.34348 9.05952 4.27947C9.0498 4.21423 9.04492 4.14835 9.04492 4.08239Z" fill="#201E22"/>
<path d="M10.9351 9.48318C11.665 9.81895 11.665 9.79706 11.8183 10.0452C11.9716 10.2934 11.7234 10.5635 11.4095 10.4102L10.5409 9.97224C10.2416 9.81166 10.4241 9.25691 10.9351 9.48318Z" fill="#201E22"/>
<path d="M11.3442 6.17704C11.2818 6.18814 11.2174 6.17807 11.1614 6.14842C11.1053 6.11878 11.0608 6.07127 11.0348 6.01342C11.0088 5.95558 11.0029 5.89071 11.0179 5.82911C11.033 5.76751 11.0682 5.7127 11.118 5.67339C11.4492 5.47886 11.7988 5.31749 12.1618 5.19163C12.2244 5.17643 12.2903 5.18292 12.3488 5.21004C12.4072 5.23717 12.4547 5.28332 12.4836 5.34096C12.5124 5.3986 12.5208 5.4643 12.5074 5.52734C12.494 5.59038 12.4597 5.64702 12.4099 5.68799C12.2859 5.79748 12.264 5.81208 11.4537 6.14785L11.3442 6.17704Z" fill="#201E22"/>
<path d="M6.731 3.48356C6.75992 3.7345 6.71422 3.98839 6.59961 4.21349C6.56381 4.26849 6.51011 4.30943 6.44759 4.32938C6.38507 4.34933 6.31759 4.34707 6.25654 4.32298C6.20138 4.30633 6.15372 4.271 6.12176 4.22306C6.0898 4.17511 6.07551 4.11754 6.08136 4.06021C6.08136 3.71714 6.08136 3.37407 6.11786 3.031C6.10751 2.98535 6.10751 2.93796 6.11786 2.89231C6.14051 2.83151 6.18325 2.78027 6.23901 2.74709C6.29476 2.7139 6.36018 2.70076 6.42443 2.70983C6.48231 2.71358 6.53733 2.73638 6.5809 2.77467C6.62447 2.81296 6.65415 2.86459 6.66531 2.92151C6.7164 3.09669 6.7164 3.27918 6.731 3.48356Z" fill="#1B191E"/>
<path d="M8.17601 4.12578C8.17601 4.49075 8.17601 4.85572 7.89134 5.0382C7.73075 5.13309 7.47528 5.0382 7.48257 4.85572C7.48257 4.45425 7.54827 4.05279 7.59207 3.65132C7.59207 3.55643 7.75265 3.48344 7.86214 3.49074C8.17601 3.51264 8.13952 3.79731 8.17601 4.12578Z" fill="#201E22"/>
<path d="M11.4038 7.99435C12.2214 8.20603 12.1995 8.17684 12.36 8.33012C12.3985 8.37214 12.4238 8.42448 12.4329 8.4807C12.442 8.53692 12.4344 8.59457 12.4111 8.64655C12.3878 8.69852 12.3499 8.74256 12.3019 8.77323C12.2539 8.80391 12.198 8.81988 12.1411 8.81918C11.8052 8.75165 11.4737 8.6639 11.1484 8.5564C11.0803 8.53465 11.0227 8.48873 10.9862 8.42732C10.9498 8.36592 10.9371 8.29329 10.9506 8.22316C10.9641 8.15304 11.0028 8.09029 11.0594 8.04678C11.116 8.00328 11.1866 7.98203 11.2578 7.98705L11.4038 7.99435Z" fill="#201E22"/>
<path d="M4.15552 5.26307C4.16173 5.30275 4.15947 5.34329 4.1489 5.38204C4.13832 5.42079 4.11967 5.45686 4.09416 5.48788C4.06865 5.5189 4.03687 5.54418 4.0009 5.56204C3.96492 5.57991 3.92558 5.58996 3.88545 5.59154C3.82255 5.5944 3.75991 5.58187 3.70296 5.55504C3.42559 5.35796 3.14821 5.16088 2.89273 4.94189C2.85704 4.91474 2.82889 4.8789 2.81097 4.83779C2.79304 4.79668 2.78593 4.75167 2.79032 4.70704C2.79471 4.66241 2.81046 4.61964 2.83605 4.58281C2.86164 4.54598 2.89623 4.51631 2.93653 4.49663C2.96836 4.47538 3.00434 4.46114 3.0421 4.45485C3.07985 4.44855 3.11851 4.45036 3.15551 4.46014C3.46938 4.66452 3.76866 4.8762 4.06793 5.09518C4.11902 5.13168 4.13362 5.23387 4.15552 5.26307Z" fill="#201E22"/>
<path d="M4.82704 11.447C4.74675 11.3886 4.45478 11.2719 4.59347 11.0383C4.62009 10.9789 4.66006 10.9264 4.71025 10.885C4.96573 10.7463 5.22121 10.6149 5.48398 10.4908C5.54675 10.4796 5.611 10.4796 5.67377 10.4908C5.71833 10.4942 5.76135 10.5086 5.79897 10.5327C5.8366 10.5568 5.86766 10.5899 5.88936 10.629C5.91106 10.668 5.92273 10.7119 5.92332 10.7565C5.92392 10.8012 5.91341 10.8454 5.89275 10.885C5.81976 11.031 5.89275 10.9872 4.90734 11.4543L4.82704 11.447Z" fill="#201E22"/>
<path d="M5.96494 12.7318C6.00723 12.4365 6.12544 12.1574 6.30801 11.9215C6.34386 11.8589 6.40216 11.8123 6.47111 11.791C6.54006 11.7697 6.61451 11.7754 6.67942 11.8069C6.74433 11.8385 6.79484 11.8935 6.82074 11.9608C6.84665 12.0281 6.84601 12.1028 6.81896 12.1697C6.72332 12.4428 6.61369 12.7108 6.49049 12.9726C6.3883 13.2208 5.95764 13.1551 5.96494 12.7318Z" fill="#201E22"/>
<path d="M3.1255 6.65137C3.37368 6.65137 3.65835 6.65137 3.69485 6.94334C3.69992 7.00803 3.6833 7.07257 3.64762 7.12677C3.61193 7.18096 3.5592 7.22172 3.49776 7.24261C3.19849 7.27911 2.89192 7.30101 2.58535 7.31561C2.51995 7.30731 2.45946 7.27658 2.4142 7.22866C2.36894 7.18074 2.34172 7.11859 2.33717 7.05283C2.33112 6.98887 2.34747 6.92479 2.38341 6.87154C2.41936 6.81829 2.47267 6.77917 2.53425 6.76086C2.73863 6.70246 2.94301 6.65137 3.1255 6.65137Z" fill="#201E22"/>
<path d="M8.05333 12.2344C8.04733 12.1761 8.04733 12.1174 8.05333 12.0592C8.06107 11.9941 8.09047 11.9335 8.13681 11.8872C8.18315 11.8408 8.24373 11.8114 8.30881 11.8037C8.4329 11.8037 8.55699 11.8475 8.58618 11.9643C8.65918 12.2636 8.72487 12.5628 8.76867 12.8694C8.76867 12.9935 8.68108 13.0738 8.56429 13.1103C8.51739 13.1233 8.46774 13.1227 8.42118 13.1085C8.37463 13.0943 8.33311 13.067 8.30151 13.03C8.15552 12.8767 8.17012 12.7891 8.05333 12.2344Z" fill="#201E22"/>
<path d="M3.0821 9.00108C3.01188 9.01326 2.93962 8.99933 2.87895 8.96192C2.81828 8.92451 2.7734 8.8662 2.75275 8.79798C2.73211 8.72976 2.73713 8.65634 2.76687 8.59157C2.79661 8.52679 2.84902 8.47514 2.91422 8.44633C3.15362 8.36694 3.39732 8.30114 3.64415 8.24925C3.70442 8.24687 3.76395 8.26322 3.81456 8.29604C3.86516 8.32887 3.90436 8.37656 3.92676 8.43256C3.94916 8.48856 3.95367 8.55013 3.93966 8.6088C3.92565 8.66747 3.89382 8.72036 3.84853 8.7602C3.73904 8.8405 3.77554 8.8405 3.0821 9.00108Z" fill="#201E22"/>
<path d="M4.00051 10.3004C3.58445 10.3004 3.55525 9.85513 3.78883 9.75294C4.02241 9.65075 4.27788 9.56316 4.51876 9.49016C4.57862 9.47887 4.64053 9.48759 4.69493 9.51498C4.74934 9.54237 4.79321 9.58691 4.81979 9.64172C4.84636 9.69652 4.85415 9.75856 4.84196 9.81824C4.82977 9.87791 4.79828 9.93192 4.75234 9.97192C4.52755 10.1329 4.27139 10.2449 4.00051 10.3004Z" fill="#201E22"/>
<path d="M7.776 10.695C7.60164 10.5896 7.45222 10.4476 7.33804 10.2789C6.82708 9.68034 6.32343 9.0891 5.82707 8.48325C5.57306 8.2622 5.37463 7.98448 5.24782 7.67254C5.12102 7.3606 5.0694 7.0232 5.09714 6.68761C5.11866 6.57515 5.16276 6.46822 5.22678 6.37328C5.29081 6.27835 5.37342 6.19739 5.46963 6.1353C5.56584 6.07321 5.67364 6.03127 5.78652 6.01204C5.89939 5.9928 6.015 5.99665 6.12635 6.02337C6.40102 6.06834 6.65949 6.1833 6.87683 6.35718C7.09417 6.53105 7.26307 6.75798 7.36723 7.01608C7.6884 7.78981 7.48402 7.82631 7.58621 8.20587C7.60321 8.26536 7.63911 8.31769 7.6885 8.35495C7.73789 8.39221 7.79807 8.41236 7.85994 8.41236C7.9218 8.41236 7.98198 8.39221 8.03137 8.35495C8.08076 8.31769 8.11667 8.26536 8.13366 8.20587C8.24674 7.68031 8.41053 7.16695 8.62272 6.67301C8.71505 6.51968 8.83365 6.38378 8.97309 6.27155C9.0196 6.22564 9.07645 6.19156 9.13886 6.17215C9.20127 6.15275 9.26742 6.14859 9.33177 6.16003C9.39611 6.17147 9.45678 6.19817 9.50867 6.2379C9.56057 6.27762 9.60219 6.32921 9.63003 6.38834C9.76141 6.75904 9.76141 7.16363 9.63003 7.53434C9.27986 8.66017 8.68116 9.69292 7.87819 10.5563C7.84782 10.6051 7.81365 10.6515 7.776 10.695Z" fill="#DA0100"/>
</svg>
