<svg width="16" height="16" viewBox="0 0 16 16" fill="none" xmlns="http://www.w3.org/2000/svg">
<path d="M13.5894 8.07802C12.2624 8.32526 11.0092 8.87196 9.92534 9.67652C7.99468 11.0986 7.93759 12.6504 7.74037 13.7818C7.73652 13.8586 7.71355 13.9333 7.67353 13.999C7.63351 14.0647 7.57771 14.1193 7.5112 14.158C7.44469 14.1967 7.36958 14.2181 7.29269 14.2204C7.21579 14.2227 7.13954 14.2057 7.07086 14.171C6.692 14.0517 6.60896 13.9271 6.60896 13.5275C6.60896 12.4895 6.73871 10.9896 5.92388 9.5883C4.62121 7.35662 3.05384 7.89637 2.7113 7.84447C2.36876 7.79257 2.02104 7.63687 2.0937 7.27877C2.2494 6.53141 3.30296 7.18535 5.04159 6.40166C6.59858 5.68026 6.95669 4.60594 7.34074 3.84821C7.78708 2.96591 7.59505 2.91401 7.76113 2.4054C7.78954 2.29025 7.85654 2.1883 7.95097 2.11653C8.0454 2.04477 8.16157 2.00751 8.28012 2.01096C8.39623 2.01095 8.50766 2.05672 8.59024 2.13833C8.67282 2.21994 8.7199 2.33082 8.72127 2.44692C8.77317 2.96591 8.43063 3.87935 9.59318 5.25987C9.97991 5.76242 10.4692 6.17691 11.0284 6.47578C11.5877 6.77466 12.2042 6.95108 12.8369 6.99332C13.0934 7.0097 13.3483 7.04438 13.5998 7.09712C13.7139 7.11481 13.8176 7.17369 13.8912 7.26263C13.9649 7.35156 14.0034 7.46439 13.9995 7.57978C13.9867 7.6936 13.9411 7.80127 13.8683 7.88971C13.7956 7.97815 13.6987 8.04357 13.5894 8.07802ZM8.04139 4.74088C7.00339 6.2304 7.31479 6.04875 5.31147 7.38257C5.34173 7.44007 5.37828 7.49403 5.42046 7.54345C6.39557 8.2736 7.07388 9.33162 7.33036 10.5225C7.37333 10.6481 7.43081 10.7683 7.50163 10.8806C7.57223 10.8294 7.63666 10.7702 7.69366 10.7041C8.41744 9.61552 9.42151 8.74234 10.6 8.17663C10.8587 8.03773 11.1099 7.88528 11.3526 7.71991C10.8855 7.45003 10.4288 7.23206 10.0291 6.94661C9.22673 6.35057 8.55102 5.60075 8.04139 4.74088Z" fill="#1B151A"/>
<path d="M11.0882 9.76527C11.576 9.55248 11.8511 9.59919 11.9497 9.83274C12.0483 10.0663 11.9497 10.2479 11.6123 10.4296C10.8475 10.823 10.2544 11.4845 9.94636 12.2876C9.90743 12.3983 9.85328 12.5031 9.78547 12.599C9.73566 12.6991 9.65047 12.7772 9.54639 12.8181C9.44231 12.859 9.32676 12.8598 9.2221 12.8204C9.11745 12.781 9.03114 12.7042 8.97989 12.6048C8.92864 12.5054 8.9161 12.3905 8.9447 12.2824C9.11413 11.7401 9.39131 11.2377 9.75963 10.8052C10.1279 10.3726 10.5798 10.0189 11.0882 9.76527Z" fill="#1B191E"/>
<path d="M4.9019 5.60225C4.58372 5.77095 4.2169 5.82414 3.86391 5.75276C3.76908 5.74175 3.6816 5.69628 3.61811 5.62499C3.55461 5.55371 3.51953 5.46157 3.51953 5.3661C3.51953 5.27064 3.55461 5.1785 3.61811 5.10722C3.6816 5.03593 3.76908 4.99046 3.86391 4.97945C3.90824 4.96092 3.95601 4.95208 4.00404 4.9535C4.97456 4.97945 5.26 3.765 5.67001 3.31348C5.73713 3.24766 5.82086 3.20131 5.91227 3.17937C6.00368 3.15743 6.09933 3.16073 6.18901 3.18892C6.27151 3.22554 6.34097 3.28631 6.38822 3.36321C6.43548 3.44012 6.45831 3.52954 6.45369 3.61969C6.45306 3.66416 6.44426 3.70814 6.42774 3.74943C6.15107 4.42604 5.70193 5.01834 5.12507 5.46731C5.05388 5.51739 4.97931 5.56248 4.9019 5.60225Z" fill="#1B191E"/>
<path d="M8.04119 4.74121C8.55209 5.61095 9.23562 6.3669 10.0497 6.96251C10.4493 7.24796 10.906 7.48151 11.3731 7.73581C11.1305 7.90118 10.8793 8.05363 10.6206 8.19253C9.44207 8.75824 8.438 9.63142 7.71422 10.72C7.65723 10.7861 7.59279 10.8453 7.52219 10.8965C7.45137 10.7842 7.3939 10.664 7.35092 10.5384C7.09792 9.34185 6.41928 8.27778 5.44102 7.54379C5.39884 7.49436 5.36229 7.4404 5.33203 7.3829C7.31459 6.04908 7.0032 6.23073 8.04119 4.74121ZM9.1726 7.55936C8.58231 7.88155 8.0812 8.34521 7.71422 8.90874C7.69027 8.9485 7.6744 8.99259 7.66751 9.03849C7.64442 9.12514 7.65074 9.217 7.6855 9.29966C7.72025 9.38232 7.78147 9.4511 7.85954 9.49521C7.94202 9.53919 8.03602 9.5568 8.12883 9.54566C8.22164 9.53452 8.3088 9.49517 8.37854 9.43293C8.70941 8.9751 9.12741 8.58709 9.60855 8.29114C9.67203 8.26295 9.73139 8.22629 9.78501 8.18215C9.84706 8.13122 9.89323 8.06359 9.91806 7.98726C9.94289 7.91092 9.94535 7.82907 9.92514 7.75138C9.78501 7.40885 9.46323 7.51265 9.1726 7.55936Z" fill="#DA0909"/>
<path d="M9.17371 7.56063C9.4384 7.51911 9.78094 7.38936 9.93144 7.75266C9.95165 7.83035 9.94919 7.9122 9.92436 7.98853C9.89953 8.06487 9.85336 8.1325 9.79131 8.18343C9.73769 8.22757 9.67833 8.26423 9.61486 8.29242C9.13477 8.58976 8.71702 8.97754 8.38484 9.43421C8.3151 9.49645 8.22794 9.5358 8.13513 9.54694C8.04232 9.55807 7.94833 9.54046 7.86584 9.49649C7.78777 9.45238 7.72655 9.3836 7.6918 9.30093C7.65705 9.21827 7.65072 9.12641 7.67381 9.03977C7.6807 8.99387 7.69657 8.94978 7.72052 8.91002C8.08605 8.34712 8.58531 7.88352 9.17371 7.56063Z" fill="#F9ECEB"/>
</svg>
