<svg width="16" height="16" viewBox="0 0 16 16" fill="none" xmlns="http://www.w3.org/2000/svg">
<path d="M8.02965 5.20411C8.14819 5.0704 8.22229 5.02026 8.25933 4.94505C8.72086 4.16424 9.38255 3.56077 10.1561 3.21518C11.1267 2.70541 12.8901 3.03969 12.9938 4.88655C13.1124 7.0844 11.512 12.1236 9.61521 13.5693C9.45063 13.7302 9.25807 13.8505 9.04986 13.9225C8.84166 13.9945 8.62241 14.0167 8.40617 13.9876C8.18993 13.9585 7.98147 13.8787 7.79414 13.7534C7.60682 13.6282 7.44476 13.4601 7.31837 13.2601C5.97239 11.5979 4.8942 9.68325 4.13241 7.60253C4.01925 7.21445 3.97796 6.80429 4.01109 6.39748C4.04423 5.99067 4.15109 5.59586 4.32505 5.23754C4.53251 4.77791 5.06597 2.84748 6.68858 3.81687C7.21563 4.17005 7.67221 4.64235 8.02965 5.20411Z" fill="#DA0100"/>
</svg>
