<svg width="16" height="16" viewBox="0 0 16 16" fill="none" xmlns="http://www.w3.org/2000/svg">
<path d="M5.99857 7.78374C5.59084 7.48979 4.68056 7.02991 4.93184 5.77354C4.96502 5.6076 5.01243 5.44641 5.0551 5.29943C5.12622 5.04342 5.32534 4.90593 5.52921 5.06238C6.04958 5.44115 6.39898 6.01041 6.50112 6.64589C6.60092 6.53339 6.6913 6.41288 6.77136 6.28557C7.14923 5.77645 7.60339 5.32869 8.11782 4.95808C8.14979 4.64309 8.27715 4.34536 8.48288 4.10469C8.48288 4.01935 8.40228 4.02409 8.35013 4.00987C7.45407 3.76808 7.50622 3.06166 7.95662 2.83409C8.30145 2.66564 8.69584 2.62856 9.06603 2.72979C9.22722 2.76772 9.38368 2.83409 9.54013 2.89098L9.7677 2.72031C9.99826 2.52363 10.2738 2.38695 10.5699 2.32244C10.8661 2.25792 11.1735 2.26757 11.465 2.35051C12.1335 2.62549 12.1619 3.4125 11.6262 4.04306L11.3939 4.29907C11.6401 4.66436 11.7691 5.09601 11.7637 5.53649C11.7563 5.69546 11.7089 5.85001 11.6261 5.98589C11.5432 6.12177 11.4275 6.23462 11.2896 6.31402C11.235 6.35923 11.1719 6.39297 11.104 6.41321C11.0362 6.43345 10.9649 6.43977 10.8945 6.4318C10.8241 6.42383 10.756 6.40174 10.6944 6.36683C10.6328 6.33193 10.5788 6.28494 10.5357 6.22868L10.4599 6.1386C10.3651 6.10067 10.3271 6.17179 10.2702 6.20023C10.179 6.25959 10.0739 6.29429 9.96518 6.30096C9.8565 6.30764 9.74794 6.28605 9.65008 6.23832C9.55222 6.19058 9.46838 6.11831 9.40674 6.02855C9.3451 5.9388 9.30775 5.83461 9.29834 5.72613C9.29834 5.63131 9.29834 5.53174 9.26989 5.43218C8.53503 5.59338 8.71993 5.53649 8.26479 5.43218C7.69157 5.8215 7.2147 6.33644 6.87046 6.93783C6.52623 7.53921 6.3237 8.21118 6.27829 8.90262C6.2617 9.1817 6.28889 9.46165 6.35889 9.73231C6.404 9.68178 6.44521 9.62789 6.48216 9.57111C6.63586 9.28258 6.86349 9.04009 7.14173 8.86848C7.41998 8.69686 7.73885 8.60229 8.06567 8.59446C8.19841 8.59446 8.33591 8.56601 8.46865 8.56601C8.69148 8.56601 8.82897 8.72721 8.70096 9.09701C8.53865 9.47283 8.28564 9.80252 7.9646 10.0565C7.64356 10.3106 7.26452 10.481 6.86144 10.5525L6.61491 10.6141C6.90112 11.3147 7.31239 11.9573 7.82861 12.5106C7.87011 12.5527 7.89317 12.6096 7.89272 12.6687C7.89228 12.7278 7.86837 12.7843 7.82624 12.8258C7.78412 12.8673 7.72724 12.8904 7.66811 12.8899C7.60899 12.8895 7.55246 12.8656 7.51096 12.8235C6.8115 12.109 6.29296 11.2378 5.99857 10.2823C5.77999 9.53685 5.762 8.74694 5.94642 7.99234C5.98909 7.8833 5.98909 7.82641 5.99857 7.78374ZM10.806 4.1284C11.1274 3.96044 11.378 3.68293 11.5124 3.34612C11.5482 3.2822 11.5666 3.20997 11.5656 3.13671C11.5646 3.06345 11.5444 2.99173 11.5069 2.92877C11.4694 2.86582 11.416 2.81384 11.3521 2.77808C11.2881 2.74232 11.2159 2.72403 11.1426 2.72505C10.7836 2.68896 10.4243 2.79064 10.1375 3.00951C10.0868 3.03402 10.0419 3.06914 10.0059 3.11249C9.96991 3.15584 9.94365 3.20641 9.92889 3.26079C10.1619 3.60437 10.4599 3.8991 10.806 4.1284ZM9.71081 3.84867C9.3779 3.98513 9.06898 4.174 8.79579 4.40812C8.50658 4.63095 8.68674 5.08609 8.9712 4.95334C9.37255 4.77394 9.70516 4.4696 9.91941 4.08573L9.71081 3.84867ZM8.22686 9.02115C8.20057 9.0114 8.17364 9.00348 8.14626 8.99745C7.85235 9.00815 7.56774 9.10325 7.32645 9.2714C7.08516 9.43955 6.89739 9.67363 6.78558 9.94565C6.76188 9.98832 6.7524 10.0263 6.78558 10.0594C7.22748 9.97887 7.63433 9.76553 7.95188 9.44784C8.08954 9.34115 8.18656 9.19059 8.22686 9.02115ZM5.46758 5.62657C5.33243 5.90314 5.30926 6.22121 5.40289 6.51446C5.49651 6.8077 5.69971 7.0535 5.97013 7.20059C6.03566 6.91728 6.02357 6.62154 5.93512 6.34453C5.84668 6.06751 5.68516 5.81948 5.46758 5.62657ZM10.3983 4.4413C10.2616 4.59215 10.1334 4.75043 10.0142 4.91541C9.86726 5.11927 9.69184 5.49856 9.80563 5.72139C9.81491 5.74485 9.82929 5.76597 9.84772 5.78322C9.86615 5.80046 9.88817 5.8134 9.9122 5.82111C9.93624 5.82882 9.96168 5.8311 9.9867 5.8278C10.0117 5.82449 10.0357 5.81567 10.0569 5.80198C10.1344 5.75878 10.2019 5.69971 10.255 5.62863C10.3081 5.55756 10.3456 5.47608 10.3651 5.38951C10.422 5.12876 10.4741 4.868 10.5263 4.6025C10.5405 4.51716 10.4978 4.47923 10.3983 4.4413ZM9.57332 3.4931C9.4711 3.37101 9.34239 3.27382 9.19699 3.20892C9.05158 3.14402 8.89329 3.11312 8.73415 3.11855C8.61967 3.09488 8.50101 3.10121 8.38969 3.13693C8.27837 3.17265 8.17818 3.23655 8.09885 3.32242C8.16997 3.48361 8.32642 3.5168 8.4734 3.55473C8.83899 3.64045 9.2218 3.61569 9.57332 3.48361V3.4931ZM11.0525 4.63095L10.8581 5.41322C10.8237 5.50568 10.8152 5.60581 10.8335 5.70275C10.8519 5.7997 10.8965 5.88976 10.9624 5.96318C11.2422 5.82095 11.3085 5.73561 11.318 5.48908C11.331 5.17806 11.2373 4.87195 11.0525 4.62146V4.63095Z" fill="#1B181C"/>
<path d="M10.8068 4.12728C10.4607 3.89799 10.1627 3.60326 9.92969 3.25967C9.94444 3.2053 9.9707 3.15472 10.0067 3.11137C10.0427 3.06802 10.0876 3.03291 10.1383 3.0084C10.4251 2.78953 10.7844 2.68784 11.1434 2.72394C11.2167 2.72291 11.2889 2.74121 11.3528 2.77697C11.4168 2.81273 11.4702 2.86471 11.5077 2.92766C11.5452 2.99062 11.5654 3.06233 11.5664 3.1356C11.5673 3.20886 11.549 3.28109 11.5132 3.34501C11.3788 3.68181 11.1282 3.95933 10.8068 4.12728Z" fill="#E30503"/>
<path d="M9.71092 3.84863L9.92901 4.09517C9.71476 4.47904 9.38215 4.78338 8.9808 4.96278C8.69634 5.09553 8.5067 4.64039 8.80538 4.41756C9.07503 4.18094 9.38072 3.98888 9.71092 3.84863Z" fill="#F3F3F3"/>
<path d="M10.3987 4.44043C10.4982 4.47836 10.5409 4.51629 10.5267 4.59688C10.4745 4.86238 10.4224 5.12314 10.3655 5.3839C10.346 5.47046 10.3085 5.55194 10.2554 5.62302C10.2023 5.6941 10.1348 5.75317 10.0573 5.79637C10.0361 5.81006 10.0121 5.81887 9.98711 5.82218C9.96208 5.82549 9.93664 5.8232 9.91261 5.8155C9.88857 5.80779 9.86655 5.79484 9.84812 5.7776C9.82969 5.76036 9.81532 5.73924 9.80603 5.71577C9.69225 5.49294 9.86767 5.11366 10.0146 4.90979C10.134 4.74643 10.2622 4.58974 10.3987 4.44043Z" fill="#EFEFEF"/>
<path d="M9.57212 3.4836C9.22061 3.61568 8.83779 3.64043 8.4722 3.55472C8.32523 3.51679 8.16877 3.4836 8.09766 3.32241C8.17699 3.23654 8.27718 3.17264 8.38849 3.13692C8.49981 3.10119 8.61847 3.09487 8.73296 3.11854C8.89133 3.11195 9.04914 3.14138 9.1945 3.20461C9.33986 3.26785 9.46897 3.36324 9.57212 3.4836Z" fill="#EFEFEF"/>
<path d="M11.0527 4.62109C11.2344 4.86772 11.3279 5.16829 11.3182 5.47448C11.3182 5.72576 11.2423 5.81109 10.9626 5.94858C10.8966 5.87517 10.8521 5.78511 10.8337 5.68816C10.8153 5.59121 10.8238 5.49108 10.8583 5.39862L11.0527 4.62109Z" fill="#E9E9E9"/>
</svg>
