<svg width="16" height="16" viewBox="0 0 16 16" fill="none" xmlns="http://www.w3.org/2000/svg">
<path d="M6.18285 7.48627C6.62646 7.43598 7.07315 7.41812 7.51937 7.43281H7.96487C8.00536 7.43229 8.0454 7.44129 8.08178 7.45909C8.11815 7.47689 8.14983 7.50299 8.17426 7.53528C8.18882 7.54902 8.20042 7.56559 8.20835 7.58398C8.21628 7.60237 8.22037 7.62218 8.22037 7.6422C8.22037 7.66222 8.21628 7.68203 8.20835 7.70042C8.20042 7.71881 8.18882 7.73538 8.17426 7.74912C7.92477 8.10552 7.64856 8.70696 7.3768 9.19701C7.3515 9.22862 7.33771 9.2679 7.33771 9.30839C7.33771 9.34888 7.3515 9.38816 7.3768 9.41976C7.45254 9.51777 7.52382 9.61579 7.60401 9.7138C7.6842 9.81181 7.7733 9.90982 7.85349 10.0123C7.93368 10.1148 7.94259 10.2529 7.75994 10.3241C7.57728 10.3954 7.27879 10.4622 5.27848 11.2151C4.67259 11.4424 4.7216 11.3666 3.51873 11.8522L3.35835 11.9146C3.32317 11.929 3.28462 11.9331 3.24721 11.9264C3.2098 11.9197 3.17506 11.9025 3.14704 11.8768C3.11902 11.8511 3.09888 11.818 3.08897 11.7813C3.07906 11.7446 3.07978 11.7059 3.09105 11.6696C3.09105 11.6384 5.09582 5.66861 5.10473 5.63743C5.112 5.60519 5.12571 5.57476 5.14505 5.54796C5.16438 5.52116 5.18894 5.49854 5.21724 5.48148C5.24554 5.46442 5.277 5.45325 5.30973 5.44866C5.34245 5.44407 5.37577 5.44615 5.40767 5.45477C5.43288 5.45692 5.45702 5.46595 5.47744 5.48087C5.49787 5.4958 5.5138 5.51605 5.5235 5.53942C5.57251 5.66416 5.69725 6.12748 6.02247 7.21006C6.04358 7.31746 6.10005 7.4147 6.18285 7.48627ZM6.65063 8.90298C6.62836 8.90298 6.60163 8.90298 6.58826 8.92971C5.76853 9.75389 4.89089 10.5157 4.04888 11.3176C4.04888 11.3176 4.04888 11.3443 4.04888 11.3711C4.15135 11.3711 6.97139 10.3509 7.50154 10.1593C7.53443 10.1429 7.56575 10.1235 7.5951 10.1014L6.65063 8.90298ZM5.36312 5.98047C5.32303 6.02502 5.39876 5.82009 4.19145 9.43758L3.80386 10.5959C3.80386 10.6404 3.75931 10.685 3.80386 10.7474C3.9286 10.5513 3.80386 10.7786 4.1959 10.1103C4.7163 9.24829 5.28138 8.41406 5.88882 7.61101L5.40767 6.0072C5.40767 6.0072 5.3854 5.98047 5.36312 5.98047ZM4.12016 10.7919L4.14689 10.8186L4.21372 10.7696C4.88198 10.1548 5.55023 9.55787 6.20067 8.90298C6.43544 8.65512 6.69691 8.43399 6.9803 8.24363C7.16742 8.12334 7.33671 7.96742 7.51046 7.82931C7.53719 7.82931 7.57283 7.78476 7.55946 7.74021H7.52382C7.1173 7.71569 6.70966 7.71569 6.30314 7.74021C6.2418 7.74276 6.18195 7.75984 6.1285 7.79005C6.07506 7.82025 6.02956 7.86272 5.99574 7.91396C5.85318 8.13226 5.70171 8.35946 5.55024 8.55548C4.99335 9.3173 4.24045 10.5603 4.12016 10.7919ZM7.14514 9.06336C7.33566 8.77977 7.50397 8.48188 7.64856 8.17235C7.64856 8.17235 7.64856 8.15007 7.62629 8.13225C6.82883 8.71587 6.9313 8.63122 6.88675 8.7025C6.94106 8.84266 7.02995 8.96679 7.14514 9.06336Z" fill="black"/>
<path d="M10.0639 6.97935C9.81912 6.87354 9.6157 6.69046 9.48477 6.45811C9.42803 6.35092 9.40451 6.22927 9.4172 6.10866C9.4299 5.98805 9.47824 5.87396 9.55605 5.78094C9.60142 5.71634 9.66227 5.66415 9.73302 5.62913C9.80377 5.59412 9.88217 5.57739 9.96105 5.5805C10.0399 5.5836 10.1168 5.60642 10.1846 5.64689C10.2523 5.68735 10.3089 5.74416 10.349 5.81213C10.5317 6.08834 10.4961 6.28882 10.4961 6.7566C10.5336 6.7687 10.5725 6.77618 10.6119 6.77887C11.0218 6.77887 11.4138 6.24872 11.5029 5.85222C11.4584 5.7854 11.3782 5.7854 11.3158 5.75867C11.1467 5.68822 10.9958 5.5802 10.8746 5.44281C10.7535 5.30542 10.6651 5.14225 10.6164 4.96567C10.5706 4.81859 10.5797 4.65993 10.642 4.51905C10.7042 4.37818 10.8154 4.26462 10.9549 4.1994C11.0603 4.13931 11.1827 4.1159 11.3028 4.13283C11.4229 4.14976 11.5341 4.20608 11.6187 4.29296C11.764 4.43766 11.8592 4.62496 11.8905 4.82756C11.9885 5.30425 11.8638 5.4379 11.935 5.57155H12.0375C12.3803 5.49215 12.6836 5.29313 12.8929 5.01022C13.0719 4.69688 13.1497 4.33589 13.1156 3.97665C12.4652 3.66925 12.434 3.66034 12.2959 3.53114C12.2332 3.47771 12.1878 3.40678 12.1656 3.32742C12.1433 3.24806 12.1453 3.16388 12.1712 3.08564C12.2603 2.76933 12.6167 2.79606 12.8038 2.77824C12.9018 2.55549 12.884 2.58222 12.9062 2.53767C13.1201 2.15008 13.6235 2.32828 13.8374 2.73369C13.9295 2.89157 13.9839 3.06863 13.9963 3.25103C14.0087 3.43342 13.9787 3.61621 13.9086 3.78508C13.7973 4.03902 13.6057 4.03011 13.4186 4.04347C13.3829 4.31969 13.3785 4.3776 13.374 4.43997C13.3557 4.71116 13.2628 4.972 13.1056 5.19371C12.9483 5.41541 12.7329 5.58934 12.483 5.6963C12.2781 5.8025 12.0538 5.86615 11.8237 5.88341C11.7252 6.16885 11.5741 6.4333 11.3782 6.66304C11.2668 6.80304 11.1218 6.91246 10.9566 6.98103C10.7914 7.04961 10.6114 7.07509 10.4337 7.05508C10.4131 7.05112 10.3919 7.05112 10.3713 7.05508C10.2617 7.237 10.1113 7.39089 9.93186 7.50456C9.75246 7.61823 9.54905 7.68856 9.33775 7.70998C9.181 7.73354 9.02123 7.69519 8.89225 7.60306C8.83511 7.56989 8.79345 7.51542 8.77642 7.45158C8.74969 7.30011 8.91007 7.25111 8.96353 7.31793C9.01938 7.37708 9.09174 7.41806 9.17119 7.43554C9.25064 7.45302 9.33352 7.44619 9.40904 7.41594C9.62318 7.3661 9.81728 7.25275 9.96592 7.09072C10.0016 7.05639 10.0344 7.01913 10.0639 6.97935ZM11.6009 5.53591C11.6848 5.23917 11.6563 4.92189 11.5207 4.6449C11.486 4.58138 11.4391 4.52535 11.3826 4.48007C11.3455 4.45035 11.3007 4.43167 11.2534 4.42615C11.2062 4.42064 11.1583 4.42852 11.1153 4.44888C11.0679 4.46734 11.0248 4.49528 10.9885 4.53097C10.9523 4.56667 10.9237 4.60938 10.9045 4.6565C10.8853 4.70361 10.876 4.75414 10.877 4.805C10.878 4.85586 10.8894 4.90598 10.9104 4.9523C10.9523 5.07637 11.02 5.19015 11.1091 5.28614C11.1982 5.38213 11.3066 5.45815 11.4272 5.50918C11.4762 5.53591 11.5341 5.53591 11.6009 5.53591ZM10.1842 6.6675C10.2577 6.47682 10.2577 6.26565 10.1842 6.07497C10.1632 6.02118 10.1331 5.97144 10.0951 5.92796C9.95255 5.76758 9.68525 5.95469 9.72534 6.22645C9.75093 6.33649 9.80791 6.43674 9.88936 6.51503C9.97082 6.59332 10.0732 6.64628 10.1842 6.6675Z" fill="black"/>
<path d="M7.88519 12.1785C7.88519 12.2498 7.8451 12.3032 7.79164 12.3032C7.73818 12.3032 7.79164 12.3389 6.45512 11.8087C6.42853 11.7981 6.40315 11.7846 6.37939 11.7686C6.2591 11.6884 6.32593 11.4924 6.54868 11.5726C7.91192 12.0805 7.79609 12.0181 7.88519 12.1785Z" fill="black"/>
<path d="M2.44141 9.35774C2.45887 9.31962 2.48301 9.28491 2.51269 9.25528C2.53156 9.23806 2.55619 9.22852 2.58174 9.22852C2.60729 9.22852 2.63192 9.23806 2.65079 9.25528C2.71762 9.33101 2.71762 9.31319 3.18985 10.32C3.21056 10.3665 3.22264 10.4163 3.22549 10.4671C3.22632 10.489 3.21975 10.5106 3.20682 10.5284C3.19389 10.5462 3.17536 10.5591 3.15421 10.5651C3.06511 10.5918 3.01611 10.5383 2.97156 10.4492C2.75058 10.1086 2.57252 9.74201 2.44141 9.35774Z" fill="black"/>
<path d="M6.34297 12.6059C6.02298 12.5182 5.71256 12.3988 5.41632 12.2495C5.38141 12.2361 5.34844 12.2181 5.31831 12.196C5.29706 12.1796 5.2819 12.1566 5.27524 12.1306C5.26859 12.1046 5.27081 12.0771 5.28157 12.0525C5.29233 12.028 5.31099 12.0077 5.3346 11.9949C5.35821 11.9822 5.38541 11.9777 5.41186 11.9822C5.43922 11.9891 5.46603 11.998 5.49205 12.0089C5.81936 12.1042 6.13824 12.2264 6.44543 12.3742C6.57463 12.4499 6.57463 12.6192 6.34297 12.6059Z" fill="black"/>
<path d="M3.61225 8.82376C3.61992 8.85057 3.61765 8.87925 3.60587 8.90452C3.59409 8.9298 3.57359 8.94997 3.54813 8.96135C3.52267 8.97272 3.49397 8.97453 3.46728 8.96644C3.4406 8.95836 3.41772 8.94091 3.40287 8.91732C3.31378 8.76001 3.23347 8.5979 3.16229 8.43172C3.14903 8.39119 3.14903 8.3475 3.16229 8.30697C3.1674 8.29134 3.1762 8.27717 3.18794 8.26565C3.19968 8.25413 3.21402 8.24561 3.22975 8.2408C3.24548 8.23599 3.26214 8.23505 3.27831 8.23803C3.29448 8.24102 3.3097 8.24786 3.32267 8.25797C3.39396 8.31143 3.37613 8.2847 3.59889 8.76584C3.6045 8.78486 3.60896 8.8042 3.61225 8.82376Z" fill="black"/>
<path d="M6.65054 8.9043L7.58164 10.1027C7.55229 10.1248 7.52098 10.1442 7.48809 10.1606C4.01761 11.408 4.07998 11.3724 4.03543 11.3724C3.99087 11.3724 4.03543 11.3278 4.03543 11.3189C4.87743 10.517 5.75507 9.75521 6.5748 8.93103C6.60153 8.91321 6.62826 8.91321 6.65054 8.9043Z" fill="white"/>
<path d="M5.36422 5.98047C5.36422 5.98047 5.40432 5.98047 5.40877 6.0072L5.88992 7.61102C5.28194 8.41368 4.71684 9.24793 4.197 10.1103C3.79159 10.7786 3.9297 10.5558 3.80496 10.7474C3.76041 10.685 3.80496 10.6404 3.80496 10.5959L4.19255 9.43758C5.39986 5.82009 5.32413 6.02502 5.36422 5.98047Z" fill="white"/>
<path d="M4.12109 10.7936C4.25029 10.553 4.98537 9.33236 5.55116 8.56609C5.70264 8.3567 5.85411 8.14286 5.99667 7.92456C6.03049 7.87333 6.07599 7.83086 6.12943 7.80065C6.18288 7.77044 6.24273 7.75336 6.30407 7.75082C6.71059 7.72629 7.11822 7.72629 7.52475 7.75082H7.56039C7.56039 7.79537 7.53811 7.81764 7.51138 7.83992C7.33764 7.97802 7.16835 8.13395 6.98123 8.25424C6.69784 8.4446 6.43637 8.66572 6.2016 8.91358C5.56453 9.56848 4.86509 10.1655 4.21465 10.7802L4.14782 10.8293L4.12109 10.7936Z" fill="white"/>
<path d="M7.14511 9.06361C7.02806 8.96332 6.93903 8.83438 6.88672 8.68939C6.93127 8.61811 6.8288 8.68939 7.62626 8.11914C7.62626 8.11914 7.65299 8.15033 7.64853 8.15924C7.50455 8.47335 7.33623 8.77573 7.14511 9.06361Z" fill="white"/>
</svg>
