<svg width="16" height="16" viewBox="0 0 16 16" fill="none" xmlns="http://www.w3.org/2000/svg">
<path d="M5.98339 6.58226C5.83972 6.00412 5.58705 5.42114 6.03789 4.63896C6.67203 3.52156 8.11866 4.00253 8.57445 5.06163C8.624 5.17337 8.65868 5.28996 8.71813 5.44057C8.87666 5.32397 9.01043 5.22195 9.1541 5.12478C10.0954 4.46406 11.1655 4.98389 11.0714 5.94097C11.0346 6.14813 10.9731 6.35032 10.8881 6.54339C10.8385 6.67456 10.7692 6.79602 10.7097 6.92719C10.9079 6.97577 11.0863 7.01464 11.2547 7.07294C11.5152 7.14652 11.7357 7.31782 11.8683 7.54972C12.0009 7.78162 12.035 8.05543 11.9632 8.31179C11.7749 9.21542 11.0417 9.40975 10.4769 9.6138C10.6914 10.0519 10.7523 10.5472 10.6503 11.0227C10.3233 12.2421 8.85189 12.3004 8.13353 11.3093C8.04931 11.1927 7.97499 11.0761 7.88582 10.9498C7.78533 11.0605 7.67417 11.1614 7.55388 11.251C7.36588 11.3848 7.16107 11.4942 6.94451 11.5765C6.75999 11.6473 6.55946 11.6682 6.36391 11.6368C6.16837 11.6055 5.98501 11.5232 5.83304 11.3985C5.68108 11.2739 5.5661 11.1114 5.50016 10.9282C5.43422 10.7449 5.41974 10.5477 5.45824 10.3571C5.5166 10.1329 5.60489 9.91732 5.72081 9.71582C5.80001 9.56442 5.88938 9.41835 5.98834 9.27858C5.90017 9.25745 5.81086 9.24123 5.72081 9.23C5.36269 9.18622 5.01446 9.08444 4.69033 8.92879C4.47491 8.83395 4.29382 8.67736 4.17089 8.47964C4.04797 8.28192 3.98899 8.05234 4.0017 7.82111C3.99618 7.5987 4.05762 7.37964 4.17833 7.19127C4.29904 7.00291 4.47368 6.85361 4.68042 6.76201C5.07925 6.55244 5.54107 6.48872 5.98339 6.58226ZM7.77187 7.63649C7.82141 7.43731 7.86104 7.32071 7.88582 7.19925C8.0394 6.35878 8.18802 5.3094 7.44984 4.85272C7.38574 4.79534 7.30739 4.75548 7.22264 4.73713C7.13789 4.71879 7.04971 4.72259 6.96693 4.74818C6.88415 4.77376 6.80967 4.82022 6.75096 4.8829C6.69225 4.94559 6.65136 5.0223 6.63239 5.10535C6.55388 5.29376 6.52063 5.49737 6.53524 5.7004C6.54984 5.90344 6.6119 6.10045 6.71662 6.27619C7.00419 6.77422 7.35916 7.23181 7.77187 7.63649ZM8.40106 9.09397C8.30671 9.67264 8.40577 10.2657 8.68345 10.7846C8.73871 10.8956 8.81708 10.9941 8.9135 11.0736C9.00992 11.1531 9.12226 11.2119 9.24328 11.2462C9.30981 11.2743 9.38183 11.2878 9.45426 11.2858C9.52669 11.2837 9.59777 11.266 9.66249 11.234C9.72721 11.2021 9.78399 11.1566 9.82883 11.1008C9.87367 11.0449 9.90548 10.9801 9.92201 10.911C9.98574 10.6446 9.96265 10.3654 9.856 10.1127C9.74934 9.85991 9.56449 9.64634 9.3275 9.50206C9.04015 9.35146 8.74785 9.23 8.40106 9.07939V9.09397ZM8.77262 8.20491C9.84274 8.86563 9.81301 8.86077 9.93191 8.87535C10.5215 8.92879 11.1457 8.71503 11.2448 8.14175C11.2943 7.85997 11.0417 7.74824 10.7494 7.70937C9.90219 7.58791 9.45135 7.87455 8.77262 8.19034V8.20491ZM7.24672 8.32151C6.77668 7.92888 6.25921 7.59439 5.70595 7.32557C5.57631 7.2854 5.43864 7.27679 5.30485 7.30049C5.17106 7.32419 5.04516 7.37949 4.93805 7.4616C4.87928 7.50707 4.8318 7.56501 4.79915 7.63106C4.7665 7.69712 4.74953 7.76957 4.74953 7.84297C4.74953 7.91637 4.7665 7.98882 4.79915 8.05488C4.8318 8.12093 4.87928 8.17887 4.93805 8.22434C5.02906 8.28068 5.12737 8.3248 5.23035 8.35552C5.88659 8.57746 6.60239 8.56021 7.24672 8.30693V8.32151ZM7.50434 8.99195C6.8157 9.51664 6.51349 9.68667 6.22119 10.3863C6.19669 10.4631 6.19534 10.5452 6.21731 10.6228C6.23928 10.7004 6.28364 10.7701 6.34505 10.8235C6.40078 10.8692 6.46878 10.898 6.54085 10.9066C6.61293 10.9153 6.68601 10.9033 6.7513 10.8721C6.97535 10.7983 7.16512 10.6484 7.28635 10.4494C7.43348 10.2388 7.5296 9.99801 7.56738 9.74542C7.60515 9.49283 7.58359 9.23512 7.50434 8.99195ZM8.65868 7.33528C8.97304 7.27474 9.27053 7.14889 9.53117 6.96621C9.7918 6.78353 10.0095 6.54825 10.1697 6.27619C10.2449 6.13574 10.2983 5.9851 10.3283 5.82923C10.3728 5.59603 9.98641 5.41628 9.56035 5.72235C9.06135 6.12585 8.74308 6.70473 8.67354 7.33528H8.65868Z" fill="#241C16"/>
</svg>
