<svg width="16" height="16" viewBox="0 0 16 16" fill="none" xmlns="http://www.w3.org/2000/svg">
<path d="M8.95017 8.30775C8.95017 8.42291 9.11298 12.8785 9.00179 13.4702C8.99928 13.5063 8.98967 13.5414 8.97352 13.5737C8.95737 13.606 8.935 13.6348 8.90769 13.6584C8.88038 13.682 8.84868 13.7 8.81439 13.7113C8.78011 13.7227 8.74393 13.7271 8.70793 13.7244C8.53791 13.7275 8.36792 13.7169 8.19962 13.6926C7.93355 13.6569 7.92164 13.4663 7.9415 13.2161C8.02489 12.2312 7.9415 9.83267 7.91767 8.45071C7.92125 8.31521 7.89832 8.18031 7.85016 8.0536C7.82204 8.04235 7.79273 8.03436 7.76279 8.02977C7.23243 7.97162 6.73806 7.73329 6.36224 7.35458C5.98642 6.97586 5.75188 6.47968 5.6978 5.94889C5.65595 5.54968 5.72176 5.14654 5.88841 4.78137C7.43716 1.65608 11.6307 3.50267 11.2058 6.47308C11.0747 7.39042 10.1375 8.03771 9.26389 8.24024L8.95017 8.30775ZM8.62056 3.59797C8.2389 3.48571 7.82848 3.52703 7.47687 3.71314C7.10165 3.8646 6.77437 4.11471 6.52969 4.43699C6.28501 4.75926 6.13204 5.14171 6.08697 5.54383C5.99166 6.48102 6.43246 7.03698 7.19492 7.46984C7.95738 7.90269 9.00179 7.59294 9.71263 7.11244C10.3004 6.71532 10.3599 6.17922 10.3321 5.52398C10.3004 4.65827 9.23212 3.77667 8.34655 4.03083C8.0642 4.10996 7.79614 4.23326 7.55232 4.39617C5.96387 5.47632 7.6238 7.32291 8.88663 6.67561C9.03984 6.60234 9.17131 6.49039 9.26806 6.3508C9.36481 6.21121 9.42349 6.04882 9.43833 5.87963C9.45316 5.71044 9.42363 5.54031 9.35265 5.38602C9.28167 5.23173 9.17169 5.0986 9.03356 4.99979C9.00576 4.99979 8.97399 4.94419 8.93825 4.99979C9.00179 5.07127 9.06533 5.13878 9.12092 5.21423C9.85559 6.21893 7.92958 7.35071 7.40936 5.77416C7.34813 5.55855 7.36518 5.32824 7.45749 5.124C7.5498 4.91976 7.71141 4.75477 7.9137 4.65827C8.11188 4.53833 8.33956 4.47598 8.5712 4.47819C8.80284 4.4804 9.02928 4.5471 9.22514 4.6708C9.421 4.7945 9.57853 4.97031 9.68006 5.17853C9.7816 5.38674 9.82313 5.61912 9.79999 5.84961C9.74439 7.23157 7.79059 7.80342 6.77398 6.28247C6.61346 6.02966 6.53222 5.73462 6.54071 5.43528C6.54921 5.13593 6.64704 4.84597 6.82163 4.60267C7.27253 4.0522 7.91538 3.69316 8.62056 3.59797ZM8.2711 8.36335C8.2711 9.04638 8.37832 9.1814 8.31875 13.1287C8.31875 13.2042 8.2989 13.2836 8.36244 13.3471C8.45326 13.3816 8.55357 13.3816 8.64439 13.3471C8.64439 13.1724 8.69998 11.3616 8.58879 8.68104C8.59211 8.57465 8.57177 8.46885 8.52922 8.37129C8.44559 8.34473 8.35621 8.34198 8.2711 8.36335ZM8.39023 4.90448L8.22345 4.94816C8.11314 4.97203 8.01145 5.02558 7.92935 5.10303C7.84726 5.18048 7.78788 5.27888 7.75763 5.38761C7.72738 5.49634 7.72741 5.61127 7.75771 5.71999C7.78802 5.82871 7.84745 5.92708 7.92958 6.00449C7.9787 6.06577 8.04095 6.11523 8.11175 6.14921C8.18255 6.1832 8.26008 6.20085 8.33861 6.20085C8.41714 6.20085 8.49467 6.1832 8.56547 6.14921C8.63627 6.11523 8.69852 6.06577 8.74764 6.00449C8.8029 5.96143 8.84654 5.90526 8.8746 5.84107C8.90267 5.77688 8.91427 5.7067 8.90835 5.6369C8.90244 5.56709 8.87919 5.49987 8.84073 5.44131C8.80226 5.38276 8.74979 5.33474 8.68807 5.30159C8.66147 5.28066 8.6286 5.26928 8.59475 5.26928C8.5609 5.26928 8.52803 5.28066 8.50143 5.30159C8.37435 5.3969 8.40612 5.59149 8.56894 5.5756C8.59221 5.57343 8.61568 5.57595 8.63797 5.58301C8.66025 5.59007 8.68089 5.60154 8.69866 5.61672C8.71644 5.6319 8.73098 5.65049 8.74144 5.6714C8.7519 5.6923 8.75806 5.71509 8.75955 5.73842C8.75955 5.91712 8.43392 6.02434 8.21153 5.80196C8.12611 5.71346 8.07454 5.59774 8.06583 5.47505C8.05711 5.35236 8.09182 5.23052 8.16388 5.13083C8.23561 5.05175 8.31115 4.97621 8.39023 4.90448ZM9.06533 7.85901C9.48615 7.81261 9.88464 7.64576 10.213 7.3785C10.4311 7.21837 10.6046 7.00518 10.7172 6.75916C10.8298 6.51313 10.8777 6.24243 10.8563 5.97272C10.8569 5.69658 10.7915 5.4243 10.6657 5.17849C10.6576 5.21901 10.6536 5.26026 10.6538 5.30159C10.7014 5.52331 10.7135 5.75118 10.6895 5.97669C10.6141 7.21172 9.76822 7.51352 9.06533 7.85901Z" fill="black"/>
<path d="M10.4895 2.78372C10.3823 2.78372 10.2989 2.72812 10.3029 2.65267C10.302 2.58782 10.317 2.52374 10.3466 2.46602C10.5116 2.17568 10.7146 1.90859 10.9502 1.6718C11.113 1.49707 11.3751 1.644 11.2003 1.90212L10.6086 2.66458C10.5714 2.70669 10.5316 2.74648 10.4895 2.78372Z" fill="black"/>
<path d="M6.75711 9.46752C6.20115 10.1823 6.19321 10.1942 6.03039 10.2617C5.9979 10.2759 5.9617 10.279 5.92728 10.2707C5.89285 10.2623 5.86208 10.243 5.83963 10.2156C5.81718 10.1882 5.80427 10.1543 5.80286 10.1189C5.80146 10.0835 5.81163 10.0486 5.83183 10.0195C6.56252 9.15777 6.54267 9.19748 6.62606 9.17366C6.66355 9.16348 6.70344 9.16704 6.73853 9.18369C6.77362 9.20035 6.8016 9.229 6.81742 9.26447C6.83324 9.29995 6.83586 9.33991 6.8248 9.37715C6.81374 9.41438 6.78973 9.44643 6.75711 9.46752Z" fill="black"/>
<path d="M4.82718 9.42366C4.78164 9.40654 4.73777 9.38527 4.69613 9.36012C4.68231 9.34713 4.67129 9.33144 4.66376 9.31402C4.65623 9.2966 4.65234 9.27783 4.65234 9.25886C4.65234 9.23988 4.65623 9.22111 4.66376 9.2037C4.67129 9.18628 4.68231 9.17059 4.69613 9.15759C4.73981 9.11391 4.69613 9.12185 5.53007 8.76048C5.58192 8.73806 5.63678 8.72335 5.69289 8.7168C5.83982 8.7168 5.93116 8.93124 5.80408 8.99478C5.51021 9.13774 5.21238 9.27276 4.91454 9.41175C4.88577 9.41793 4.85656 9.42191 4.82718 9.42366Z" fill="black"/>
<path d="M12.4953 3.47507C12.4239 3.66172 12.4596 3.63392 11.7011 4.00323C11.5462 4.07471 11.3794 3.88013 11.5145 3.75305C11.7705 3.58508 12.0401 3.43896 12.3206 3.31623C12.3428 3.314 12.3651 3.31646 12.3863 3.32343C12.4074 3.33041 12.4269 3.34176 12.4433 3.35674C12.4598 3.37172 12.473 3.38999 12.4819 3.41038C12.4909 3.43076 12.4955 3.45281 12.4953 3.47507Z" fill="black"/>
<path d="M12.027 8.81177C11.7968 8.77885 11.5731 8.71053 11.3638 8.60924C11.3328 8.59054 11.3092 8.56183 11.2968 8.52787C11.2844 8.4939 11.2839 8.45672 11.2955 8.42246C11.307 8.3882 11.33 8.35891 11.3604 8.33944C11.3909 8.31997 11.4271 8.31148 11.4631 8.31538C11.6815 8.367 11.8999 8.43054 12.1143 8.49408C12.131 8.50185 12.147 8.51116 12.162 8.52188C12.2732 8.60527 12.2772 8.81177 12.027 8.81177Z" fill="black"/>
<path d="M4.23229 7.89071C4.20014 7.8806 4.17205 7.86053 4.15206 7.83341C4.13207 7.80628 4.12123 7.7735 4.12109 7.73981C4.12109 7.53331 4.29582 7.65244 4.86767 7.39035C4.97886 7.33872 5.11388 7.50948 5.01857 7.62067C4.91861 7.72522 4.79506 7.80429 4.65825 7.85127C4.52145 7.89825 4.37539 7.91178 4.23229 7.89071Z" fill="black"/>
<path d="M12.2773 5.37652C12.2574 5.38148 12.2368 5.38248 12.2166 5.37947C12.1964 5.37647 12.177 5.36951 12.1595 5.359C12.1241 5.33778 12.0986 5.30337 12.0886 5.26335C12.0786 5.22332 12.0849 5.18097 12.1062 5.14559C12.1274 5.11022 12.1618 5.08472 12.2018 5.07472C12.3806 5.01837 12.5664 4.98762 12.7538 4.98338C13.0199 4.95955 13.0437 5.16208 12.9524 5.2415C12.861 5.32093 12.6863 5.34078 12.2773 5.37652Z" fill="black"/>
<path d="M12.7749 7.00103C12.9973 7.00103 12.9814 7.34254 12.6955 7.33857C12.1237 7.33857 12.1515 7.31872 12.1038 7.30283C12.0699 7.29298 12.0404 7.27186 12.0202 7.24297C12 7.21408 11.9902 7.17915 11.9925 7.14395C11.9948 7.10876 12.0091 7.07541 12.0329 7.04942C12.0568 7.02343 12.0888 7.00636 12.1237 7.00103C12.1991 6.99705 12.7114 6.99705 12.7749 7.00103Z" fill="black"/>
<path d="M4.29916 6.09577C4.15223 6.09577 4.08075 6.05209 4.06486 5.98061C4.0589 5.96001 4.05716 5.93841 4.05977 5.91712C4.06238 5.89583 4.06927 5.87529 4.08003 5.85674C4.09079 5.83818 4.1052 5.822 4.12239 5.80916C4.13957 5.79633 4.15918 5.78711 4.18002 5.78205C4.33887 5.72646 4.50169 5.67483 4.6645 5.62718C4.69885 5.61197 4.73764 5.61012 4.77329 5.62199C4.80893 5.63386 4.83886 5.6586 4.85723 5.69137C4.8756 5.72414 4.88109 5.76258 4.87262 5.79918C4.86415 5.83578 4.84234 5.86791 4.81144 5.88928C4.69627 5.9965 4.74393 5.97664 4.29916 6.09577Z" fill="black"/>
<path d="M8.61982 3.59811C7.91159 3.69025 7.26599 4.05144 6.81692 4.60679C6.64232 4.85009 6.54449 5.14005 6.536 5.43939C6.52751 5.73873 6.60874 6.03377 6.76926 6.28658C7.76999 7.77973 9.73968 7.26348 9.79528 5.85373C9.81841 5.62323 9.77688 5.39085 9.67535 5.18264C9.57381 4.97443 9.41629 4.79861 9.22043 4.67491C9.02457 4.55121 8.79813 4.48452 8.56649 4.4823C8.33485 4.48009 8.10717 4.54245 7.90898 4.66238C7.70669 4.75889 7.54508 4.92387 7.45278 5.12811C7.36047 5.33235 7.34342 5.56267 7.40465 5.77827C7.9209 7.36673 9.85087 6.22701 9.11621 5.21834C9.06061 5.14289 8.99708 5.07538 8.93354 5.0039C8.96928 4.9483 9.00105 5.0039 9.02885 5.0039C9.16697 5.10272 9.27695 5.23584 9.34793 5.39013C9.41892 5.54442 9.44845 5.71456 9.43361 5.88374C9.41878 6.05293 9.36009 6.21533 9.26334 6.35491C9.1666 6.4945 9.03513 6.60645 8.88191 6.67972C7.61909 7.32702 5.97106 5.48838 7.54761 4.40029C7.79142 4.23738 8.05948 4.11407 8.34184 4.03494C9.21549 3.78079 10.2798 4.66635 10.3274 5.52809C10.3552 6.17539 10.2956 6.71943 9.70791 7.11655C8.99708 7.59706 7.93678 7.91078 7.19021 7.47395C6.44363 7.03713 5.99886 6.49308 6.08226 5.54795C6.127 5.14468 6.28025 4.7611 6.5257 4.43802C6.77115 4.11495 7.09962 3.86448 7.47613 3.71328C7.82774 3.52717 8.23816 3.48585 8.61982 3.59811Z" fill="#EA0906"/>
<path d="M8.27148 8.36269C8.35586 8.33874 8.44523 8.33874 8.52961 8.36269C8.57215 8.46026 8.5925 8.56606 8.58918 8.67244C8.70434 11.488 8.64874 13.2313 8.64477 13.3385C8.55395 13.373 8.45364 13.373 8.36282 13.3385C8.29928 13.275 8.31914 13.1956 8.31914 13.1201C8.37871 9.18869 8.27148 9.04176 8.27148 8.36269Z" fill="white"/>
<path d="M8.38965 4.9043C8.30996 4.98376 8.23441 5.06727 8.16329 5.15448C8.09123 5.25416 8.05653 5.37601 8.06524 5.4987C8.07395 5.62138 8.12553 5.7371 8.21094 5.8256C8.43333 6.05196 8.75102 5.94077 8.75896 5.76206C8.75747 5.73874 8.75131 5.71595 8.74085 5.69504C8.73039 5.67414 8.71585 5.65554 8.69807 5.64036C8.6803 5.62518 8.65966 5.61372 8.63738 5.60666C8.6151 5.59959 8.59162 5.59707 8.56835 5.59925C8.40553 5.59925 8.37773 5.42055 8.50084 5.32524C8.52744 5.3043 8.56031 5.29292 8.59416 5.29292C8.62801 5.29292 8.66088 5.3043 8.68748 5.32524C8.7476 5.35878 8.79858 5.40655 8.83595 5.46438C8.87331 5.5222 8.89593 5.5883 8.90181 5.6569C8.90769 5.72549 8.89665 5.79448 8.86967 5.85782C8.84269 5.92115 8.80059 5.97691 8.74705 6.02019C8.69837 6.08213 8.63626 6.13221 8.56541 6.16664C8.49455 6.20107 8.4168 6.21897 8.33802 6.21897C8.25924 6.21897 8.18149 6.20107 8.11064 6.16664C8.03978 6.13221 7.97767 6.08213 7.92899 6.02019C7.84686 5.94278 7.78743 5.84441 7.75713 5.73569C7.72682 5.62698 7.72679 5.51205 7.75704 5.40331C7.78729 5.29458 7.84667 5.19618 7.92876 5.11873C8.01086 5.04128 8.11255 4.98773 8.22286 4.96386L8.38965 4.9043Z" fill="#EA0906"/>
<path d="M9.06445 7.858C9.76337 7.51251 10.6132 7.21467 10.6926 5.96773C10.7144 5.74464 10.701 5.51951 10.6529 5.30058C10.6498 5.26491 10.6498 5.22903 10.6529 5.19336C10.7787 5.43917 10.8441 5.71145 10.8435 5.98759C10.8649 6.2573 10.817 6.52801 10.7044 6.77403C10.5918 7.02005 10.4183 7.23324 10.2002 7.39337C9.87335 7.65283 9.47944 7.81398 9.06445 7.858Z" fill="#EA0906"/>
</svg>
