<svg width="16" height="16" viewBox="0 0 16 16" fill="none" xmlns="http://www.w3.org/2000/svg">
<path d="M8 14C11.3137 14 14 11.3137 14 8C14 4.68629 11.3137 2 8 2C4.68629 2 2 4.68629 2 8C2 11.3137 4.68629 14 8 14Z" fill="url(#paint0_radial_2449_83257)"/>
<path d="M11.6673 8.66699C11.6673 8.66699 11.7137 12.667 8.00068 12.667C4.28768 12.667 4.33401 8.66699 4.33401 8.66699C4.33401 8.66699 5.14868 8.66699 8.00068 8.66699C10.8527 8.66699 11.6673 8.66699 11.6673 8.66699Z" fill="url(#paint1_radial_2449_83257)"/>
<path d="M9.99935 8.00033C10.7357 8.00033 11.3327 7.25413 11.3327 6.33366C11.3327 5.41318 10.7357 4.66699 9.99935 4.66699C9.26297 4.66699 8.66602 5.41318 8.66602 6.33366C8.66602 7.25413 9.26297 8.00033 9.99935 8.00033Z" fill="white"/>
<path d="M10.0007 7.33333C10.3688 7.33333 10.6673 7.03486 10.6673 6.66667C10.6673 6.29848 10.3688 6 10.0007 6C9.63246 6 9.33398 6.29848 9.33398 6.66667C9.33398 7.03486 9.63246 7.33333 10.0007 7.33333Z" fill="#212121"/>
<path d="M5.99935 8.00033C6.73573 8.00033 7.33268 7.25413 7.33268 6.33366C7.33268 5.41318 6.73573 4.66699 5.99935 4.66699C5.26297 4.66699 4.66602 5.41318 4.66602 6.33366C4.66602 7.25413 5.26297 8.00033 5.99935 8.00033Z" fill="white"/>
<path d="M6.00065 7.33333C6.36884 7.33333 6.66732 7.03486 6.66732 6.66667C6.66732 6.29848 6.36884 6 6.00065 6C5.63246 6 5.33398 6.29848 5.33398 6.66667C5.33398 7.03486 5.63246 7.33333 6.00065 7.33333Z" fill="#212121"/>
<path d="M11.6673 8.66699C11.6673 10.692 10.0257 12.3337 8.00065 12.3337C5.97565 12.3337 4.33398 10.692 4.33398 8.66699H11.6673Z" fill="url(#paint2_radial_2449_83257)"/>
<path d="M8.33406 11C8.16206 11 8.00072 11.1667 8.00072 11.1667C8.00072 11.1667 7.83939 11 7.66739 11C6.97372 11 6.52539 11.653 6.52539 11.653C6.97072 11.874 7.47106 12 8.00072 12C8.53039 12 9.03072 11.874 9.47606 11.653C9.47606 11.653 9.02772 11 8.33406 11Z" fill="url(#paint3_radial_2449_83257)"/>
<path d="M7.99915 12.6669C6.83781 12.6669 5.78581 12.2075 5.00781 11.4639C5.55015 12.5699 6.68415 13.3335 7.99915 13.3335C9.31415 13.3335 10.4481 12.5699 10.9905 11.4639C10.2125 12.2075 9.16048 12.6669 7.99915 12.6669Z" fill="url(#paint4_radial_2449_83257)"/>
<path d="M5 9V9.33333C5 9.70167 5.29833 10 5.66667 10H10.3333C10.7017 10 11 9.70167 11 9.33333V9H5Z" fill="url(#paint5_linear_2449_83257)"/>
<defs>
<radialGradient id="paint0_radial_2449_83257" cx="0" cy="0" r="1" gradientUnits="userSpaceOnUse" gradientTransform="translate(8 8) scale(6)">
<stop stop-color="#FFE16E"/>
<stop offset="0.629" stop-color="#FFD226"/>
<stop offset="0.75" stop-color="#FDCD23"/>
<stop offset="0.899" stop-color="#F6BD1B"/>
<stop offset="0.999" stop-color="#F0AF13"/>
</radialGradient>
<radialGradient id="paint1_radial_2449_83257" cx="0" cy="0" r="1" gradientUnits="userSpaceOnUse" gradientTransform="translate(8.00068 8.92666) scale(3.72367)">
<stop offset="0.371" stop-color="#FFD226"/>
<stop offset="0.948" stop-color="#FFE16E"/>
<stop offset="1" stop-color="#FFE16E" stop-opacity="0"/>
</radialGradient>
<radialGradient id="paint2_radial_2449_83257" cx="0" cy="0" r="1" gradientUnits="userSpaceOnUse" gradientTransform="translate(8.05065 8.52999) scale(3.95433)">
<stop stop-color="#1C1911"/>
<stop offset="0.999" stop-color="#171714"/>
</radialGradient>
<radialGradient id="paint3_radial_2449_83257" cx="0" cy="0" r="1" gradientUnits="userSpaceOnUse" gradientTransform="translate(8.00078 12.9103) rotate(90) scale(1.97 1.96094)">
<stop offset="0.456" stop-color="#DB4A59"/>
<stop offset="0.602" stop-color="#D84756"/>
<stop offset="0.729" stop-color="#CD3E4D"/>
<stop offset="0.85" stop-color="#BB303E"/>
<stop offset="0.965" stop-color="#A21B29"/>
<stop offset="0.999" stop-color="#991421"/>
</radialGradient>
<radialGradient id="paint4_radial_2449_83257" cx="0" cy="0" r="1" gradientUnits="userSpaceOnUse" gradientTransform="translate(8.03281 9.74253) scale(3.46033 3.46033)">
<stop offset="0.819" stop-color="#CC9000"/>
<stop offset="0.988" stop-color="#FBBC23" stop-opacity="0.069"/>
<stop offset="1" stop-color="#FFBF26" stop-opacity="0"/>
</radialGradient>
<linearGradient id="paint5_linear_2449_83257" x1="5" y1="9.5" x2="11" y2="9.5" gradientUnits="userSpaceOnUse">
<stop offset="0.001" stop-color="#968F72"/>
<stop offset="0.048" stop-color="#B2AD97"/>
<stop offset="0.098" stop-color="#CAC6B7"/>
<stop offset="0.153" stop-color="#DDDBD2"/>
<stop offset="0.213" stop-color="#ECEBE6"/>
<stop offset="0.281" stop-color="#F7F6F4"/>
<stop offset="0.363" stop-color="#FDFDFC"/>
<stop offset="0.5" stop-color="white"/>
<stop offset="0.637" stop-color="#FDFDFC"/>
<stop offset="0.719" stop-color="#F7F6F4"/>
<stop offset="0.787" stop-color="#ECEBE6"/>
<stop offset="0.847" stop-color="#DDDBD2"/>
<stop offset="0.902" stop-color="#CAC6B7"/>
<stop offset="0.952" stop-color="#B2AD97"/>
<stop offset="1" stop-color="#968F72"/>
</linearGradient>
</defs>
</svg>
